<?xml version="1.0" encoding="UTF-8" standalone="no"?><svg xmlns="http://www.w3.org/2000/svg" xmlns:xlink="http://www.w3.org/1999/xlink" contentScriptType="application/ecmascript" contentStyleType="text/css" height="334px" preserveAspectRatio="none" style="width:1143px;height:334px;background:#FFFFFF;" version="1.1" viewBox="0 0 1143 334" width="1143px" zoomAndPan="magnify"><defs><filter height="300%" id="f1ur5axf84xv0b" width="300%" x="-1" y="-1"><feGaussianBlur result="blurOut" stdDeviation="2.0"/><feColorMatrix in="blurOut" result="blurOut2" type="matrix" values="0 0 0 0 0 0 0 0 0 0 0 0 0 0 0 0 0 0 .4 0"/><feOffset dx="4.0" dy="4.0" in="blurOut2" result="blurOut3"/><feBlend in="SourceGraphic" in2="blurOut3" mode="normal"/></filter></defs><g><text fill="#888888" font-family="sans-serif" font-size="10" lengthAdjust="spacing" textLength="236" x="894" y="9.2822">Creator: Edmond Chuc (e.chuc@uq.edu.au)</text><text fill="#000000" font-family="sans-serif" font-size="18" lengthAdjust="spacing" textLength="323" x="403.5" y="28.3486">TERN Location Alignment Ontology</text><!--MD5=[b2738bc8777da75c89c00bcb00a1a9b8]
class tern-loc:Geometry--><a href="https://w3id.org/tern/ontologies/loc/Geometry" target="_top" title="https://w3id.org/tern/ontologies/loc/Geometry" xlink:actuate="onRequest" xlink:href="https://w3id.org/tern/ontologies/loc/Geometry" xlink:show="new" xlink:title="https://w3id.org/tern/ontologies/loc/Geometry" xlink:type="simple"><rect codeLine="22" fill="#FEFECE" filter="url(#f1ur5axf84xv0b)" height="48" id="tern-loc:Geometry" style="stroke:#A80036;stroke-width:1.5;" width="143" x="537.5" y="147.5938"/><ellipse cx="552.5" cy="163.5938" fill="#ADD1B2" rx="11" ry="11" style="stroke:#A80036;stroke-width:1.0;"/><path d="M554.8438,159.2656 C553.9063,158.8281 553.3125,158.6875 552.4375,158.6875 C549.8125,158.6875 547.8125,160.7656 547.8125,163.4844 L547.8125,164.6094 C547.8125,167.1875 549.9219,169.0781 552.8125,169.0781 C554.0313,169.0781 555.1875,168.7813 555.9375,168.2344 C556.5156,167.8281 556.8438,167.375 556.8438,166.9844 C556.8438,166.5313 556.4531,166.1406 555.9844,166.1406 C555.7656,166.1406 555.5625,166.2188 555.375,166.4063 C554.9219,166.8906 554.9219,166.8906 554.7344,166.9844 C554.3125,167.25 553.625,167.375 552.8594,167.375 C550.8125,167.375 549.5156,166.2813 549.5156,164.5781 L549.5156,163.4844 C549.5156,161.7031 550.7656,160.3906 552.5,160.3906 C553.0781,160.3906 553.6875,160.5469 554.1563,160.7969 C554.6406,161.0781 554.8125,161.2969 554.9063,161.7031 C554.9688,162.1094 555,162.2344 555.1406,162.3594 C555.2813,162.5 555.5156,162.6094 555.7344,162.6094 C556,162.6094 556.2656,162.4688 556.4375,162.25 C556.5469,162.0938 556.5781,161.9063 556.5781,161.4844 L556.5781,160.0625 C556.5781,159.625 556.5625,159.5 556.4688,159.3438 C556.3125,159.0781 556.0313,158.9375 555.7344,158.9375 C555.4375,158.9375 555.2344,159.0313 555.0156,159.3438 L554.8438,159.2656 Z " fill="#000000"/><text fill="#000000" font-family="sans-serif" font-size="12" lengthAdjust="spacing" textLength="111" x="566.5" y="167.748">tern-loc:Geometry</text><line style="stroke:#A80036;stroke-width:1.5;" x1="538.5" x2="679.5" y1="179.5938" y2="179.5938"/><line style="stroke:#A80036;stroke-width:1.5;" x1="538.5" x2="679.5" y1="187.5938" y2="187.5938"/></a><!--MD5=[8769ba710cd4c62aec428e033c91e43d]
class tern-loc:LineString--><a href="https://w3id.org/tern/ontologies/loc/LineString" target="_top" title="https://w3id.org/tern/ontologies/loc/LineString" xlink:actuate="onRequest" xlink:href="https://w3id.org/tern/ontologies/loc/LineString" xlink:show="new" xlink:title="https://w3id.org/tern/ontologies/loc/LineString" xlink:type="simple"><rect codeLine="14" fill="#FEFECE" filter="url(#f1ur5axf84xv0b)" height="48" id="tern-loc:LineString" style="stroke:#A80036;stroke-width:1.5;" width="142" x="110" y="255.5938"/><ellipse cx="125" cy="271.5938" fill="#ADD1B2" rx="11" ry="11" style="stroke:#A80036;stroke-width:1.0;"/><path d="M127.3438,267.2656 C126.4063,266.8281 125.8125,266.6875 124.9375,266.6875 C122.3125,266.6875 120.3125,268.7656 120.3125,271.4844 L120.3125,272.6094 C120.3125,275.1875 122.4219,277.0781 125.3125,277.0781 C126.5313,277.0781 127.6875,276.7813 128.4375,276.2344 C129.0156,275.8281 129.3438,275.375 129.3438,274.9844 C129.3438,274.5313 128.9531,274.1406 128.4844,274.1406 C128.2656,274.1406 128.0625,274.2188 127.875,274.4063 C127.4219,274.8906 127.4219,274.8906 127.2344,274.9844 C126.8125,275.25 126.125,275.375 125.3594,275.375 C123.3125,275.375 122.0156,274.2813 122.0156,272.5781 L122.0156,271.4844 C122.0156,269.7031 123.2656,268.3906 125,268.3906 C125.5781,268.3906 126.1875,268.5469 126.6563,268.7969 C127.1406,269.0781 127.3125,269.2969 127.4063,269.7031 C127.4688,270.1094 127.5,270.2344 127.6406,270.3594 C127.7813,270.5 128.0156,270.6094 128.2344,270.6094 C128.5,270.6094 128.7656,270.4688 128.9375,270.25 C129.0469,270.0938 129.0781,269.9063 129.0781,269.4844 L129.0781,268.0625 C129.0781,267.625 129.0625,267.5 128.9688,267.3438 C128.8125,267.0781 128.5313,266.9375 128.2344,266.9375 C127.9375,266.9375 127.7344,267.0313 127.5156,267.3438 L127.3438,267.2656 Z " fill="#000000"/><text fill="#000000" font-family="sans-serif" font-size="12" lengthAdjust="spacing" textLength="110" x="139" y="275.748">tern-loc:LineString</text><line style="stroke:#A80036;stroke-width:1.5;" x1="111" x2="251" y1="287.5938" y2="287.5938"/><line style="stroke:#A80036;stroke-width:1.5;" x1="111" x2="251" y1="295.5938" y2="295.5938"/></a><!--MD5=[f6be3c52ce9b6300cb295795c7aca351]
class sf:LineString--><rect fill="#FEFECE" filter="url(#f1ur5axf84xv0b)" height="48" id="sf:LineString" style="stroke:#A80036;stroke-width:1.5;" width="106" x="7" y="147.5938"/><ellipse cx="22" cy="163.5938" fill="#ADD1B2" rx="11" ry="11" style="stroke:#A80036;stroke-width:1.0;"/><path d="M24.3438,159.2656 C23.4063,158.8281 22.8125,158.6875 21.9375,158.6875 C19.3125,158.6875 17.3125,160.7656 17.3125,163.4844 L17.3125,164.6094 C17.3125,167.1875 19.4219,169.0781 22.3125,169.0781 C23.5313,169.0781 24.6875,168.7813 25.4375,168.2344 C26.0156,167.8281 26.3438,167.375 26.3438,166.9844 C26.3438,166.5313 25.9531,166.1406 25.4844,166.1406 C25.2656,166.1406 25.0625,166.2188 24.875,166.4063 C24.4219,166.8906 24.4219,166.8906 24.2344,166.9844 C23.8125,167.25 23.125,167.375 22.3594,167.375 C20.3125,167.375 19.0156,166.2813 19.0156,164.5781 L19.0156,163.4844 C19.0156,161.7031 20.2656,160.3906 22,160.3906 C22.5781,160.3906 23.1875,160.5469 23.6563,160.7969 C24.1406,161.0781 24.3125,161.2969 24.4063,161.7031 C24.4688,162.1094 24.5,162.2344 24.6406,162.3594 C24.7813,162.5 25.0156,162.6094 25.2344,162.6094 C25.5,162.6094 25.7656,162.4688 25.9375,162.25 C26.0469,162.0938 26.0781,161.9063 26.0781,161.4844 L26.0781,160.0625 C26.0781,159.625 26.0625,159.5 25.9688,159.3438 C25.8125,159.0781 25.5313,158.9375 25.2344,158.9375 C24.9375,158.9375 24.7344,159.0313 24.5156,159.3438 L24.3438,159.2656 Z " fill="#000000"/><text fill="#000000" font-family="sans-serif" font-size="12" lengthAdjust="spacing" textLength="74" x="36" y="167.748">sf:LineString</text><line style="stroke:#A80036;stroke-width:1.5;" x1="8" x2="112" y1="179.5938" y2="179.5938"/><line style="stroke:#A80036;stroke-width:1.5;" x1="8" x2="112" y1="187.5938" y2="187.5938"/><!--MD5=[4b4dc00f06a8a0ae0f42cf5f98def9ae]
class geo:Point--><rect fill="#FEFECE" filter="url(#f1ur5axf84xv0b)" height="48" id="geo:Point" style="stroke:#A80036;stroke-width:1.5;" width="88" x="148" y="147.5938"/><ellipse cx="163" cy="163.5938" fill="#ADD1B2" rx="11" ry="11" style="stroke:#A80036;stroke-width:1.0;"/><path d="M165.3438,159.2656 C164.4063,158.8281 163.8125,158.6875 162.9375,158.6875 C160.3125,158.6875 158.3125,160.7656 158.3125,163.4844 L158.3125,164.6094 C158.3125,167.1875 160.4219,169.0781 163.3125,169.0781 C164.5313,169.0781 165.6875,168.7813 166.4375,168.2344 C167.0156,167.8281 167.3438,167.375 167.3438,166.9844 C167.3438,166.5313 166.9531,166.1406 166.4844,166.1406 C166.2656,166.1406 166.0625,166.2188 165.875,166.4063 C165.4219,166.8906 165.4219,166.8906 165.2344,166.9844 C164.8125,167.25 164.125,167.375 163.3594,167.375 C161.3125,167.375 160.0156,166.2813 160.0156,164.5781 L160.0156,163.4844 C160.0156,161.7031 161.2656,160.3906 163,160.3906 C163.5781,160.3906 164.1875,160.5469 164.6563,160.7969 C165.1406,161.0781 165.3125,161.2969 165.4063,161.7031 C165.4688,162.1094 165.5,162.2344 165.6406,162.3594 C165.7813,162.5 166.0156,162.6094 166.2344,162.6094 C166.5,162.6094 166.7656,162.4688 166.9375,162.25 C167.0469,162.0938 167.0781,161.9063 167.0781,161.4844 L167.0781,160.0625 C167.0781,159.625 167.0625,159.5 166.9688,159.3438 C166.8125,159.0781 166.5313,158.9375 166.2344,158.9375 C165.9375,158.9375 165.7344,159.0313 165.5156,159.3438 L165.3438,159.2656 Z " fill="#000000"/><text fill="#000000" font-family="sans-serif" font-size="12" lengthAdjust="spacing" textLength="56" x="177" y="167.748">geo:Point</text><line style="stroke:#A80036;stroke-width:1.5;" x1="149" x2="235" y1="179.5938" y2="179.5938"/><line style="stroke:#A80036;stroke-width:1.5;" x1="149" x2="235" y1="187.5938" y2="187.5938"/><!--MD5=[b67d05c86b32bf3c0f7bf9b2b1a33612]
class tern-loc:Point--><a href="https://w3id.org/tern/ontologies/loc/Point" target="_top" title="https://w3id.org/tern/ontologies/loc/Point" xlink:actuate="onRequest" xlink:href="https://w3id.org/tern/ontologies/loc/Point" xlink:show="new" xlink:title="https://w3id.org/tern/ontologies/loc/Point" xlink:type="simple"><rect codeLine="16" fill="#FEFECE" filter="url(#f1ur5axf84xv0b)" height="48" id="tern-loc:Point" style="stroke:#A80036;stroke-width:1.5;" width="111" x="342.5" y="255.5938"/><ellipse cx="357.5" cy="271.5938" fill="#ADD1B2" rx="11" ry="11" style="stroke:#A80036;stroke-width:1.0;"/><path d="M359.8438,267.2656 C358.9063,266.8281 358.3125,266.6875 357.4375,266.6875 C354.8125,266.6875 352.8125,268.7656 352.8125,271.4844 L352.8125,272.6094 C352.8125,275.1875 354.9219,277.0781 357.8125,277.0781 C359.0313,277.0781 360.1875,276.7813 360.9375,276.2344 C361.5156,275.8281 361.8438,275.375 361.8438,274.9844 C361.8438,274.5313 361.4531,274.1406 360.9844,274.1406 C360.7656,274.1406 360.5625,274.2188 360.375,274.4063 C359.9219,274.8906 359.9219,274.8906 359.7344,274.9844 C359.3125,275.25 358.625,275.375 357.8594,275.375 C355.8125,275.375 354.5156,274.2813 354.5156,272.5781 L354.5156,271.4844 C354.5156,269.7031 355.7656,268.3906 357.5,268.3906 C358.0781,268.3906 358.6875,268.5469 359.1563,268.7969 C359.6406,269.0781 359.8125,269.2969 359.9063,269.7031 C359.9688,270.1094 360,270.2344 360.1406,270.3594 C360.2813,270.5 360.5156,270.6094 360.7344,270.6094 C361,270.6094 361.2656,270.4688 361.4375,270.25 C361.5469,270.0938 361.5781,269.9063 361.5781,269.4844 L361.5781,268.0625 C361.5781,267.625 361.5625,267.5 361.4688,267.3438 C361.3125,267.0781 361.0313,266.9375 360.7344,266.9375 C360.4375,266.9375 360.2344,267.0313 360.0156,267.3438 L359.8438,267.2656 Z " fill="#000000"/><text fill="#000000" font-family="sans-serif" font-size="12" lengthAdjust="spacing" textLength="79" x="371.5" y="275.748">tern-loc:Point</text><line style="stroke:#A80036;stroke-width:1.5;" x1="343.5" x2="452.5" y1="287.5938" y2="287.5938"/><line style="stroke:#A80036;stroke-width:1.5;" x1="343.5" x2="452.5" y1="295.5938" y2="295.5938"/></a><!--MD5=[cd48ee8575308cff07b85b42a6074af1]
class locn:Geometry--><rect fill="#FEFECE" filter="url(#f1ur5axf84xv0b)" height="48" id="locn:Geometry" style="stroke:#A80036;stroke-width:1.5;" width="121" x="271.5" y="147.5938"/><ellipse cx="286.5" cy="163.5938" fill="#ADD1B2" rx="11" ry="11" style="stroke:#A80036;stroke-width:1.0;"/><path d="M288.8438,159.2656 C287.9063,158.8281 287.3125,158.6875 286.4375,158.6875 C283.8125,158.6875 281.8125,160.7656 281.8125,163.4844 L281.8125,164.6094 C281.8125,167.1875 283.9219,169.0781 286.8125,169.0781 C288.0313,169.0781 289.1875,168.7813 289.9375,168.2344 C290.5156,167.8281 290.8438,167.375 290.8438,166.9844 C290.8438,166.5313 290.4531,166.1406 289.9844,166.1406 C289.7656,166.1406 289.5625,166.2188 289.375,166.4063 C288.9219,166.8906 288.9219,166.8906 288.7344,166.9844 C288.3125,167.25 287.625,167.375 286.8594,167.375 C284.8125,167.375 283.5156,166.2813 283.5156,164.5781 L283.5156,163.4844 C283.5156,161.7031 284.7656,160.3906 286.5,160.3906 C287.0781,160.3906 287.6875,160.5469 288.1563,160.7969 C288.6406,161.0781 288.8125,161.2969 288.9063,161.7031 C288.9688,162.1094 289,162.2344 289.1406,162.3594 C289.2813,162.5 289.5156,162.6094 289.7344,162.6094 C290,162.6094 290.2656,162.4688 290.4375,162.25 C290.5469,162.0938 290.5781,161.9063 290.5781,161.4844 L290.5781,160.0625 C290.5781,159.625 290.5625,159.5 290.4688,159.3438 C290.3125,159.0781 290.0313,158.9375 289.7344,158.9375 C289.4375,158.9375 289.2344,159.0313 289.0156,159.3438 L288.8438,159.2656 Z " fill="#000000"/><text fill="#000000" font-family="sans-serif" font-size="12" lengthAdjust="spacing" textLength="89" x="300.5" y="167.748">locn:Geometry</text><line style="stroke:#A80036;stroke-width:1.5;" x1="272.5" x2="391.5" y1="179.5938" y2="179.5938"/><line style="stroke:#A80036;stroke-width:1.5;" x1="272.5" x2="391.5" y1="187.5938" y2="187.5938"/><!--MD5=[06a0b58d9040550ef5280287aedb19f7]
class sf:Point--><rect fill="#FEFECE" filter="url(#f1ur5axf84xv0b)" height="48" id="sf:Point" style="stroke:#A80036;stroke-width:1.5;" width="75" x="427.5" y="147.5938"/><ellipse cx="442.5" cy="163.5938" fill="#ADD1B2" rx="11" ry="11" style="stroke:#A80036;stroke-width:1.0;"/><path d="M444.8438,159.2656 C443.9063,158.8281 443.3125,158.6875 442.4375,158.6875 C439.8125,158.6875 437.8125,160.7656 437.8125,163.4844 L437.8125,164.6094 C437.8125,167.1875 439.9219,169.0781 442.8125,169.0781 C444.0313,169.0781 445.1875,168.7813 445.9375,168.2344 C446.5156,167.8281 446.8438,167.375 446.8438,166.9844 C446.8438,166.5313 446.4531,166.1406 445.9844,166.1406 C445.7656,166.1406 445.5625,166.2188 445.375,166.4063 C444.9219,166.8906 444.9219,166.8906 444.7344,166.9844 C444.3125,167.25 443.625,167.375 442.8594,167.375 C440.8125,167.375 439.5156,166.2813 439.5156,164.5781 L439.5156,163.4844 C439.5156,161.7031 440.7656,160.3906 442.5,160.3906 C443.0781,160.3906 443.6875,160.5469 444.1563,160.7969 C444.6406,161.0781 444.8125,161.2969 444.9063,161.7031 C444.9688,162.1094 445,162.2344 445.1406,162.3594 C445.2813,162.5 445.5156,162.6094 445.7344,162.6094 C446,162.6094 446.2656,162.4688 446.4375,162.25 C446.5469,162.0938 446.5781,161.9063 446.5781,161.4844 L446.5781,160.0625 C446.5781,159.625 446.5625,159.5 446.4688,159.3438 C446.3125,159.0781 446.0313,158.9375 445.7344,158.9375 C445.4375,158.9375 445.2344,159.0313 445.0156,159.3438 L444.8438,159.2656 Z " fill="#000000"/><text fill="#000000" font-family="sans-serif" font-size="12" lengthAdjust="spacing" textLength="43" x="456.5" y="167.748">sf:Point</text><line style="stroke:#A80036;stroke-width:1.5;" x1="428.5" x2="501.5" y1="179.5938" y2="179.5938"/><line style="stroke:#A80036;stroke-width:1.5;" x1="428.5" x2="501.5" y1="187.5938" y2="187.5938"/><!--MD5=[9655ad61792b4ed0d4f91a9adcbf26fa]
class dct:Location--><rect fill="#FEFECE" filter="url(#f1ur5axf84xv0b)" height="48" id="dct:Location" style="stroke:#A80036;stroke-width:1.5;" width="105" x="715.5" y="147.5938"/><ellipse cx="730.5" cy="163.5938" fill="#ADD1B2" rx="11" ry="11" style="stroke:#A80036;stroke-width:1.0;"/><path d="M732.8438,159.2656 C731.9063,158.8281 731.3125,158.6875 730.4375,158.6875 C727.8125,158.6875 725.8125,160.7656 725.8125,163.4844 L725.8125,164.6094 C725.8125,167.1875 727.9219,169.0781 730.8125,169.0781 C732.0313,169.0781 733.1875,168.7813 733.9375,168.2344 C734.5156,167.8281 734.8438,167.375 734.8438,166.9844 C734.8438,166.5313 734.4531,166.1406 733.9844,166.1406 C733.7656,166.1406 733.5625,166.2188 733.375,166.4063 C732.9219,166.8906 732.9219,166.8906 732.7344,166.9844 C732.3125,167.25 731.625,167.375 730.8594,167.375 C728.8125,167.375 727.5156,166.2813 727.5156,164.5781 L727.5156,163.4844 C727.5156,161.7031 728.7656,160.3906 730.5,160.3906 C731.0781,160.3906 731.6875,160.5469 732.1563,160.7969 C732.6406,161.0781 732.8125,161.2969 732.9063,161.7031 C732.9688,162.1094 733,162.2344 733.1406,162.3594 C733.2813,162.5 733.5156,162.6094 733.7344,162.6094 C734,162.6094 734.2656,162.4688 734.4375,162.25 C734.5469,162.0938 734.5781,161.9063 734.5781,161.4844 L734.5781,160.0625 C734.5781,159.625 734.5625,159.5 734.4688,159.3438 C734.3125,159.0781 734.0313,158.9375 733.7344,158.9375 C733.4375,158.9375 733.2344,159.0313 733.0156,159.3438 L732.8438,159.2656 Z " fill="#000000"/><text fill="#000000" font-family="sans-serif" font-size="12" lengthAdjust="spacing" textLength="73" x="744.5" y="167.748">dct:Location</text><line style="stroke:#A80036;stroke-width:1.5;" x1="716.5" x2="819.5" y1="179.5938" y2="179.5938"/><line style="stroke:#A80036;stroke-width:1.5;" x1="716.5" x2="819.5" y1="187.5938" y2="187.5938"/><!--MD5=[7ecc5781a96ada1a225cc3afb1eb8f46]
class tern-loc:Location--><a href="https://w3id.org/tern/ontologies/loc/Location" target="_top" title="https://w3id.org/tern/ontologies/loc/Location" xlink:actuate="onRequest" xlink:href="https://w3id.org/tern/ontologies/loc/Location" xlink:show="new" xlink:title="https://w3id.org/tern/ontologies/loc/Location" xlink:type="simple"><rect codeLine="18" fill="#FEFECE" filter="url(#f1ur5axf84xv0b)" height="48" id="tern-loc:Location" style="stroke:#A80036;stroke-width:1.5;" width="133" x="701.5" y="255.5938"/><ellipse cx="716.5" cy="271.5938" fill="#ADD1B2" rx="11" ry="11" style="stroke:#A80036;stroke-width:1.0;"/><path d="M718.8438,267.2656 C717.9063,266.8281 717.3125,266.6875 716.4375,266.6875 C713.8125,266.6875 711.8125,268.7656 711.8125,271.4844 L711.8125,272.6094 C711.8125,275.1875 713.9219,277.0781 716.8125,277.0781 C718.0313,277.0781 719.1875,276.7813 719.9375,276.2344 C720.5156,275.8281 720.8438,275.375 720.8438,274.9844 C720.8438,274.5313 720.4531,274.1406 719.9844,274.1406 C719.7656,274.1406 719.5625,274.2188 719.375,274.4063 C718.9219,274.8906 718.9219,274.8906 718.7344,274.9844 C718.3125,275.25 717.625,275.375 716.8594,275.375 C714.8125,275.375 713.5156,274.2813 713.5156,272.5781 L713.5156,271.4844 C713.5156,269.7031 714.7656,268.3906 716.5,268.3906 C717.0781,268.3906 717.6875,268.5469 718.1563,268.7969 C718.6406,269.0781 718.8125,269.2969 718.9063,269.7031 C718.9688,270.1094 719,270.2344 719.1406,270.3594 C719.2813,270.5 719.5156,270.6094 719.7344,270.6094 C720,270.6094 720.2656,270.4688 720.4375,270.25 C720.5469,270.0938 720.5781,269.9063 720.5781,269.4844 L720.5781,268.0625 C720.5781,267.625 720.5625,267.5 720.4688,267.3438 C720.3125,267.0781 720.0313,266.9375 719.7344,266.9375 C719.4375,266.9375 719.2344,267.0313 719.0156,267.3438 L718.8438,267.2656 Z " fill="#000000"/><text fill="#000000" font-family="sans-serif" font-size="12" lengthAdjust="spacing" textLength="101" x="730.5" y="275.748">tern-loc:Location</text><line style="stroke:#A80036;stroke-width:1.5;" x1="702.5" x2="833.5" y1="287.5938" y2="287.5938"/><line style="stroke:#A80036;stroke-width:1.5;" x1="702.5" x2="833.5" y1="295.5938" y2="295.5938"/></a><!--MD5=[4b0e6ae39ede3f8987ca028c00a13af1]
class geosparql:Feature--><rect fill="#FEFECE" filter="url(#f1ur5axf84xv0b)" height="48" id="geosparql:Feature" style="stroke:#A80036;stroke-width:1.5;" width="144" x="856" y="147.5938"/><ellipse cx="871" cy="163.5938" fill="#ADD1B2" rx="11" ry="11" style="stroke:#A80036;stroke-width:1.0;"/><path d="M873.3438,159.2656 C872.4063,158.8281 871.8125,158.6875 870.9375,158.6875 C868.3125,158.6875 866.3125,160.7656 866.3125,163.4844 L866.3125,164.6094 C866.3125,167.1875 868.4219,169.0781 871.3125,169.0781 C872.5313,169.0781 873.6875,168.7813 874.4375,168.2344 C875.0156,167.8281 875.3438,167.375 875.3438,166.9844 C875.3438,166.5313 874.9531,166.1406 874.4844,166.1406 C874.2656,166.1406 874.0625,166.2188 873.875,166.4063 C873.4219,166.8906 873.4219,166.8906 873.2344,166.9844 C872.8125,167.25 872.125,167.375 871.3594,167.375 C869.3125,167.375 868.0156,166.2813 868.0156,164.5781 L868.0156,163.4844 C868.0156,161.7031 869.2656,160.3906 871,160.3906 C871.5781,160.3906 872.1875,160.5469 872.6563,160.7969 C873.1406,161.0781 873.3125,161.2969 873.4063,161.7031 C873.4688,162.1094 873.5,162.2344 873.6406,162.3594 C873.7813,162.5 874.0156,162.6094 874.2344,162.6094 C874.5,162.6094 874.7656,162.4688 874.9375,162.25 C875.0469,162.0938 875.0781,161.9063 875.0781,161.4844 L875.0781,160.0625 C875.0781,159.625 875.0625,159.5 874.9688,159.3438 C874.8125,159.0781 874.5313,158.9375 874.2344,158.9375 C873.9375,158.9375 873.7344,159.0313 873.5156,159.3438 L873.3438,159.2656 Z " fill="#000000"/><text fill="#000000" font-family="sans-serif" font-size="12" lengthAdjust="spacing" textLength="112" x="885" y="167.748">geosparql:Feature</text><line style="stroke:#A80036;stroke-width:1.5;" x1="857" x2="999" y1="179.5938" y2="179.5938"/><line style="stroke:#A80036;stroke-width:1.5;" x1="857" x2="999" y1="187.5938" y2="187.5938"/><!--MD5=[681450c180318ac92d4d4448ad41864e]
class sf:Polygon--><rect fill="#FEFECE" filter="url(#f1ur5axf84xv0b)" height="48" id="sf:Polygon" style="stroke:#A80036;stroke-width:1.5;" width="94" x="1035" y="147.5938"/><ellipse cx="1050" cy="163.5938" fill="#ADD1B2" rx="11" ry="11" style="stroke:#A80036;stroke-width:1.0;"/><path d="M1052.3438,159.2656 C1051.4063,158.8281 1050.8125,158.6875 1049.9375,158.6875 C1047.3125,158.6875 1045.3125,160.7656 1045.3125,163.4844 L1045.3125,164.6094 C1045.3125,167.1875 1047.4219,169.0781 1050.3125,169.0781 C1051.5313,169.0781 1052.6875,168.7813 1053.4375,168.2344 C1054.0156,167.8281 1054.3438,167.375 1054.3438,166.9844 C1054.3438,166.5313 1053.9531,166.1406 1053.4844,166.1406 C1053.2656,166.1406 1053.0625,166.2188 1052.875,166.4063 C1052.4219,166.8906 1052.4219,166.8906 1052.2344,166.9844 C1051.8125,167.25 1051.125,167.375 1050.3594,167.375 C1048.3125,167.375 1047.0156,166.2813 1047.0156,164.5781 L1047.0156,163.4844 C1047.0156,161.7031 1048.2656,160.3906 1050,160.3906 C1050.5781,160.3906 1051.1875,160.5469 1051.6563,160.7969 C1052.1406,161.0781 1052.3125,161.2969 1052.4063,161.7031 C1052.4688,162.1094 1052.5,162.2344 1052.6406,162.3594 C1052.7813,162.5 1053.0156,162.6094 1053.2344,162.6094 C1053.5,162.6094 1053.7656,162.4688 1053.9375,162.25 C1054.0469,162.0938 1054.0781,161.9063 1054.0781,161.4844 L1054.0781,160.0625 C1054.0781,159.625 1054.0625,159.5 1053.9688,159.3438 C1053.8125,159.0781 1053.5313,158.9375 1053.2344,158.9375 C1052.9375,158.9375 1052.7344,159.0313 1052.5156,159.3438 L1052.3438,159.2656 Z " fill="#000000"/><text fill="#000000" font-family="sans-serif" font-size="12" lengthAdjust="spacing" textLength="62" x="1064" y="167.748">sf:Polygon</text><line style="stroke:#A80036;stroke-width:1.5;" x1="1036" x2="1128" y1="179.5938" y2="179.5938"/><line style="stroke:#A80036;stroke-width:1.5;" x1="1036" x2="1128" y1="187.5938" y2="187.5938"/><!--MD5=[0169b4c160c1d1627128d322d53ed76e]
class tern-loc:Polygon--><a href="https://w3id.org/tern/ontologies/loc/Polygon" target="_top" title="https://w3id.org/tern/ontologies/loc/Polygon" xlink:actuate="onRequest" xlink:href="https://w3id.org/tern/ontologies/loc/Polygon" xlink:show="new" xlink:title="https://w3id.org/tern/ontologies/loc/Polygon" xlink:type="simple"><rect codeLine="20" fill="#FEFECE" filter="url(#f1ur5axf84xv0b)" height="48" id="tern-loc:Polygon" style="stroke:#A80036;stroke-width:1.5;" width="130" x="943" y="255.5938"/><ellipse cx="958" cy="271.5938" fill="#ADD1B2" rx="11" ry="11" style="stroke:#A80036;stroke-width:1.0;"/><path d="M960.3438,267.2656 C959.4063,266.8281 958.8125,266.6875 957.9375,266.6875 C955.3125,266.6875 953.3125,268.7656 953.3125,271.4844 L953.3125,272.6094 C953.3125,275.1875 955.4219,277.0781 958.3125,277.0781 C959.5313,277.0781 960.6875,276.7813 961.4375,276.2344 C962.0156,275.8281 962.3438,275.375 962.3438,274.9844 C962.3438,274.5313 961.9531,274.1406 961.4844,274.1406 C961.2656,274.1406 961.0625,274.2188 960.875,274.4063 C960.4219,274.8906 960.4219,274.8906 960.2344,274.9844 C959.8125,275.25 959.125,275.375 958.3594,275.375 C956.3125,275.375 955.0156,274.2813 955.0156,272.5781 L955.0156,271.4844 C955.0156,269.7031 956.2656,268.3906 958,268.3906 C958.5781,268.3906 959.1875,268.5469 959.6563,268.7969 C960.1406,269.0781 960.3125,269.2969 960.4063,269.7031 C960.4688,270.1094 960.5,270.2344 960.6406,270.3594 C960.7813,270.5 961.0156,270.6094 961.2344,270.6094 C961.5,270.6094 961.7656,270.4688 961.9375,270.25 C962.0469,270.0938 962.0781,269.9063 962.0781,269.4844 L962.0781,268.0625 C962.0781,267.625 962.0625,267.5 961.9688,267.3438 C961.8125,267.0781 961.5313,266.9375 961.2344,266.9375 C960.9375,266.9375 960.7344,267.0313 960.5156,267.3438 L960.3438,267.2656 Z " fill="#000000"/><text fill="#000000" font-family="sans-serif" font-size="12" lengthAdjust="spacing" textLength="98" x="972" y="275.748">tern-loc:Polygon</text><line style="stroke:#A80036;stroke-width:1.5;" x1="944" x2="1072" y1="287.5938" y2="287.5938"/><line style="stroke:#A80036;stroke-width:1.5;" x1="944" x2="1072" y1="295.5938" y2="295.5938"/></a><!--MD5=[4d0ebc4f9f40275605d7c32eb13fc43e]
class geosparql:Geometry--><rect fill="#FEFECE" filter="url(#f1ur5axf84xv0b)" height="48" id="geosparql:Geometry" style="stroke:#A80036;stroke-width:1.5;" width="158" x="530" y="39.5938"/><ellipse cx="545" cy="55.5938" fill="#ADD1B2" rx="11" ry="11" style="stroke:#A80036;stroke-width:1.0;"/><path d="M547.3438,51.2656 C546.4063,50.8281 545.8125,50.6875 544.9375,50.6875 C542.3125,50.6875 540.3125,52.7656 540.3125,55.4844 L540.3125,56.6094 C540.3125,59.1875 542.4219,61.0781 545.3125,61.0781 C546.5313,61.0781 547.6875,60.7813 548.4375,60.2344 C549.0156,59.8281 549.3438,59.375 549.3438,58.9844 C549.3438,58.5313 548.9531,58.1406 548.4844,58.1406 C548.2656,58.1406 548.0625,58.2188 547.875,58.4063 C547.4219,58.8906 547.4219,58.8906 547.2344,58.9844 C546.8125,59.25 546.125,59.375 545.3594,59.375 C543.3125,59.375 542.0156,58.2813 542.0156,56.5781 L542.0156,55.4844 C542.0156,53.7031 543.2656,52.3906 545,52.3906 C545.5781,52.3906 546.1875,52.5469 546.6563,52.7969 C547.1406,53.0781 547.3125,53.2969 547.4063,53.7031 C547.4688,54.1094 547.5,54.2344 547.6406,54.3594 C547.7813,54.5 548.0156,54.6094 548.2344,54.6094 C548.5,54.6094 548.7656,54.4688 548.9375,54.25 C549.0469,54.0938 549.0781,53.9063 549.0781,53.4844 L549.0781,52.0625 C549.0781,51.625 549.0625,51.5 548.9688,51.3438 C548.8125,51.0781 548.5313,50.9375 548.2344,50.9375 C547.9375,50.9375 547.7344,51.0313 547.5156,51.3438 L547.3438,51.2656 Z " fill="#000000"/><text fill="#000000" font-family="sans-serif" font-size="12" lengthAdjust="spacing" textLength="126" x="559" y="59.748">geosparql:Geometry</text><line style="stroke:#A80036;stroke-width:1.5;" x1="531" x2="687" y1="71.5938" y2="71.5938"/><line style="stroke:#A80036;stroke-width:1.5;" x1="531" x2="687" y1="79.5938" y2="79.5938"/><!--MD5=[b4ed3e2f5a360fd98a8cc7fc26762d11]
class tern-loc:ub1bL61C25--><a href="ub1bL61C25" target="_top" title="ub1bL61C25" xlink:actuate="onRequest" xlink:href="ub1bL61C25" xlink:show="new" xlink:title="ub1bL61C25" xlink:type="simple"><rect codeLine="24" fill="#FEFECE" filter="url(#f1ur5axf84xv0b)" height="48" id="tern-loc:ub1bL61C25" style="stroke:#A80036;stroke-width:1.5;" width="158" x="723" y="39.5938"/><ellipse cx="738" cy="55.5938" fill="#ADD1B2" rx="11" ry="11" style="stroke:#A80036;stroke-width:1.0;"/><path d="M740.3438,51.2656 C739.4063,50.8281 738.8125,50.6875 737.9375,50.6875 C735.3125,50.6875 733.3125,52.7656 733.3125,55.4844 L733.3125,56.6094 C733.3125,59.1875 735.4219,61.0781 738.3125,61.0781 C739.5313,61.0781 740.6875,60.7813 741.4375,60.2344 C742.0156,59.8281 742.3438,59.375 742.3438,58.9844 C742.3438,58.5313 741.9531,58.1406 741.4844,58.1406 C741.2656,58.1406 741.0625,58.2188 740.875,58.4063 C740.4219,58.8906 740.4219,58.8906 740.2344,58.9844 C739.8125,59.25 739.125,59.375 738.3594,59.375 C736.3125,59.375 735.0156,58.2813 735.0156,56.5781 L735.0156,55.4844 C735.0156,53.7031 736.2656,52.3906 738,52.3906 C738.5781,52.3906 739.1875,52.5469 739.6563,52.7969 C740.1406,53.0781 740.3125,53.2969 740.4063,53.7031 C740.4688,54.1094 740.5,54.2344 740.6406,54.3594 C740.7813,54.5 741.0156,54.6094 741.2344,54.6094 C741.5,54.6094 741.7656,54.4688 741.9375,54.25 C742.0469,54.0938 742.0781,53.9063 742.0781,53.4844 L742.0781,52.0625 C742.0781,51.625 742.0625,51.5 741.9688,51.3438 C741.8125,51.0781 741.5313,50.9375 741.2344,50.9375 C740.9375,50.9375 740.7344,51.0313 740.5156,51.3438 L740.3438,51.2656 Z " fill="#000000"/><text fill="#000000" font-family="sans-serif" font-size="12" lengthAdjust="spacing" textLength="126" x="752" y="59.748">tern-loc:ub1bL61C25</text><line style="stroke:#A80036;stroke-width:1.5;" x1="724" x2="880" y1="71.5938" y2="71.5938"/><line style="stroke:#A80036;stroke-width:1.5;" x1="724" x2="880" y1="79.5938" y2="79.5938"/></a><!--MD5=[fcc78106e29e4005be3b320fa7d2fd43]
reverse link tern-loc:Geometry to tern-loc:LineString--><path codeLine="2" d="M517.592,196.1638 C415.01,221.9088 316.716,245.8369 252.164,261.45 " fill="none" id="tern-loc:Geometry-backto-tern-loc:LineString" style="stroke:#A80036;stroke-width:1.0;"/><polygon fill="none" points="516.026,189.3397,537.129,191.2507,519.44,202.9167,516.026,189.3397" style="stroke:#A80036;stroke-width:1.0;"/><!--MD5=[718676226f92dcfe37e256519b7a4772]
reverse link sf:LineString to tern-loc:LineString--><path codeLine="3" d="M101.4805,208.9321 C118.995,224.2751 138.876,241.6918 154.378,255.2722 " fill="none" id="sf:LineString-backto-tern-loc:LineString" style="stroke:#A80036;stroke-width:1.0;"/><polygon fill="none" points="96.6864,214.0385,86.2552,195.5938,105.9117,203.5078,96.6864,214.0385" style="stroke:#A80036;stroke-width:1.0;"/><!--MD5=[8c2aa92d6514d17a4ce697438d39211d]
reverse link geo:Point to tern-loc:Point--><path codeLine="4" d="M254.137,204.5671 C286.037,220.9816 324.178,240.6075 353.17,255.526 " fill="none" id="geo:Point-backto-tern-loc:Point" style="stroke:#A80036;stroke-width:1.0;"/><polygon fill="none" points="250.773,210.7087,236.192,195.3338,257.179,198.2598,250.773,210.7087" style="stroke:#A80036;stroke-width:1.0;"/><!--MD5=[d68c5b1816c22edfe60892291c0b4b30]
reverse link locn:Geometry to tern-loc:Point--><path codeLine="5" d="M356.989,212.7278 C365.933,227.093 375.714,242.8004 383.479,255.2722 " fill="none" id="locn:Geometry-backto-tern-loc:Point" style="stroke:#A80036;stroke-width:1.0;"/><polygon fill="none" points="350.95,216.272,346.321,195.5938,362.835,208.8722,350.95,216.272" style="stroke:#A80036;stroke-width:1.0;"/><!--MD5=[1fe29bb9528bc75ab86db3cc7113e506]
reverse link tern-loc:Geometry to tern-loc:Point--><path codeLine="6" d="M544.901,204.7951 C512.371,221.1371 473.6,240.6148 444.058,255.4554 " fill="none" id="tern-loc:Geometry-backto-tern-loc:Point" style="stroke:#A80036;stroke-width:1.0;"/><polygon fill="none" points="542.202,198.3178,563.216,195.5938,548.487,210.8275,542.202,198.3178" style="stroke:#A80036;stroke-width:1.0;"/><!--MD5=[29f7f1c9da998e3e1cb0828a9900b6c8]
reverse link sf:Point to tern-loc:Point--><path codeLine="7" d="M439.632,212.7278 C430.552,227.093 420.624,242.8004 412.741,255.2722 " fill="none" id="sf:Point-backto-tern-loc:Point" style="stroke:#A80036;stroke-width:1.0;"/><polygon fill="none" points="433.859,208.7602,450.462,195.5938,445.693,216.2403,433.859,208.7602" style="stroke:#A80036;stroke-width:1.0;"/><!--MD5=[afd1637b322d36e23c8bf8e52a24b922]
reverse link dct:Location to tern-loc:Location--><path codeLine="8" d="M768,215.6174 C768,229.173 768,243.6319 768,255.2722 " fill="none" id="dct:Location-backto-tern-loc:Location" style="stroke:#A80036;stroke-width:1.0;"/><polygon fill="none" points="761,215.5943,768,195.5938,775,215.5942,761,215.5943" style="stroke:#A80036;stroke-width:1.0;"/><!--MD5=[cb697e3f2f1d434039e405e37dec9cd3]
reverse link tern-loc:Geometry to tern-loc:Location--><path codeLine="9" d="M660.419,206.873 C684.26,222.7672 711.968,241.2389 733.293,255.4554 " fill="none" id="tern-loc:Geometry-backto-tern-loc:Location" style="stroke:#A80036;stroke-width:1.0;"/><polygon fill="none" points="656.259,212.5126,643.501,195.5938,664.025,200.8637,656.259,212.5126" style="stroke:#A80036;stroke-width:1.0;"/><!--MD5=[da62121c43f2d8e03a68865ec0fa3196]
reverse link geosparql:Feature to tern-loc:Location--><path codeLine="10" d="M876.609,206.6406 C852.539,222.5869 824.489,241.1696 802.926,255.4554 " fill="none" id="geosparql:Feature-backto-tern-loc:Location" style="stroke:#A80036;stroke-width:1.0;"/><polygon fill="none" points="872.743,200.8048,893.282,195.5938,880.475,212.4757,872.743,200.8048" style="stroke:#A80036;stroke-width:1.0;"/><!--MD5=[51a7cfd66038ce77a5a433efcd013f3a]
reverse link sf:Polygon to tern-loc:Polygon--><path codeLine="11" d="M1054.32,212.2495 C1044.2,226.7436 1033.08,242.6619 1024.28,255.2722 " fill="none" id="sf:Polygon-backto-tern-loc:Polygon" style="stroke:#A80036;stroke-width:1.0;"/><polygon fill="none" points="1048.75,207.9864,1065.94,195.5938,1060.23,216.0004,1048.75,207.9864" style="stroke:#A80036;stroke-width:1.0;"/><!--MD5=[48cfe14eb14fc664ad428c7cfab7c319]
reverse link tern-loc:Geometry to tern-loc:Polygon--><path codeLine="12" d="M700.379,196.8698 C774.371,216.527 876.795,243.7374 942.731,261.2541 " fill="none" id="tern-loc:Geometry-backto-tern-loc:Polygon" style="stroke:#A80036;stroke-width:1.0;"/><polygon fill="none" points="698.326,203.5678,680.794,191.6667,701.921,190.0367,698.326,203.5678" style="stroke:#A80036;stroke-width:1.0;"/><!--MD5=[84bd103bc7748a4fba45aa221bd58cda]
reverse link geosparql:Geometry to tern-loc:Geometry--><path codeLine="13" d="M609,107.6178 C609,121.1728 609,135.6318 609,147.2718 " fill="none" id="geosparql:Geometry-backto-tern-loc:Geometry" style="stroke:#A80036;stroke-width:1.0;"/><polygon fill="none" points="602,107.5938,609,87.5938,616,107.5938,602,107.5938" style="stroke:#A80036;stroke-width:1.0;"/><text fill="#888888" font-family="sans-serif" font-size="10" lengthAdjust="spacing" textLength="74" x="411.5" y="325.876">Generated by</text><a href="https://github.com/edmondchuc/ontogram" target="_top" title="https://github.com/edmondchuc/ontogram" xlink:actuate="onRequest" xlink:href="https://github.com/edmondchuc/ontogram" xlink:show="new" xlink:title="https://github.com/edmondchuc/ontogram" xlink:type="simple"><text fill="#0000FF" font-family="sans-serif" font-size="10" lengthAdjust="spacing" text-decoration="underline" textLength="230" x="488.5" y="325.876">https://github.com/edmondchuc/ontogram</text></a><!--MD5=[d56fedefac09f4cb91e3fd09b74708c2]
@startuml
title TERN Location Alignment Ontology
"tern-loc:Geometry" <|- - "tern-loc:LineString"
"sf:LineString" <|- - "tern-loc:LineString"
"geo:Point" <|- - "tern-loc:Point"
"locn:Geometry" <|- - "tern-loc:Point"
"tern-loc:Geometry" <|- - "tern-loc:Point"
"sf:Point" <|- - "tern-loc:Point"
"dct:Location" <|- - "tern-loc:Location"
"tern-loc:Geometry" <|- - "tern-loc:Location"
"geosparql:Feature" <|- - "tern-loc:Location"
"sf:Polygon" <|- - "tern-loc:Polygon"
"tern-loc:Geometry" <|- - "tern-loc:Polygon"
"geosparql:Geometry" <|- - "tern-loc:Geometry"
Class "tern-loc:LineString" [[https://w3id.org/tern/ontologies/loc/LineString]] {
}
Class "tern-loc:Point" [[https://w3id.org/tern/ontologies/loc/Point]] {
}
Class "tern-loc:Location" [[https://w3id.org/tern/ontologies/loc/Location]] {
}
Class "tern-loc:Polygon" [[https://w3id.org/tern/ontologies/loc/Polygon]] {
}
Class "tern-loc:Geometry" [[https://w3id.org/tern/ontologies/loc/Geometry]] {
}
Class "tern-loc:ub1bL61C25" [[ub1bL61C25]] {
}
header
Creator: Edmond Chuc (e.chuc@uq.edu.au) 
endheader
center footer Generated by [[https://github.com/edmondchuc/ontogram https://github.com/edmondchuc/ontogram]]
@enduml

PlantUML version 1.2021.9beta2(Unknown compile time)
(GPL source distribution)
Java Runtime: Java(TM) SE Runtime Environment
JVM: Java HotSpot(TM) 64-Bit Server VM
Default Encoding: UTF-8
Language: en
Country: US
--></g></svg>