<?xml version="1.0" encoding="UTF-8" standalone="no"?><svg xmlns="http://www.w3.org/2000/svg" xmlns:xlink="http://www.w3.org/1999/xlink" contentScriptType="application/ecmascript" contentStyleType="text/css" height="229px" preserveAspectRatio="none" style="width:715px;height:229px;" version="1.1" viewBox="0 0 715 229" width="715px" zoomAndPan="magnify"><defs><filter height="300%" id="f1lji0oa57yedq" width="300%" x="-1" y="-1"><feGaussianBlur result="blurOut" stdDeviation="2.0"/><feColorMatrix in="blurOut" result="blurOut2" type="matrix" values="0 0 0 0 0 0 0 0 0 0 0 0 0 0 0 0 0 0 .4 0"/><feOffset dx="4.0" dy="4.0" in="blurOut2" result="blurOut3"/><feBlend in="SourceGraphic" in2="blurOut3" mode="normal"/></filter></defs><g><text fill="#888888" font-family="sans-serif" font-size="10" lengthAdjust="spacingAndGlyphs" textLength="236" x="467" y="9.2822">Creator: Edmond Chuc (e.chuc@uq.edu.au)</text><text fill="#000000" font-family="sans-serif" font-size="18" lengthAdjust="spacingAndGlyphs" textLength="323" x="190" y="28.3486">TERN Location Alignment Ontology</text><!--MD5=[f6be3c52ce9b6300cb295795c7aca351]
class sf:LineString--><rect fill="#FEFECE" filter="url(#f1lji0oa57yedq)" height="48" id="sf:LineString" style="stroke: #A80036; stroke-width: 1.5;" width="106" x="24" y="40.5938"/><ellipse cx="39" cy="56.5938" fill="#ADD1B2" rx="11" ry="11" style="stroke: #A80036; stroke-width: 1.0;"/><path d="M41.3438,52.2656 C40.4063,51.8281 39.8125,51.6875 38.9375,51.6875 C36.3125,51.6875 34.3125,53.7656 34.3125,56.4844 L34.3125,57.6094 C34.3125,60.1875 36.4219,62.0781 39.3125,62.0781 C40.5313,62.0781 41.6875,61.7813 42.4375,61.2344 C43.0156,60.8281 43.3438,60.375 43.3438,59.9844 C43.3438,59.5313 42.9531,59.1406 42.4844,59.1406 C42.2656,59.1406 42.0625,59.2188 41.875,59.4063 C41.4219,59.8906 41.4219,59.8906 41.2344,59.9844 C40.8125,60.25 40.125,60.375 39.3594,60.375 C37.3125,60.375 36.0156,59.2813 36.0156,57.5781 L36.0156,56.4844 C36.0156,54.7031 37.2656,53.3906 39,53.3906 C39.5781,53.3906 40.1875,53.5469 40.6563,53.7969 C41.1406,54.0781 41.3125,54.2969 41.4063,54.7031 C41.4688,55.1094 41.5,55.2344 41.6406,55.3594 C41.7813,55.5 42.0156,55.6094 42.2344,55.6094 C42.5,55.6094 42.7656,55.4688 42.9375,55.25 C43.0469,55.0938 43.0781,54.9063 43.0781,54.4844 L43.0781,53.0625 C43.0781,52.625 43.0625,52.5 42.9688,52.3438 C42.8125,52.0781 42.5313,51.9375 42.2344,51.9375 C41.9375,51.9375 41.7344,52.0313 41.5156,52.3438 L41.3438,52.2656 Z "/><text fill="#000000" font-family="sans-serif" font-size="12" lengthAdjust="spacingAndGlyphs" textLength="74" x="53" y="60.748">sf:LineString</text><line style="stroke: #A80036; stroke-width: 1.5;" x1="25" x2="129" y1="72.5938" y2="72.5938"/><line style="stroke: #A80036; stroke-width: 1.5;" x1="25" x2="129" y1="80.5938" y2="80.5938"/><!--MD5=[8769ba710cd4c62aec428e033c91e43d]
class tern-loc:LineString--><a href="https://w3id.org/tern/ontologies/loc/LineString" target="_top" title="https://w3id.org/tern/ontologies/loc/LineString" xlink:actuate="onRequest" xlink:href="https://w3id.org/tern/ontologies/loc/LineString" xlink:show="new" xlink:title="https://w3id.org/tern/ontologies/loc/LineString" xlink:type="simple"><rect fill="#FEFECE" filter="url(#f1lji0oa57yedq)" height="48" id="tern-loc:LineString" style="stroke: #A80036; stroke-width: 1.5;" width="142" x="6" y="148.5938"/><ellipse cx="21" cy="164.5938" fill="#ADD1B2" rx="11" ry="11" style="stroke: #A80036; stroke-width: 1.0;"/><path d="M23.3438,160.2656 C22.4063,159.8281 21.8125,159.6875 20.9375,159.6875 C18.3125,159.6875 16.3125,161.7656 16.3125,164.4844 L16.3125,165.6094 C16.3125,168.1875 18.4219,170.0781 21.3125,170.0781 C22.5313,170.0781 23.6875,169.7813 24.4375,169.2344 C25.0156,168.8281 25.3438,168.375 25.3438,167.9844 C25.3438,167.5313 24.9531,167.1406 24.4844,167.1406 C24.2656,167.1406 24.0625,167.2188 23.875,167.4063 C23.4219,167.8906 23.4219,167.8906 23.2344,167.9844 C22.8125,168.25 22.125,168.375 21.3594,168.375 C19.3125,168.375 18.0156,167.2813 18.0156,165.5781 L18.0156,164.4844 C18.0156,162.7031 19.2656,161.3906 21,161.3906 C21.5781,161.3906 22.1875,161.5469 22.6563,161.7969 C23.1406,162.0781 23.3125,162.2969 23.4063,162.7031 C23.4688,163.1094 23.5,163.2344 23.6406,163.3594 C23.7813,163.5 24.0156,163.6094 24.2344,163.6094 C24.5,163.6094 24.7656,163.4688 24.9375,163.25 C25.0469,163.0938 25.0781,162.9063 25.0781,162.4844 L25.0781,161.0625 C25.0781,160.625 25.0625,160.5 24.9688,160.3438 C24.8125,160.0781 24.5313,159.9375 24.2344,159.9375 C23.9375,159.9375 23.7344,160.0313 23.5156,160.3438 L23.3438,160.2656 Z "/><text fill="#000000" font-family="sans-serif" font-size="12" lengthAdjust="spacingAndGlyphs" textLength="110" x="35" y="168.748">tern-loc:LineString</text><line style="stroke: #A80036; stroke-width: 1.5;" x1="7" x2="147" y1="180.5938" y2="180.5938"/><line style="stroke: #A80036; stroke-width: 1.5;" x1="7" x2="147" y1="188.5938" y2="188.5938"/></a><!--MD5=[681450c180318ac92d4d4448ad41864e]
class sf:Polygon--><rect fill="#FEFECE" filter="url(#f1lji0oa57yedq)" height="48" id="sf:Polygon" style="stroke: #A80036; stroke-width: 1.5;" width="94" x="201" y="40.5938"/><ellipse cx="216" cy="56.5938" fill="#ADD1B2" rx="11" ry="11" style="stroke: #A80036; stroke-width: 1.0;"/><path d="M218.3438,52.2656 C217.4063,51.8281 216.8125,51.6875 215.9375,51.6875 C213.3125,51.6875 211.3125,53.7656 211.3125,56.4844 L211.3125,57.6094 C211.3125,60.1875 213.4219,62.0781 216.3125,62.0781 C217.5313,62.0781 218.6875,61.7813 219.4375,61.2344 C220.0156,60.8281 220.3438,60.375 220.3438,59.9844 C220.3438,59.5313 219.9531,59.1406 219.4844,59.1406 C219.2656,59.1406 219.0625,59.2188 218.875,59.4063 C218.4219,59.8906 218.4219,59.8906 218.2344,59.9844 C217.8125,60.25 217.125,60.375 216.3594,60.375 C214.3125,60.375 213.0156,59.2813 213.0156,57.5781 L213.0156,56.4844 C213.0156,54.7031 214.2656,53.3906 216,53.3906 C216.5781,53.3906 217.1875,53.5469 217.6563,53.7969 C218.1406,54.0781 218.3125,54.2969 218.4063,54.7031 C218.4688,55.1094 218.5,55.2344 218.6406,55.3594 C218.7813,55.5 219.0156,55.6094 219.2344,55.6094 C219.5,55.6094 219.7656,55.4688 219.9375,55.25 C220.0469,55.0938 220.0781,54.9063 220.0781,54.4844 L220.0781,53.0625 C220.0781,52.625 220.0625,52.5 219.9688,52.3438 C219.8125,52.0781 219.5313,51.9375 219.2344,51.9375 C218.9375,51.9375 218.7344,52.0313 218.5156,52.3438 L218.3438,52.2656 Z "/><text fill="#000000" font-family="sans-serif" font-size="12" lengthAdjust="spacingAndGlyphs" textLength="62" x="230" y="60.748">sf:Polygon</text><line style="stroke: #A80036; stroke-width: 1.5;" x1="202" x2="294" y1="72.5938" y2="72.5938"/><line style="stroke: #A80036; stroke-width: 1.5;" x1="202" x2="294" y1="80.5938" y2="80.5938"/><!--MD5=[0169b4c160c1d1627128d322d53ed76e]
class tern-loc:Polygon--><a href="https://w3id.org/tern/ontologies/loc/Polygon" target="_top" title="https://w3id.org/tern/ontologies/loc/Polygon" xlink:actuate="onRequest" xlink:href="https://w3id.org/tern/ontologies/loc/Polygon" xlink:show="new" xlink:title="https://w3id.org/tern/ontologies/loc/Polygon" xlink:type="simple"><rect fill="#FEFECE" filter="url(#f1lji0oa57yedq)" height="48" id="tern-loc:Polygon" style="stroke: #A80036; stroke-width: 1.5;" width="130" x="183" y="148.5938"/><ellipse cx="198" cy="164.5938" fill="#ADD1B2" rx="11" ry="11" style="stroke: #A80036; stroke-width: 1.0;"/><path d="M200.3438,160.2656 C199.4063,159.8281 198.8125,159.6875 197.9375,159.6875 C195.3125,159.6875 193.3125,161.7656 193.3125,164.4844 L193.3125,165.6094 C193.3125,168.1875 195.4219,170.0781 198.3125,170.0781 C199.5313,170.0781 200.6875,169.7813 201.4375,169.2344 C202.0156,168.8281 202.3438,168.375 202.3438,167.9844 C202.3438,167.5313 201.9531,167.1406 201.4844,167.1406 C201.2656,167.1406 201.0625,167.2188 200.875,167.4063 C200.4219,167.8906 200.4219,167.8906 200.2344,167.9844 C199.8125,168.25 199.125,168.375 198.3594,168.375 C196.3125,168.375 195.0156,167.2813 195.0156,165.5781 L195.0156,164.4844 C195.0156,162.7031 196.2656,161.3906 198,161.3906 C198.5781,161.3906 199.1875,161.5469 199.6563,161.7969 C200.1406,162.0781 200.3125,162.2969 200.4063,162.7031 C200.4688,163.1094 200.5,163.2344 200.6406,163.3594 C200.7813,163.5 201.0156,163.6094 201.2344,163.6094 C201.5,163.6094 201.7656,163.4688 201.9375,163.25 C202.0469,163.0938 202.0781,162.9063 202.0781,162.4844 L202.0781,161.0625 C202.0781,160.625 202.0625,160.5 201.9688,160.3438 C201.8125,160.0781 201.5313,159.9375 201.2344,159.9375 C200.9375,159.9375 200.7344,160.0313 200.5156,160.3438 L200.3438,160.2656 Z "/><text fill="#000000" font-family="sans-serif" font-size="12" lengthAdjust="spacingAndGlyphs" textLength="98" x="212" y="168.748">tern-loc:Polygon</text><line style="stroke: #A80036; stroke-width: 1.5;" x1="184" x2="312" y1="180.5938" y2="180.5938"/><line style="stroke: #A80036; stroke-width: 1.5;" x1="184" x2="312" y1="188.5938" y2="188.5938"/></a><!--MD5=[06a0b58d9040550ef5280287aedb19f7]
class sf:Point--><rect fill="#FEFECE" filter="url(#f1lji0oa57yedq)" height="48" id="sf:Point" style="stroke: #A80036; stroke-width: 1.5;" width="75" x="330.5" y="40.5938"/><ellipse cx="345.5" cy="56.5938" fill="#ADD1B2" rx="11" ry="11" style="stroke: #A80036; stroke-width: 1.0;"/><path d="M347.8438,52.2656 C346.9063,51.8281 346.3125,51.6875 345.4375,51.6875 C342.8125,51.6875 340.8125,53.7656 340.8125,56.4844 L340.8125,57.6094 C340.8125,60.1875 342.9219,62.0781 345.8125,62.0781 C347.0313,62.0781 348.1875,61.7813 348.9375,61.2344 C349.5156,60.8281 349.8438,60.375 349.8438,59.9844 C349.8438,59.5313 349.4531,59.1406 348.9844,59.1406 C348.7656,59.1406 348.5625,59.2188 348.375,59.4063 C347.9219,59.8906 347.9219,59.8906 347.7344,59.9844 C347.3125,60.25 346.625,60.375 345.8594,60.375 C343.8125,60.375 342.5156,59.2813 342.5156,57.5781 L342.5156,56.4844 C342.5156,54.7031 343.7656,53.3906 345.5,53.3906 C346.0781,53.3906 346.6875,53.5469 347.1563,53.7969 C347.6406,54.0781 347.8125,54.2969 347.9063,54.7031 C347.9688,55.1094 348,55.2344 348.1406,55.3594 C348.2813,55.5 348.5156,55.6094 348.7344,55.6094 C349,55.6094 349.2656,55.4688 349.4375,55.25 C349.5469,55.0938 349.5781,54.9063 349.5781,54.4844 L349.5781,53.0625 C349.5781,52.625 349.5625,52.5 349.4688,52.3438 C349.3125,52.0781 349.0313,51.9375 348.7344,51.9375 C348.4375,51.9375 348.2344,52.0313 348.0156,52.3438 L347.8438,52.2656 Z "/><text fill="#000000" font-family="sans-serif" font-size="12" lengthAdjust="spacingAndGlyphs" textLength="43" x="359.5" y="60.748">sf:Point</text><line style="stroke: #A80036; stroke-width: 1.5;" x1="331.5" x2="404.5" y1="72.5938" y2="72.5938"/><line style="stroke: #A80036; stroke-width: 1.5;" x1="331.5" x2="404.5" y1="80.5938" y2="80.5938"/><!--MD5=[b67d05c86b32bf3c0f7bf9b2b1a33612]
class tern-loc:Point--><a href="https://w3id.org/tern/ontologies/loc/Point" target="_top" title="https://w3id.org/tern/ontologies/loc/Point" xlink:actuate="onRequest" xlink:href="https://w3id.org/tern/ontologies/loc/Point" xlink:show="new" xlink:title="https://w3id.org/tern/ontologies/loc/Point" xlink:type="simple"><rect fill="#FEFECE" filter="url(#f1lji0oa57yedq)" height="48" id="tern-loc:Point" style="stroke: #A80036; stroke-width: 1.5;" width="111" x="445.5" y="148.5938"/><ellipse cx="460.5" cy="164.5938" fill="#ADD1B2" rx="11" ry="11" style="stroke: #A80036; stroke-width: 1.0;"/><path d="M462.8438,160.2656 C461.9063,159.8281 461.3125,159.6875 460.4375,159.6875 C457.8125,159.6875 455.8125,161.7656 455.8125,164.4844 L455.8125,165.6094 C455.8125,168.1875 457.9219,170.0781 460.8125,170.0781 C462.0313,170.0781 463.1875,169.7813 463.9375,169.2344 C464.5156,168.8281 464.8438,168.375 464.8438,167.9844 C464.8438,167.5313 464.4531,167.1406 463.9844,167.1406 C463.7656,167.1406 463.5625,167.2188 463.375,167.4063 C462.9219,167.8906 462.9219,167.8906 462.7344,167.9844 C462.3125,168.25 461.625,168.375 460.8594,168.375 C458.8125,168.375 457.5156,167.2813 457.5156,165.5781 L457.5156,164.4844 C457.5156,162.7031 458.7656,161.3906 460.5,161.3906 C461.0781,161.3906 461.6875,161.5469 462.1563,161.7969 C462.6406,162.0781 462.8125,162.2969 462.9063,162.7031 C462.9688,163.1094 463,163.2344 463.1406,163.3594 C463.2813,163.5 463.5156,163.6094 463.7344,163.6094 C464,163.6094 464.2656,163.4688 464.4375,163.25 C464.5469,163.0938 464.5781,162.9063 464.5781,162.4844 L464.5781,161.0625 C464.5781,160.625 464.5625,160.5 464.4688,160.3438 C464.3125,160.0781 464.0313,159.9375 463.7344,159.9375 C463.4375,159.9375 463.2344,160.0313 463.0156,160.3438 L462.8438,160.2656 Z "/><text fill="#000000" font-family="sans-serif" font-size="12" lengthAdjust="spacingAndGlyphs" textLength="79" x="474.5" y="168.748">tern-loc:Point</text><line style="stroke: #A80036; stroke-width: 1.5;" x1="446.5" x2="555.5" y1="180.5938" y2="180.5938"/><line style="stroke: #A80036; stroke-width: 1.5;" x1="446.5" x2="555.5" y1="188.5938" y2="188.5938"/></a><!--MD5=[cd48ee8575308cff07b85b42a6074af1]
class locn:Geometry--><rect fill="#FEFECE" filter="url(#f1lji0oa57yedq)" height="48" id="locn:Geometry" style="stroke: #A80036; stroke-width: 1.5;" width="121" x="440.5" y="40.5938"/><ellipse cx="455.5" cy="56.5938" fill="#ADD1B2" rx="11" ry="11" style="stroke: #A80036; stroke-width: 1.0;"/><path d="M457.8438,52.2656 C456.9063,51.8281 456.3125,51.6875 455.4375,51.6875 C452.8125,51.6875 450.8125,53.7656 450.8125,56.4844 L450.8125,57.6094 C450.8125,60.1875 452.9219,62.0781 455.8125,62.0781 C457.0313,62.0781 458.1875,61.7813 458.9375,61.2344 C459.5156,60.8281 459.8438,60.375 459.8438,59.9844 C459.8438,59.5313 459.4531,59.1406 458.9844,59.1406 C458.7656,59.1406 458.5625,59.2188 458.375,59.4063 C457.9219,59.8906 457.9219,59.8906 457.7344,59.9844 C457.3125,60.25 456.625,60.375 455.8594,60.375 C453.8125,60.375 452.5156,59.2813 452.5156,57.5781 L452.5156,56.4844 C452.5156,54.7031 453.7656,53.3906 455.5,53.3906 C456.0781,53.3906 456.6875,53.5469 457.1563,53.7969 C457.6406,54.0781 457.8125,54.2969 457.9063,54.7031 C457.9688,55.1094 458,55.2344 458.1406,55.3594 C458.2813,55.5 458.5156,55.6094 458.7344,55.6094 C459,55.6094 459.2656,55.4688 459.4375,55.25 C459.5469,55.0938 459.5781,54.9063 459.5781,54.4844 L459.5781,53.0625 C459.5781,52.625 459.5625,52.5 459.4688,52.3438 C459.3125,52.0781 459.0313,51.9375 458.7344,51.9375 C458.4375,51.9375 458.2344,52.0313 458.0156,52.3438 L457.8438,52.2656 Z "/><text fill="#000000" font-family="sans-serif" font-size="12" lengthAdjust="spacingAndGlyphs" textLength="89" x="469.5" y="60.748">locn:Geometry</text><line style="stroke: #A80036; stroke-width: 1.5;" x1="441.5" x2="560.5" y1="72.5938" y2="72.5938"/><line style="stroke: #A80036; stroke-width: 1.5;" x1="441.5" x2="560.5" y1="80.5938" y2="80.5938"/><!--MD5=[4b4dc00f06a8a0ae0f42cf5f98def9ae]
class geo:Point--><rect fill="#FEFECE" filter="url(#f1lji0oa57yedq)" height="48" id="geo:Point" style="stroke: #A80036; stroke-width: 1.5;" width="88" x="597" y="40.5938"/><ellipse cx="612" cy="56.5938" fill="#ADD1B2" rx="11" ry="11" style="stroke: #A80036; stroke-width: 1.0;"/><path d="M614.3438,52.2656 C613.4063,51.8281 612.8125,51.6875 611.9375,51.6875 C609.3125,51.6875 607.3125,53.7656 607.3125,56.4844 L607.3125,57.6094 C607.3125,60.1875 609.4219,62.0781 612.3125,62.0781 C613.5313,62.0781 614.6875,61.7813 615.4375,61.2344 C616.0156,60.8281 616.3438,60.375 616.3438,59.9844 C616.3438,59.5313 615.9531,59.1406 615.4844,59.1406 C615.2656,59.1406 615.0625,59.2188 614.875,59.4063 C614.4219,59.8906 614.4219,59.8906 614.2344,59.9844 C613.8125,60.25 613.125,60.375 612.3594,60.375 C610.3125,60.375 609.0156,59.2813 609.0156,57.5781 L609.0156,56.4844 C609.0156,54.7031 610.2656,53.3906 612,53.3906 C612.5781,53.3906 613.1875,53.5469 613.6563,53.7969 C614.1406,54.0781 614.3125,54.2969 614.4063,54.7031 C614.4688,55.1094 614.5,55.2344 614.6406,55.3594 C614.7813,55.5 615.0156,55.6094 615.2344,55.6094 C615.5,55.6094 615.7656,55.4688 615.9375,55.25 C616.0469,55.0938 616.0781,54.9063 616.0781,54.4844 L616.0781,53.0625 C616.0781,52.625 616.0625,52.5 615.9688,52.3438 C615.8125,52.0781 615.5313,51.9375 615.2344,51.9375 C614.9375,51.9375 614.7344,52.0313 614.5156,52.3438 L614.3438,52.2656 Z "/><text fill="#000000" font-family="sans-serif" font-size="12" lengthAdjust="spacingAndGlyphs" textLength="56" x="626" y="60.748">geo:Point</text><line style="stroke: #A80036; stroke-width: 1.5;" x1="598" x2="684" y1="72.5938" y2="72.5938"/><line style="stroke: #A80036; stroke-width: 1.5;" x1="598" x2="684" y1="80.5938" y2="80.5938"/><!--MD5=[718676226f92dcfe37e256519b7a4772]
reverse link sf:LineString to tern-loc:LineString--><path d="M77,108.6174 C77,122.173 77,136.6319 77,148.2722 " fill="none" id="sf:LineString&lt;-tern-loc:LineString" style="stroke: #A80036; stroke-width: 1.0;"/><polygon fill="none" points="70.0001,108.5943,77,88.5938,84.0001,108.5942,70.0001,108.5943" style="stroke: #A80036; stroke-width: 1.0;"/><!--MD5=[51a7cfd66038ce77a5a433efcd013f3a]
reverse link sf:Polygon to tern-loc:Polygon--><path d="M248,108.6174 C248,122.173 248,136.6319 248,148.2722 " fill="none" id="sf:Polygon&lt;-tern-loc:Polygon" style="stroke: #A80036; stroke-width: 1.0;"/><polygon fill="none" points="241,108.5943,248,88.5938,255,108.5942,241,108.5943" style="stroke: #A80036; stroke-width: 1.0;"/><!--MD5=[29f7f1c9da998e3e1cb0828a9900b6c8]
reverse link sf:Point to tern-loc:Point--><path d="M412.712,101.2291 C432.175,116.741 454.438,134.484 471.738,148.2722 " fill="none" id="sf:Point&lt;-tern-loc:Point" style="stroke: #A80036; stroke-width: 1.0;"/><polygon fill="none" points="408.137,106.5336,396.859,88.5938,416.862,95.5858,408.137,106.5336" style="stroke: #A80036; stroke-width: 1.0;"/><!--MD5=[d68c5b1816c22edfe60892291c0b4b30]
reverse link locn:Geometry to tern-loc:Point--><path d="M501,108.6174 C501,122.173 501,136.6319 501,148.2722 " fill="none" id="locn:Geometry&lt;-tern-loc:Point" style="stroke: #A80036; stroke-width: 1.0;"/><polygon fill="none" points="494,108.5943,501,88.5938,508,108.5942,494,108.5943" style="stroke: #A80036; stroke-width: 1.0;"/><!--MD5=[8c2aa92d6514d17a4ce697438d39211d]
reverse link geo:Point to tern-loc:Point--><path d="M594.551,100.762 C573.919,116.3839 550.196,134.3454 531.802,148.2722 " fill="none" id="geo:Point&lt;-tern-loc:Point" style="stroke: #A80036; stroke-width: 1.0;"/><polygon fill="none" points="590.451,95.0858,610.622,88.5938,598.902,106.2478,590.451,95.0858" style="stroke: #A80036; stroke-width: 1.0;"/><text fill="#888888" font-family="sans-serif" font-size="10" lengthAdjust="spacingAndGlyphs" textLength="74" x="198" y="215.876">Generated by</text><a href="https://github.com/edmondchuc/ontogram" target="_top" title="https://github.com/edmondchuc/ontogram" xlink:actuate="onRequest" xlink:href="https://github.com/edmondchuc/ontogram" xlink:show="new" xlink:title="https://github.com/edmondchuc/ontogram" xlink:type="simple"><text fill="#0000FF" font-family="sans-serif" font-size="10" lengthAdjust="spacingAndGlyphs" text-decoration="underline" textLength="230" x="275" y="215.876">https://github.com/edmondchuc/ontogram</text></a><!--MD5=[e5b4e787c1c8c2b35d4eff75d6b08df5]
@startuml
title TERN Location Alignment Ontology
"sf:LineString" <|- - "tern-loc:LineString"
"sf:Polygon" <|- - "tern-loc:Polygon"
"sf:Point" <|- - "tern-loc:Point"
"locn:Geometry" <|- - "tern-loc:Point"
"geo:Point" <|- - "tern-loc:Point"
Class "tern-loc:LineString" [[https://w3id.org/tern/ontologies/loc/LineString]] {
}
Class "tern-loc:Polygon" [[https://w3id.org/tern/ontologies/loc/Polygon]] {
}
Class "tern-loc:Point" [[https://w3id.org/tern/ontologies/loc/Point]] {
}
header
Creator: Edmond Chuc (e.chuc@uq.edu.au) 
endheader
center footer Generated by [[https://github.com/edmondchuc/ontogram https://github.com/edmondchuc/ontogram]]
@enduml

PlantUML version 1.2020.10(Sun May 17 09:35:57 UTC 2020)
(GPL source distribution)
Java Runtime: Java(TM) SE Runtime Environment
JVM: Java HotSpot(TM) 64-Bit Server VM
Java Version: 14.0.1+7
Operating System: Linux
Default Encoding: UTF-8
Language: en
Country: US
--></g></svg>