<?xml version="1.0" encoding="UTF-8" standalone="no"?><svg xmlns="http://www.w3.org/2000/svg" xmlns:xlink="http://www.w3.org/1999/xlink" contentScriptType="application/ecmascript" contentStyleType="text/css" height="229px" preserveAspectRatio="none" style="width:697px;height:229px;" version="1.1" viewBox="0 0 697 229" width="697px" zoomAndPan="magnify"><defs><filter height="300%" id="f1ujmytaxmemha" width="300%" x="-1" y="-1"><feGaussianBlur result="blurOut" stdDeviation="2.0"/><feColorMatrix in="blurOut" result="blurOut2" type="matrix" values="0 0 0 0 0 0 0 0 0 0 0 0 0 0 0 0 0 0 .4 0"/><feOffset dx="4.0" dy="4.0" in="blurOut2" result="blurOut3"/><feBlend in="SourceGraphic" in2="blurOut3" mode="normal"/></filter></defs><g><text fill="#888888" font-family="sans-serif" font-size="10" lengthAdjust="spacingAndGlyphs" textLength="236" x="449" y="9.2822">Creator: Edmond Chuc (e.chuc@uq.edu.au)</text><text fill="#000000" font-family="sans-serif" font-size="18" lengthAdjust="spacingAndGlyphs" textLength="323" x="181" y="28.3486">TERN Location Alignment Ontology</text><!--MD5=[681450c180318ac92d4d4448ad41864e]
class sf:Polygon--><rect fill="#FEFECE" filter="url(#f1ujmytaxmemha)" height="48" id="sf:Polygon" style="stroke: #A80036; stroke-width: 1.5;" width="94" x="24" y="40.5938"/><ellipse cx="39" cy="56.5938" fill="#ADD1B2" rx="11" ry="11" style="stroke: #A80036; stroke-width: 1.0;"/><path d="M41.3438,52.2656 C40.4063,51.8281 39.8125,51.6875 38.9375,51.6875 C36.3125,51.6875 34.3125,53.7656 34.3125,56.4844 L34.3125,57.6094 C34.3125,60.1875 36.4219,62.0781 39.3125,62.0781 C40.5313,62.0781 41.6875,61.7813 42.4375,61.2344 C43.0156,60.8281 43.3438,60.375 43.3438,59.9844 C43.3438,59.5313 42.9531,59.1406 42.4844,59.1406 C42.2656,59.1406 42.0625,59.2188 41.875,59.4063 C41.4219,59.8906 41.4219,59.8906 41.2344,59.9844 C40.8125,60.25 40.125,60.375 39.3594,60.375 C37.3125,60.375 36.0156,59.2813 36.0156,57.5781 L36.0156,56.4844 C36.0156,54.7031 37.2656,53.3906 39,53.3906 C39.5781,53.3906 40.1875,53.5469 40.6563,53.7969 C41.1406,54.0781 41.3125,54.2969 41.4063,54.7031 C41.4688,55.1094 41.5,55.2344 41.6406,55.3594 C41.7813,55.5 42.0156,55.6094 42.2344,55.6094 C42.5,55.6094 42.7656,55.4688 42.9375,55.25 C43.0469,55.0938 43.0781,54.9063 43.0781,54.4844 L43.0781,53.0625 C43.0781,52.625 43.0625,52.5 42.9688,52.3438 C42.8125,52.0781 42.5313,51.9375 42.2344,51.9375 C41.9375,51.9375 41.7344,52.0313 41.5156,52.3438 L41.3438,52.2656 Z "/><text fill="#000000" font-family="sans-serif" font-size="12" lengthAdjust="spacingAndGlyphs" textLength="62" x="53" y="60.748">sf:Polygon</text><line style="stroke: #A80036; stroke-width: 1.5;" x1="25" x2="117" y1="72.5938" y2="72.5938"/><line style="stroke: #A80036; stroke-width: 1.5;" x1="25" x2="117" y1="80.5938" y2="80.5938"/><!--MD5=[0169b4c160c1d1627128d322d53ed76e]
class tern-loc:Polygon--><a href="https://w3id.org/tern/ontologies/loc/Polygon" target="_top" title="https://w3id.org/tern/ontologies/loc/Polygon" xlink:actuate="onRequest" xlink:href="https://w3id.org/tern/ontologies/loc/Polygon" xlink:show="new" xlink:title="https://w3id.org/tern/ontologies/loc/Polygon" xlink:type="simple"><rect fill="#FEFECE" filter="url(#f1ujmytaxmemha)" height="48" id="tern-loc:Polygon" style="stroke: #A80036; stroke-width: 1.5;" width="130" x="6" y="148.5938"/><ellipse cx="21" cy="164.5938" fill="#ADD1B2" rx="11" ry="11" style="stroke: #A80036; stroke-width: 1.0;"/><path d="M23.3438,160.2656 C22.4063,159.8281 21.8125,159.6875 20.9375,159.6875 C18.3125,159.6875 16.3125,161.7656 16.3125,164.4844 L16.3125,165.6094 C16.3125,168.1875 18.4219,170.0781 21.3125,170.0781 C22.5313,170.0781 23.6875,169.7813 24.4375,169.2344 C25.0156,168.8281 25.3438,168.375 25.3438,167.9844 C25.3438,167.5313 24.9531,167.1406 24.4844,167.1406 C24.2656,167.1406 24.0625,167.2188 23.875,167.4063 C23.4219,167.8906 23.4219,167.8906 23.2344,167.9844 C22.8125,168.25 22.125,168.375 21.3594,168.375 C19.3125,168.375 18.0156,167.2813 18.0156,165.5781 L18.0156,164.4844 C18.0156,162.7031 19.2656,161.3906 21,161.3906 C21.5781,161.3906 22.1875,161.5469 22.6563,161.7969 C23.1406,162.0781 23.3125,162.2969 23.4063,162.7031 C23.4688,163.1094 23.5,163.2344 23.6406,163.3594 C23.7813,163.5 24.0156,163.6094 24.2344,163.6094 C24.5,163.6094 24.7656,163.4688 24.9375,163.25 C25.0469,163.0938 25.0781,162.9063 25.0781,162.4844 L25.0781,161.0625 C25.0781,160.625 25.0625,160.5 24.9688,160.3438 C24.8125,160.0781 24.5313,159.9375 24.2344,159.9375 C23.9375,159.9375 23.7344,160.0313 23.5156,160.3438 L23.3438,160.2656 Z "/><text fill="#000000" font-family="sans-serif" font-size="12" lengthAdjust="spacingAndGlyphs" textLength="98" x="35" y="168.748">tern-loc:Polygon</text><line style="stroke: #A80036; stroke-width: 1.5;" x1="7" x2="135" y1="180.5938" y2="180.5938"/><line style="stroke: #A80036; stroke-width: 1.5;" x1="7" x2="135" y1="188.5938" y2="188.5938"/></a><!--MD5=[06a0b58d9040550ef5280287aedb19f7]
class sf:Point--><rect fill="#FEFECE" filter="url(#f1ujmytaxmemha)" height="48" id="sf:Point" style="stroke: #A80036; stroke-width: 1.5;" width="75" x="153.5" y="40.5938"/><ellipse cx="168.5" cy="56.5938" fill="#ADD1B2" rx="11" ry="11" style="stroke: #A80036; stroke-width: 1.0;"/><path d="M170.8438,52.2656 C169.9063,51.8281 169.3125,51.6875 168.4375,51.6875 C165.8125,51.6875 163.8125,53.7656 163.8125,56.4844 L163.8125,57.6094 C163.8125,60.1875 165.9219,62.0781 168.8125,62.0781 C170.0313,62.0781 171.1875,61.7813 171.9375,61.2344 C172.5156,60.8281 172.8438,60.375 172.8438,59.9844 C172.8438,59.5313 172.4531,59.1406 171.9844,59.1406 C171.7656,59.1406 171.5625,59.2188 171.375,59.4063 C170.9219,59.8906 170.9219,59.8906 170.7344,59.9844 C170.3125,60.25 169.625,60.375 168.8594,60.375 C166.8125,60.375 165.5156,59.2813 165.5156,57.5781 L165.5156,56.4844 C165.5156,54.7031 166.7656,53.3906 168.5,53.3906 C169.0781,53.3906 169.6875,53.5469 170.1563,53.7969 C170.6406,54.0781 170.8125,54.2969 170.9063,54.7031 C170.9688,55.1094 171,55.2344 171.1406,55.3594 C171.2813,55.5 171.5156,55.6094 171.7344,55.6094 C172,55.6094 172.2656,55.4688 172.4375,55.25 C172.5469,55.0938 172.5781,54.9063 172.5781,54.4844 L172.5781,53.0625 C172.5781,52.625 172.5625,52.5 172.4688,52.3438 C172.3125,52.0781 172.0313,51.9375 171.7344,51.9375 C171.4375,51.9375 171.2344,52.0313 171.0156,52.3438 L170.8438,52.2656 Z "/><text fill="#000000" font-family="sans-serif" font-size="12" lengthAdjust="spacingAndGlyphs" textLength="43" x="182.5" y="60.748">sf:Point</text><line style="stroke: #A80036; stroke-width: 1.5;" x1="154.5" x2="227.5" y1="72.5938" y2="72.5938"/><line style="stroke: #A80036; stroke-width: 1.5;" x1="154.5" x2="227.5" y1="80.5938" y2="80.5938"/><!--MD5=[b67d05c86b32bf3c0f7bf9b2b1a33612]
class tern-loc:Point--><a href="https://w3id.org/tern/ontologies/loc/Point" target="_top" title="https://w3id.org/tern/ontologies/loc/Point" xlink:actuate="onRequest" xlink:href="https://w3id.org/tern/ontologies/loc/Point" xlink:show="new" xlink:title="https://w3id.org/tern/ontologies/loc/Point" xlink:type="simple"><rect fill="#FEFECE" filter="url(#f1ujmytaxmemha)" height="48" id="tern-loc:Point" style="stroke: #A80036; stroke-width: 1.5;" width="111" x="268.5" y="148.5938"/><ellipse cx="283.5" cy="164.5938" fill="#ADD1B2" rx="11" ry="11" style="stroke: #A80036; stroke-width: 1.0;"/><path d="M285.8438,160.2656 C284.9063,159.8281 284.3125,159.6875 283.4375,159.6875 C280.8125,159.6875 278.8125,161.7656 278.8125,164.4844 L278.8125,165.6094 C278.8125,168.1875 280.9219,170.0781 283.8125,170.0781 C285.0313,170.0781 286.1875,169.7813 286.9375,169.2344 C287.5156,168.8281 287.8438,168.375 287.8438,167.9844 C287.8438,167.5313 287.4531,167.1406 286.9844,167.1406 C286.7656,167.1406 286.5625,167.2188 286.375,167.4063 C285.9219,167.8906 285.9219,167.8906 285.7344,167.9844 C285.3125,168.25 284.625,168.375 283.8594,168.375 C281.8125,168.375 280.5156,167.2813 280.5156,165.5781 L280.5156,164.4844 C280.5156,162.7031 281.7656,161.3906 283.5,161.3906 C284.0781,161.3906 284.6875,161.5469 285.1563,161.7969 C285.6406,162.0781 285.8125,162.2969 285.9063,162.7031 C285.9688,163.1094 286,163.2344 286.1406,163.3594 C286.2813,163.5 286.5156,163.6094 286.7344,163.6094 C287,163.6094 287.2656,163.4688 287.4375,163.25 C287.5469,163.0938 287.5781,162.9063 287.5781,162.4844 L287.5781,161.0625 C287.5781,160.625 287.5625,160.5 287.4688,160.3438 C287.3125,160.0781 287.0313,159.9375 286.7344,159.9375 C286.4375,159.9375 286.2344,160.0313 286.0156,160.3438 L285.8438,160.2656 Z "/><text fill="#000000" font-family="sans-serif" font-size="12" lengthAdjust="spacingAndGlyphs" textLength="79" x="297.5" y="168.748">tern-loc:Point</text><line style="stroke: #A80036; stroke-width: 1.5;" x1="269.5" x2="378.5" y1="180.5938" y2="180.5938"/><line style="stroke: #A80036; stroke-width: 1.5;" x1="269.5" x2="378.5" y1="188.5938" y2="188.5938"/></a><!--MD5=[cd48ee8575308cff07b85b42a6074af1]
class locn:Geometry--><rect fill="#FEFECE" filter="url(#f1ujmytaxmemha)" height="48" id="locn:Geometry" style="stroke: #A80036; stroke-width: 1.5;" width="121" x="263.5" y="40.5938"/><ellipse cx="278.5" cy="56.5938" fill="#ADD1B2" rx="11" ry="11" style="stroke: #A80036; stroke-width: 1.0;"/><path d="M280.8438,52.2656 C279.9063,51.8281 279.3125,51.6875 278.4375,51.6875 C275.8125,51.6875 273.8125,53.7656 273.8125,56.4844 L273.8125,57.6094 C273.8125,60.1875 275.9219,62.0781 278.8125,62.0781 C280.0313,62.0781 281.1875,61.7813 281.9375,61.2344 C282.5156,60.8281 282.8438,60.375 282.8438,59.9844 C282.8438,59.5313 282.4531,59.1406 281.9844,59.1406 C281.7656,59.1406 281.5625,59.2188 281.375,59.4063 C280.9219,59.8906 280.9219,59.8906 280.7344,59.9844 C280.3125,60.25 279.625,60.375 278.8594,60.375 C276.8125,60.375 275.5156,59.2813 275.5156,57.5781 L275.5156,56.4844 C275.5156,54.7031 276.7656,53.3906 278.5,53.3906 C279.0781,53.3906 279.6875,53.5469 280.1563,53.7969 C280.6406,54.0781 280.8125,54.2969 280.9063,54.7031 C280.9688,55.1094 281,55.2344 281.1406,55.3594 C281.2813,55.5 281.5156,55.6094 281.7344,55.6094 C282,55.6094 282.2656,55.4688 282.4375,55.25 C282.5469,55.0938 282.5781,54.9063 282.5781,54.4844 L282.5781,53.0625 C282.5781,52.625 282.5625,52.5 282.4688,52.3438 C282.3125,52.0781 282.0313,51.9375 281.7344,51.9375 C281.4375,51.9375 281.2344,52.0313 281.0156,52.3438 L280.8438,52.2656 Z "/><text fill="#000000" font-family="sans-serif" font-size="12" lengthAdjust="spacingAndGlyphs" textLength="89" x="292.5" y="60.748">locn:Geometry</text><line style="stroke: #A80036; stroke-width: 1.5;" x1="264.5" x2="383.5" y1="72.5938" y2="72.5938"/><line style="stroke: #A80036; stroke-width: 1.5;" x1="264.5" x2="383.5" y1="80.5938" y2="80.5938"/><!--MD5=[4b4dc00f06a8a0ae0f42cf5f98def9ae]
class geo:Point--><rect fill="#FEFECE" filter="url(#f1ujmytaxmemha)" height="48" id="geo:Point" style="stroke: #A80036; stroke-width: 1.5;" width="88" x="420" y="40.5938"/><ellipse cx="435" cy="56.5938" fill="#ADD1B2" rx="11" ry="11" style="stroke: #A80036; stroke-width: 1.0;"/><path d="M437.3438,52.2656 C436.4063,51.8281 435.8125,51.6875 434.9375,51.6875 C432.3125,51.6875 430.3125,53.7656 430.3125,56.4844 L430.3125,57.6094 C430.3125,60.1875 432.4219,62.0781 435.3125,62.0781 C436.5313,62.0781 437.6875,61.7813 438.4375,61.2344 C439.0156,60.8281 439.3438,60.375 439.3438,59.9844 C439.3438,59.5313 438.9531,59.1406 438.4844,59.1406 C438.2656,59.1406 438.0625,59.2188 437.875,59.4063 C437.4219,59.8906 437.4219,59.8906 437.2344,59.9844 C436.8125,60.25 436.125,60.375 435.3594,60.375 C433.3125,60.375 432.0156,59.2813 432.0156,57.5781 L432.0156,56.4844 C432.0156,54.7031 433.2656,53.3906 435,53.3906 C435.5781,53.3906 436.1875,53.5469 436.6563,53.7969 C437.1406,54.0781 437.3125,54.2969 437.4063,54.7031 C437.4688,55.1094 437.5,55.2344 437.6406,55.3594 C437.7813,55.5 438.0156,55.6094 438.2344,55.6094 C438.5,55.6094 438.7656,55.4688 438.9375,55.25 C439.0469,55.0938 439.0781,54.9063 439.0781,54.4844 L439.0781,53.0625 C439.0781,52.625 439.0625,52.5 438.9688,52.3438 C438.8125,52.0781 438.5313,51.9375 438.2344,51.9375 C437.9375,51.9375 437.7344,52.0313 437.5156,52.3438 L437.3438,52.2656 Z "/><text fill="#000000" font-family="sans-serif" font-size="12" lengthAdjust="spacingAndGlyphs" textLength="56" x="449" y="60.748">geo:Point</text><line style="stroke: #A80036; stroke-width: 1.5;" x1="421" x2="507" y1="72.5938" y2="72.5938"/><line style="stroke: #A80036; stroke-width: 1.5;" x1="421" x2="507" y1="80.5938" y2="80.5938"/><!--MD5=[f6be3c52ce9b6300cb295795c7aca351]
class sf:LineString--><rect fill="#FEFECE" filter="url(#f1ujmytaxmemha)" height="48" id="sf:LineString" style="stroke: #A80036; stroke-width: 1.5;" width="106" x="543" y="40.5938"/><ellipse cx="558" cy="56.5938" fill="#ADD1B2" rx="11" ry="11" style="stroke: #A80036; stroke-width: 1.0;"/><path d="M560.3438,52.2656 C559.4063,51.8281 558.8125,51.6875 557.9375,51.6875 C555.3125,51.6875 553.3125,53.7656 553.3125,56.4844 L553.3125,57.6094 C553.3125,60.1875 555.4219,62.0781 558.3125,62.0781 C559.5313,62.0781 560.6875,61.7813 561.4375,61.2344 C562.0156,60.8281 562.3438,60.375 562.3438,59.9844 C562.3438,59.5313 561.9531,59.1406 561.4844,59.1406 C561.2656,59.1406 561.0625,59.2188 560.875,59.4063 C560.4219,59.8906 560.4219,59.8906 560.2344,59.9844 C559.8125,60.25 559.125,60.375 558.3594,60.375 C556.3125,60.375 555.0156,59.2813 555.0156,57.5781 L555.0156,56.4844 C555.0156,54.7031 556.2656,53.3906 558,53.3906 C558.5781,53.3906 559.1875,53.5469 559.6563,53.7969 C560.1406,54.0781 560.3125,54.2969 560.4063,54.7031 C560.4688,55.1094 560.5,55.2344 560.6406,55.3594 C560.7813,55.5 561.0156,55.6094 561.2344,55.6094 C561.5,55.6094 561.7656,55.4688 561.9375,55.25 C562.0469,55.0938 562.0781,54.9063 562.0781,54.4844 L562.0781,53.0625 C562.0781,52.625 562.0625,52.5 561.9688,52.3438 C561.8125,52.0781 561.5313,51.9375 561.2344,51.9375 C560.9375,51.9375 560.7344,52.0313 560.5156,52.3438 L560.3438,52.2656 Z "/><text fill="#000000" font-family="sans-serif" font-size="12" lengthAdjust="spacingAndGlyphs" textLength="74" x="572" y="60.748">sf:LineString</text><line style="stroke: #A80036; stroke-width: 1.5;" x1="544" x2="648" y1="72.5938" y2="72.5938"/><line style="stroke: #A80036; stroke-width: 1.5;" x1="544" x2="648" y1="80.5938" y2="80.5938"/><!--MD5=[8769ba710cd4c62aec428e033c91e43d]
class tern-loc:LineString--><a href="https://w3id.org/tern/ontologies/loc/LineString" target="_top" title="https://w3id.org/tern/ontologies/loc/LineString" xlink:actuate="onRequest" xlink:href="https://w3id.org/tern/ontologies/loc/LineString" xlink:show="new" xlink:title="https://w3id.org/tern/ontologies/loc/LineString" xlink:type="simple"><rect fill="#FEFECE" filter="url(#f1ujmytaxmemha)" height="48" id="tern-loc:LineString" style="stroke: #A80036; stroke-width: 1.5;" width="142" x="525" y="148.5938"/><ellipse cx="540" cy="164.5938" fill="#ADD1B2" rx="11" ry="11" style="stroke: #A80036; stroke-width: 1.0;"/><path d="M542.3438,160.2656 C541.4063,159.8281 540.8125,159.6875 539.9375,159.6875 C537.3125,159.6875 535.3125,161.7656 535.3125,164.4844 L535.3125,165.6094 C535.3125,168.1875 537.4219,170.0781 540.3125,170.0781 C541.5313,170.0781 542.6875,169.7813 543.4375,169.2344 C544.0156,168.8281 544.3438,168.375 544.3438,167.9844 C544.3438,167.5313 543.9531,167.1406 543.4844,167.1406 C543.2656,167.1406 543.0625,167.2188 542.875,167.4063 C542.4219,167.8906 542.4219,167.8906 542.2344,167.9844 C541.8125,168.25 541.125,168.375 540.3594,168.375 C538.3125,168.375 537.0156,167.2813 537.0156,165.5781 L537.0156,164.4844 C537.0156,162.7031 538.2656,161.3906 540,161.3906 C540.5781,161.3906 541.1875,161.5469 541.6563,161.7969 C542.1406,162.0781 542.3125,162.2969 542.4063,162.7031 C542.4688,163.1094 542.5,163.2344 542.6406,163.3594 C542.7813,163.5 543.0156,163.6094 543.2344,163.6094 C543.5,163.6094 543.7656,163.4688 543.9375,163.25 C544.0469,163.0938 544.0781,162.9063 544.0781,162.4844 L544.0781,161.0625 C544.0781,160.625 544.0625,160.5 543.9688,160.3438 C543.8125,160.0781 543.5313,159.9375 543.2344,159.9375 C542.9375,159.9375 542.7344,160.0313 542.5156,160.3438 L542.3438,160.2656 Z "/><text fill="#000000" font-family="sans-serif" font-size="12" lengthAdjust="spacingAndGlyphs" textLength="110" x="554" y="168.748">tern-loc:LineString</text><line style="stroke: #A80036; stroke-width: 1.5;" x1="526" x2="666" y1="180.5938" y2="180.5938"/><line style="stroke: #A80036; stroke-width: 1.5;" x1="526" x2="666" y1="188.5938" y2="188.5938"/></a><!--MD5=[51a7cfd66038ce77a5a433efcd013f3a]
reverse link sf:Polygon to tern-loc:Polygon--><path d="M71,108.6174 C71,122.173 71,136.6319 71,148.2722 " fill="none" id="sf:Polygon&lt;-tern-loc:Polygon" style="stroke: #A80036; stroke-width: 1.0;"/><polygon fill="none" points="64.0001,108.5943,71,88.5938,78.0001,108.5942,64.0001,108.5943" style="stroke: #A80036; stroke-width: 1.0;"/><!--MD5=[29f7f1c9da998e3e1cb0828a9900b6c8]
reverse link sf:Point to tern-loc:Point--><path d="M235.712,101.2291 C255.175,116.741 277.438,134.484 294.738,148.2722 " fill="none" id="sf:Point&lt;-tern-loc:Point" style="stroke: #A80036; stroke-width: 1.0;"/><polygon fill="none" points="231.137,106.5336,219.859,88.5938,239.862,95.5858,231.137,106.5336" style="stroke: #A80036; stroke-width: 1.0;"/><!--MD5=[d68c5b1816c22edfe60892291c0b4b30]
reverse link locn:Geometry to tern-loc:Point--><path d="M324,108.6174 C324,122.173 324,136.6319 324,148.2722 " fill="none" id="locn:Geometry&lt;-tern-loc:Point" style="stroke: #A80036; stroke-width: 1.0;"/><polygon fill="none" points="317,108.5943,324,88.5938,331,108.5942,317,108.5943" style="stroke: #A80036; stroke-width: 1.0;"/><!--MD5=[8c2aa92d6514d17a4ce697438d39211d]
reverse link geo:Point to tern-loc:Point--><path d="M417.551,100.762 C396.919,116.3839 373.196,134.3454 354.802,148.2722 " fill="none" id="geo:Point&lt;-tern-loc:Point" style="stroke: #A80036; stroke-width: 1.0;"/><polygon fill="none" points="413.451,95.0858,433.622,88.5938,421.902,106.2478,413.451,95.0858" style="stroke: #A80036; stroke-width: 1.0;"/><!--MD5=[718676226f92dcfe37e256519b7a4772]
reverse link sf:LineString to tern-loc:LineString--><path d="M596,108.6174 C596,122.173 596,136.6319 596,148.2722 " fill="none" id="sf:LineString&lt;-tern-loc:LineString" style="stroke: #A80036; stroke-width: 1.0;"/><polygon fill="none" points="589,108.5943,596,88.5938,603,108.5942,589,108.5943" style="stroke: #A80036; stroke-width: 1.0;"/><text fill="#888888" font-family="sans-serif" font-size="10" lengthAdjust="spacingAndGlyphs" textLength="74" x="189" y="215.876">Generated by</text><a href="https://github.com/edmondchuc/ontogram" target="_top" title="https://github.com/edmondchuc/ontogram" xlink:actuate="onRequest" xlink:href="https://github.com/edmondchuc/ontogram" xlink:show="new" xlink:title="https://github.com/edmondchuc/ontogram" xlink:type="simple"><text fill="#0000FF" font-family="sans-serif" font-size="10" lengthAdjust="spacingAndGlyphs" text-decoration="underline" textLength="230" x="266" y="215.876">https://github.com/edmondchuc/ontogram</text></a><!--MD5=[6b90a1b5ca588b24d71802512a67bf12]
@startuml
title TERN Location Alignment Ontology
"sf:Polygon" <|- - "tern-loc:Polygon"
"sf:Point" <|- - "tern-loc:Point"
"locn:Geometry" <|- - "tern-loc:Point"
"geo:Point" <|- - "tern-loc:Point"
"sf:LineString" <|- - "tern-loc:LineString"
Class "tern-loc:Polygon" [[https://w3id.org/tern/ontologies/loc/Polygon]] {
}
Class "tern-loc:Point" [[https://w3id.org/tern/ontologies/loc/Point]] {
}
Class "tern-loc:LineString" [[https://w3id.org/tern/ontologies/loc/LineString]] {
}
header
Creator: Edmond Chuc (e.chuc@uq.edu.au) 
endheader
center footer Generated by [[https://github.com/edmondchuc/ontogram https://github.com/edmondchuc/ontogram]]
@enduml

PlantUML version 1.2020.09(Sun May 10 10:51:06 UTC 2020)
(GPL source distribution)
Java Runtime: Java(TM) SE Runtime Environment
JVM: Java HotSpot(TM) 64-Bit Server VM
Java Version: 14.0.1+7
Operating System: Linux
Default Encoding: UTF-8
Language: en
Country: US
--></g></svg>