<?xml version="1.0" encoding="UTF-8" standalone="no"?><svg xmlns="http://www.w3.org/2000/svg" xmlns:xlink="http://www.w3.org/1999/xlink" contentScriptType="application/ecmascript" contentStyleType="text/css" height="334px" preserveAspectRatio="none" style="width:1144px;height:334px;background:#FFFFFF;" version="1.1" viewBox="0 0 1144 334" width="1144px" zoomAndPan="magnify"><defs><filter height="300%" id="fv6aqhrw3nsy7" width="300%" x="-1" y="-1"><feGaussianBlur result="blurOut" stdDeviation="2.0"/><feColorMatrix in="blurOut" result="blurOut2" type="matrix" values="0 0 0 0 0 0 0 0 0 0 0 0 0 0 0 0 0 0 .4 0"/><feOffset dx="4.0" dy="4.0" in="blurOut2" result="blurOut3"/><feBlend in="SourceGraphic" in2="blurOut3" mode="normal"/></filter></defs><g><text fill="#888888" font-family="sans-serif" font-size="10" lengthAdjust="spacing" textLength="236" x="895.5" y="9.2822">Creator: Edmond Chuc (e.chuc@uq.edu.au)</text><text fill="#000000" font-family="sans-serif" font-size="18" lengthAdjust="spacing" textLength="323" x="404.25" y="28.3486">TERN Location Alignment Ontology</text><!--MD5=[9655ad61792b4ed0d4f91a9adcbf26fa]
class dct:Location--><rect fill="#FEFECE" filter="url(#fv6aqhrw3nsy7)" height="48" id="dct:Location" style="stroke:#A80036;stroke-width:1.5;" width="105" x="7" y="147.5938"/><ellipse cx="22" cy="163.5938" fill="#ADD1B2" rx="11" ry="11" style="stroke:#A80036;stroke-width:1.0;"/><path d="M24.3438,159.2656 C23.4063,158.8281 22.8125,158.6875 21.9375,158.6875 C19.3125,158.6875 17.3125,160.7656 17.3125,163.4844 L17.3125,164.6094 C17.3125,167.1875 19.4219,169.0781 22.3125,169.0781 C23.5313,169.0781 24.6875,168.7813 25.4375,168.2344 C26.0156,167.8281 26.3438,167.375 26.3438,166.9844 C26.3438,166.5313 25.9531,166.1406 25.4844,166.1406 C25.2656,166.1406 25.0625,166.2188 24.875,166.4063 C24.4219,166.8906 24.4219,166.8906 24.2344,166.9844 C23.8125,167.25 23.125,167.375 22.3594,167.375 C20.3125,167.375 19.0156,166.2813 19.0156,164.5781 L19.0156,163.4844 C19.0156,161.7031 20.2656,160.3906 22,160.3906 C22.5781,160.3906 23.1875,160.5469 23.6563,160.7969 C24.1406,161.0781 24.3125,161.2969 24.4063,161.7031 C24.4688,162.1094 24.5,162.2344 24.6406,162.3594 C24.7813,162.5 25.0156,162.6094 25.2344,162.6094 C25.5,162.6094 25.7656,162.4688 25.9375,162.25 C26.0469,162.0938 26.0781,161.9063 26.0781,161.4844 L26.0781,160.0625 C26.0781,159.625 26.0625,159.5 25.9688,159.3438 C25.8125,159.0781 25.5313,158.9375 25.2344,158.9375 C24.9375,158.9375 24.7344,159.0313 24.5156,159.3438 L24.3438,159.2656 Z " fill="#000000"/><text fill="#000000" font-family="sans-serif" font-size="12" lengthAdjust="spacing" textLength="73" x="36" y="167.748">dct:Location</text><line style="stroke:#A80036;stroke-width:1.5;" x1="8" x2="111" y1="179.5938" y2="179.5938"/><line style="stroke:#A80036;stroke-width:1.5;" x1="8" x2="111" y1="187.5938" y2="187.5938"/><!--MD5=[7ecc5781a96ada1a225cc3afb1eb8f46]
class tern-loc:Location--><a href="https://w3id.org/tern/ontologies/loc/Location" target="_top" title="https://w3id.org/tern/ontologies/loc/Location" xlink:actuate="onRequest" xlink:href="https://w3id.org/tern/ontologies/loc/Location" xlink:show="new" xlink:title="https://w3id.org/tern/ontologies/loc/Location" xlink:type="simple"><rect codeLine="14" fill="#FEFECE" filter="url(#fv6aqhrw3nsy7)" height="48" id="tern-loc:Location" style="stroke:#A80036;stroke-width:1.5;" width="133" x="153" y="255.5938"/><ellipse cx="168" cy="271.5938" fill="#ADD1B2" rx="11" ry="11" style="stroke:#A80036;stroke-width:1.0;"/><path d="M170.3438,267.2656 C169.4063,266.8281 168.8125,266.6875 167.9375,266.6875 C165.3125,266.6875 163.3125,268.7656 163.3125,271.4844 L163.3125,272.6094 C163.3125,275.1875 165.4219,277.0781 168.3125,277.0781 C169.5313,277.0781 170.6875,276.7813 171.4375,276.2344 C172.0156,275.8281 172.3438,275.375 172.3438,274.9844 C172.3438,274.5313 171.9531,274.1406 171.4844,274.1406 C171.2656,274.1406 171.0625,274.2188 170.875,274.4063 C170.4219,274.8906 170.4219,274.8906 170.2344,274.9844 C169.8125,275.25 169.125,275.375 168.3594,275.375 C166.3125,275.375 165.0156,274.2813 165.0156,272.5781 L165.0156,271.4844 C165.0156,269.7031 166.2656,268.3906 168,268.3906 C168.5781,268.3906 169.1875,268.5469 169.6563,268.7969 C170.1406,269.0781 170.3125,269.2969 170.4063,269.7031 C170.4688,270.1094 170.5,270.2344 170.6406,270.3594 C170.7813,270.5 171.0156,270.6094 171.2344,270.6094 C171.5,270.6094 171.7656,270.4688 171.9375,270.25 C172.0469,270.0938 172.0781,269.9063 172.0781,269.4844 L172.0781,268.0625 C172.0781,267.625 172.0625,267.5 171.9688,267.3438 C171.8125,267.0781 171.5313,266.9375 171.2344,266.9375 C170.9375,266.9375 170.7344,267.0313 170.5156,267.3438 L170.3438,267.2656 Z " fill="#000000"/><text fill="#000000" font-family="sans-serif" font-size="12" lengthAdjust="spacing" textLength="101" x="182" y="275.748">tern-loc:Location</text><line style="stroke:#A80036;stroke-width:1.5;" x1="154" x2="285" y1="287.5938" y2="287.5938"/><line style="stroke:#A80036;stroke-width:1.5;" x1="154" x2="285" y1="295.5938" y2="295.5938"/></a><!--MD5=[b2738bc8777da75c89c00bcb00a1a9b8]
class tern-loc:Geometry--><a href="https://w3id.org/tern/ontologies/loc/Geometry" target="_top" title="https://w3id.org/tern/ontologies/loc/Geometry" xlink:actuate="onRequest" xlink:href="https://w3id.org/tern/ontologies/loc/Geometry" xlink:show="new" xlink:title="https://w3id.org/tern/ontologies/loc/Geometry" xlink:type="simple"><rect codeLine="22" fill="#FEFECE" filter="url(#fv6aqhrw3nsy7)" height="48" id="tern-loc:Geometry" style="stroke:#A80036;stroke-width:1.5;" width="143" x="456" y="147.5938"/><ellipse cx="471" cy="163.5938" fill="#ADD1B2" rx="11" ry="11" style="stroke:#A80036;stroke-width:1.0;"/><path d="M473.3438,159.2656 C472.4063,158.8281 471.8125,158.6875 470.9375,158.6875 C468.3125,158.6875 466.3125,160.7656 466.3125,163.4844 L466.3125,164.6094 C466.3125,167.1875 468.4219,169.0781 471.3125,169.0781 C472.5313,169.0781 473.6875,168.7813 474.4375,168.2344 C475.0156,167.8281 475.3438,167.375 475.3438,166.9844 C475.3438,166.5313 474.9531,166.1406 474.4844,166.1406 C474.2656,166.1406 474.0625,166.2188 473.875,166.4063 C473.4219,166.8906 473.4219,166.8906 473.2344,166.9844 C472.8125,167.25 472.125,167.375 471.3594,167.375 C469.3125,167.375 468.0156,166.2813 468.0156,164.5781 L468.0156,163.4844 C468.0156,161.7031 469.2656,160.3906 471,160.3906 C471.5781,160.3906 472.1875,160.5469 472.6563,160.7969 C473.1406,161.0781 473.3125,161.2969 473.4063,161.7031 C473.4688,162.1094 473.5,162.2344 473.6406,162.3594 C473.7813,162.5 474.0156,162.6094 474.2344,162.6094 C474.5,162.6094 474.7656,162.4688 474.9375,162.25 C475.0469,162.0938 475.0781,161.9063 475.0781,161.4844 L475.0781,160.0625 C475.0781,159.625 475.0625,159.5 474.9688,159.3438 C474.8125,159.0781 474.5313,158.9375 474.2344,158.9375 C473.9375,158.9375 473.7344,159.0313 473.5156,159.3438 L473.3438,159.2656 Z " fill="#000000"/><text fill="#000000" font-family="sans-serif" font-size="12" lengthAdjust="spacing" textLength="111" x="485" y="167.748">tern-loc:Geometry</text><line style="stroke:#A80036;stroke-width:1.5;" x1="457" x2="598" y1="179.5938" y2="179.5938"/><line style="stroke:#A80036;stroke-width:1.5;" x1="457" x2="598" y1="187.5938" y2="187.5938"/></a><!--MD5=[4b0e6ae39ede3f8987ca028c00a13af1]
class geosparql:Feature--><rect fill="#FEFECE" filter="url(#fv6aqhrw3nsy7)" height="48" id="geosparql:Feature" style="stroke:#A80036;stroke-width:1.5;" width="144" x="147.5" y="147.5938"/><ellipse cx="162.5" cy="163.5938" fill="#ADD1B2" rx="11" ry="11" style="stroke:#A80036;stroke-width:1.0;"/><path d="M164.8438,159.2656 C163.9063,158.8281 163.3125,158.6875 162.4375,158.6875 C159.8125,158.6875 157.8125,160.7656 157.8125,163.4844 L157.8125,164.6094 C157.8125,167.1875 159.9219,169.0781 162.8125,169.0781 C164.0313,169.0781 165.1875,168.7813 165.9375,168.2344 C166.5156,167.8281 166.8438,167.375 166.8438,166.9844 C166.8438,166.5313 166.4531,166.1406 165.9844,166.1406 C165.7656,166.1406 165.5625,166.2188 165.375,166.4063 C164.9219,166.8906 164.9219,166.8906 164.7344,166.9844 C164.3125,167.25 163.625,167.375 162.8594,167.375 C160.8125,167.375 159.5156,166.2813 159.5156,164.5781 L159.5156,163.4844 C159.5156,161.7031 160.7656,160.3906 162.5,160.3906 C163.0781,160.3906 163.6875,160.5469 164.1563,160.7969 C164.6406,161.0781 164.8125,161.2969 164.9063,161.7031 C164.9688,162.1094 165,162.2344 165.1406,162.3594 C165.2813,162.5 165.5156,162.6094 165.7344,162.6094 C166,162.6094 166.2656,162.4688 166.4375,162.25 C166.5469,162.0938 166.5781,161.9063 166.5781,161.4844 L166.5781,160.0625 C166.5781,159.625 166.5625,159.5 166.4688,159.3438 C166.3125,159.0781 166.0313,158.9375 165.7344,158.9375 C165.4375,158.9375 165.2344,159.0313 165.0156,159.3438 L164.8438,159.2656 Z " fill="#000000"/><text fill="#000000" font-family="sans-serif" font-size="12" lengthAdjust="spacing" textLength="112" x="176.5" y="167.748">geosparql:Feature</text><line style="stroke:#A80036;stroke-width:1.5;" x1="148.5" x2="290.5" y1="179.5938" y2="179.5938"/><line style="stroke:#A80036;stroke-width:1.5;" x1="148.5" x2="290.5" y1="187.5938" y2="187.5938"/><!--MD5=[681450c180318ac92d4d4448ad41864e]
class sf:Polygon--><rect fill="#FEFECE" filter="url(#fv6aqhrw3nsy7)" height="48" id="sf:Polygon" style="stroke:#A80036;stroke-width:1.5;" width="94" x="326.5" y="147.5938"/><ellipse cx="341.5" cy="163.5938" fill="#ADD1B2" rx="11" ry="11" style="stroke:#A80036;stroke-width:1.0;"/><path d="M343.8438,159.2656 C342.9063,158.8281 342.3125,158.6875 341.4375,158.6875 C338.8125,158.6875 336.8125,160.7656 336.8125,163.4844 L336.8125,164.6094 C336.8125,167.1875 338.9219,169.0781 341.8125,169.0781 C343.0313,169.0781 344.1875,168.7813 344.9375,168.2344 C345.5156,167.8281 345.8438,167.375 345.8438,166.9844 C345.8438,166.5313 345.4531,166.1406 344.9844,166.1406 C344.7656,166.1406 344.5625,166.2188 344.375,166.4063 C343.9219,166.8906 343.9219,166.8906 343.7344,166.9844 C343.3125,167.25 342.625,167.375 341.8594,167.375 C339.8125,167.375 338.5156,166.2813 338.5156,164.5781 L338.5156,163.4844 C338.5156,161.7031 339.7656,160.3906 341.5,160.3906 C342.0781,160.3906 342.6875,160.5469 343.1563,160.7969 C343.6406,161.0781 343.8125,161.2969 343.9063,161.7031 C343.9688,162.1094 344,162.2344 344.1406,162.3594 C344.2813,162.5 344.5156,162.6094 344.7344,162.6094 C345,162.6094 345.2656,162.4688 345.4375,162.25 C345.5469,162.0938 345.5781,161.9063 345.5781,161.4844 L345.5781,160.0625 C345.5781,159.625 345.5625,159.5 345.4688,159.3438 C345.3125,159.0781 345.0313,158.9375 344.7344,158.9375 C344.4375,158.9375 344.2344,159.0313 344.0156,159.3438 L343.8438,159.2656 Z " fill="#000000"/><text fill="#000000" font-family="sans-serif" font-size="12" lengthAdjust="spacing" textLength="62" x="355.5" y="167.748">sf:Polygon</text><line style="stroke:#A80036;stroke-width:1.5;" x1="327.5" x2="419.5" y1="179.5938" y2="179.5938"/><line style="stroke:#A80036;stroke-width:1.5;" x1="327.5" x2="419.5" y1="187.5938" y2="187.5938"/><!--MD5=[0169b4c160c1d1627128d322d53ed76e]
class tern-loc:Polygon--><a href="https://w3id.org/tern/ontologies/loc/Polygon" target="_top" title="https://w3id.org/tern/ontologies/loc/Polygon" xlink:actuate="onRequest" xlink:href="https://w3id.org/tern/ontologies/loc/Polygon" xlink:show="new" xlink:title="https://w3id.org/tern/ontologies/loc/Polygon" xlink:type="simple"><rect codeLine="16" fill="#FEFECE" filter="url(#fv6aqhrw3nsy7)" height="48" id="tern-loc:Polygon" style="stroke:#A80036;stroke-width:1.5;" width="130" x="424.5" y="255.5938"/><ellipse cx="439.5" cy="271.5938" fill="#ADD1B2" rx="11" ry="11" style="stroke:#A80036;stroke-width:1.0;"/><path d="M441.8438,267.2656 C440.9063,266.8281 440.3125,266.6875 439.4375,266.6875 C436.8125,266.6875 434.8125,268.7656 434.8125,271.4844 L434.8125,272.6094 C434.8125,275.1875 436.9219,277.0781 439.8125,277.0781 C441.0313,277.0781 442.1875,276.7813 442.9375,276.2344 C443.5156,275.8281 443.8438,275.375 443.8438,274.9844 C443.8438,274.5313 443.4531,274.1406 442.9844,274.1406 C442.7656,274.1406 442.5625,274.2188 442.375,274.4063 C441.9219,274.8906 441.9219,274.8906 441.7344,274.9844 C441.3125,275.25 440.625,275.375 439.8594,275.375 C437.8125,275.375 436.5156,274.2813 436.5156,272.5781 L436.5156,271.4844 C436.5156,269.7031 437.7656,268.3906 439.5,268.3906 C440.0781,268.3906 440.6875,268.5469 441.1563,268.7969 C441.6406,269.0781 441.8125,269.2969 441.9063,269.7031 C441.9688,270.1094 442,270.2344 442.1406,270.3594 C442.2813,270.5 442.5156,270.6094 442.7344,270.6094 C443,270.6094 443.2656,270.4688 443.4375,270.25 C443.5469,270.0938 443.5781,269.9063 443.5781,269.4844 L443.5781,268.0625 C443.5781,267.625 443.5625,267.5 443.4688,267.3438 C443.3125,267.0781 443.0313,266.9375 442.7344,266.9375 C442.4375,266.9375 442.2344,267.0313 442.0156,267.3438 L441.8438,267.2656 Z " fill="#000000"/><text fill="#000000" font-family="sans-serif" font-size="12" lengthAdjust="spacing" textLength="98" x="453.5" y="275.748">tern-loc:Polygon</text><line style="stroke:#A80036;stroke-width:1.5;" x1="425.5" x2="553.5" y1="287.5938" y2="287.5938"/><line style="stroke:#A80036;stroke-width:1.5;" x1="425.5" x2="553.5" y1="295.5938" y2="295.5938"/></a><!--MD5=[b67d05c86b32bf3c0f7bf9b2b1a33612]
class tern-loc:Point--><a href="https://w3id.org/tern/ontologies/loc/Point" target="_top" title="https://w3id.org/tern/ontologies/loc/Point" xlink:actuate="onRequest" xlink:href="https://w3id.org/tern/ontologies/loc/Point" xlink:show="new" xlink:title="https://w3id.org/tern/ontologies/loc/Point" xlink:type="simple"><rect codeLine="18" fill="#FEFECE" filter="url(#fv6aqhrw3nsy7)" height="48" id="tern-loc:Point" style="stroke:#A80036;stroke-width:1.5;" width="111" x="654" y="255.5938"/><ellipse cx="669" cy="271.5938" fill="#ADD1B2" rx="11" ry="11" style="stroke:#A80036;stroke-width:1.0;"/><path d="M671.3438,267.2656 C670.4063,266.8281 669.8125,266.6875 668.9375,266.6875 C666.3125,266.6875 664.3125,268.7656 664.3125,271.4844 L664.3125,272.6094 C664.3125,275.1875 666.4219,277.0781 669.3125,277.0781 C670.5313,277.0781 671.6875,276.7813 672.4375,276.2344 C673.0156,275.8281 673.3438,275.375 673.3438,274.9844 C673.3438,274.5313 672.9531,274.1406 672.4844,274.1406 C672.2656,274.1406 672.0625,274.2188 671.875,274.4063 C671.4219,274.8906 671.4219,274.8906 671.2344,274.9844 C670.8125,275.25 670.125,275.375 669.3594,275.375 C667.3125,275.375 666.0156,274.2813 666.0156,272.5781 L666.0156,271.4844 C666.0156,269.7031 667.2656,268.3906 669,268.3906 C669.5781,268.3906 670.1875,268.5469 670.6563,268.7969 C671.1406,269.0781 671.3125,269.2969 671.4063,269.7031 C671.4688,270.1094 671.5,270.2344 671.6406,270.3594 C671.7813,270.5 672.0156,270.6094 672.2344,270.6094 C672.5,270.6094 672.7656,270.4688 672.9375,270.25 C673.0469,270.0938 673.0781,269.9063 673.0781,269.4844 L673.0781,268.0625 C673.0781,267.625 673.0625,267.5 672.9688,267.3438 C672.8125,267.0781 672.5313,266.9375 672.2344,266.9375 C671.9375,266.9375 671.7344,267.0313 671.5156,267.3438 L671.3438,267.2656 Z " fill="#000000"/><text fill="#000000" font-family="sans-serif" font-size="12" lengthAdjust="spacing" textLength="79" x="683" y="275.748">tern-loc:Point</text><line style="stroke:#A80036;stroke-width:1.5;" x1="655" x2="764" y1="287.5938" y2="287.5938"/><line style="stroke:#A80036;stroke-width:1.5;" x1="655" x2="764" y1="295.5938" y2="295.5938"/></a><!--MD5=[06a0b58d9040550ef5280287aedb19f7]
class sf:Point--><rect fill="#FEFECE" filter="url(#fv6aqhrw3nsy7)" height="48" id="sf:Point" style="stroke:#A80036;stroke-width:1.5;" width="75" x="634" y="147.5938"/><ellipse cx="649" cy="163.5938" fill="#ADD1B2" rx="11" ry="11" style="stroke:#A80036;stroke-width:1.0;"/><path d="M651.3438,159.2656 C650.4063,158.8281 649.8125,158.6875 648.9375,158.6875 C646.3125,158.6875 644.3125,160.7656 644.3125,163.4844 L644.3125,164.6094 C644.3125,167.1875 646.4219,169.0781 649.3125,169.0781 C650.5313,169.0781 651.6875,168.7813 652.4375,168.2344 C653.0156,167.8281 653.3438,167.375 653.3438,166.9844 C653.3438,166.5313 652.9531,166.1406 652.4844,166.1406 C652.2656,166.1406 652.0625,166.2188 651.875,166.4063 C651.4219,166.8906 651.4219,166.8906 651.2344,166.9844 C650.8125,167.25 650.125,167.375 649.3594,167.375 C647.3125,167.375 646.0156,166.2813 646.0156,164.5781 L646.0156,163.4844 C646.0156,161.7031 647.2656,160.3906 649,160.3906 C649.5781,160.3906 650.1875,160.5469 650.6563,160.7969 C651.1406,161.0781 651.3125,161.2969 651.4063,161.7031 C651.4688,162.1094 651.5,162.2344 651.6406,162.3594 C651.7813,162.5 652.0156,162.6094 652.2344,162.6094 C652.5,162.6094 652.7656,162.4688 652.9375,162.25 C653.0469,162.0938 653.0781,161.9063 653.0781,161.4844 L653.0781,160.0625 C653.0781,159.625 653.0625,159.5 652.9688,159.3438 C652.8125,159.0781 652.5313,158.9375 652.2344,158.9375 C651.9375,158.9375 651.7344,159.0313 651.5156,159.3438 L651.3438,159.2656 Z " fill="#000000"/><text fill="#000000" font-family="sans-serif" font-size="12" lengthAdjust="spacing" textLength="43" x="663" y="167.748">sf:Point</text><line style="stroke:#A80036;stroke-width:1.5;" x1="635" x2="708" y1="179.5938" y2="179.5938"/><line style="stroke:#A80036;stroke-width:1.5;" x1="635" x2="708" y1="187.5938" y2="187.5938"/><!--MD5=[4b4dc00f06a8a0ae0f42cf5f98def9ae]
class geo:Point--><rect fill="#FEFECE" filter="url(#fv6aqhrw3nsy7)" height="48" id="geo:Point" style="stroke:#A80036;stroke-width:1.5;" width="88" x="744.5" y="147.5938"/><ellipse cx="759.5" cy="163.5938" fill="#ADD1B2" rx="11" ry="11" style="stroke:#A80036;stroke-width:1.0;"/><path d="M761.8438,159.2656 C760.9063,158.8281 760.3125,158.6875 759.4375,158.6875 C756.8125,158.6875 754.8125,160.7656 754.8125,163.4844 L754.8125,164.6094 C754.8125,167.1875 756.9219,169.0781 759.8125,169.0781 C761.0313,169.0781 762.1875,168.7813 762.9375,168.2344 C763.5156,167.8281 763.8438,167.375 763.8438,166.9844 C763.8438,166.5313 763.4531,166.1406 762.9844,166.1406 C762.7656,166.1406 762.5625,166.2188 762.375,166.4063 C761.9219,166.8906 761.9219,166.8906 761.7344,166.9844 C761.3125,167.25 760.625,167.375 759.8594,167.375 C757.8125,167.375 756.5156,166.2813 756.5156,164.5781 L756.5156,163.4844 C756.5156,161.7031 757.7656,160.3906 759.5,160.3906 C760.0781,160.3906 760.6875,160.5469 761.1563,160.7969 C761.6406,161.0781 761.8125,161.2969 761.9063,161.7031 C761.9688,162.1094 762,162.2344 762.1406,162.3594 C762.2813,162.5 762.5156,162.6094 762.7344,162.6094 C763,162.6094 763.2656,162.4688 763.4375,162.25 C763.5469,162.0938 763.5781,161.9063 763.5781,161.4844 L763.5781,160.0625 C763.5781,159.625 763.5625,159.5 763.4688,159.3438 C763.3125,159.0781 763.0313,158.9375 762.7344,158.9375 C762.4375,158.9375 762.2344,159.0313 762.0156,159.3438 L761.8438,159.2656 Z " fill="#000000"/><text fill="#000000" font-family="sans-serif" font-size="12" lengthAdjust="spacing" textLength="56" x="773.5" y="167.748">geo:Point</text><line style="stroke:#A80036;stroke-width:1.5;" x1="745.5" x2="831.5" y1="179.5938" y2="179.5938"/><line style="stroke:#A80036;stroke-width:1.5;" x1="745.5" x2="831.5" y1="187.5938" y2="187.5938"/><!--MD5=[cd48ee8575308cff07b85b42a6074af1]
class locn:Geometry--><rect fill="#FEFECE" filter="url(#fv6aqhrw3nsy7)" height="48" id="locn:Geometry" style="stroke:#A80036;stroke-width:1.5;" width="121" x="868" y="147.5938"/><ellipse cx="883" cy="163.5938" fill="#ADD1B2" rx="11" ry="11" style="stroke:#A80036;stroke-width:1.0;"/><path d="M885.3438,159.2656 C884.4063,158.8281 883.8125,158.6875 882.9375,158.6875 C880.3125,158.6875 878.3125,160.7656 878.3125,163.4844 L878.3125,164.6094 C878.3125,167.1875 880.4219,169.0781 883.3125,169.0781 C884.5313,169.0781 885.6875,168.7813 886.4375,168.2344 C887.0156,167.8281 887.3438,167.375 887.3438,166.9844 C887.3438,166.5313 886.9531,166.1406 886.4844,166.1406 C886.2656,166.1406 886.0625,166.2188 885.875,166.4063 C885.4219,166.8906 885.4219,166.8906 885.2344,166.9844 C884.8125,167.25 884.125,167.375 883.3594,167.375 C881.3125,167.375 880.0156,166.2813 880.0156,164.5781 L880.0156,163.4844 C880.0156,161.7031 881.2656,160.3906 883,160.3906 C883.5781,160.3906 884.1875,160.5469 884.6563,160.7969 C885.1406,161.0781 885.3125,161.2969 885.4063,161.7031 C885.4688,162.1094 885.5,162.2344 885.6406,162.3594 C885.7813,162.5 886.0156,162.6094 886.2344,162.6094 C886.5,162.6094 886.7656,162.4688 886.9375,162.25 C887.0469,162.0938 887.0781,161.9063 887.0781,161.4844 L887.0781,160.0625 C887.0781,159.625 887.0625,159.5 886.9688,159.3438 C886.8125,159.0781 886.5313,158.9375 886.2344,158.9375 C885.9375,158.9375 885.7344,159.0313 885.5156,159.3438 L885.3438,159.2656 Z " fill="#000000"/><text fill="#000000" font-family="sans-serif" font-size="12" lengthAdjust="spacing" textLength="89" x="897" y="167.748">locn:Geometry</text><line style="stroke:#A80036;stroke-width:1.5;" x1="869" x2="988" y1="179.5938" y2="179.5938"/><line style="stroke:#A80036;stroke-width:1.5;" x1="869" x2="988" y1="187.5938" y2="187.5938"/><!--MD5=[f6be3c52ce9b6300cb295795c7aca351]
class sf:LineString--><rect fill="#FEFECE" filter="url(#fv6aqhrw3nsy7)" height="48" id="sf:LineString" style="stroke:#A80036;stroke-width:1.5;" width="106" x="1024.5" y="147.5938"/><ellipse cx="1039.5" cy="163.5938" fill="#ADD1B2" rx="11" ry="11" style="stroke:#A80036;stroke-width:1.0;"/><path d="M1041.8438,159.2656 C1040.9063,158.8281 1040.3125,158.6875 1039.4375,158.6875 C1036.8125,158.6875 1034.8125,160.7656 1034.8125,163.4844 L1034.8125,164.6094 C1034.8125,167.1875 1036.9219,169.0781 1039.8125,169.0781 C1041.0313,169.0781 1042.1875,168.7813 1042.9375,168.2344 C1043.5156,167.8281 1043.8438,167.375 1043.8438,166.9844 C1043.8438,166.5313 1043.4531,166.1406 1042.9844,166.1406 C1042.7656,166.1406 1042.5625,166.2188 1042.375,166.4063 C1041.9219,166.8906 1041.9219,166.8906 1041.7344,166.9844 C1041.3125,167.25 1040.625,167.375 1039.8594,167.375 C1037.8125,167.375 1036.5156,166.2813 1036.5156,164.5781 L1036.5156,163.4844 C1036.5156,161.7031 1037.7656,160.3906 1039.5,160.3906 C1040.0781,160.3906 1040.6875,160.5469 1041.1563,160.7969 C1041.6406,161.0781 1041.8125,161.2969 1041.9063,161.7031 C1041.9688,162.1094 1042,162.2344 1042.1406,162.3594 C1042.2813,162.5 1042.5156,162.6094 1042.7344,162.6094 C1043,162.6094 1043.2656,162.4688 1043.4375,162.25 C1043.5469,162.0938 1043.5781,161.9063 1043.5781,161.4844 L1043.5781,160.0625 C1043.5781,159.625 1043.5625,159.5 1043.4688,159.3438 C1043.3125,159.0781 1043.0313,158.9375 1042.7344,158.9375 C1042.4375,158.9375 1042.2344,159.0313 1042.0156,159.3438 L1041.8438,159.2656 Z " fill="#000000"/><text fill="#000000" font-family="sans-serif" font-size="12" lengthAdjust="spacing" textLength="74" x="1053.5" y="167.748">sf:LineString</text><line style="stroke:#A80036;stroke-width:1.5;" x1="1025.5" x2="1129.5" y1="179.5938" y2="179.5938"/><line style="stroke:#A80036;stroke-width:1.5;" x1="1025.5" x2="1129.5" y1="187.5938" y2="187.5938"/><!--MD5=[8769ba710cd4c62aec428e033c91e43d]
class tern-loc:LineString--><a href="https://w3id.org/tern/ontologies/loc/LineString" target="_top" title="https://w3id.org/tern/ontologies/loc/LineString" xlink:actuate="onRequest" xlink:href="https://w3id.org/tern/ontologies/loc/LineString" xlink:show="new" xlink:title="https://w3id.org/tern/ontologies/loc/LineString" xlink:type="simple"><rect codeLine="20" fill="#FEFECE" filter="url(#fv6aqhrw3nsy7)" height="48" id="tern-loc:LineString" style="stroke:#A80036;stroke-width:1.5;" width="142" x="922.5" y="255.5938"/><ellipse cx="937.5" cy="271.5938" fill="#ADD1B2" rx="11" ry="11" style="stroke:#A80036;stroke-width:1.0;"/><path d="M939.8438,267.2656 C938.9063,266.8281 938.3125,266.6875 937.4375,266.6875 C934.8125,266.6875 932.8125,268.7656 932.8125,271.4844 L932.8125,272.6094 C932.8125,275.1875 934.9219,277.0781 937.8125,277.0781 C939.0313,277.0781 940.1875,276.7813 940.9375,276.2344 C941.5156,275.8281 941.8438,275.375 941.8438,274.9844 C941.8438,274.5313 941.4531,274.1406 940.9844,274.1406 C940.7656,274.1406 940.5625,274.2188 940.375,274.4063 C939.9219,274.8906 939.9219,274.8906 939.7344,274.9844 C939.3125,275.25 938.625,275.375 937.8594,275.375 C935.8125,275.375 934.5156,274.2813 934.5156,272.5781 L934.5156,271.4844 C934.5156,269.7031 935.7656,268.3906 937.5,268.3906 C938.0781,268.3906 938.6875,268.5469 939.1563,268.7969 C939.6406,269.0781 939.8125,269.2969 939.9063,269.7031 C939.9688,270.1094 940,270.2344 940.1406,270.3594 C940.2813,270.5 940.5156,270.6094 940.7344,270.6094 C941,270.6094 941.2656,270.4688 941.4375,270.25 C941.5469,270.0938 941.5781,269.9063 941.5781,269.4844 L941.5781,268.0625 C941.5781,267.625 941.5625,267.5 941.4688,267.3438 C941.3125,267.0781 941.0313,266.9375 940.7344,266.9375 C940.4375,266.9375 940.2344,267.0313 940.0156,267.3438 L939.8438,267.2656 Z " fill="#000000"/><text fill="#000000" font-family="sans-serif" font-size="12" lengthAdjust="spacing" textLength="110" x="951.5" y="275.748">tern-loc:LineString</text><line style="stroke:#A80036;stroke-width:1.5;" x1="923.5" x2="1063.5" y1="287.5938" y2="287.5938"/><line style="stroke:#A80036;stroke-width:1.5;" x1="923.5" x2="1063.5" y1="295.5938" y2="295.5938"/></a><!--MD5=[4d0ebc4f9f40275605d7c32eb13fc43e]
class geosparql:Geometry--><rect fill="#FEFECE" filter="url(#fv6aqhrw3nsy7)" height="48" id="geosparql:Geometry" style="stroke:#A80036;stroke-width:1.5;" width="158" x="448.5" y="39.5938"/><ellipse cx="463.5" cy="55.5938" fill="#ADD1B2" rx="11" ry="11" style="stroke:#A80036;stroke-width:1.0;"/><path d="M465.8438,51.2656 C464.9063,50.8281 464.3125,50.6875 463.4375,50.6875 C460.8125,50.6875 458.8125,52.7656 458.8125,55.4844 L458.8125,56.6094 C458.8125,59.1875 460.9219,61.0781 463.8125,61.0781 C465.0313,61.0781 466.1875,60.7813 466.9375,60.2344 C467.5156,59.8281 467.8438,59.375 467.8438,58.9844 C467.8438,58.5313 467.4531,58.1406 466.9844,58.1406 C466.7656,58.1406 466.5625,58.2188 466.375,58.4063 C465.9219,58.8906 465.9219,58.8906 465.7344,58.9844 C465.3125,59.25 464.625,59.375 463.8594,59.375 C461.8125,59.375 460.5156,58.2813 460.5156,56.5781 L460.5156,55.4844 C460.5156,53.7031 461.7656,52.3906 463.5,52.3906 C464.0781,52.3906 464.6875,52.5469 465.1563,52.7969 C465.6406,53.0781 465.8125,53.2969 465.9063,53.7031 C465.9688,54.1094 466,54.2344 466.1406,54.3594 C466.2813,54.5 466.5156,54.6094 466.7344,54.6094 C467,54.6094 467.2656,54.4688 467.4375,54.25 C467.5469,54.0938 467.5781,53.9063 467.5781,53.4844 L467.5781,52.0625 C467.5781,51.625 467.5625,51.5 467.4688,51.3438 C467.3125,51.0781 467.0313,50.9375 466.7344,50.9375 C466.4375,50.9375 466.2344,51.0313 466.0156,51.3438 L465.8438,51.2656 Z " fill="#000000"/><text fill="#000000" font-family="sans-serif" font-size="12" lengthAdjust="spacing" textLength="126" x="477.5" y="59.748">geosparql:Geometry</text><line style="stroke:#A80036;stroke-width:1.5;" x1="449.5" x2="605.5" y1="71.5938" y2="71.5938"/><line style="stroke:#A80036;stroke-width:1.5;" x1="449.5" x2="605.5" y1="79.5938" y2="79.5938"/><!--MD5=[afd1637b322d36e23c8bf8e52a24b922]
reverse link dct:Location to tern-loc:Location--><path codeLine="2" d="M110.891,206.6406 C134.961,222.5869 163.011,241.1696 184.574,255.4554 " fill="none" id="dct:Location-backto-tern-loc:Location" style="stroke:#A80036;stroke-width:1.0;"/><polygon fill="none" points="107.025,212.4757,94.2176,195.5938,114.757,200.8048,107.025,212.4757" style="stroke:#A80036;stroke-width:1.0;"/><!--MD5=[cb697e3f2f1d434039e405e37dec9cd3]
reverse link tern-loc:Geometry to tern-loc:Location--><path codeLine="3" d="M441.439,202.2128 C392.324,219.1154 331.679,239.9868 286.201,255.6383 " fill="none" id="tern-loc:Geometry-backto-tern-loc:Location" style="stroke:#A80036;stroke-width:1.0;"/><polygon fill="none" points="439.479,195.4838,460.669,195.5938,444.035,208.7217,439.479,195.4838" style="stroke:#A80036;stroke-width:1.0;"/><!--MD5=[da62121c43f2d8e03a68865ec0fa3196]
reverse link geosparql:Feature to tern-loc:Location--><path codeLine="4" d="M219.5,215.6174 C219.5,229.173 219.5,243.6319 219.5,255.2722 " fill="none" id="geosparql:Feature-backto-tern-loc:Location" style="stroke:#A80036;stroke-width:1.0;"/><polygon fill="none" points="212.5,215.5943,219.5,195.5938,226.5,215.5942,212.5,215.5943" style="stroke:#A80036;stroke-width:1.0;"/><!--MD5=[51a7cfd66038ce77a5a433efcd013f3a]
reverse link sf:Polygon to tern-loc:Polygon--><path codeLine="5" d="M413.524,209.1671 C430.251,224.4527 449.193,241.7611 463.978,255.2722 " fill="none" id="sf:Polygon-backto-tern-loc:Polygon" style="stroke:#A80036;stroke-width:1.0;"/><polygon fill="none" points="408.712,214.2532,398.67,195.5938,418.157,203.9182,408.712,214.2532" style="stroke:#A80036;stroke-width:1.0;"/><!--MD5=[48cfe14eb14fc664ad428c7cfab7c319]
reverse link tern-loc:Geometry to tern-loc:Polygon--><path codeLine="6" d="M512.423,214.6506 C507.464,228.4828 502.133,243.3547 497.861,255.2722 " fill="none" id="tern-loc:Geometry-backto-tern-loc:Polygon" style="stroke:#A80036;stroke-width:1.0;"/><polygon fill="none" points="505.916,212.0588,519.255,195.5938,519.095,216.7833,505.916,212.0588" style="stroke:#A80036;stroke-width:1.0;"/><!--MD5=[1fe29bb9528bc75ab86db3cc7113e506]
reverse link tern-loc:Geometry to tern-loc:Point--><path codeLine="7" d="M584.368,205.7147 C612.095,221.8636 644.767,240.8922 669.772,255.4554 " fill="none" id="tern-loc:Geometry-backto-tern-loc:Point" style="stroke:#A80036;stroke-width:1.0;"/><polygon fill="none" points="580.751,211.7087,566.991,195.5938,587.797,199.6108,580.751,211.7087" style="stroke:#A80036;stroke-width:1.0;"/><!--MD5=[29f7f1c9da998e3e1cb0828a9900b6c8]
reverse link sf:Point to tern-loc:Point--><path codeLine="8" d="M686.577,214.6506 C691.536,228.4828 696.867,243.3547 701.139,255.2722 " fill="none" id="sf:Point-backto-tern-loc:Point" style="stroke:#A80036;stroke-width:1.0;"/><polygon fill="none" points="679.905,216.7833,679.745,195.5938,693.084,212.0588,679.905,216.7833" style="stroke:#A80036;stroke-width:1.0;"/><!--MD5=[8c2aa92d6514d17a4ce697438d39211d]
reverse link geo:Point to tern-loc:Point--><path codeLine="9" d="M759.301,211.7722 C748.404,226.3933 736.383,242.5233 726.881,255.2722 " fill="none" id="geo:Point-backto-tern-loc:Point" style="stroke:#A80036;stroke-width:1.0;"/><polygon fill="none" points="753.794,207.4474,771.358,195.5938,765.019,215.8135,753.794,207.4474" style="stroke:#A80036;stroke-width:1.0;"/><!--MD5=[d68c5b1816c22edfe60892291c0b4b30]
reverse link locn:Geometry to tern-loc:Point--><path codeLine="10" d="M862.916,204.3377 C828.961,220.7727 788.253,240.4761 757.305,255.4554 " fill="none" id="locn:Geometry-backto-tern-loc:Point" style="stroke:#A80036;stroke-width:1.0;"/><polygon fill="none" points="859.928,198.0068,880.98,195.5938,866.028,210.6084,859.928,198.0068" style="stroke:#A80036;stroke-width:1.0;"/><!--MD5=[718676226f92dcfe37e256519b7a4772]
reverse link sf:LineString to tern-loc:LineString--><path codeLine="11" d="M1046.83,211.2959 C1035.14,226.0423 1022.19,242.3847 1011.98,255.2722 " fill="none" id="sf:LineString-backto-tern-loc:LineString" style="stroke:#A80036;stroke-width:1.0;"/><polygon fill="none" points="1041.37,206.9216,1059.27,195.5938,1052.34,215.6167,1041.37,206.9216" style="stroke:#A80036;stroke-width:1.0;"/><!--MD5=[fcc78106e29e4005be3b320fa7d2fd43]
reverse link tern-loc:Geometry to tern-loc:LineString--><path codeLine="12" d="M618.855,196.0548 C735.666,223.7946 850.536,248.5542 922.451,263.7532 " fill="none" id="tern-loc:Geometry-backto-tern-loc:LineString" style="stroke:#A80036;stroke-width:1.0;"/><polygon fill="none" points="617.163,202.8478,599.335,191.3958,620.414,189.2308,617.163,202.8478" style="stroke:#A80036;stroke-width:1.0;"/><!--MD5=[84bd103bc7748a4fba45aa221bd58cda]
reverse link geosparql:Geometry to tern-loc:Geometry--><path codeLine="13" d="M527.5,107.6178 C527.5,121.1728 527.5,135.6318 527.5,147.2718 " fill="none" id="geosparql:Geometry-backto-tern-loc:Geometry" style="stroke:#A80036;stroke-width:1.0;"/><polygon fill="none" points="520.5,107.5938,527.5,87.5938,534.5,107.5938,520.5,107.5938" style="stroke:#A80036;stroke-width:1.0;"/><text fill="#888888" font-family="sans-serif" font-size="10" lengthAdjust="spacing" textLength="74" x="412.25" y="325.876">Generated by</text><a href="https://github.com/edmondchuc/ontogram" target="_top" title="https://github.com/edmondchuc/ontogram" xlink:actuate="onRequest" xlink:href="https://github.com/edmondchuc/ontogram" xlink:show="new" xlink:title="https://github.com/edmondchuc/ontogram" xlink:type="simple"><text fill="#0000FF" font-family="sans-serif" font-size="10" lengthAdjust="spacing" text-decoration="underline" textLength="230" x="489.25" y="325.876">https://github.com/edmondchuc/ontogram</text></a><!--MD5=[9525b91096aff8b0e64eeb79eecb2af6]
@startuml
title TERN Location Alignment Ontology
"dct:Location" <|- - "tern-loc:Location"
"tern-loc:Geometry" <|- - "tern-loc:Location"
"geosparql:Feature" <|- - "tern-loc:Location"
"sf:Polygon" <|- - "tern-loc:Polygon"
"tern-loc:Geometry" <|- - "tern-loc:Polygon"
"tern-loc:Geometry" <|- - "tern-loc:Point"
"sf:Point" <|- - "tern-loc:Point"
"geo:Point" <|- - "tern-loc:Point"
"locn:Geometry" <|- - "tern-loc:Point"
"sf:LineString" <|- - "tern-loc:LineString"
"tern-loc:Geometry" <|- - "tern-loc:LineString"
"geosparql:Geometry" <|- - "tern-loc:Geometry"
Class "tern-loc:Location" [[https://w3id.org/tern/ontologies/loc/Location]] {
}
Class "tern-loc:Polygon" [[https://w3id.org/tern/ontologies/loc/Polygon]] {
}
Class "tern-loc:Point" [[https://w3id.org/tern/ontologies/loc/Point]] {
}
Class "tern-loc:LineString" [[https://w3id.org/tern/ontologies/loc/LineString]] {
}
Class "tern-loc:Geometry" [[https://w3id.org/tern/ontologies/loc/Geometry]] {
}
header
Creator: Edmond Chuc (e.chuc@uq.edu.au) 
endheader
center footer Generated by [[https://github.com/edmondchuc/ontogram https://github.com/edmondchuc/ontogram]]
@enduml

PlantUML version 1.2021.9beta2(Unknown compile time)
(GPL source distribution)
Java Runtime: Java(TM) SE Runtime Environment
JVM: Java HotSpot(TM) 64-Bit Server VM
Default Encoding: UTF-8
Language: en
Country: US
--></g></svg>