<?xml version="1.0" encoding="UTF-8" standalone="no"?><svg xmlns="http://www.w3.org/2000/svg" xmlns:xlink="http://www.w3.org/1999/xlink" contentScriptType="application/ecmascript" contentStyleType="text/css" height="231px" preserveAspectRatio="none" style="width:687px;height:231px;" version="1.1" viewBox="0 0 687 231" width="687px" zoomAndPan="magnify"><defs><filter height="300%" id="f1tpg5pbrumf7k" width="300%" x="-1" y="-1"><feGaussianBlur result="blurOut" stdDeviation="2.0"/><feColorMatrix in="blurOut" result="blurOut2" type="matrix" values="0 0 0 0 0 0 0 0 0 0 0 0 0 0 0 0 0 0 .4 0"/><feOffset dx="4.0" dy="4.0" in="blurOut2" result="blurOut3"/><feBlend in="SourceGraphic" in2="blurOut3" mode="normal"/></filter></defs><g><text fill="#888888" font-family="sans-serif" font-size="10" lengthAdjust="spacingAndGlyphs" textLength="236" x="433" y="9.2822">Creator: Edmond Chuc (e.chuc@uq.edu.au)</text><text fill="#000000" font-family="sans-serif" font-size="18" lengthAdjust="spacingAndGlyphs" textLength="323" x="173" y="28.3486">TERN Location Alignment Ontology</text><!--MD5=[f6be3c52ce9b6300cb295795c7aca351]
class sf:LineString--><rect fill="#FEFECE" filter="url(#f1tpg5pbrumf7k)" height="48" id="sf:LineString" style="stroke: #A80036; stroke-width: 1.5;" width="106" x="25" y="39.5938"/><ellipse cx="40" cy="55.5938" fill="#ADD1B2" rx="11" ry="11" style="stroke: #A80036; stroke-width: 1.0;"/><path d="M42.3438,51.2656 C41.4063,50.8281 40.8125,50.6875 39.9375,50.6875 C37.3125,50.6875 35.3125,52.7656 35.3125,55.4844 L35.3125,56.6094 C35.3125,59.1875 37.4219,61.0781 40.3125,61.0781 C41.5313,61.0781 42.6875,60.7813 43.4375,60.2344 C44.0156,59.8281 44.3438,59.375 44.3438,58.9844 C44.3438,58.5313 43.9531,58.1406 43.4844,58.1406 C43.2656,58.1406 43.0625,58.2188 42.875,58.4063 C42.4219,58.8906 42.4219,58.8906 42.2344,58.9844 C41.8125,59.25 41.125,59.375 40.3594,59.375 C38.3125,59.375 37.0156,58.2813 37.0156,56.5781 L37.0156,55.4844 C37.0156,53.7031 38.2656,52.3906 40,52.3906 C40.5781,52.3906 41.1875,52.5469 41.6563,52.7969 C42.1406,53.0781 42.3125,53.2969 42.4063,53.7031 C42.4688,54.1094 42.5,54.2344 42.6406,54.3594 C42.7813,54.5 43.0156,54.6094 43.2344,54.6094 C43.5,54.6094 43.7656,54.4688 43.9375,54.25 C44.0469,54.0938 44.0781,53.9063 44.0781,53.4844 L44.0781,52.0625 C44.0781,51.625 44.0625,51.5 43.9688,51.3438 C43.8125,51.0781 43.5313,50.9375 43.2344,50.9375 C42.9375,50.9375 42.7344,51.0313 42.5156,51.3438 L42.3438,51.2656 Z "/><text fill="#000000" font-family="sans-serif" font-size="12" lengthAdjust="spacingAndGlyphs" textLength="74" x="54" y="59.748">sf:LineString</text><line style="stroke: #A80036; stroke-width: 1.5;" x1="26" x2="130" y1="71.5938" y2="71.5938"/><line style="stroke: #A80036; stroke-width: 1.5;" x1="26" x2="130" y1="79.5938" y2="79.5938"/><!--MD5=[8769ba710cd4c62aec428e033c91e43d]
class tern-loc:LineString--><a href="https://w3id.org/tern/ontologies/loc/LineString" target="_top" title="https://w3id.org/tern/ontologies/loc/LineString" xlink:actuate="onRequest" xlink:href="https://w3id.org/tern/ontologies/loc/LineString" xlink:show="new" xlink:title="https://w3id.org/tern/ontologies/loc/LineString" xlink:type="simple"><rect codeLine="7" fill="#FEFECE" filter="url(#f1tpg5pbrumf7k)" height="48" id="tern-loc:LineString" style="stroke: #A80036; stroke-width: 1.5;" width="142" x="7" y="147.5938"/><ellipse cx="22" cy="163.5938" fill="#ADD1B2" rx="11" ry="11" style="stroke: #A80036; stroke-width: 1.0;"/><path d="M24.3438,159.2656 C23.4063,158.8281 22.8125,158.6875 21.9375,158.6875 C19.3125,158.6875 17.3125,160.7656 17.3125,163.4844 L17.3125,164.6094 C17.3125,167.1875 19.4219,169.0781 22.3125,169.0781 C23.5313,169.0781 24.6875,168.7813 25.4375,168.2344 C26.0156,167.8281 26.3438,167.375 26.3438,166.9844 C26.3438,166.5313 25.9531,166.1406 25.4844,166.1406 C25.2656,166.1406 25.0625,166.2188 24.875,166.4063 C24.4219,166.8906 24.4219,166.8906 24.2344,166.9844 C23.8125,167.25 23.125,167.375 22.3594,167.375 C20.3125,167.375 19.0156,166.2813 19.0156,164.5781 L19.0156,163.4844 C19.0156,161.7031 20.2656,160.3906 22,160.3906 C22.5781,160.3906 23.1875,160.5469 23.6563,160.7969 C24.1406,161.0781 24.3125,161.2969 24.4063,161.7031 C24.4688,162.1094 24.5,162.2344 24.6406,162.3594 C24.7813,162.5 25.0156,162.6094 25.2344,162.6094 C25.5,162.6094 25.7656,162.4688 25.9375,162.25 C26.0469,162.0938 26.0781,161.9063 26.0781,161.4844 L26.0781,160.0625 C26.0781,159.625 26.0625,159.5 25.9688,159.3438 C25.8125,159.0781 25.5313,158.9375 25.2344,158.9375 C24.9375,158.9375 24.7344,159.0313 24.5156,159.3438 L24.3438,159.2656 Z "/><text fill="#000000" font-family="sans-serif" font-size="12" lengthAdjust="spacingAndGlyphs" textLength="110" x="36" y="167.748">tern-loc:LineString</text><line style="stroke: #A80036; stroke-width: 1.5;" x1="8" x2="148" y1="179.5938" y2="179.5938"/><line style="stroke: #A80036; stroke-width: 1.5;" x1="8" x2="148" y1="187.5938" y2="187.5938"/></a><!--MD5=[4b4dc00f06a8a0ae0f42cf5f98def9ae]
class geo:Point--><rect fill="#FEFECE" filter="url(#f1tpg5pbrumf7k)" height="48" id="geo:Point" style="stroke: #A80036; stroke-width: 1.5;" width="88" x="166" y="39.5938"/><ellipse cx="181" cy="55.5938" fill="#ADD1B2" rx="11" ry="11" style="stroke: #A80036; stroke-width: 1.0;"/><path d="M183.3438,51.2656 C182.4063,50.8281 181.8125,50.6875 180.9375,50.6875 C178.3125,50.6875 176.3125,52.7656 176.3125,55.4844 L176.3125,56.6094 C176.3125,59.1875 178.4219,61.0781 181.3125,61.0781 C182.5313,61.0781 183.6875,60.7813 184.4375,60.2344 C185.0156,59.8281 185.3438,59.375 185.3438,58.9844 C185.3438,58.5313 184.9531,58.1406 184.4844,58.1406 C184.2656,58.1406 184.0625,58.2188 183.875,58.4063 C183.4219,58.8906 183.4219,58.8906 183.2344,58.9844 C182.8125,59.25 182.125,59.375 181.3594,59.375 C179.3125,59.375 178.0156,58.2813 178.0156,56.5781 L178.0156,55.4844 C178.0156,53.7031 179.2656,52.3906 181,52.3906 C181.5781,52.3906 182.1875,52.5469 182.6563,52.7969 C183.1406,53.0781 183.3125,53.2969 183.4063,53.7031 C183.4688,54.1094 183.5,54.2344 183.6406,54.3594 C183.7813,54.5 184.0156,54.6094 184.2344,54.6094 C184.5,54.6094 184.7656,54.4688 184.9375,54.25 C185.0469,54.0938 185.0781,53.9063 185.0781,53.4844 L185.0781,52.0625 C185.0781,51.625 185.0625,51.5 184.9688,51.3438 C184.8125,51.0781 184.5313,50.9375 184.2344,50.9375 C183.9375,50.9375 183.7344,51.0313 183.5156,51.3438 L183.3438,51.2656 Z "/><text fill="#000000" font-family="sans-serif" font-size="12" lengthAdjust="spacingAndGlyphs" textLength="56" x="195" y="59.748">geo:Point</text><line style="stroke: #A80036; stroke-width: 1.5;" x1="167" x2="253" y1="71.5938" y2="71.5938"/><line style="stroke: #A80036; stroke-width: 1.5;" x1="167" x2="253" y1="79.5938" y2="79.5938"/><!--MD5=[b67d05c86b32bf3c0f7bf9b2b1a33612]
class tern-loc:Point--><a href="https://w3id.org/tern/ontologies/loc/Point" target="_top" title="https://w3id.org/tern/ontologies/loc/Point" xlink:actuate="onRequest" xlink:href="https://w3id.org/tern/ontologies/loc/Point" xlink:show="new" xlink:title="https://w3id.org/tern/ontologies/loc/Point" xlink:type="simple"><rect codeLine="9" fill="#FEFECE" filter="url(#f1tpg5pbrumf7k)" height="48" id="tern-loc:Point" style="stroke: #A80036; stroke-width: 1.5;" width="111" x="294.5" y="147.5938"/><ellipse cx="309.5" cy="163.5938" fill="#ADD1B2" rx="11" ry="11" style="stroke: #A80036; stroke-width: 1.0;"/><path d="M311.8438,159.2656 C310.9063,158.8281 310.3125,158.6875 309.4375,158.6875 C306.8125,158.6875 304.8125,160.7656 304.8125,163.4844 L304.8125,164.6094 C304.8125,167.1875 306.9219,169.0781 309.8125,169.0781 C311.0313,169.0781 312.1875,168.7813 312.9375,168.2344 C313.5156,167.8281 313.8438,167.375 313.8438,166.9844 C313.8438,166.5313 313.4531,166.1406 312.9844,166.1406 C312.7656,166.1406 312.5625,166.2188 312.375,166.4063 C311.9219,166.8906 311.9219,166.8906 311.7344,166.9844 C311.3125,167.25 310.625,167.375 309.8594,167.375 C307.8125,167.375 306.5156,166.2813 306.5156,164.5781 L306.5156,163.4844 C306.5156,161.7031 307.7656,160.3906 309.5,160.3906 C310.0781,160.3906 310.6875,160.5469 311.1563,160.7969 C311.6406,161.0781 311.8125,161.2969 311.9063,161.7031 C311.9688,162.1094 312,162.2344 312.1406,162.3594 C312.2813,162.5 312.5156,162.6094 312.7344,162.6094 C313,162.6094 313.2656,162.4688 313.4375,162.25 C313.5469,162.0938 313.5781,161.9063 313.5781,161.4844 L313.5781,160.0625 C313.5781,159.625 313.5625,159.5 313.4688,159.3438 C313.3125,159.0781 313.0313,158.9375 312.7344,158.9375 C312.4375,158.9375 312.2344,159.0313 312.0156,159.3438 L311.8438,159.2656 Z "/><text fill="#000000" font-family="sans-serif" font-size="12" lengthAdjust="spacingAndGlyphs" textLength="79" x="323.5" y="167.748">tern-loc:Point</text><line style="stroke: #A80036; stroke-width: 1.5;" x1="295.5" x2="404.5" y1="179.5938" y2="179.5938"/><line style="stroke: #A80036; stroke-width: 1.5;" x1="295.5" x2="404.5" y1="187.5938" y2="187.5938"/></a><!--MD5=[cd48ee8575308cff07b85b42a6074af1]
class locn:Geometry--><rect fill="#FEFECE" filter="url(#f1tpg5pbrumf7k)" height="48" id="locn:Geometry" style="stroke: #A80036; stroke-width: 1.5;" width="121" x="289.5" y="39.5938"/><ellipse cx="304.5" cy="55.5938" fill="#ADD1B2" rx="11" ry="11" style="stroke: #A80036; stroke-width: 1.0;"/><path d="M306.8438,51.2656 C305.9063,50.8281 305.3125,50.6875 304.4375,50.6875 C301.8125,50.6875 299.8125,52.7656 299.8125,55.4844 L299.8125,56.6094 C299.8125,59.1875 301.9219,61.0781 304.8125,61.0781 C306.0313,61.0781 307.1875,60.7813 307.9375,60.2344 C308.5156,59.8281 308.8438,59.375 308.8438,58.9844 C308.8438,58.5313 308.4531,58.1406 307.9844,58.1406 C307.7656,58.1406 307.5625,58.2188 307.375,58.4063 C306.9219,58.8906 306.9219,58.8906 306.7344,58.9844 C306.3125,59.25 305.625,59.375 304.8594,59.375 C302.8125,59.375 301.5156,58.2813 301.5156,56.5781 L301.5156,55.4844 C301.5156,53.7031 302.7656,52.3906 304.5,52.3906 C305.0781,52.3906 305.6875,52.5469 306.1563,52.7969 C306.6406,53.0781 306.8125,53.2969 306.9063,53.7031 C306.9688,54.1094 307,54.2344 307.1406,54.3594 C307.2813,54.5 307.5156,54.6094 307.7344,54.6094 C308,54.6094 308.2656,54.4688 308.4375,54.25 C308.5469,54.0938 308.5781,53.9063 308.5781,53.4844 L308.5781,52.0625 C308.5781,51.625 308.5625,51.5 308.4688,51.3438 C308.3125,51.0781 308.0313,50.9375 307.7344,50.9375 C307.4375,50.9375 307.2344,51.0313 307.0156,51.3438 L306.8438,51.2656 Z "/><text fill="#000000" font-family="sans-serif" font-size="12" lengthAdjust="spacingAndGlyphs" textLength="89" x="318.5" y="59.748">locn:Geometry</text><line style="stroke: #A80036; stroke-width: 1.5;" x1="290.5" x2="409.5" y1="71.5938" y2="71.5938"/><line style="stroke: #A80036; stroke-width: 1.5;" x1="290.5" x2="409.5" y1="79.5938" y2="79.5938"/><!--MD5=[06a0b58d9040550ef5280287aedb19f7]
class sf:Point--><rect fill="#FEFECE" filter="url(#f1tpg5pbrumf7k)" height="48" id="sf:Point" style="stroke: #A80036; stroke-width: 1.5;" width="75" x="445.5" y="39.5938"/><ellipse cx="460.5" cy="55.5938" fill="#ADD1B2" rx="11" ry="11" style="stroke: #A80036; stroke-width: 1.0;"/><path d="M462.8438,51.2656 C461.9063,50.8281 461.3125,50.6875 460.4375,50.6875 C457.8125,50.6875 455.8125,52.7656 455.8125,55.4844 L455.8125,56.6094 C455.8125,59.1875 457.9219,61.0781 460.8125,61.0781 C462.0313,61.0781 463.1875,60.7813 463.9375,60.2344 C464.5156,59.8281 464.8438,59.375 464.8438,58.9844 C464.8438,58.5313 464.4531,58.1406 463.9844,58.1406 C463.7656,58.1406 463.5625,58.2188 463.375,58.4063 C462.9219,58.8906 462.9219,58.8906 462.7344,58.9844 C462.3125,59.25 461.625,59.375 460.8594,59.375 C458.8125,59.375 457.5156,58.2813 457.5156,56.5781 L457.5156,55.4844 C457.5156,53.7031 458.7656,52.3906 460.5,52.3906 C461.0781,52.3906 461.6875,52.5469 462.1563,52.7969 C462.6406,53.0781 462.8125,53.2969 462.9063,53.7031 C462.9688,54.1094 463,54.2344 463.1406,54.3594 C463.2813,54.5 463.5156,54.6094 463.7344,54.6094 C464,54.6094 464.2656,54.4688 464.4375,54.25 C464.5469,54.0938 464.5781,53.9063 464.5781,53.4844 L464.5781,52.0625 C464.5781,51.625 464.5625,51.5 464.4688,51.3438 C464.3125,51.0781 464.0313,50.9375 463.7344,50.9375 C463.4375,50.9375 463.2344,51.0313 463.0156,51.3438 L462.8438,51.2656 Z "/><text fill="#000000" font-family="sans-serif" font-size="12" lengthAdjust="spacingAndGlyphs" textLength="43" x="474.5" y="59.748">sf:Point</text><line style="stroke: #A80036; stroke-width: 1.5;" x1="446.5" x2="519.5" y1="71.5938" y2="71.5938"/><line style="stroke: #A80036; stroke-width: 1.5;" x1="446.5" x2="519.5" y1="79.5938" y2="79.5938"/><!--MD5=[681450c180318ac92d4d4448ad41864e]
class sf:Polygon--><rect fill="#FEFECE" filter="url(#f1tpg5pbrumf7k)" height="48" id="sf:Polygon" style="stroke: #A80036; stroke-width: 1.5;" width="94" x="556" y="39.5938"/><ellipse cx="571" cy="55.5938" fill="#ADD1B2" rx="11" ry="11" style="stroke: #A80036; stroke-width: 1.0;"/><path d="M573.3438,51.2656 C572.4063,50.8281 571.8125,50.6875 570.9375,50.6875 C568.3125,50.6875 566.3125,52.7656 566.3125,55.4844 L566.3125,56.6094 C566.3125,59.1875 568.4219,61.0781 571.3125,61.0781 C572.5313,61.0781 573.6875,60.7813 574.4375,60.2344 C575.0156,59.8281 575.3438,59.375 575.3438,58.9844 C575.3438,58.5313 574.9531,58.1406 574.4844,58.1406 C574.2656,58.1406 574.0625,58.2188 573.875,58.4063 C573.4219,58.8906 573.4219,58.8906 573.2344,58.9844 C572.8125,59.25 572.125,59.375 571.3594,59.375 C569.3125,59.375 568.0156,58.2813 568.0156,56.5781 L568.0156,55.4844 C568.0156,53.7031 569.2656,52.3906 571,52.3906 C571.5781,52.3906 572.1875,52.5469 572.6563,52.7969 C573.1406,53.0781 573.3125,53.2969 573.4063,53.7031 C573.4688,54.1094 573.5,54.2344 573.6406,54.3594 C573.7813,54.5 574.0156,54.6094 574.2344,54.6094 C574.5,54.6094 574.7656,54.4688 574.9375,54.25 C575.0469,54.0938 575.0781,53.9063 575.0781,53.4844 L575.0781,52.0625 C575.0781,51.625 575.0625,51.5 574.9688,51.3438 C574.8125,51.0781 574.5313,50.9375 574.2344,50.9375 C573.9375,50.9375 573.7344,51.0313 573.5156,51.3438 L573.3438,51.2656 Z "/><text fill="#000000" font-family="sans-serif" font-size="12" lengthAdjust="spacingAndGlyphs" textLength="62" x="585" y="59.748">sf:Polygon</text><line style="stroke: #A80036; stroke-width: 1.5;" x1="557" x2="649" y1="71.5938" y2="71.5938"/><line style="stroke: #A80036; stroke-width: 1.5;" x1="557" x2="649" y1="79.5938" y2="79.5938"/><!--MD5=[0169b4c160c1d1627128d322d53ed76e]
class tern-loc:Polygon--><a href="https://w3id.org/tern/ontologies/loc/Polygon" target="_top" title="https://w3id.org/tern/ontologies/loc/Polygon" xlink:actuate="onRequest" xlink:href="https://w3id.org/tern/ontologies/loc/Polygon" xlink:show="new" xlink:title="https://w3id.org/tern/ontologies/loc/Polygon" xlink:type="simple"><rect codeLine="11" fill="#FEFECE" filter="url(#f1tpg5pbrumf7k)" height="48" id="tern-loc:Polygon" style="stroke: #A80036; stroke-width: 1.5;" width="130" x="538" y="147.5938"/><ellipse cx="553" cy="163.5938" fill="#ADD1B2" rx="11" ry="11" style="stroke: #A80036; stroke-width: 1.0;"/><path d="M555.3438,159.2656 C554.4063,158.8281 553.8125,158.6875 552.9375,158.6875 C550.3125,158.6875 548.3125,160.7656 548.3125,163.4844 L548.3125,164.6094 C548.3125,167.1875 550.4219,169.0781 553.3125,169.0781 C554.5313,169.0781 555.6875,168.7813 556.4375,168.2344 C557.0156,167.8281 557.3438,167.375 557.3438,166.9844 C557.3438,166.5313 556.9531,166.1406 556.4844,166.1406 C556.2656,166.1406 556.0625,166.2188 555.875,166.4063 C555.4219,166.8906 555.4219,166.8906 555.2344,166.9844 C554.8125,167.25 554.125,167.375 553.3594,167.375 C551.3125,167.375 550.0156,166.2813 550.0156,164.5781 L550.0156,163.4844 C550.0156,161.7031 551.2656,160.3906 553,160.3906 C553.5781,160.3906 554.1875,160.5469 554.6563,160.7969 C555.1406,161.0781 555.3125,161.2969 555.4063,161.7031 C555.4688,162.1094 555.5,162.2344 555.6406,162.3594 C555.7813,162.5 556.0156,162.6094 556.2344,162.6094 C556.5,162.6094 556.7656,162.4688 556.9375,162.25 C557.0469,162.0938 557.0781,161.9063 557.0781,161.4844 L557.0781,160.0625 C557.0781,159.625 557.0625,159.5 556.9688,159.3438 C556.8125,159.0781 556.5313,158.9375 556.2344,158.9375 C555.9375,158.9375 555.7344,159.0313 555.5156,159.3438 L555.3438,159.2656 Z "/><text fill="#000000" font-family="sans-serif" font-size="12" lengthAdjust="spacingAndGlyphs" textLength="98" x="567" y="167.748">tern-loc:Polygon</text><line style="stroke: #A80036; stroke-width: 1.5;" x1="539" x2="667" y1="179.5938" y2="179.5938"/><line style="stroke: #A80036; stroke-width: 1.5;" x1="539" x2="667" y1="187.5938" y2="187.5938"/></a><!--MD5=[718676226f92dcfe37e256519b7a4772]
reverse link sf:LineString to tern-loc:LineString--><path codeLine="2" d="M78,107.6174 C78,121.173 78,135.6319 78,147.2722 " fill="none" id="sf:LineString&lt;-tern-loc:LineString" style="stroke: #A80036; stroke-width: 1.0;"/><polygon fill="none" points="71.0001,107.5943,78,87.5938,85.0001,107.5942,71.0001,107.5943" style="stroke: #A80036; stroke-width: 1.0;"/><!--MD5=[8c2aa92d6514d17a4ce697438d39211d]
reverse link geo:Point to tern-loc:Point--><path codeLine="3" d="M256.449,99.762 C277.081,115.3839 300.804,133.3454 319.198,147.2722 " fill="none" id="geo:Point&lt;-tern-loc:Point" style="stroke: #A80036; stroke-width: 1.0;"/><polygon fill="none" points="252.098,105.2478,240.378,87.5938,260.549,94.0858,252.098,105.2478" style="stroke: #A80036; stroke-width: 1.0;"/><!--MD5=[d68c5b1816c22edfe60892291c0b4b30]
reverse link locn:Geometry to tern-loc:Point--><path codeLine="4" d="M350,107.6174 C350,121.173 350,135.6319 350,147.2722 " fill="none" id="locn:Geometry&lt;-tern-loc:Point" style="stroke: #A80036; stroke-width: 1.0;"/><polygon fill="none" points="343,107.5943,350,87.5938,357,107.5942,343,107.5943" style="stroke: #A80036; stroke-width: 1.0;"/><!--MD5=[29f7f1c9da998e3e1cb0828a9900b6c8]
reverse link sf:Point to tern-loc:Point--><path codeLine="5" d="M438.288,100.2291 C418.825,115.741 396.562,133.484 379.262,147.2722 " fill="none" id="sf:Point&lt;-tern-loc:Point" style="stroke: #A80036; stroke-width: 1.0;"/><polygon fill="none" points="434.138,94.5858,454.141,87.5938,442.863,105.5336,434.138,94.5858" style="stroke: #A80036; stroke-width: 1.0;"/><!--MD5=[51a7cfd66038ce77a5a433efcd013f3a]
reverse link sf:Polygon to tern-loc:Polygon--><path codeLine="6" d="M603,107.6174 C603,121.173 603,135.6319 603,147.2722 " fill="none" id="sf:Polygon&lt;-tern-loc:Polygon" style="stroke: #A80036; stroke-width: 1.0;"/><polygon fill="none" points="596,107.5943,603,87.5938,610,107.5942,596,107.5943" style="stroke: #A80036; stroke-width: 1.0;"/><text fill="#888888" font-family="sans-serif" font-size="10" lengthAdjust="spacingAndGlyphs" textLength="74" x="181" y="217.876">Generated by</text><a href="https://github.com/edmondchuc/ontogram" target="_top" title="https://github.com/edmondchuc/ontogram" xlink:actuate="onRequest" xlink:href="https://github.com/edmondchuc/ontogram" xlink:show="new" xlink:title="https://github.com/edmondchuc/ontogram" xlink:type="simple"><text fill="#0000FF" font-family="sans-serif" font-size="10" lengthAdjust="spacingAndGlyphs" text-decoration="underline" textLength="230" x="258" y="217.876">https://github.com/edmondchuc/ontogram</text></a><!--MD5=[f14b248c253528845d73d0c6a7e246ae]
@startuml
title TERN Location Alignment Ontology
"sf:LineString" <|- - "tern-loc:LineString"
"geo:Point" <|- - "tern-loc:Point"
"locn:Geometry" <|- - "tern-loc:Point"
"sf:Point" <|- - "tern-loc:Point"
"sf:Polygon" <|- - "tern-loc:Polygon"
Class "tern-loc:LineString" [[https://w3id.org/tern/ontologies/loc/LineString]] {
}
Class "tern-loc:Point" [[https://w3id.org/tern/ontologies/loc/Point]] {
}
Class "tern-loc:Polygon" [[https://w3id.org/tern/ontologies/loc/Polygon]] {
}
header
Creator: Edmond Chuc (e.chuc@uq.edu.au) 
endheader
center footer Generated by [[https://github.com/edmondchuc/ontogram https://github.com/edmondchuc/ontogram]]
@enduml

PlantUML version 1.2020.16beta7(Unknown compile time)
(GPL source distribution)
Java Runtime: Java(TM) SE Runtime Environment
JVM: Java HotSpot(TM) 64-Bit Server VM
Default Encoding: UTF-8
Language: en
Country: US
--></g></svg>