<?xml version="1.0" encoding="UTF-8" standalone="no"?><svg xmlns="http://www.w3.org/2000/svg" xmlns:xlink="http://www.w3.org/1999/xlink" contentScriptType="application/ecmascript" contentStyleType="text/css" height="229px" preserveAspectRatio="none" style="width:715px;height:229px;" version="1.1" viewBox="0 0 715 229" width="715px" zoomAndPan="magnify"><defs><filter height="300%" id="fydtm4ucsc3uo" width="300%" x="-1" y="-1"><feGaussianBlur result="blurOut" stdDeviation="2.0"/><feColorMatrix in="blurOut" result="blurOut2" type="matrix" values="0 0 0 0 0 0 0 0 0 0 0 0 0 0 0 0 0 0 .4 0"/><feOffset dx="4.0" dy="4.0" in="blurOut2" result="blurOut3"/><feBlend in="SourceGraphic" in2="blurOut3" mode="normal"/></filter></defs><g><text fill="#888888" font-family="sans-serif" font-size="10" lengthAdjust="spacingAndGlyphs" textLength="236" x="467" y="9.2822">Creator: Edmond Chuc (e.chuc@uq.edu.au)</text><text fill="#000000" font-family="sans-serif" font-size="18" lengthAdjust="spacingAndGlyphs" textLength="323" x="190" y="28.3486">TERN Location Alignment Ontology</text><!--MD5=[4b4dc00f06a8a0ae0f42cf5f98def9ae]
class geo:Point--><rect fill="#FEFECE" filter="url(#fydtm4ucsc3uo)" height="48" id="geo:Point" style="stroke: #A80036; stroke-width: 1.5;" width="88" x="6" y="40.5938"/><ellipse cx="21" cy="56.5938" fill="#ADD1B2" rx="11" ry="11" style="stroke: #A80036; stroke-width: 1.0;"/><path d="M23.3438,52.2656 C22.4063,51.8281 21.8125,51.6875 20.9375,51.6875 C18.3125,51.6875 16.3125,53.7656 16.3125,56.4844 L16.3125,57.6094 C16.3125,60.1875 18.4219,62.0781 21.3125,62.0781 C22.5313,62.0781 23.6875,61.7813 24.4375,61.2344 C25.0156,60.8281 25.3438,60.375 25.3438,59.9844 C25.3438,59.5313 24.9531,59.1406 24.4844,59.1406 C24.2656,59.1406 24.0625,59.2188 23.875,59.4063 C23.4219,59.8906 23.4219,59.8906 23.2344,59.9844 C22.8125,60.25 22.125,60.375 21.3594,60.375 C19.3125,60.375 18.0156,59.2813 18.0156,57.5781 L18.0156,56.4844 C18.0156,54.7031 19.2656,53.3906 21,53.3906 C21.5781,53.3906 22.1875,53.5469 22.6563,53.7969 C23.1406,54.0781 23.3125,54.2969 23.4063,54.7031 C23.4688,55.1094 23.5,55.2344 23.6406,55.3594 C23.7813,55.5 24.0156,55.6094 24.2344,55.6094 C24.5,55.6094 24.7656,55.4688 24.9375,55.25 C25.0469,55.0938 25.0781,54.9063 25.0781,54.4844 L25.0781,53.0625 C25.0781,52.625 25.0625,52.5 24.9688,52.3438 C24.8125,52.0781 24.5313,51.9375 24.2344,51.9375 C23.9375,51.9375 23.7344,52.0313 23.5156,52.3438 L23.3438,52.2656 Z "/><text fill="#000000" font-family="sans-serif" font-size="12" lengthAdjust="spacingAndGlyphs" textLength="56" x="35" y="60.748">geo:Point</text><line style="stroke: #A80036; stroke-width: 1.5;" x1="7" x2="93" y1="72.5938" y2="72.5938"/><line style="stroke: #A80036; stroke-width: 1.5;" x1="7" x2="93" y1="80.5938" y2="80.5938"/><!--MD5=[b67d05c86b32bf3c0f7bf9b2b1a33612]
class tern-loc:Point--><a href="https://w3id.org/tern/ontologies/loc/Point" target="_top" title="https://w3id.org/tern/ontologies/loc/Point" xlink:actuate="onRequest" xlink:href="https://w3id.org/tern/ontologies/loc/Point" xlink:show="new" xlink:title="https://w3id.org/tern/ontologies/loc/Point" xlink:type="simple"><rect fill="#FEFECE" filter="url(#fydtm4ucsc3uo)" height="48" id="tern-loc:Point" style="stroke: #A80036; stroke-width: 1.5;" width="111" x="134.5" y="148.5938"/><ellipse cx="149.5" cy="164.5938" fill="#ADD1B2" rx="11" ry="11" style="stroke: #A80036; stroke-width: 1.0;"/><path d="M151.8438,160.2656 C150.9063,159.8281 150.3125,159.6875 149.4375,159.6875 C146.8125,159.6875 144.8125,161.7656 144.8125,164.4844 L144.8125,165.6094 C144.8125,168.1875 146.9219,170.0781 149.8125,170.0781 C151.0313,170.0781 152.1875,169.7813 152.9375,169.2344 C153.5156,168.8281 153.8438,168.375 153.8438,167.9844 C153.8438,167.5313 153.4531,167.1406 152.9844,167.1406 C152.7656,167.1406 152.5625,167.2188 152.375,167.4063 C151.9219,167.8906 151.9219,167.8906 151.7344,167.9844 C151.3125,168.25 150.625,168.375 149.8594,168.375 C147.8125,168.375 146.5156,167.2813 146.5156,165.5781 L146.5156,164.4844 C146.5156,162.7031 147.7656,161.3906 149.5,161.3906 C150.0781,161.3906 150.6875,161.5469 151.1563,161.7969 C151.6406,162.0781 151.8125,162.2969 151.9063,162.7031 C151.9688,163.1094 152,163.2344 152.1406,163.3594 C152.2813,163.5 152.5156,163.6094 152.7344,163.6094 C153,163.6094 153.2656,163.4688 153.4375,163.25 C153.5469,163.0938 153.5781,162.9063 153.5781,162.4844 L153.5781,161.0625 C153.5781,160.625 153.5625,160.5 153.4688,160.3438 C153.3125,160.0781 153.0313,159.9375 152.7344,159.9375 C152.4375,159.9375 152.2344,160.0313 152.0156,160.3438 L151.8438,160.2656 Z "/><text fill="#000000" font-family="sans-serif" font-size="12" lengthAdjust="spacingAndGlyphs" textLength="79" x="163.5" y="168.748">tern-loc:Point</text><line style="stroke: #A80036; stroke-width: 1.5;" x1="135.5" x2="244.5" y1="180.5938" y2="180.5938"/><line style="stroke: #A80036; stroke-width: 1.5;" x1="135.5" x2="244.5" y1="188.5938" y2="188.5938"/></a><!--MD5=[cd48ee8575308cff07b85b42a6074af1]
class locn:Geometry--><rect fill="#FEFECE" filter="url(#fydtm4ucsc3uo)" height="48" id="locn:Geometry" style="stroke: #A80036; stroke-width: 1.5;" width="121" x="129.5" y="40.5938"/><ellipse cx="144.5" cy="56.5938" fill="#ADD1B2" rx="11" ry="11" style="stroke: #A80036; stroke-width: 1.0;"/><path d="M146.8438,52.2656 C145.9063,51.8281 145.3125,51.6875 144.4375,51.6875 C141.8125,51.6875 139.8125,53.7656 139.8125,56.4844 L139.8125,57.6094 C139.8125,60.1875 141.9219,62.0781 144.8125,62.0781 C146.0313,62.0781 147.1875,61.7813 147.9375,61.2344 C148.5156,60.8281 148.8438,60.375 148.8438,59.9844 C148.8438,59.5313 148.4531,59.1406 147.9844,59.1406 C147.7656,59.1406 147.5625,59.2188 147.375,59.4063 C146.9219,59.8906 146.9219,59.8906 146.7344,59.9844 C146.3125,60.25 145.625,60.375 144.8594,60.375 C142.8125,60.375 141.5156,59.2813 141.5156,57.5781 L141.5156,56.4844 C141.5156,54.7031 142.7656,53.3906 144.5,53.3906 C145.0781,53.3906 145.6875,53.5469 146.1563,53.7969 C146.6406,54.0781 146.8125,54.2969 146.9063,54.7031 C146.9688,55.1094 147,55.2344 147.1406,55.3594 C147.2813,55.5 147.5156,55.6094 147.7344,55.6094 C148,55.6094 148.2656,55.4688 148.4375,55.25 C148.5469,55.0938 148.5781,54.9063 148.5781,54.4844 L148.5781,53.0625 C148.5781,52.625 148.5625,52.5 148.4688,52.3438 C148.3125,52.0781 148.0313,51.9375 147.7344,51.9375 C147.4375,51.9375 147.2344,52.0313 147.0156,52.3438 L146.8438,52.2656 Z "/><text fill="#000000" font-family="sans-serif" font-size="12" lengthAdjust="spacingAndGlyphs" textLength="89" x="158.5" y="60.748">locn:Geometry</text><line style="stroke: #A80036; stroke-width: 1.5;" x1="130.5" x2="249.5" y1="72.5938" y2="72.5938"/><line style="stroke: #A80036; stroke-width: 1.5;" x1="130.5" x2="249.5" y1="80.5938" y2="80.5938"/><!--MD5=[06a0b58d9040550ef5280287aedb19f7]
class sf:Point--><rect fill="#FEFECE" filter="url(#fydtm4ucsc3uo)" height="48" id="sf:Point" style="stroke: #A80036; stroke-width: 1.5;" width="75" x="285.5" y="40.5938"/><ellipse cx="300.5" cy="56.5938" fill="#ADD1B2" rx="11" ry="11" style="stroke: #A80036; stroke-width: 1.0;"/><path d="M302.8438,52.2656 C301.9063,51.8281 301.3125,51.6875 300.4375,51.6875 C297.8125,51.6875 295.8125,53.7656 295.8125,56.4844 L295.8125,57.6094 C295.8125,60.1875 297.9219,62.0781 300.8125,62.0781 C302.0313,62.0781 303.1875,61.7813 303.9375,61.2344 C304.5156,60.8281 304.8438,60.375 304.8438,59.9844 C304.8438,59.5313 304.4531,59.1406 303.9844,59.1406 C303.7656,59.1406 303.5625,59.2188 303.375,59.4063 C302.9219,59.8906 302.9219,59.8906 302.7344,59.9844 C302.3125,60.25 301.625,60.375 300.8594,60.375 C298.8125,60.375 297.5156,59.2813 297.5156,57.5781 L297.5156,56.4844 C297.5156,54.7031 298.7656,53.3906 300.5,53.3906 C301.0781,53.3906 301.6875,53.5469 302.1563,53.7969 C302.6406,54.0781 302.8125,54.2969 302.9063,54.7031 C302.9688,55.1094 303,55.2344 303.1406,55.3594 C303.2813,55.5 303.5156,55.6094 303.7344,55.6094 C304,55.6094 304.2656,55.4688 304.4375,55.25 C304.5469,55.0938 304.5781,54.9063 304.5781,54.4844 L304.5781,53.0625 C304.5781,52.625 304.5625,52.5 304.4688,52.3438 C304.3125,52.0781 304.0313,51.9375 303.7344,51.9375 C303.4375,51.9375 303.2344,52.0313 303.0156,52.3438 L302.8438,52.2656 Z "/><text fill="#000000" font-family="sans-serif" font-size="12" lengthAdjust="spacingAndGlyphs" textLength="43" x="314.5" y="60.748">sf:Point</text><line style="stroke: #A80036; stroke-width: 1.5;" x1="286.5" x2="359.5" y1="72.5938" y2="72.5938"/><line style="stroke: #A80036; stroke-width: 1.5;" x1="286.5" x2="359.5" y1="80.5938" y2="80.5938"/><!--MD5=[f6be3c52ce9b6300cb295795c7aca351]
class sf:LineString--><rect fill="#FEFECE" filter="url(#fydtm4ucsc3uo)" height="48" id="sf:LineString" style="stroke: #A80036; stroke-width: 1.5;" width="106" x="396" y="40.5938"/><ellipse cx="411" cy="56.5938" fill="#ADD1B2" rx="11" ry="11" style="stroke: #A80036; stroke-width: 1.0;"/><path d="M413.3438,52.2656 C412.4063,51.8281 411.8125,51.6875 410.9375,51.6875 C408.3125,51.6875 406.3125,53.7656 406.3125,56.4844 L406.3125,57.6094 C406.3125,60.1875 408.4219,62.0781 411.3125,62.0781 C412.5313,62.0781 413.6875,61.7813 414.4375,61.2344 C415.0156,60.8281 415.3438,60.375 415.3438,59.9844 C415.3438,59.5313 414.9531,59.1406 414.4844,59.1406 C414.2656,59.1406 414.0625,59.2188 413.875,59.4063 C413.4219,59.8906 413.4219,59.8906 413.2344,59.9844 C412.8125,60.25 412.125,60.375 411.3594,60.375 C409.3125,60.375 408.0156,59.2813 408.0156,57.5781 L408.0156,56.4844 C408.0156,54.7031 409.2656,53.3906 411,53.3906 C411.5781,53.3906 412.1875,53.5469 412.6563,53.7969 C413.1406,54.0781 413.3125,54.2969 413.4063,54.7031 C413.4688,55.1094 413.5,55.2344 413.6406,55.3594 C413.7813,55.5 414.0156,55.6094 414.2344,55.6094 C414.5,55.6094 414.7656,55.4688 414.9375,55.25 C415.0469,55.0938 415.0781,54.9063 415.0781,54.4844 L415.0781,53.0625 C415.0781,52.625 415.0625,52.5 414.9688,52.3438 C414.8125,52.0781 414.5313,51.9375 414.2344,51.9375 C413.9375,51.9375 413.7344,52.0313 413.5156,52.3438 L413.3438,52.2656 Z "/><text fill="#000000" font-family="sans-serif" font-size="12" lengthAdjust="spacingAndGlyphs" textLength="74" x="425" y="60.748">sf:LineString</text><line style="stroke: #A80036; stroke-width: 1.5;" x1="397" x2="501" y1="72.5938" y2="72.5938"/><line style="stroke: #A80036; stroke-width: 1.5;" x1="397" x2="501" y1="80.5938" y2="80.5938"/><!--MD5=[8769ba710cd4c62aec428e033c91e43d]
class tern-loc:LineString--><a href="https://w3id.org/tern/ontologies/loc/LineString" target="_top" title="https://w3id.org/tern/ontologies/loc/LineString" xlink:actuate="onRequest" xlink:href="https://w3id.org/tern/ontologies/loc/LineString" xlink:show="new" xlink:title="https://w3id.org/tern/ontologies/loc/LineString" xlink:type="simple"><rect fill="#FEFECE" filter="url(#fydtm4ucsc3uo)" height="48" id="tern-loc:LineString" style="stroke: #A80036; stroke-width: 1.5;" width="142" x="378" y="148.5938"/><ellipse cx="393" cy="164.5938" fill="#ADD1B2" rx="11" ry="11" style="stroke: #A80036; stroke-width: 1.0;"/><path d="M395.3438,160.2656 C394.4063,159.8281 393.8125,159.6875 392.9375,159.6875 C390.3125,159.6875 388.3125,161.7656 388.3125,164.4844 L388.3125,165.6094 C388.3125,168.1875 390.4219,170.0781 393.3125,170.0781 C394.5313,170.0781 395.6875,169.7813 396.4375,169.2344 C397.0156,168.8281 397.3438,168.375 397.3438,167.9844 C397.3438,167.5313 396.9531,167.1406 396.4844,167.1406 C396.2656,167.1406 396.0625,167.2188 395.875,167.4063 C395.4219,167.8906 395.4219,167.8906 395.2344,167.9844 C394.8125,168.25 394.125,168.375 393.3594,168.375 C391.3125,168.375 390.0156,167.2813 390.0156,165.5781 L390.0156,164.4844 C390.0156,162.7031 391.2656,161.3906 393,161.3906 C393.5781,161.3906 394.1875,161.5469 394.6563,161.7969 C395.1406,162.0781 395.3125,162.2969 395.4063,162.7031 C395.4688,163.1094 395.5,163.2344 395.6406,163.3594 C395.7813,163.5 396.0156,163.6094 396.2344,163.6094 C396.5,163.6094 396.7656,163.4688 396.9375,163.25 C397.0469,163.0938 397.0781,162.9063 397.0781,162.4844 L397.0781,161.0625 C397.0781,160.625 397.0625,160.5 396.9688,160.3438 C396.8125,160.0781 396.5313,159.9375 396.2344,159.9375 C395.9375,159.9375 395.7344,160.0313 395.5156,160.3438 L395.3438,160.2656 Z "/><text fill="#000000" font-family="sans-serif" font-size="12" lengthAdjust="spacingAndGlyphs" textLength="110" x="407" y="168.748">tern-loc:LineString</text><line style="stroke: #A80036; stroke-width: 1.5;" x1="379" x2="519" y1="180.5938" y2="180.5938"/><line style="stroke: #A80036; stroke-width: 1.5;" x1="379" x2="519" y1="188.5938" y2="188.5938"/></a><!--MD5=[681450c180318ac92d4d4448ad41864e]
class sf:Polygon--><rect fill="#FEFECE" filter="url(#fydtm4ucsc3uo)" height="48" id="sf:Polygon" style="stroke: #A80036; stroke-width: 1.5;" width="94" x="573" y="40.5938"/><ellipse cx="588" cy="56.5938" fill="#ADD1B2" rx="11" ry="11" style="stroke: #A80036; stroke-width: 1.0;"/><path d="M590.3438,52.2656 C589.4063,51.8281 588.8125,51.6875 587.9375,51.6875 C585.3125,51.6875 583.3125,53.7656 583.3125,56.4844 L583.3125,57.6094 C583.3125,60.1875 585.4219,62.0781 588.3125,62.0781 C589.5313,62.0781 590.6875,61.7813 591.4375,61.2344 C592.0156,60.8281 592.3438,60.375 592.3438,59.9844 C592.3438,59.5313 591.9531,59.1406 591.4844,59.1406 C591.2656,59.1406 591.0625,59.2188 590.875,59.4063 C590.4219,59.8906 590.4219,59.8906 590.2344,59.9844 C589.8125,60.25 589.125,60.375 588.3594,60.375 C586.3125,60.375 585.0156,59.2813 585.0156,57.5781 L585.0156,56.4844 C585.0156,54.7031 586.2656,53.3906 588,53.3906 C588.5781,53.3906 589.1875,53.5469 589.6563,53.7969 C590.1406,54.0781 590.3125,54.2969 590.4063,54.7031 C590.4688,55.1094 590.5,55.2344 590.6406,55.3594 C590.7813,55.5 591.0156,55.6094 591.2344,55.6094 C591.5,55.6094 591.7656,55.4688 591.9375,55.25 C592.0469,55.0938 592.0781,54.9063 592.0781,54.4844 L592.0781,53.0625 C592.0781,52.625 592.0625,52.5 591.9688,52.3438 C591.8125,52.0781 591.5313,51.9375 591.2344,51.9375 C590.9375,51.9375 590.7344,52.0313 590.5156,52.3438 L590.3438,52.2656 Z "/><text fill="#000000" font-family="sans-serif" font-size="12" lengthAdjust="spacingAndGlyphs" textLength="62" x="602" y="60.748">sf:Polygon</text><line style="stroke: #A80036; stroke-width: 1.5;" x1="574" x2="666" y1="72.5938" y2="72.5938"/><line style="stroke: #A80036; stroke-width: 1.5;" x1="574" x2="666" y1="80.5938" y2="80.5938"/><!--MD5=[0169b4c160c1d1627128d322d53ed76e]
class tern-loc:Polygon--><a href="https://w3id.org/tern/ontologies/loc/Polygon" target="_top" title="https://w3id.org/tern/ontologies/loc/Polygon" xlink:actuate="onRequest" xlink:href="https://w3id.org/tern/ontologies/loc/Polygon" xlink:show="new" xlink:title="https://w3id.org/tern/ontologies/loc/Polygon" xlink:type="simple"><rect fill="#FEFECE" filter="url(#fydtm4ucsc3uo)" height="48" id="tern-loc:Polygon" style="stroke: #A80036; stroke-width: 1.5;" width="130" x="555" y="148.5938"/><ellipse cx="570" cy="164.5938" fill="#ADD1B2" rx="11" ry="11" style="stroke: #A80036; stroke-width: 1.0;"/><path d="M572.3438,160.2656 C571.4063,159.8281 570.8125,159.6875 569.9375,159.6875 C567.3125,159.6875 565.3125,161.7656 565.3125,164.4844 L565.3125,165.6094 C565.3125,168.1875 567.4219,170.0781 570.3125,170.0781 C571.5313,170.0781 572.6875,169.7813 573.4375,169.2344 C574.0156,168.8281 574.3438,168.375 574.3438,167.9844 C574.3438,167.5313 573.9531,167.1406 573.4844,167.1406 C573.2656,167.1406 573.0625,167.2188 572.875,167.4063 C572.4219,167.8906 572.4219,167.8906 572.2344,167.9844 C571.8125,168.25 571.125,168.375 570.3594,168.375 C568.3125,168.375 567.0156,167.2813 567.0156,165.5781 L567.0156,164.4844 C567.0156,162.7031 568.2656,161.3906 570,161.3906 C570.5781,161.3906 571.1875,161.5469 571.6563,161.7969 C572.1406,162.0781 572.3125,162.2969 572.4063,162.7031 C572.4688,163.1094 572.5,163.2344 572.6406,163.3594 C572.7813,163.5 573.0156,163.6094 573.2344,163.6094 C573.5,163.6094 573.7656,163.4688 573.9375,163.25 C574.0469,163.0938 574.0781,162.9063 574.0781,162.4844 L574.0781,161.0625 C574.0781,160.625 574.0625,160.5 573.9688,160.3438 C573.8125,160.0781 573.5313,159.9375 573.2344,159.9375 C572.9375,159.9375 572.7344,160.0313 572.5156,160.3438 L572.3438,160.2656 Z "/><text fill="#000000" font-family="sans-serif" font-size="12" lengthAdjust="spacingAndGlyphs" textLength="98" x="584" y="168.748">tern-loc:Polygon</text><line style="stroke: #A80036; stroke-width: 1.5;" x1="556" x2="684" y1="180.5938" y2="180.5938"/><line style="stroke: #A80036; stroke-width: 1.5;" x1="556" x2="684" y1="188.5938" y2="188.5938"/></a><!--MD5=[8c2aa92d6514d17a4ce697438d39211d]
reverse link geo:Point to tern-loc:Point--><path d="M96.4486,100.762 C117.081,116.3839 140.804,134.3454 159.198,148.2722 " fill="none" id="geo:Point&lt;-tern-loc:Point" style="stroke: #A80036; stroke-width: 1.0;"/><polygon fill="none" points="92.0976,106.2478,80.3779,88.5938,100.5486,95.0858,92.0976,106.2478" style="stroke: #A80036; stroke-width: 1.0;"/><!--MD5=[d68c5b1816c22edfe60892291c0b4b30]
reverse link locn:Geometry to tern-loc:Point--><path d="M190,108.6174 C190,122.173 190,136.6319 190,148.2722 " fill="none" id="locn:Geometry&lt;-tern-loc:Point" style="stroke: #A80036; stroke-width: 1.0;"/><polygon fill="none" points="183,108.5943,190,88.5938,197,108.5942,183,108.5943" style="stroke: #A80036; stroke-width: 1.0;"/><!--MD5=[29f7f1c9da998e3e1cb0828a9900b6c8]
reverse link sf:Point to tern-loc:Point--><path d="M278.288,101.2291 C258.825,116.741 236.562,134.484 219.262,148.2722 " fill="none" id="sf:Point&lt;-tern-loc:Point" style="stroke: #A80036; stroke-width: 1.0;"/><polygon fill="none" points="274.138,95.5858,294.141,88.5938,282.863,106.5336,274.138,95.5858" style="stroke: #A80036; stroke-width: 1.0;"/><!--MD5=[718676226f92dcfe37e256519b7a4772]
reverse link sf:LineString to tern-loc:LineString--><path d="M449,108.6174 C449,122.173 449,136.6319 449,148.2722 " fill="none" id="sf:LineString&lt;-tern-loc:LineString" style="stroke: #A80036; stroke-width: 1.0;"/><polygon fill="none" points="442,108.5943,449,88.5938,456,108.5942,442,108.5943" style="stroke: #A80036; stroke-width: 1.0;"/><!--MD5=[51a7cfd66038ce77a5a433efcd013f3a]
reverse link sf:Polygon to tern-loc:Polygon--><path d="M620,108.6174 C620,122.173 620,136.6319 620,148.2722 " fill="none" id="sf:Polygon&lt;-tern-loc:Polygon" style="stroke: #A80036; stroke-width: 1.0;"/><polygon fill="none" points="613,108.5943,620,88.5938,627,108.5942,613,108.5943" style="stroke: #A80036; stroke-width: 1.0;"/><text fill="#888888" font-family="sans-serif" font-size="10" lengthAdjust="spacingAndGlyphs" textLength="74" x="198" y="215.876">Generated by</text><a href="https://github.com/edmondchuc/ontogram" target="_top" title="https://github.com/edmondchuc/ontogram" xlink:actuate="onRequest" xlink:href="https://github.com/edmondchuc/ontogram" xlink:show="new" xlink:title="https://github.com/edmondchuc/ontogram" xlink:type="simple"><text fill="#0000FF" font-family="sans-serif" font-size="10" lengthAdjust="spacingAndGlyphs" text-decoration="underline" textLength="230" x="275" y="215.876">https://github.com/edmondchuc/ontogram</text></a><!--MD5=[9ef5d3bfd26b5610f4cd9f01a69db289]
@startuml
title TERN Location Alignment Ontology
"geo:Point" <|- - "tern-loc:Point"
"locn:Geometry" <|- - "tern-loc:Point"
"sf:Point" <|- - "tern-loc:Point"
"sf:LineString" <|- - "tern-loc:LineString"
"sf:Polygon" <|- - "tern-loc:Polygon"
Class "tern-loc:Point" [[https://w3id.org/tern/ontologies/loc/Point]] {
}
Class "tern-loc:LineString" [[https://w3id.org/tern/ontologies/loc/LineString]] {
}
Class "tern-loc:Polygon" [[https://w3id.org/tern/ontologies/loc/Polygon]] {
}
header
Creator: Edmond Chuc (e.chuc@uq.edu.au) 
endheader
center footer Generated by [[https://github.com/edmondchuc/ontogram https://github.com/edmondchuc/ontogram]]
@enduml

PlantUML version 1.2020.10(Sun May 17 09:35:57 UTC 2020)
(GPL source distribution)
Java Runtime: Java(TM) SE Runtime Environment
JVM: Java HotSpot(TM) 64-Bit Server VM
Java Version: 14.0.1+7
Operating System: Linux
Default Encoding: UTF-8
Language: en
Country: US
--></g></svg>