<?xml version="1.0" encoding="UTF-8" standalone="no"?><svg xmlns="http://www.w3.org/2000/svg" xmlns:xlink="http://www.w3.org/1999/xlink" contentScriptType="application/ecmascript" contentStyleType="text/css" height="229px" preserveAspectRatio="none" style="width:697px;height:229px;" version="1.1" viewBox="0 0 697 229" width="697px" zoomAndPan="magnify"><defs><filter height="300%" id="f4x6nhbin2gl8" width="300%" x="-1" y="-1"><feGaussianBlur result="blurOut" stdDeviation="2.0"/><feColorMatrix in="blurOut" result="blurOut2" type="matrix" values="0 0 0 0 0 0 0 0 0 0 0 0 0 0 0 0 0 0 .4 0"/><feOffset dx="4.0" dy="4.0" in="blurOut2" result="blurOut3"/><feBlend in="SourceGraphic" in2="blurOut3" mode="normal"/></filter></defs><g><text fill="#888888" font-family="sans-serif" font-size="10" lengthAdjust="spacingAndGlyphs" textLength="236" x="449" y="9.2822">Creator: Edmond Chuc (e.chuc@uq.edu.au)</text><text fill="#000000" font-family="sans-serif" font-size="18" lengthAdjust="spacingAndGlyphs" textLength="323" x="181" y="28.3486">TERN Location Alignment Ontology</text><!--MD5=[f6be3c52ce9b6300cb295795c7aca351]
class sf:LineString--><rect fill="#FEFECE" filter="url(#f4x6nhbin2gl8)" height="48" id="sf:LineString" style="stroke: #A80036; stroke-width: 1.5;" width="106" x="24" y="40.5938"/><ellipse cx="39" cy="56.5938" fill="#ADD1B2" rx="11" ry="11" style="stroke: #A80036; stroke-width: 1.0;"/><path d="M41.3438,52.2656 C40.4063,51.8281 39.8125,51.6875 38.9375,51.6875 C36.3125,51.6875 34.3125,53.7656 34.3125,56.4844 L34.3125,57.6094 C34.3125,60.1875 36.4219,62.0781 39.3125,62.0781 C40.5313,62.0781 41.6875,61.7813 42.4375,61.2344 C43.0156,60.8281 43.3438,60.375 43.3438,59.9844 C43.3438,59.5313 42.9531,59.1406 42.4844,59.1406 C42.2656,59.1406 42.0625,59.2188 41.875,59.4063 C41.4219,59.8906 41.4219,59.8906 41.2344,59.9844 C40.8125,60.25 40.125,60.375 39.3594,60.375 C37.3125,60.375 36.0156,59.2813 36.0156,57.5781 L36.0156,56.4844 C36.0156,54.7031 37.2656,53.3906 39,53.3906 C39.5781,53.3906 40.1875,53.5469 40.6563,53.7969 C41.1406,54.0781 41.3125,54.2969 41.4063,54.7031 C41.4688,55.1094 41.5,55.2344 41.6406,55.3594 C41.7813,55.5 42.0156,55.6094 42.2344,55.6094 C42.5,55.6094 42.7656,55.4688 42.9375,55.25 C43.0469,55.0938 43.0781,54.9063 43.0781,54.4844 L43.0781,53.0625 C43.0781,52.625 43.0625,52.5 42.9688,52.3438 C42.8125,52.0781 42.5313,51.9375 42.2344,51.9375 C41.9375,51.9375 41.7344,52.0313 41.5156,52.3438 L41.3438,52.2656 Z "/><text fill="#000000" font-family="sans-serif" font-size="12" lengthAdjust="spacingAndGlyphs" textLength="74" x="53" y="60.748">sf:LineString</text><line style="stroke: #A80036; stroke-width: 1.5;" x1="25" x2="129" y1="72.5938" y2="72.5938"/><line style="stroke: #A80036; stroke-width: 1.5;" x1="25" x2="129" y1="80.5938" y2="80.5938"/><!--MD5=[8769ba710cd4c62aec428e033c91e43d]
class tern-loc:LineString--><a href="https://w3id.org/tern/ontologies/loc/LineString" target="_top" title="https://w3id.org/tern/ontologies/loc/LineString" xlink:actuate="onRequest" xlink:href="https://w3id.org/tern/ontologies/loc/LineString" xlink:show="new" xlink:title="https://w3id.org/tern/ontologies/loc/LineString" xlink:type="simple"><rect fill="#FEFECE" filter="url(#f4x6nhbin2gl8)" height="48" id="tern-loc:LineString" style="stroke: #A80036; stroke-width: 1.5;" width="142" x="6" y="148.5938"/><ellipse cx="21" cy="164.5938" fill="#ADD1B2" rx="11" ry="11" style="stroke: #A80036; stroke-width: 1.0;"/><path d="M23.3438,160.2656 C22.4063,159.8281 21.8125,159.6875 20.9375,159.6875 C18.3125,159.6875 16.3125,161.7656 16.3125,164.4844 L16.3125,165.6094 C16.3125,168.1875 18.4219,170.0781 21.3125,170.0781 C22.5313,170.0781 23.6875,169.7813 24.4375,169.2344 C25.0156,168.8281 25.3438,168.375 25.3438,167.9844 C25.3438,167.5313 24.9531,167.1406 24.4844,167.1406 C24.2656,167.1406 24.0625,167.2188 23.875,167.4063 C23.4219,167.8906 23.4219,167.8906 23.2344,167.9844 C22.8125,168.25 22.125,168.375 21.3594,168.375 C19.3125,168.375 18.0156,167.2813 18.0156,165.5781 L18.0156,164.4844 C18.0156,162.7031 19.2656,161.3906 21,161.3906 C21.5781,161.3906 22.1875,161.5469 22.6563,161.7969 C23.1406,162.0781 23.3125,162.2969 23.4063,162.7031 C23.4688,163.1094 23.5,163.2344 23.6406,163.3594 C23.7813,163.5 24.0156,163.6094 24.2344,163.6094 C24.5,163.6094 24.7656,163.4688 24.9375,163.25 C25.0469,163.0938 25.0781,162.9063 25.0781,162.4844 L25.0781,161.0625 C25.0781,160.625 25.0625,160.5 24.9688,160.3438 C24.8125,160.0781 24.5313,159.9375 24.2344,159.9375 C23.9375,159.9375 23.7344,160.0313 23.5156,160.3438 L23.3438,160.2656 Z "/><text fill="#000000" font-family="sans-serif" font-size="12" lengthAdjust="spacingAndGlyphs" textLength="110" x="35" y="168.748">tern-loc:LineString</text><line style="stroke: #A80036; stroke-width: 1.5;" x1="7" x2="147" y1="180.5938" y2="180.5938"/><line style="stroke: #A80036; stroke-width: 1.5;" x1="7" x2="147" y1="188.5938" y2="188.5938"/></a><!--MD5=[4b4dc00f06a8a0ae0f42cf5f98def9ae]
class geo:Point--><rect fill="#FEFECE" filter="url(#f4x6nhbin2gl8)" height="48" id="geo:Point" style="stroke: #A80036; stroke-width: 1.5;" width="88" x="165" y="40.5938"/><ellipse cx="180" cy="56.5938" fill="#ADD1B2" rx="11" ry="11" style="stroke: #A80036; stroke-width: 1.0;"/><path d="M182.3438,52.2656 C181.4063,51.8281 180.8125,51.6875 179.9375,51.6875 C177.3125,51.6875 175.3125,53.7656 175.3125,56.4844 L175.3125,57.6094 C175.3125,60.1875 177.4219,62.0781 180.3125,62.0781 C181.5313,62.0781 182.6875,61.7813 183.4375,61.2344 C184.0156,60.8281 184.3438,60.375 184.3438,59.9844 C184.3438,59.5313 183.9531,59.1406 183.4844,59.1406 C183.2656,59.1406 183.0625,59.2188 182.875,59.4063 C182.4219,59.8906 182.4219,59.8906 182.2344,59.9844 C181.8125,60.25 181.125,60.375 180.3594,60.375 C178.3125,60.375 177.0156,59.2813 177.0156,57.5781 L177.0156,56.4844 C177.0156,54.7031 178.2656,53.3906 180,53.3906 C180.5781,53.3906 181.1875,53.5469 181.6563,53.7969 C182.1406,54.0781 182.3125,54.2969 182.4063,54.7031 C182.4688,55.1094 182.5,55.2344 182.6406,55.3594 C182.7813,55.5 183.0156,55.6094 183.2344,55.6094 C183.5,55.6094 183.7656,55.4688 183.9375,55.25 C184.0469,55.0938 184.0781,54.9063 184.0781,54.4844 L184.0781,53.0625 C184.0781,52.625 184.0625,52.5 183.9688,52.3438 C183.8125,52.0781 183.5313,51.9375 183.2344,51.9375 C182.9375,51.9375 182.7344,52.0313 182.5156,52.3438 L182.3438,52.2656 Z "/><text fill="#000000" font-family="sans-serif" font-size="12" lengthAdjust="spacingAndGlyphs" textLength="56" x="194" y="60.748">geo:Point</text><line style="stroke: #A80036; stroke-width: 1.5;" x1="166" x2="252" y1="72.5938" y2="72.5938"/><line style="stroke: #A80036; stroke-width: 1.5;" x1="166" x2="252" y1="80.5938" y2="80.5938"/><!--MD5=[b67d05c86b32bf3c0f7bf9b2b1a33612]
class tern-loc:Point--><a href="https://w3id.org/tern/ontologies/loc/Point" target="_top" title="https://w3id.org/tern/ontologies/loc/Point" xlink:actuate="onRequest" xlink:href="https://w3id.org/tern/ontologies/loc/Point" xlink:show="new" xlink:title="https://w3id.org/tern/ontologies/loc/Point" xlink:type="simple"><rect fill="#FEFECE" filter="url(#f4x6nhbin2gl8)" height="48" id="tern-loc:Point" style="stroke: #A80036; stroke-width: 1.5;" width="111" x="270.5" y="148.5938"/><ellipse cx="285.5" cy="164.5938" fill="#ADD1B2" rx="11" ry="11" style="stroke: #A80036; stroke-width: 1.0;"/><path d="M287.8438,160.2656 C286.9063,159.8281 286.3125,159.6875 285.4375,159.6875 C282.8125,159.6875 280.8125,161.7656 280.8125,164.4844 L280.8125,165.6094 C280.8125,168.1875 282.9219,170.0781 285.8125,170.0781 C287.0313,170.0781 288.1875,169.7813 288.9375,169.2344 C289.5156,168.8281 289.8438,168.375 289.8438,167.9844 C289.8438,167.5313 289.4531,167.1406 288.9844,167.1406 C288.7656,167.1406 288.5625,167.2188 288.375,167.4063 C287.9219,167.8906 287.9219,167.8906 287.7344,167.9844 C287.3125,168.25 286.625,168.375 285.8594,168.375 C283.8125,168.375 282.5156,167.2813 282.5156,165.5781 L282.5156,164.4844 C282.5156,162.7031 283.7656,161.3906 285.5,161.3906 C286.0781,161.3906 286.6875,161.5469 287.1563,161.7969 C287.6406,162.0781 287.8125,162.2969 287.9063,162.7031 C287.9688,163.1094 288,163.2344 288.1406,163.3594 C288.2813,163.5 288.5156,163.6094 288.7344,163.6094 C289,163.6094 289.2656,163.4688 289.4375,163.25 C289.5469,163.0938 289.5781,162.9063 289.5781,162.4844 L289.5781,161.0625 C289.5781,160.625 289.5625,160.5 289.4688,160.3438 C289.3125,160.0781 289.0313,159.9375 288.7344,159.9375 C288.4375,159.9375 288.2344,160.0313 288.0156,160.3438 L287.8438,160.2656 Z "/><text fill="#000000" font-family="sans-serif" font-size="12" lengthAdjust="spacingAndGlyphs" textLength="79" x="299.5" y="168.748">tern-loc:Point</text><line style="stroke: #A80036; stroke-width: 1.5;" x1="271.5" x2="380.5" y1="180.5938" y2="180.5938"/><line style="stroke: #A80036; stroke-width: 1.5;" x1="271.5" x2="380.5" y1="188.5938" y2="188.5938"/></a><!--MD5=[06a0b58d9040550ef5280287aedb19f7]
class sf:Point--><rect fill="#FEFECE" filter="url(#f4x6nhbin2gl8)" height="48" id="sf:Point" style="stroke: #A80036; stroke-width: 1.5;" width="75" x="288.5" y="40.5938"/><ellipse cx="303.5" cy="56.5938" fill="#ADD1B2" rx="11" ry="11" style="stroke: #A80036; stroke-width: 1.0;"/><path d="M305.8438,52.2656 C304.9063,51.8281 304.3125,51.6875 303.4375,51.6875 C300.8125,51.6875 298.8125,53.7656 298.8125,56.4844 L298.8125,57.6094 C298.8125,60.1875 300.9219,62.0781 303.8125,62.0781 C305.0313,62.0781 306.1875,61.7813 306.9375,61.2344 C307.5156,60.8281 307.8438,60.375 307.8438,59.9844 C307.8438,59.5313 307.4531,59.1406 306.9844,59.1406 C306.7656,59.1406 306.5625,59.2188 306.375,59.4063 C305.9219,59.8906 305.9219,59.8906 305.7344,59.9844 C305.3125,60.25 304.625,60.375 303.8594,60.375 C301.8125,60.375 300.5156,59.2813 300.5156,57.5781 L300.5156,56.4844 C300.5156,54.7031 301.7656,53.3906 303.5,53.3906 C304.0781,53.3906 304.6875,53.5469 305.1563,53.7969 C305.6406,54.0781 305.8125,54.2969 305.9063,54.7031 C305.9688,55.1094 306,55.2344 306.1406,55.3594 C306.2813,55.5 306.5156,55.6094 306.7344,55.6094 C307,55.6094 307.2656,55.4688 307.4375,55.25 C307.5469,55.0938 307.5781,54.9063 307.5781,54.4844 L307.5781,53.0625 C307.5781,52.625 307.5625,52.5 307.4688,52.3438 C307.3125,52.0781 307.0313,51.9375 306.7344,51.9375 C306.4375,51.9375 306.2344,52.0313 306.0156,52.3438 L305.8438,52.2656 Z "/><text fill="#000000" font-family="sans-serif" font-size="12" lengthAdjust="spacingAndGlyphs" textLength="43" x="317.5" y="60.748">sf:Point</text><line style="stroke: #A80036; stroke-width: 1.5;" x1="289.5" x2="362.5" y1="72.5938" y2="72.5938"/><line style="stroke: #A80036; stroke-width: 1.5;" x1="289.5" x2="362.5" y1="80.5938" y2="80.5938"/><!--MD5=[cd48ee8575308cff07b85b42a6074af1]
class locn:Geometry--><rect fill="#FEFECE" filter="url(#f4x6nhbin2gl8)" height="48" id="locn:Geometry" style="stroke: #A80036; stroke-width: 1.5;" width="121" x="398.5" y="40.5938"/><ellipse cx="413.5" cy="56.5938" fill="#ADD1B2" rx="11" ry="11" style="stroke: #A80036; stroke-width: 1.0;"/><path d="M415.8438,52.2656 C414.9063,51.8281 414.3125,51.6875 413.4375,51.6875 C410.8125,51.6875 408.8125,53.7656 408.8125,56.4844 L408.8125,57.6094 C408.8125,60.1875 410.9219,62.0781 413.8125,62.0781 C415.0313,62.0781 416.1875,61.7813 416.9375,61.2344 C417.5156,60.8281 417.8438,60.375 417.8438,59.9844 C417.8438,59.5313 417.4531,59.1406 416.9844,59.1406 C416.7656,59.1406 416.5625,59.2188 416.375,59.4063 C415.9219,59.8906 415.9219,59.8906 415.7344,59.9844 C415.3125,60.25 414.625,60.375 413.8594,60.375 C411.8125,60.375 410.5156,59.2813 410.5156,57.5781 L410.5156,56.4844 C410.5156,54.7031 411.7656,53.3906 413.5,53.3906 C414.0781,53.3906 414.6875,53.5469 415.1563,53.7969 C415.6406,54.0781 415.8125,54.2969 415.9063,54.7031 C415.9688,55.1094 416,55.2344 416.1406,55.3594 C416.2813,55.5 416.5156,55.6094 416.7344,55.6094 C417,55.6094 417.2656,55.4688 417.4375,55.25 C417.5469,55.0938 417.5781,54.9063 417.5781,54.4844 L417.5781,53.0625 C417.5781,52.625 417.5625,52.5 417.4688,52.3438 C417.3125,52.0781 417.0313,51.9375 416.7344,51.9375 C416.4375,51.9375 416.2344,52.0313 416.0156,52.3438 L415.8438,52.2656 Z "/><text fill="#000000" font-family="sans-serif" font-size="12" lengthAdjust="spacingAndGlyphs" textLength="89" x="427.5" y="60.748">locn:Geometry</text><line style="stroke: #A80036; stroke-width: 1.5;" x1="399.5" x2="518.5" y1="72.5938" y2="72.5938"/><line style="stroke: #A80036; stroke-width: 1.5;" x1="399.5" x2="518.5" y1="80.5938" y2="80.5938"/><!--MD5=[681450c180318ac92d4d4448ad41864e]
class sf:Polygon--><rect fill="#FEFECE" filter="url(#f4x6nhbin2gl8)" height="48" id="sf:Polygon" style="stroke: #A80036; stroke-width: 1.5;" width="94" x="555" y="40.5938"/><ellipse cx="570" cy="56.5938" fill="#ADD1B2" rx="11" ry="11" style="stroke: #A80036; stroke-width: 1.0;"/><path d="M572.3438,52.2656 C571.4063,51.8281 570.8125,51.6875 569.9375,51.6875 C567.3125,51.6875 565.3125,53.7656 565.3125,56.4844 L565.3125,57.6094 C565.3125,60.1875 567.4219,62.0781 570.3125,62.0781 C571.5313,62.0781 572.6875,61.7813 573.4375,61.2344 C574.0156,60.8281 574.3438,60.375 574.3438,59.9844 C574.3438,59.5313 573.9531,59.1406 573.4844,59.1406 C573.2656,59.1406 573.0625,59.2188 572.875,59.4063 C572.4219,59.8906 572.4219,59.8906 572.2344,59.9844 C571.8125,60.25 571.125,60.375 570.3594,60.375 C568.3125,60.375 567.0156,59.2813 567.0156,57.5781 L567.0156,56.4844 C567.0156,54.7031 568.2656,53.3906 570,53.3906 C570.5781,53.3906 571.1875,53.5469 571.6563,53.7969 C572.1406,54.0781 572.3125,54.2969 572.4063,54.7031 C572.4688,55.1094 572.5,55.2344 572.6406,55.3594 C572.7813,55.5 573.0156,55.6094 573.2344,55.6094 C573.5,55.6094 573.7656,55.4688 573.9375,55.25 C574.0469,55.0938 574.0781,54.9063 574.0781,54.4844 L574.0781,53.0625 C574.0781,52.625 574.0625,52.5 573.9688,52.3438 C573.8125,52.0781 573.5313,51.9375 573.2344,51.9375 C572.9375,51.9375 572.7344,52.0313 572.5156,52.3438 L572.3438,52.2656 Z "/><text fill="#000000" font-family="sans-serif" font-size="12" lengthAdjust="spacingAndGlyphs" textLength="62" x="584" y="60.748">sf:Polygon</text><line style="stroke: #A80036; stroke-width: 1.5;" x1="556" x2="648" y1="72.5938" y2="72.5938"/><line style="stroke: #A80036; stroke-width: 1.5;" x1="556" x2="648" y1="80.5938" y2="80.5938"/><!--MD5=[0169b4c160c1d1627128d322d53ed76e]
class tern-loc:Polygon--><a href="https://w3id.org/tern/ontologies/loc/Polygon" target="_top" title="https://w3id.org/tern/ontologies/loc/Polygon" xlink:actuate="onRequest" xlink:href="https://w3id.org/tern/ontologies/loc/Polygon" xlink:show="new" xlink:title="https://w3id.org/tern/ontologies/loc/Polygon" xlink:type="simple"><rect fill="#FEFECE" filter="url(#f4x6nhbin2gl8)" height="48" id="tern-loc:Polygon" style="stroke: #A80036; stroke-width: 1.5;" width="130" x="537" y="148.5938"/><ellipse cx="552" cy="164.5938" fill="#ADD1B2" rx="11" ry="11" style="stroke: #A80036; stroke-width: 1.0;"/><path d="M554.3438,160.2656 C553.4063,159.8281 552.8125,159.6875 551.9375,159.6875 C549.3125,159.6875 547.3125,161.7656 547.3125,164.4844 L547.3125,165.6094 C547.3125,168.1875 549.4219,170.0781 552.3125,170.0781 C553.5313,170.0781 554.6875,169.7813 555.4375,169.2344 C556.0156,168.8281 556.3438,168.375 556.3438,167.9844 C556.3438,167.5313 555.9531,167.1406 555.4844,167.1406 C555.2656,167.1406 555.0625,167.2188 554.875,167.4063 C554.4219,167.8906 554.4219,167.8906 554.2344,167.9844 C553.8125,168.25 553.125,168.375 552.3594,168.375 C550.3125,168.375 549.0156,167.2813 549.0156,165.5781 L549.0156,164.4844 C549.0156,162.7031 550.2656,161.3906 552,161.3906 C552.5781,161.3906 553.1875,161.5469 553.6563,161.7969 C554.1406,162.0781 554.3125,162.2969 554.4063,162.7031 C554.4688,163.1094 554.5,163.2344 554.6406,163.3594 C554.7813,163.5 555.0156,163.6094 555.2344,163.6094 C555.5,163.6094 555.7656,163.4688 555.9375,163.25 C556.0469,163.0938 556.0781,162.9063 556.0781,162.4844 L556.0781,161.0625 C556.0781,160.625 556.0625,160.5 555.9688,160.3438 C555.8125,160.0781 555.5313,159.9375 555.2344,159.9375 C554.9375,159.9375 554.7344,160.0313 554.5156,160.3438 L554.3438,160.2656 Z "/><text fill="#000000" font-family="sans-serif" font-size="12" lengthAdjust="spacingAndGlyphs" textLength="98" x="566" y="168.748">tern-loc:Polygon</text><line style="stroke: #A80036; stroke-width: 1.5;" x1="538" x2="666" y1="180.5938" y2="180.5938"/><line style="stroke: #A80036; stroke-width: 1.5;" x1="538" x2="666" y1="188.5938" y2="188.5938"/></a><!--MD5=[718676226f92dcfe37e256519b7a4772]
reverse link sf:LineString to tern-loc:LineString--><path d="M77,108.6174 C77,122.173 77,136.6319 77,148.2722 " fill="none" id="sf:LineString&lt;-tern-loc:LineString" style="stroke: #A80036; stroke-width: 1.0;"/><polygon fill="none" points="70.0001,108.5943,77,88.5938,84.0001,108.5942,70.0001,108.5943" style="stroke: #A80036; stroke-width: 1.0;"/><!--MD5=[8c2aa92d6514d17a4ce697438d39211d]
reverse link geo:Point to tern-loc:Point--><path d="M249.369,102.1671 C266.24,117.4527 285.345,134.7611 300.258,148.2722 " fill="none" id="geo:Point&lt;-tern-loc:Point" style="stroke: #A80036; stroke-width: 1.0;"/><polygon fill="none" points="244.509,107.2101,234.387,88.5938,253.909,96.8349,244.509,107.2101" style="stroke: #A80036; stroke-width: 1.0;"/><!--MD5=[29f7f1c9da998e3e1cb0828a9900b6c8]
reverse link sf:Point to tern-loc:Point--><path d="M326,108.6174 C326,122.173 326,136.6319 326,148.2722 " fill="none" id="sf:Point&lt;-tern-loc:Point" style="stroke: #A80036; stroke-width: 1.0;"/><polygon fill="none" points="319,108.5943,326,88.5938,333,108.5942,319,108.5943" style="stroke: #A80036; stroke-width: 1.0;"/><!--MD5=[d68c5b1816c22edfe60892291c0b4b30]
reverse link locn:Geometry to tern-loc:Point--><path d="M414.288,101.2291 C394.825,116.741 372.562,134.484 355.262,148.2722 " fill="none" id="locn:Geometry&lt;-tern-loc:Point" style="stroke: #A80036; stroke-width: 1.0;"/><polygon fill="none" points="410.138,95.5858,430.141,88.5938,418.863,106.5336,410.138,95.5858" style="stroke: #A80036; stroke-width: 1.0;"/><!--MD5=[51a7cfd66038ce77a5a433efcd013f3a]
reverse link sf:Polygon to tern-loc:Polygon--><path d="M602,108.6174 C602,122.173 602,136.6319 602,148.2722 " fill="none" id="sf:Polygon&lt;-tern-loc:Polygon" style="stroke: #A80036; stroke-width: 1.0;"/><polygon fill="none" points="595,108.5943,602,88.5938,609,108.5942,595,108.5943" style="stroke: #A80036; stroke-width: 1.0;"/><text fill="#888888" font-family="sans-serif" font-size="10" lengthAdjust="spacingAndGlyphs" textLength="74" x="189" y="215.876">Generated by</text><a href="https://github.com/edmondchuc/ontogram" target="_top" title="https://github.com/edmondchuc/ontogram" xlink:actuate="onRequest" xlink:href="https://github.com/edmondchuc/ontogram" xlink:show="new" xlink:title="https://github.com/edmondchuc/ontogram" xlink:type="simple"><text fill="#0000FF" font-family="sans-serif" font-size="10" lengthAdjust="spacingAndGlyphs" text-decoration="underline" textLength="230" x="266" y="215.876">https://github.com/edmondchuc/ontogram</text></a><!--MD5=[bfc681d31646004257eb324330fd681f]
@startuml
title TERN Location Alignment Ontology
"sf:LineString" <|- - "tern-loc:LineString"
"geo:Point" <|- - "tern-loc:Point"
"sf:Point" <|- - "tern-loc:Point"
"locn:Geometry" <|- - "tern-loc:Point"
"sf:Polygon" <|- - "tern-loc:Polygon"
Class "tern-loc:LineString" [[https://w3id.org/tern/ontologies/loc/LineString]] {
}
Class "tern-loc:Point" [[https://w3id.org/tern/ontologies/loc/Point]] {
}
Class "tern-loc:Polygon" [[https://w3id.org/tern/ontologies/loc/Polygon]] {
}
header
Creator: Edmond Chuc (e.chuc@uq.edu.au) 
endheader
center footer Generated by [[https://github.com/edmondchuc/ontogram https://github.com/edmondchuc/ontogram]]
@enduml

PlantUML version 1.2020.11(Sat May 30 10:13:43 UTC 2020)
(GPL source distribution)
Java Runtime: Java(TM) SE Runtime Environment
JVM: Java HotSpot(TM) 64-Bit Server VM
Default Encoding: UTF-8
Language: en
Country: US
--></g></svg>