<?xml version="1.0" encoding="UTF-8" standalone="no"?><svg xmlns="http://www.w3.org/2000/svg" xmlns:xlink="http://www.w3.org/1999/xlink" contentScriptType="application/ecmascript" contentStyleType="text/css" height="231px" preserveAspectRatio="none" style="width:1025px;height:231px;" version="1.1" viewBox="0 0 1025 231" width="1025px" zoomAndPan="magnify"><defs><filter height="300%" id="f17e8vdg9psq1k" width="300%" x="-1" y="-1"><feGaussianBlur result="blurOut" stdDeviation="2.0"/><feColorMatrix in="blurOut" result="blurOut2" type="matrix" values="0 0 0 0 0 0 0 0 0 0 0 0 0 0 0 0 0 0 .4 0"/><feOffset dx="4.0" dy="4.0" in="blurOut2" result="blurOut3"/><feBlend in="SourceGraphic" in2="blurOut3" mode="normal"/></filter></defs><g><text fill="#888888" font-family="sans-serif" font-size="10" lengthAdjust="spacingAndGlyphs" textLength="236" x="771.5" y="9.2822">Creator: Edmond Chuc (e.chuc@uq.edu.au)</text><text fill="#000000" font-family="sans-serif" font-size="18" lengthAdjust="spacingAndGlyphs" textLength="323" x="342.25" y="28.3486">TERN Location Alignment Ontology</text><!--MD5=[9655ad61792b4ed0d4f91a9adcbf26fa]
class dct:Location--><rect fill="#FEFECE" filter="url(#f17e8vdg9psq1k)" height="48" id="dct:Location" style="stroke: #A80036; stroke-width: 1.5;" width="105" x="7" y="39.5938"/><ellipse cx="22" cy="55.5938" fill="#ADD1B2" rx="11" ry="11" style="stroke: #A80036; stroke-width: 1.0;"/><path d="M24.3438,51.2656 C23.4063,50.8281 22.8125,50.6875 21.9375,50.6875 C19.3125,50.6875 17.3125,52.7656 17.3125,55.4844 L17.3125,56.6094 C17.3125,59.1875 19.4219,61.0781 22.3125,61.0781 C23.5313,61.0781 24.6875,60.7813 25.4375,60.2344 C26.0156,59.8281 26.3438,59.375 26.3438,58.9844 C26.3438,58.5313 25.9531,58.1406 25.4844,58.1406 C25.2656,58.1406 25.0625,58.2188 24.875,58.4063 C24.4219,58.8906 24.4219,58.8906 24.2344,58.9844 C23.8125,59.25 23.125,59.375 22.3594,59.375 C20.3125,59.375 19.0156,58.2813 19.0156,56.5781 L19.0156,55.4844 C19.0156,53.7031 20.2656,52.3906 22,52.3906 C22.5781,52.3906 23.1875,52.5469 23.6563,52.7969 C24.1406,53.0781 24.3125,53.2969 24.4063,53.7031 C24.4688,54.1094 24.5,54.2344 24.6406,54.3594 C24.7813,54.5 25.0156,54.6094 25.2344,54.6094 C25.5,54.6094 25.7656,54.4688 25.9375,54.25 C26.0469,54.0938 26.0781,53.9063 26.0781,53.4844 L26.0781,52.0625 C26.0781,51.625 26.0625,51.5 25.9688,51.3438 C25.8125,51.0781 25.5313,50.9375 25.2344,50.9375 C24.9375,50.9375 24.7344,51.0313 24.5156,51.3438 L24.3438,51.2656 Z "/><text fill="#000000" font-family="sans-serif" font-size="12" lengthAdjust="spacingAndGlyphs" textLength="73" x="36" y="59.748">dct:Location</text><line style="stroke: #A80036; stroke-width: 1.5;" x1="8" x2="111" y1="71.5938" y2="71.5938"/><line style="stroke: #A80036; stroke-width: 1.5;" x1="8" x2="111" y1="79.5938" y2="79.5938"/><!--MD5=[7ecc5781a96ada1a225cc3afb1eb8f46]
class tern-loc:Location--><a href="https://w3id.org/tern/ontologies/loc/Location" target="_top" title="https://w3id.org/tern/ontologies/loc/Location" xlink:actuate="onRequest" xlink:href="https://w3id.org/tern/ontologies/loc/Location" xlink:show="new" xlink:title="https://w3id.org/tern/ontologies/loc/Location" xlink:type="simple"><rect codeLine="9" fill="#FEFECE" filter="url(#f17e8vdg9psq1k)" height="48" id="tern-loc:Location" style="stroke: #A80036; stroke-width: 1.5;" width="133" x="73" y="147.5938"/><ellipse cx="88" cy="163.5938" fill="#ADD1B2" rx="11" ry="11" style="stroke: #A80036; stroke-width: 1.0;"/><path d="M90.3438,159.2656 C89.4063,158.8281 88.8125,158.6875 87.9375,158.6875 C85.3125,158.6875 83.3125,160.7656 83.3125,163.4844 L83.3125,164.6094 C83.3125,167.1875 85.4219,169.0781 88.3125,169.0781 C89.5313,169.0781 90.6875,168.7813 91.4375,168.2344 C92.0156,167.8281 92.3438,167.375 92.3438,166.9844 C92.3438,166.5313 91.9531,166.1406 91.4844,166.1406 C91.2656,166.1406 91.0625,166.2188 90.875,166.4063 C90.4219,166.8906 90.4219,166.8906 90.2344,166.9844 C89.8125,167.25 89.125,167.375 88.3594,167.375 C86.3125,167.375 85.0156,166.2813 85.0156,164.5781 L85.0156,163.4844 C85.0156,161.7031 86.2656,160.3906 88,160.3906 C88.5781,160.3906 89.1875,160.5469 89.6563,160.7969 C90.1406,161.0781 90.3125,161.2969 90.4063,161.7031 C90.4688,162.1094 90.5,162.2344 90.6406,162.3594 C90.7813,162.5 91.0156,162.6094 91.2344,162.6094 C91.5,162.6094 91.7656,162.4688 91.9375,162.25 C92.0469,162.0938 92.0781,161.9063 92.0781,161.4844 L92.0781,160.0625 C92.0781,159.625 92.0625,159.5 91.9688,159.3438 C91.8125,159.0781 91.5313,158.9375 91.2344,158.9375 C90.9375,158.9375 90.7344,159.0313 90.5156,159.3438 L90.3438,159.2656 Z "/><text fill="#000000" font-family="sans-serif" font-size="12" lengthAdjust="spacingAndGlyphs" textLength="101" x="102" y="167.748">tern-loc:Location</text><line style="stroke: #A80036; stroke-width: 1.5;" x1="74" x2="205" y1="179.5938" y2="179.5938"/><line style="stroke: #A80036; stroke-width: 1.5;" x1="74" x2="205" y1="187.5938" y2="187.5938"/></a><!--MD5=[4b0e6ae39ede3f8987ca028c00a13af1]
class geosparql:Feature--><rect fill="#FEFECE" filter="url(#f17e8vdg9psq1k)" height="48" id="geosparql:Feature" style="stroke: #A80036; stroke-width: 1.5;" width="144" x="147.5" y="39.5938"/><ellipse cx="162.5" cy="55.5938" fill="#ADD1B2" rx="11" ry="11" style="stroke: #A80036; stroke-width: 1.0;"/><path d="M164.8438,51.2656 C163.9063,50.8281 163.3125,50.6875 162.4375,50.6875 C159.8125,50.6875 157.8125,52.7656 157.8125,55.4844 L157.8125,56.6094 C157.8125,59.1875 159.9219,61.0781 162.8125,61.0781 C164.0313,61.0781 165.1875,60.7813 165.9375,60.2344 C166.5156,59.8281 166.8438,59.375 166.8438,58.9844 C166.8438,58.5313 166.4531,58.1406 165.9844,58.1406 C165.7656,58.1406 165.5625,58.2188 165.375,58.4063 C164.9219,58.8906 164.9219,58.8906 164.7344,58.9844 C164.3125,59.25 163.625,59.375 162.8594,59.375 C160.8125,59.375 159.5156,58.2813 159.5156,56.5781 L159.5156,55.4844 C159.5156,53.7031 160.7656,52.3906 162.5,52.3906 C163.0781,52.3906 163.6875,52.5469 164.1563,52.7969 C164.6406,53.0781 164.8125,53.2969 164.9063,53.7031 C164.9688,54.1094 165,54.2344 165.1406,54.3594 C165.2813,54.5 165.5156,54.6094 165.7344,54.6094 C166,54.6094 166.2656,54.4688 166.4375,54.25 C166.5469,54.0938 166.5781,53.9063 166.5781,53.4844 L166.5781,52.0625 C166.5781,51.625 166.5625,51.5 166.4688,51.3438 C166.3125,51.0781 166.0313,50.9375 165.7344,50.9375 C165.4375,50.9375 165.2344,51.0313 165.0156,51.3438 L164.8438,51.2656 Z "/><text fill="#000000" font-family="sans-serif" font-size="12" lengthAdjust="spacingAndGlyphs" textLength="112" x="176.5" y="59.748">geosparql:Feature</text><line style="stroke: #A80036; stroke-width: 1.5;" x1="148.5" x2="290.5" y1="71.5938" y2="71.5938"/><line style="stroke: #A80036; stroke-width: 1.5;" x1="148.5" x2="290.5" y1="79.5938" y2="79.5938"/><!--MD5=[06a0b58d9040550ef5280287aedb19f7]
class sf:Point--><rect fill="#FEFECE" filter="url(#f17e8vdg9psq1k)" height="48" id="sf:Point" style="stroke: #A80036; stroke-width: 1.5;" width="75" x="327" y="39.5938"/><ellipse cx="342" cy="55.5938" fill="#ADD1B2" rx="11" ry="11" style="stroke: #A80036; stroke-width: 1.0;"/><path d="M344.3438,51.2656 C343.4063,50.8281 342.8125,50.6875 341.9375,50.6875 C339.3125,50.6875 337.3125,52.7656 337.3125,55.4844 L337.3125,56.6094 C337.3125,59.1875 339.4219,61.0781 342.3125,61.0781 C343.5313,61.0781 344.6875,60.7813 345.4375,60.2344 C346.0156,59.8281 346.3438,59.375 346.3438,58.9844 C346.3438,58.5313 345.9531,58.1406 345.4844,58.1406 C345.2656,58.1406 345.0625,58.2188 344.875,58.4063 C344.4219,58.8906 344.4219,58.8906 344.2344,58.9844 C343.8125,59.25 343.125,59.375 342.3594,59.375 C340.3125,59.375 339.0156,58.2813 339.0156,56.5781 L339.0156,55.4844 C339.0156,53.7031 340.2656,52.3906 342,52.3906 C342.5781,52.3906 343.1875,52.5469 343.6563,52.7969 C344.1406,53.0781 344.3125,53.2969 344.4063,53.7031 C344.4688,54.1094 344.5,54.2344 344.6406,54.3594 C344.7813,54.5 345.0156,54.6094 345.2344,54.6094 C345.5,54.6094 345.7656,54.4688 345.9375,54.25 C346.0469,54.0938 346.0781,53.9063 346.0781,53.4844 L346.0781,52.0625 C346.0781,51.625 346.0625,51.5 345.9688,51.3438 C345.8125,51.0781 345.5313,50.9375 345.2344,50.9375 C344.9375,50.9375 344.7344,51.0313 344.5156,51.3438 L344.3438,51.2656 Z "/><text fill="#000000" font-family="sans-serif" font-size="12" lengthAdjust="spacingAndGlyphs" textLength="43" x="356" y="59.748">sf:Point</text><line style="stroke: #A80036; stroke-width: 1.5;" x1="328" x2="401" y1="71.5938" y2="71.5938"/><line style="stroke: #A80036; stroke-width: 1.5;" x1="328" x2="401" y1="79.5938" y2="79.5938"/><!--MD5=[b67d05c86b32bf3c0f7bf9b2b1a33612]
class tern-loc:Point--><a href="https://w3id.org/tern/ontologies/loc/Point" target="_top" title="https://w3id.org/tern/ontologies/loc/Point" xlink:actuate="onRequest" xlink:href="https://w3id.org/tern/ontologies/loc/Point" xlink:show="new" xlink:title="https://w3id.org/tern/ontologies/loc/Point" xlink:type="simple"><rect codeLine="11" fill="#FEFECE" filter="url(#f17e8vdg9psq1k)" height="48" id="tern-loc:Point" style="stroke: #A80036; stroke-width: 1.5;" width="111" x="426" y="147.5938"/><ellipse cx="441" cy="163.5938" fill="#ADD1B2" rx="11" ry="11" style="stroke: #A80036; stroke-width: 1.0;"/><path d="M443.3438,159.2656 C442.4063,158.8281 441.8125,158.6875 440.9375,158.6875 C438.3125,158.6875 436.3125,160.7656 436.3125,163.4844 L436.3125,164.6094 C436.3125,167.1875 438.4219,169.0781 441.3125,169.0781 C442.5313,169.0781 443.6875,168.7813 444.4375,168.2344 C445.0156,167.8281 445.3438,167.375 445.3438,166.9844 C445.3438,166.5313 444.9531,166.1406 444.4844,166.1406 C444.2656,166.1406 444.0625,166.2188 443.875,166.4063 C443.4219,166.8906 443.4219,166.8906 443.2344,166.9844 C442.8125,167.25 442.125,167.375 441.3594,167.375 C439.3125,167.375 438.0156,166.2813 438.0156,164.5781 L438.0156,163.4844 C438.0156,161.7031 439.2656,160.3906 441,160.3906 C441.5781,160.3906 442.1875,160.5469 442.6563,160.7969 C443.1406,161.0781 443.3125,161.2969 443.4063,161.7031 C443.4688,162.1094 443.5,162.2344 443.6406,162.3594 C443.7813,162.5 444.0156,162.6094 444.2344,162.6094 C444.5,162.6094 444.7656,162.4688 444.9375,162.25 C445.0469,162.0938 445.0781,161.9063 445.0781,161.4844 L445.0781,160.0625 C445.0781,159.625 445.0625,159.5 444.9688,159.3438 C444.8125,159.0781 444.5313,158.9375 444.2344,158.9375 C443.9375,158.9375 443.7344,159.0313 443.5156,159.3438 L443.3438,159.2656 Z "/><text fill="#000000" font-family="sans-serif" font-size="12" lengthAdjust="spacingAndGlyphs" textLength="79" x="455" y="167.748">tern-loc:Point</text><line style="stroke: #A80036; stroke-width: 1.5;" x1="427" x2="536" y1="179.5938" y2="179.5938"/><line style="stroke: #A80036; stroke-width: 1.5;" x1="427" x2="536" y1="187.5938" y2="187.5938"/></a><!--MD5=[4b4dc00f06a8a0ae0f42cf5f98def9ae]
class geo:Point--><rect fill="#FEFECE" filter="url(#f17e8vdg9psq1k)" height="48" id="geo:Point" style="stroke: #A80036; stroke-width: 1.5;" width="88" x="437.5" y="39.5938"/><ellipse cx="452.5" cy="55.5938" fill="#ADD1B2" rx="11" ry="11" style="stroke: #A80036; stroke-width: 1.0;"/><path d="M454.8438,51.2656 C453.9063,50.8281 453.3125,50.6875 452.4375,50.6875 C449.8125,50.6875 447.8125,52.7656 447.8125,55.4844 L447.8125,56.6094 C447.8125,59.1875 449.9219,61.0781 452.8125,61.0781 C454.0313,61.0781 455.1875,60.7813 455.9375,60.2344 C456.5156,59.8281 456.8438,59.375 456.8438,58.9844 C456.8438,58.5313 456.4531,58.1406 455.9844,58.1406 C455.7656,58.1406 455.5625,58.2188 455.375,58.4063 C454.9219,58.8906 454.9219,58.8906 454.7344,58.9844 C454.3125,59.25 453.625,59.375 452.8594,59.375 C450.8125,59.375 449.5156,58.2813 449.5156,56.5781 L449.5156,55.4844 C449.5156,53.7031 450.7656,52.3906 452.5,52.3906 C453.0781,52.3906 453.6875,52.5469 454.1563,52.7969 C454.6406,53.0781 454.8125,53.2969 454.9063,53.7031 C454.9688,54.1094 455,54.2344 455.1406,54.3594 C455.2813,54.5 455.5156,54.6094 455.7344,54.6094 C456,54.6094 456.2656,54.4688 456.4375,54.25 C456.5469,54.0938 456.5781,53.9063 456.5781,53.4844 L456.5781,52.0625 C456.5781,51.625 456.5625,51.5 456.4688,51.3438 C456.3125,51.0781 456.0313,50.9375 455.7344,50.9375 C455.4375,50.9375 455.2344,51.0313 455.0156,51.3438 L454.8438,51.2656 Z "/><text fill="#000000" font-family="sans-serif" font-size="12" lengthAdjust="spacingAndGlyphs" textLength="56" x="466.5" y="59.748">geo:Point</text><line style="stroke: #A80036; stroke-width: 1.5;" x1="438.5" x2="524.5" y1="71.5938" y2="71.5938"/><line style="stroke: #A80036; stroke-width: 1.5;" x1="438.5" x2="524.5" y1="79.5938" y2="79.5938"/><!--MD5=[cd48ee8575308cff07b85b42a6074af1]
class locn:Geometry--><rect fill="#FEFECE" filter="url(#f17e8vdg9psq1k)" height="48" id="locn:Geometry" style="stroke: #A80036; stroke-width: 1.5;" width="121" x="561" y="39.5938"/><ellipse cx="576" cy="55.5938" fill="#ADD1B2" rx="11" ry="11" style="stroke: #A80036; stroke-width: 1.0;"/><path d="M578.3438,51.2656 C577.4063,50.8281 576.8125,50.6875 575.9375,50.6875 C573.3125,50.6875 571.3125,52.7656 571.3125,55.4844 L571.3125,56.6094 C571.3125,59.1875 573.4219,61.0781 576.3125,61.0781 C577.5313,61.0781 578.6875,60.7813 579.4375,60.2344 C580.0156,59.8281 580.3438,59.375 580.3438,58.9844 C580.3438,58.5313 579.9531,58.1406 579.4844,58.1406 C579.2656,58.1406 579.0625,58.2188 578.875,58.4063 C578.4219,58.8906 578.4219,58.8906 578.2344,58.9844 C577.8125,59.25 577.125,59.375 576.3594,59.375 C574.3125,59.375 573.0156,58.2813 573.0156,56.5781 L573.0156,55.4844 C573.0156,53.7031 574.2656,52.3906 576,52.3906 C576.5781,52.3906 577.1875,52.5469 577.6563,52.7969 C578.1406,53.0781 578.3125,53.2969 578.4063,53.7031 C578.4688,54.1094 578.5,54.2344 578.6406,54.3594 C578.7813,54.5 579.0156,54.6094 579.2344,54.6094 C579.5,54.6094 579.7656,54.4688 579.9375,54.25 C580.0469,54.0938 580.0781,53.9063 580.0781,53.4844 L580.0781,52.0625 C580.0781,51.625 580.0625,51.5 579.9688,51.3438 C579.8125,51.0781 579.5313,50.9375 579.2344,50.9375 C578.9375,50.9375 578.7344,51.0313 578.5156,51.3438 L578.3438,51.2656 Z "/><text fill="#000000" font-family="sans-serif" font-size="12" lengthAdjust="spacingAndGlyphs" textLength="89" x="590" y="59.748">locn:Geometry</text><line style="stroke: #A80036; stroke-width: 1.5;" x1="562" x2="681" y1="71.5938" y2="71.5938"/><line style="stroke: #A80036; stroke-width: 1.5;" x1="562" x2="681" y1="79.5938" y2="79.5938"/><!--MD5=[f6be3c52ce9b6300cb295795c7aca351]
class sf:LineString--><rect fill="#FEFECE" filter="url(#f17e8vdg9psq1k)" height="48" id="sf:LineString" style="stroke: #A80036; stroke-width: 1.5;" width="106" x="717.5" y="39.5938"/><ellipse cx="732.5" cy="55.5938" fill="#ADD1B2" rx="11" ry="11" style="stroke: #A80036; stroke-width: 1.0;"/><path d="M734.8438,51.2656 C733.9063,50.8281 733.3125,50.6875 732.4375,50.6875 C729.8125,50.6875 727.8125,52.7656 727.8125,55.4844 L727.8125,56.6094 C727.8125,59.1875 729.9219,61.0781 732.8125,61.0781 C734.0313,61.0781 735.1875,60.7813 735.9375,60.2344 C736.5156,59.8281 736.8438,59.375 736.8438,58.9844 C736.8438,58.5313 736.4531,58.1406 735.9844,58.1406 C735.7656,58.1406 735.5625,58.2188 735.375,58.4063 C734.9219,58.8906 734.9219,58.8906 734.7344,58.9844 C734.3125,59.25 733.625,59.375 732.8594,59.375 C730.8125,59.375 729.5156,58.2813 729.5156,56.5781 L729.5156,55.4844 C729.5156,53.7031 730.7656,52.3906 732.5,52.3906 C733.0781,52.3906 733.6875,52.5469 734.1563,52.7969 C734.6406,53.0781 734.8125,53.2969 734.9063,53.7031 C734.9688,54.1094 735,54.2344 735.1406,54.3594 C735.2813,54.5 735.5156,54.6094 735.7344,54.6094 C736,54.6094 736.2656,54.4688 736.4375,54.25 C736.5469,54.0938 736.5781,53.9063 736.5781,53.4844 L736.5781,52.0625 C736.5781,51.625 736.5625,51.5 736.4688,51.3438 C736.3125,51.0781 736.0313,50.9375 735.7344,50.9375 C735.4375,50.9375 735.2344,51.0313 735.0156,51.3438 L734.8438,51.2656 Z "/><text fill="#000000" font-family="sans-serif" font-size="12" lengthAdjust="spacingAndGlyphs" textLength="74" x="746.5" y="59.748">sf:LineString</text><line style="stroke: #A80036; stroke-width: 1.5;" x1="718.5" x2="822.5" y1="71.5938" y2="71.5938"/><line style="stroke: #A80036; stroke-width: 1.5;" x1="718.5" x2="822.5" y1="79.5938" y2="79.5938"/><!--MD5=[8769ba710cd4c62aec428e033c91e43d]
class tern-loc:LineString--><a href="https://w3id.org/tern/ontologies/loc/LineString" target="_top" title="https://w3id.org/tern/ontologies/loc/LineString" xlink:actuate="onRequest" xlink:href="https://w3id.org/tern/ontologies/loc/LineString" xlink:show="new" xlink:title="https://w3id.org/tern/ontologies/loc/LineString" xlink:type="simple"><rect codeLine="13" fill="#FEFECE" filter="url(#f17e8vdg9psq1k)" height="48" id="tern-loc:LineString" style="stroke: #A80036; stroke-width: 1.5;" width="142" x="699.5" y="147.5938"/><ellipse cx="714.5" cy="163.5938" fill="#ADD1B2" rx="11" ry="11" style="stroke: #A80036; stroke-width: 1.0;"/><path d="M716.8438,159.2656 C715.9063,158.8281 715.3125,158.6875 714.4375,158.6875 C711.8125,158.6875 709.8125,160.7656 709.8125,163.4844 L709.8125,164.6094 C709.8125,167.1875 711.9219,169.0781 714.8125,169.0781 C716.0313,169.0781 717.1875,168.7813 717.9375,168.2344 C718.5156,167.8281 718.8438,167.375 718.8438,166.9844 C718.8438,166.5313 718.4531,166.1406 717.9844,166.1406 C717.7656,166.1406 717.5625,166.2188 717.375,166.4063 C716.9219,166.8906 716.9219,166.8906 716.7344,166.9844 C716.3125,167.25 715.625,167.375 714.8594,167.375 C712.8125,167.375 711.5156,166.2813 711.5156,164.5781 L711.5156,163.4844 C711.5156,161.7031 712.7656,160.3906 714.5,160.3906 C715.0781,160.3906 715.6875,160.5469 716.1563,160.7969 C716.6406,161.0781 716.8125,161.2969 716.9063,161.7031 C716.9688,162.1094 717,162.2344 717.1406,162.3594 C717.2813,162.5 717.5156,162.6094 717.7344,162.6094 C718,162.6094 718.2656,162.4688 718.4375,162.25 C718.5469,162.0938 718.5781,161.9063 718.5781,161.4844 L718.5781,160.0625 C718.5781,159.625 718.5625,159.5 718.4688,159.3438 C718.3125,159.0781 718.0313,158.9375 717.7344,158.9375 C717.4375,158.9375 717.2344,159.0313 717.0156,159.3438 L716.8438,159.2656 Z "/><text fill="#000000" font-family="sans-serif" font-size="12" lengthAdjust="spacingAndGlyphs" textLength="110" x="728.5" y="167.748">tern-loc:LineString</text><line style="stroke: #A80036; stroke-width: 1.5;" x1="700.5" x2="840.5" y1="179.5938" y2="179.5938"/><line style="stroke: #A80036; stroke-width: 1.5;" x1="700.5" x2="840.5" y1="187.5938" y2="187.5938"/></a><!--MD5=[681450c180318ac92d4d4448ad41864e]
class sf:Polygon--><rect fill="#FEFECE" filter="url(#f17e8vdg9psq1k)" height="48" id="sf:Polygon" style="stroke: #A80036; stroke-width: 1.5;" width="94" x="894.5" y="39.5938"/><ellipse cx="909.5" cy="55.5938" fill="#ADD1B2" rx="11" ry="11" style="stroke: #A80036; stroke-width: 1.0;"/><path d="M911.8438,51.2656 C910.9063,50.8281 910.3125,50.6875 909.4375,50.6875 C906.8125,50.6875 904.8125,52.7656 904.8125,55.4844 L904.8125,56.6094 C904.8125,59.1875 906.9219,61.0781 909.8125,61.0781 C911.0313,61.0781 912.1875,60.7813 912.9375,60.2344 C913.5156,59.8281 913.8438,59.375 913.8438,58.9844 C913.8438,58.5313 913.4531,58.1406 912.9844,58.1406 C912.7656,58.1406 912.5625,58.2188 912.375,58.4063 C911.9219,58.8906 911.9219,58.8906 911.7344,58.9844 C911.3125,59.25 910.625,59.375 909.8594,59.375 C907.8125,59.375 906.5156,58.2813 906.5156,56.5781 L906.5156,55.4844 C906.5156,53.7031 907.7656,52.3906 909.5,52.3906 C910.0781,52.3906 910.6875,52.5469 911.1563,52.7969 C911.6406,53.0781 911.8125,53.2969 911.9063,53.7031 C911.9688,54.1094 912,54.2344 912.1406,54.3594 C912.2813,54.5 912.5156,54.6094 912.7344,54.6094 C913,54.6094 913.2656,54.4688 913.4375,54.25 C913.5469,54.0938 913.5781,53.9063 913.5781,53.4844 L913.5781,52.0625 C913.5781,51.625 913.5625,51.5 913.4688,51.3438 C913.3125,51.0781 913.0313,50.9375 912.7344,50.9375 C912.4375,50.9375 912.2344,51.0313 912.0156,51.3438 L911.8438,51.2656 Z "/><text fill="#000000" font-family="sans-serif" font-size="12" lengthAdjust="spacingAndGlyphs" textLength="62" x="923.5" y="59.748">sf:Polygon</text><line style="stroke: #A80036; stroke-width: 1.5;" x1="895.5" x2="987.5" y1="71.5938" y2="71.5938"/><line style="stroke: #A80036; stroke-width: 1.5;" x1="895.5" x2="987.5" y1="79.5938" y2="79.5938"/><!--MD5=[0169b4c160c1d1627128d322d53ed76e]
class tern-loc:Polygon--><a href="https://w3id.org/tern/ontologies/loc/Polygon" target="_top" title="https://w3id.org/tern/ontologies/loc/Polygon" xlink:actuate="onRequest" xlink:href="https://w3id.org/tern/ontologies/loc/Polygon" xlink:show="new" xlink:title="https://w3id.org/tern/ontologies/loc/Polygon" xlink:type="simple"><rect codeLine="15" fill="#FEFECE" filter="url(#f17e8vdg9psq1k)" height="48" id="tern-loc:Polygon" style="stroke: #A80036; stroke-width: 1.5;" width="130" x="876.5" y="147.5938"/><ellipse cx="891.5" cy="163.5938" fill="#ADD1B2" rx="11" ry="11" style="stroke: #A80036; stroke-width: 1.0;"/><path d="M893.8438,159.2656 C892.9063,158.8281 892.3125,158.6875 891.4375,158.6875 C888.8125,158.6875 886.8125,160.7656 886.8125,163.4844 L886.8125,164.6094 C886.8125,167.1875 888.9219,169.0781 891.8125,169.0781 C893.0313,169.0781 894.1875,168.7813 894.9375,168.2344 C895.5156,167.8281 895.8438,167.375 895.8438,166.9844 C895.8438,166.5313 895.4531,166.1406 894.9844,166.1406 C894.7656,166.1406 894.5625,166.2188 894.375,166.4063 C893.9219,166.8906 893.9219,166.8906 893.7344,166.9844 C893.3125,167.25 892.625,167.375 891.8594,167.375 C889.8125,167.375 888.5156,166.2813 888.5156,164.5781 L888.5156,163.4844 C888.5156,161.7031 889.7656,160.3906 891.5,160.3906 C892.0781,160.3906 892.6875,160.5469 893.1563,160.7969 C893.6406,161.0781 893.8125,161.2969 893.9063,161.7031 C893.9688,162.1094 894,162.2344 894.1406,162.3594 C894.2813,162.5 894.5156,162.6094 894.7344,162.6094 C895,162.6094 895.2656,162.4688 895.4375,162.25 C895.5469,162.0938 895.5781,161.9063 895.5781,161.4844 L895.5781,160.0625 C895.5781,159.625 895.5625,159.5 895.4688,159.3438 C895.3125,159.0781 895.0313,158.9375 894.7344,158.9375 C894.4375,158.9375 894.2344,159.0313 894.0156,159.3438 L893.8438,159.2656 Z "/><text fill="#000000" font-family="sans-serif" font-size="12" lengthAdjust="spacingAndGlyphs" textLength="98" x="905.5" y="167.748">tern-loc:Polygon</text><line style="stroke: #A80036; stroke-width: 1.5;" x1="877.5" x2="1005.5" y1="179.5938" y2="179.5938"/><line style="stroke: #A80036; stroke-width: 1.5;" x1="877.5" x2="1005.5" y1="187.5938" y2="187.5938"/></a><!--MD5=[afd1637b322d36e23c8bf8e52a24b922]
reverse link dct:Location to tern-loc:Location--><path codeLine="2" d="M89.0686,103.7722 C100.1034,118.3933 112.277,134.5233 121.899,147.2722 " fill="none" id="dct:Location&lt;-tern-loc:Location" style="stroke: #A80036; stroke-width: 1.0;"/><polygon fill="none" points="83.3197,107.7749,76.8588,87.5938,94.4943,99.3412,83.3197,107.7749" style="stroke: #A80036; stroke-width: 1.0;"/><!--MD5=[da62121c43f2d8e03a68865ec0fa3196]
reverse link geosparql:Feature to tern-loc:Location--><path codeLine="3" d="M189.931,103.7722 C178.897,118.3933 166.723,134.5233 157.101,147.2722 " fill="none" id="geosparql:Feature&lt;-tern-loc:Location" style="stroke: #A80036; stroke-width: 1.0;"/><polygon fill="none" points="184.506,99.3412,202.141,87.5938,195.68,107.7749,184.506,99.3412" style="stroke: #A80036; stroke-width: 1.0;"/><!--MD5=[29f7f1c9da998e3e1cb0828a9900b6c8]
reverse link sf:Point to tern-loc:Point--><path codeLine="4" d="M404.869,101.1671 C421.74,116.4527 440.845,133.7611 455.758,147.2722 " fill="none" id="sf:Point&lt;-tern-loc:Point" style="stroke: #A80036; stroke-width: 1.0;"/><polygon fill="none" points="400.009,106.2101,389.887,87.5938,409.409,95.8349,400.009,106.2101" style="stroke: #A80036; stroke-width: 1.0;"/><!--MD5=[8c2aa92d6514d17a4ce697438d39211d]
reverse link geo:Point to tern-loc:Point--><path codeLine="5" d="M481.5,107.6174 C481.5,121.173 481.5,135.6319 481.5,147.2722 " fill="none" id="geo:Point&lt;-tern-loc:Point" style="stroke: #A80036; stroke-width: 1.0;"/><polygon fill="none" points="474.5,107.5943,481.5,87.5938,488.5,107.5942,474.5,107.5943" style="stroke: #A80036; stroke-width: 1.0;"/><!--MD5=[d68c5b1816c22edfe60892291c0b4b30]
reverse link locn:Geometry to tern-loc:Point--><path codeLine="6" d="M575.051,99.762 C554.419,115.3839 530.696,133.3454 512.302,147.2722 " fill="none" id="locn:Geometry&lt;-tern-loc:Point" style="stroke: #A80036; stroke-width: 1.0;"/><polygon fill="none" points="570.951,94.0858,591.122,87.5938,579.402,105.2478,570.951,94.0858" style="stroke: #A80036; stroke-width: 1.0;"/><!--MD5=[718676226f92dcfe37e256519b7a4772]
reverse link sf:LineString to tern-loc:LineString--><path codeLine="7" d="M770.5,107.6174 C770.5,121.173 770.5,135.6319 770.5,147.2722 " fill="none" id="sf:LineString&lt;-tern-loc:LineString" style="stroke: #A80036; stroke-width: 1.0;"/><polygon fill="none" points="763.5,107.5943,770.5,87.5938,777.5,107.5942,763.5,107.5943" style="stroke: #A80036; stroke-width: 1.0;"/><!--MD5=[51a7cfd66038ce77a5a433efcd013f3a]
reverse link sf:Polygon to tern-loc:Polygon--><path codeLine="8" d="M941.5,107.6174 C941.5,121.173 941.5,135.6319 941.5,147.2722 " fill="none" id="sf:Polygon&lt;-tern-loc:Polygon" style="stroke: #A80036; stroke-width: 1.0;"/><polygon fill="none" points="934.5,107.5943,941.5,87.5938,948.5,107.5942,934.5,107.5943" style="stroke: #A80036; stroke-width: 1.0;"/><text fill="#888888" font-family="sans-serif" font-size="10" lengthAdjust="spacingAndGlyphs" textLength="74" x="350.25" y="217.876">Generated by</text><a href="https://github.com/edmondchuc/ontogram" target="_top" title="https://github.com/edmondchuc/ontogram" xlink:actuate="onRequest" xlink:href="https://github.com/edmondchuc/ontogram" xlink:show="new" xlink:title="https://github.com/edmondchuc/ontogram" xlink:type="simple"><text fill="#0000FF" font-family="sans-serif" font-size="10" lengthAdjust="spacingAndGlyphs" text-decoration="underline" textLength="230" x="427.25" y="217.876">https://github.com/edmondchuc/ontogram</text></a><!--MD5=[49bdfc00a55ec989432a69e834704fb9]
@startuml
title TERN Location Alignment Ontology
"dct:Location" <|- - "tern-loc:Location"
"geosparql:Feature" <|- - "tern-loc:Location"
"sf:Point" <|- - "tern-loc:Point"
"geo:Point" <|- - "tern-loc:Point"
"locn:Geometry" <|- - "tern-loc:Point"
"sf:LineString" <|- - "tern-loc:LineString"
"sf:Polygon" <|- - "tern-loc:Polygon"
Class "tern-loc:Location" [[https://w3id.org/tern/ontologies/loc/Location]] {
}
Class "tern-loc:Point" [[https://w3id.org/tern/ontologies/loc/Point]] {
}
Class "tern-loc:LineString" [[https://w3id.org/tern/ontologies/loc/LineString]] {
}
Class "tern-loc:Polygon" [[https://w3id.org/tern/ontologies/loc/Polygon]] {
}
header
Creator: Edmond Chuc (e.chuc@uq.edu.au) 
endheader
center footer Generated by [[https://github.com/edmondchuc/ontogram https://github.com/edmondchuc/ontogram]]
@enduml

PlantUML version 1.2020.16beta7(Unknown compile time)
(GPL source distribution)
Java Runtime: Java(TM) SE Runtime Environment
JVM: Java HotSpot(TM) 64-Bit Server VM
Default Encoding: UTF-8
Language: en
Country: US
--></g></svg>