<?xml version="1.0" encoding="UTF-8" standalone="no"?><svg xmlns="http://www.w3.org/2000/svg" xmlns:xlink="http://www.w3.org/1999/xlink" contentScriptType="application/ecmascript" contentStyleType="text/css" height="231px" preserveAspectRatio="none" style="width:704px;height:231px;" version="1.1" viewBox="0 0 704 231" width="704px" zoomAndPan="magnify"><defs><filter height="300%" id="f1o3k65fky9sjk" width="300%" x="-1" y="-1"><feGaussianBlur result="blurOut" stdDeviation="2.0"/><feColorMatrix in="blurOut" result="blurOut2" type="matrix" values="0 0 0 0 0 0 0 0 0 0 0 0 0 0 0 0 0 0 .4 0"/><feOffset dx="4.0" dy="4.0" in="blurOut2" result="blurOut3"/><feBlend in="SourceGraphic" in2="blurOut3" mode="normal"/></filter></defs><g><text fill="#888888" font-family="sans-serif" font-size="10" lengthAdjust="spacingAndGlyphs" textLength="236" x="450.5" y="9.2822">Creator: Edmond Chuc (e.chuc@uq.edu.au)</text><text fill="#000000" font-family="sans-serif" font-size="18" lengthAdjust="spacingAndGlyphs" textLength="323" x="181.75" y="28.3486">TERN Location Alignment Ontology</text><!--MD5=[681450c180318ac92d4d4448ad41864e]
class sf:Polygon--><rect fill="#FEFECE" filter="url(#f1o3k65fky9sjk)" height="48" id="sf:Polygon" style="stroke: #A80036; stroke-width: 1.5;" width="94" x="25" y="39.5938"/><ellipse cx="40" cy="55.5938" fill="#ADD1B2" rx="11" ry="11" style="stroke: #A80036; stroke-width: 1.0;"/><path d="M42.3438,51.2656 C41.4063,50.8281 40.8125,50.6875 39.9375,50.6875 C37.3125,50.6875 35.3125,52.7656 35.3125,55.4844 L35.3125,56.6094 C35.3125,59.1875 37.4219,61.0781 40.3125,61.0781 C41.5313,61.0781 42.6875,60.7813 43.4375,60.2344 C44.0156,59.8281 44.3438,59.375 44.3438,58.9844 C44.3438,58.5313 43.9531,58.1406 43.4844,58.1406 C43.2656,58.1406 43.0625,58.2188 42.875,58.4063 C42.4219,58.8906 42.4219,58.8906 42.2344,58.9844 C41.8125,59.25 41.125,59.375 40.3594,59.375 C38.3125,59.375 37.0156,58.2813 37.0156,56.5781 L37.0156,55.4844 C37.0156,53.7031 38.2656,52.3906 40,52.3906 C40.5781,52.3906 41.1875,52.5469 41.6563,52.7969 C42.1406,53.0781 42.3125,53.2969 42.4063,53.7031 C42.4688,54.1094 42.5,54.2344 42.6406,54.3594 C42.7813,54.5 43.0156,54.6094 43.2344,54.6094 C43.5,54.6094 43.7656,54.4688 43.9375,54.25 C44.0469,54.0938 44.0781,53.9063 44.0781,53.4844 L44.0781,52.0625 C44.0781,51.625 44.0625,51.5 43.9688,51.3438 C43.8125,51.0781 43.5313,50.9375 43.2344,50.9375 C42.9375,50.9375 42.7344,51.0313 42.5156,51.3438 L42.3438,51.2656 Z "/><text fill="#000000" font-family="sans-serif" font-size="12" lengthAdjust="spacingAndGlyphs" textLength="62" x="54" y="59.748">sf:Polygon</text><line style="stroke: #A80036; stroke-width: 1.5;" x1="26" x2="118" y1="71.5938" y2="71.5938"/><line style="stroke: #A80036; stroke-width: 1.5;" x1="26" x2="118" y1="79.5938" y2="79.5938"/><!--MD5=[0169b4c160c1d1627128d322d53ed76e]
class tern-loc:Polygon--><a href="https://w3id.org/tern/ontologies/loc/Polygon" target="_top" title="https://w3id.org/tern/ontologies/loc/Polygon" xlink:actuate="onRequest" xlink:href="https://w3id.org/tern/ontologies/loc/Polygon" xlink:show="new" xlink:title="https://w3id.org/tern/ontologies/loc/Polygon" xlink:type="simple"><rect codeLine="7" fill="#FEFECE" filter="url(#f1o3k65fky9sjk)" height="48" id="tern-loc:Polygon" style="stroke: #A80036; stroke-width: 1.5;" width="130" x="7" y="147.5938"/><ellipse cx="22" cy="163.5938" fill="#ADD1B2" rx="11" ry="11" style="stroke: #A80036; stroke-width: 1.0;"/><path d="M24.3438,159.2656 C23.4063,158.8281 22.8125,158.6875 21.9375,158.6875 C19.3125,158.6875 17.3125,160.7656 17.3125,163.4844 L17.3125,164.6094 C17.3125,167.1875 19.4219,169.0781 22.3125,169.0781 C23.5313,169.0781 24.6875,168.7813 25.4375,168.2344 C26.0156,167.8281 26.3438,167.375 26.3438,166.9844 C26.3438,166.5313 25.9531,166.1406 25.4844,166.1406 C25.2656,166.1406 25.0625,166.2188 24.875,166.4063 C24.4219,166.8906 24.4219,166.8906 24.2344,166.9844 C23.8125,167.25 23.125,167.375 22.3594,167.375 C20.3125,167.375 19.0156,166.2813 19.0156,164.5781 L19.0156,163.4844 C19.0156,161.7031 20.2656,160.3906 22,160.3906 C22.5781,160.3906 23.1875,160.5469 23.6563,160.7969 C24.1406,161.0781 24.3125,161.2969 24.4063,161.7031 C24.4688,162.1094 24.5,162.2344 24.6406,162.3594 C24.7813,162.5 25.0156,162.6094 25.2344,162.6094 C25.5,162.6094 25.7656,162.4688 25.9375,162.25 C26.0469,162.0938 26.0781,161.9063 26.0781,161.4844 L26.0781,160.0625 C26.0781,159.625 26.0625,159.5 25.9688,159.3438 C25.8125,159.0781 25.5313,158.9375 25.2344,158.9375 C24.9375,158.9375 24.7344,159.0313 24.5156,159.3438 L24.3438,159.2656 Z "/><text fill="#000000" font-family="sans-serif" font-size="12" lengthAdjust="spacingAndGlyphs" textLength="98" x="36" y="167.748">tern-loc:Polygon</text><line style="stroke: #A80036; stroke-width: 1.5;" x1="8" x2="136" y1="179.5938" y2="179.5938"/><line style="stroke: #A80036; stroke-width: 1.5;" x1="8" x2="136" y1="187.5938" y2="187.5938"/></a><!--MD5=[f6be3c52ce9b6300cb295795c7aca351]
class sf:LineString--><rect fill="#FEFECE" filter="url(#f1o3k65fky9sjk)" height="48" id="sf:LineString" style="stroke: #A80036; stroke-width: 1.5;" width="106" x="190" y="39.5938"/><ellipse cx="205" cy="55.5938" fill="#ADD1B2" rx="11" ry="11" style="stroke: #A80036; stroke-width: 1.0;"/><path d="M207.3438,51.2656 C206.4063,50.8281 205.8125,50.6875 204.9375,50.6875 C202.3125,50.6875 200.3125,52.7656 200.3125,55.4844 L200.3125,56.6094 C200.3125,59.1875 202.4219,61.0781 205.3125,61.0781 C206.5313,61.0781 207.6875,60.7813 208.4375,60.2344 C209.0156,59.8281 209.3438,59.375 209.3438,58.9844 C209.3438,58.5313 208.9531,58.1406 208.4844,58.1406 C208.2656,58.1406 208.0625,58.2188 207.875,58.4063 C207.4219,58.8906 207.4219,58.8906 207.2344,58.9844 C206.8125,59.25 206.125,59.375 205.3594,59.375 C203.3125,59.375 202.0156,58.2813 202.0156,56.5781 L202.0156,55.4844 C202.0156,53.7031 203.2656,52.3906 205,52.3906 C205.5781,52.3906 206.1875,52.5469 206.6563,52.7969 C207.1406,53.0781 207.3125,53.2969 207.4063,53.7031 C207.4688,54.1094 207.5,54.2344 207.6406,54.3594 C207.7813,54.5 208.0156,54.6094 208.2344,54.6094 C208.5,54.6094 208.7656,54.4688 208.9375,54.25 C209.0469,54.0938 209.0781,53.9063 209.0781,53.4844 L209.0781,52.0625 C209.0781,51.625 209.0625,51.5 208.9688,51.3438 C208.8125,51.0781 208.5313,50.9375 208.2344,50.9375 C207.9375,50.9375 207.7344,51.0313 207.5156,51.3438 L207.3438,51.2656 Z "/><text fill="#000000" font-family="sans-serif" font-size="12" lengthAdjust="spacingAndGlyphs" textLength="74" x="219" y="59.748">sf:LineString</text><line style="stroke: #A80036; stroke-width: 1.5;" x1="191" x2="295" y1="71.5938" y2="71.5938"/><line style="stroke: #A80036; stroke-width: 1.5;" x1="191" x2="295" y1="79.5938" y2="79.5938"/><!--MD5=[8769ba710cd4c62aec428e033c91e43d]
class tern-loc:LineString--><a href="https://w3id.org/tern/ontologies/loc/LineString" target="_top" title="https://w3id.org/tern/ontologies/loc/LineString" xlink:actuate="onRequest" xlink:href="https://w3id.org/tern/ontologies/loc/LineString" xlink:show="new" xlink:title="https://w3id.org/tern/ontologies/loc/LineString" xlink:type="simple"><rect codeLine="9" fill="#FEFECE" filter="url(#f1o3k65fky9sjk)" height="48" id="tern-loc:LineString" style="stroke: #A80036; stroke-width: 1.5;" width="142" x="172" y="147.5938"/><ellipse cx="187" cy="163.5938" fill="#ADD1B2" rx="11" ry="11" style="stroke: #A80036; stroke-width: 1.0;"/><path d="M189.3438,159.2656 C188.4063,158.8281 187.8125,158.6875 186.9375,158.6875 C184.3125,158.6875 182.3125,160.7656 182.3125,163.4844 L182.3125,164.6094 C182.3125,167.1875 184.4219,169.0781 187.3125,169.0781 C188.5313,169.0781 189.6875,168.7813 190.4375,168.2344 C191.0156,167.8281 191.3438,167.375 191.3438,166.9844 C191.3438,166.5313 190.9531,166.1406 190.4844,166.1406 C190.2656,166.1406 190.0625,166.2188 189.875,166.4063 C189.4219,166.8906 189.4219,166.8906 189.2344,166.9844 C188.8125,167.25 188.125,167.375 187.3594,167.375 C185.3125,167.375 184.0156,166.2813 184.0156,164.5781 L184.0156,163.4844 C184.0156,161.7031 185.2656,160.3906 187,160.3906 C187.5781,160.3906 188.1875,160.5469 188.6563,160.7969 C189.1406,161.0781 189.3125,161.2969 189.4063,161.7031 C189.4688,162.1094 189.5,162.2344 189.6406,162.3594 C189.7813,162.5 190.0156,162.6094 190.2344,162.6094 C190.5,162.6094 190.7656,162.4688 190.9375,162.25 C191.0469,162.0938 191.0781,161.9063 191.0781,161.4844 L191.0781,160.0625 C191.0781,159.625 191.0625,159.5 190.9688,159.3438 C190.8125,159.0781 190.5313,158.9375 190.2344,158.9375 C189.9375,158.9375 189.7344,159.0313 189.5156,159.3438 L189.3438,159.2656 Z "/><text fill="#000000" font-family="sans-serif" font-size="12" lengthAdjust="spacingAndGlyphs" textLength="110" x="201" y="167.748">tern-loc:LineString</text><line style="stroke: #A80036; stroke-width: 1.5;" x1="173" x2="313" y1="179.5938" y2="179.5938"/><line style="stroke: #A80036; stroke-width: 1.5;" x1="173" x2="313" y1="187.5938" y2="187.5938"/></a><!--MD5=[4b4dc00f06a8a0ae0f42cf5f98def9ae]
class geo:Point--><rect fill="#FEFECE" filter="url(#f1o3k65fky9sjk)" height="48" id="geo:Point" style="stroke: #A80036; stroke-width: 1.5;" width="88" x="331" y="39.5938"/><ellipse cx="346" cy="55.5938" fill="#ADD1B2" rx="11" ry="11" style="stroke: #A80036; stroke-width: 1.0;"/><path d="M348.3438,51.2656 C347.4063,50.8281 346.8125,50.6875 345.9375,50.6875 C343.3125,50.6875 341.3125,52.7656 341.3125,55.4844 L341.3125,56.6094 C341.3125,59.1875 343.4219,61.0781 346.3125,61.0781 C347.5313,61.0781 348.6875,60.7813 349.4375,60.2344 C350.0156,59.8281 350.3438,59.375 350.3438,58.9844 C350.3438,58.5313 349.9531,58.1406 349.4844,58.1406 C349.2656,58.1406 349.0625,58.2188 348.875,58.4063 C348.4219,58.8906 348.4219,58.8906 348.2344,58.9844 C347.8125,59.25 347.125,59.375 346.3594,59.375 C344.3125,59.375 343.0156,58.2813 343.0156,56.5781 L343.0156,55.4844 C343.0156,53.7031 344.2656,52.3906 346,52.3906 C346.5781,52.3906 347.1875,52.5469 347.6563,52.7969 C348.1406,53.0781 348.3125,53.2969 348.4063,53.7031 C348.4688,54.1094 348.5,54.2344 348.6406,54.3594 C348.7813,54.5 349.0156,54.6094 349.2344,54.6094 C349.5,54.6094 349.7656,54.4688 349.9375,54.25 C350.0469,54.0938 350.0781,53.9063 350.0781,53.4844 L350.0781,52.0625 C350.0781,51.625 350.0625,51.5 349.9688,51.3438 C349.8125,51.0781 349.5313,50.9375 349.2344,50.9375 C348.9375,50.9375 348.7344,51.0313 348.5156,51.3438 L348.3438,51.2656 Z "/><text fill="#000000" font-family="sans-serif" font-size="12" lengthAdjust="spacingAndGlyphs" textLength="56" x="360" y="59.748">geo:Point</text><line style="stroke: #A80036; stroke-width: 1.5;" x1="332" x2="418" y1="71.5938" y2="71.5938"/><line style="stroke: #A80036; stroke-width: 1.5;" x1="332" x2="418" y1="79.5938" y2="79.5938"/><!--MD5=[b67d05c86b32bf3c0f7bf9b2b1a33612]
class tern-loc:Point--><a href="https://w3id.org/tern/ontologies/loc/Point" target="_top" title="https://w3id.org/tern/ontologies/loc/Point" xlink:actuate="onRequest" xlink:href="https://w3id.org/tern/ontologies/loc/Point" xlink:show="new" xlink:title="https://w3id.org/tern/ontologies/loc/Point" xlink:type="simple"><rect codeLine="11" fill="#FEFECE" filter="url(#f1o3k65fky9sjk)" height="48" id="tern-loc:Point" style="stroke: #A80036; stroke-width: 1.5;" width="111" x="459.5" y="147.5938"/><ellipse cx="474.5" cy="163.5938" fill="#ADD1B2" rx="11" ry="11" style="stroke: #A80036; stroke-width: 1.0;"/><path d="M476.8438,159.2656 C475.9063,158.8281 475.3125,158.6875 474.4375,158.6875 C471.8125,158.6875 469.8125,160.7656 469.8125,163.4844 L469.8125,164.6094 C469.8125,167.1875 471.9219,169.0781 474.8125,169.0781 C476.0313,169.0781 477.1875,168.7813 477.9375,168.2344 C478.5156,167.8281 478.8438,167.375 478.8438,166.9844 C478.8438,166.5313 478.4531,166.1406 477.9844,166.1406 C477.7656,166.1406 477.5625,166.2188 477.375,166.4063 C476.9219,166.8906 476.9219,166.8906 476.7344,166.9844 C476.3125,167.25 475.625,167.375 474.8594,167.375 C472.8125,167.375 471.5156,166.2813 471.5156,164.5781 L471.5156,163.4844 C471.5156,161.7031 472.7656,160.3906 474.5,160.3906 C475.0781,160.3906 475.6875,160.5469 476.1563,160.7969 C476.6406,161.0781 476.8125,161.2969 476.9063,161.7031 C476.9688,162.1094 477,162.2344 477.1406,162.3594 C477.2813,162.5 477.5156,162.6094 477.7344,162.6094 C478,162.6094 478.2656,162.4688 478.4375,162.25 C478.5469,162.0938 478.5781,161.9063 478.5781,161.4844 L478.5781,160.0625 C478.5781,159.625 478.5625,159.5 478.4688,159.3438 C478.3125,159.0781 478.0313,158.9375 477.7344,158.9375 C477.4375,158.9375 477.2344,159.0313 477.0156,159.3438 L476.8438,159.2656 Z "/><text fill="#000000" font-family="sans-serif" font-size="12" lengthAdjust="spacingAndGlyphs" textLength="79" x="488.5" y="167.748">tern-loc:Point</text><line style="stroke: #A80036; stroke-width: 1.5;" x1="460.5" x2="569.5" y1="179.5938" y2="179.5938"/><line style="stroke: #A80036; stroke-width: 1.5;" x1="460.5" x2="569.5" y1="187.5938" y2="187.5938"/></a><!--MD5=[cd48ee8575308cff07b85b42a6074af1]
class locn:Geometry--><rect fill="#FEFECE" filter="url(#f1o3k65fky9sjk)" height="48" id="locn:Geometry" style="stroke: #A80036; stroke-width: 1.5;" width="121" x="454.5" y="39.5938"/><ellipse cx="469.5" cy="55.5938" fill="#ADD1B2" rx="11" ry="11" style="stroke: #A80036; stroke-width: 1.0;"/><path d="M471.8438,51.2656 C470.9063,50.8281 470.3125,50.6875 469.4375,50.6875 C466.8125,50.6875 464.8125,52.7656 464.8125,55.4844 L464.8125,56.6094 C464.8125,59.1875 466.9219,61.0781 469.8125,61.0781 C471.0313,61.0781 472.1875,60.7813 472.9375,60.2344 C473.5156,59.8281 473.8438,59.375 473.8438,58.9844 C473.8438,58.5313 473.4531,58.1406 472.9844,58.1406 C472.7656,58.1406 472.5625,58.2188 472.375,58.4063 C471.9219,58.8906 471.9219,58.8906 471.7344,58.9844 C471.3125,59.25 470.625,59.375 469.8594,59.375 C467.8125,59.375 466.5156,58.2813 466.5156,56.5781 L466.5156,55.4844 C466.5156,53.7031 467.7656,52.3906 469.5,52.3906 C470.0781,52.3906 470.6875,52.5469 471.1563,52.7969 C471.6406,53.0781 471.8125,53.2969 471.9063,53.7031 C471.9688,54.1094 472,54.2344 472.1406,54.3594 C472.2813,54.5 472.5156,54.6094 472.7344,54.6094 C473,54.6094 473.2656,54.4688 473.4375,54.25 C473.5469,54.0938 473.5781,53.9063 473.5781,53.4844 L473.5781,52.0625 C473.5781,51.625 473.5625,51.5 473.4688,51.3438 C473.3125,51.0781 473.0313,50.9375 472.7344,50.9375 C472.4375,50.9375 472.2344,51.0313 472.0156,51.3438 L471.8438,51.2656 Z "/><text fill="#000000" font-family="sans-serif" font-size="12" lengthAdjust="spacingAndGlyphs" textLength="89" x="483.5" y="59.748">locn:Geometry</text><line style="stroke: #A80036; stroke-width: 1.5;" x1="455.5" x2="574.5" y1="71.5938" y2="71.5938"/><line style="stroke: #A80036; stroke-width: 1.5;" x1="455.5" x2="574.5" y1="79.5938" y2="79.5938"/><!--MD5=[06a0b58d9040550ef5280287aedb19f7]
class sf:Point--><rect fill="#FEFECE" filter="url(#f1o3k65fky9sjk)" height="48" id="sf:Point" style="stroke: #A80036; stroke-width: 1.5;" width="75" x="610.5" y="39.5938"/><ellipse cx="625.5" cy="55.5938" fill="#ADD1B2" rx="11" ry="11" style="stroke: #A80036; stroke-width: 1.0;"/><path d="M627.8438,51.2656 C626.9063,50.8281 626.3125,50.6875 625.4375,50.6875 C622.8125,50.6875 620.8125,52.7656 620.8125,55.4844 L620.8125,56.6094 C620.8125,59.1875 622.9219,61.0781 625.8125,61.0781 C627.0313,61.0781 628.1875,60.7813 628.9375,60.2344 C629.5156,59.8281 629.8438,59.375 629.8438,58.9844 C629.8438,58.5313 629.4531,58.1406 628.9844,58.1406 C628.7656,58.1406 628.5625,58.2188 628.375,58.4063 C627.9219,58.8906 627.9219,58.8906 627.7344,58.9844 C627.3125,59.25 626.625,59.375 625.8594,59.375 C623.8125,59.375 622.5156,58.2813 622.5156,56.5781 L622.5156,55.4844 C622.5156,53.7031 623.7656,52.3906 625.5,52.3906 C626.0781,52.3906 626.6875,52.5469 627.1563,52.7969 C627.6406,53.0781 627.8125,53.2969 627.9063,53.7031 C627.9688,54.1094 628,54.2344 628.1406,54.3594 C628.2813,54.5 628.5156,54.6094 628.7344,54.6094 C629,54.6094 629.2656,54.4688 629.4375,54.25 C629.5469,54.0938 629.5781,53.9063 629.5781,53.4844 L629.5781,52.0625 C629.5781,51.625 629.5625,51.5 629.4688,51.3438 C629.3125,51.0781 629.0313,50.9375 628.7344,50.9375 C628.4375,50.9375 628.2344,51.0313 628.0156,51.3438 L627.8438,51.2656 Z "/><text fill="#000000" font-family="sans-serif" font-size="12" lengthAdjust="spacingAndGlyphs" textLength="43" x="639.5" y="59.748">sf:Point</text><line style="stroke: #A80036; stroke-width: 1.5;" x1="611.5" x2="684.5" y1="71.5938" y2="71.5938"/><line style="stroke: #A80036; stroke-width: 1.5;" x1="611.5" x2="684.5" y1="79.5938" y2="79.5938"/><!--MD5=[51a7cfd66038ce77a5a433efcd013f3a]
reverse link sf:Polygon to tern-loc:Polygon--><path codeLine="2" d="M72,107.6174 C72,121.173 72,135.6319 72,147.2722 " fill="none" id="sf:Polygon&lt;-tern-loc:Polygon" style="stroke: #A80036; stroke-width: 1.0;"/><polygon fill="none" points="65.0001,107.5943,72,87.5938,79.0001,107.5942,65.0001,107.5943" style="stroke: #A80036; stroke-width: 1.0;"/><!--MD5=[718676226f92dcfe37e256519b7a4772]
reverse link sf:LineString to tern-loc:LineString--><path codeLine="3" d="M243,107.6174 C243,121.173 243,135.6319 243,147.2722 " fill="none" id="sf:LineString&lt;-tern-loc:LineString" style="stroke: #A80036; stroke-width: 1.0;"/><polygon fill="none" points="236,107.5943,243,87.5938,250,107.5942,236,107.5943" style="stroke: #A80036; stroke-width: 1.0;"/><!--MD5=[8c2aa92d6514d17a4ce697438d39211d]
reverse link geo:Point to tern-loc:Point--><path codeLine="4" d="M421.449,99.762 C442.081,115.3839 465.804,133.3454 484.198,147.2722 " fill="none" id="geo:Point&lt;-tern-loc:Point" style="stroke: #A80036; stroke-width: 1.0;"/><polygon fill="none" points="417.098,105.2478,405.378,87.5938,425.549,94.0858,417.098,105.2478" style="stroke: #A80036; stroke-width: 1.0;"/><!--MD5=[d68c5b1816c22edfe60892291c0b4b30]
reverse link locn:Geometry to tern-loc:Point--><path codeLine="5" d="M515,107.6174 C515,121.173 515,135.6319 515,147.2722 " fill="none" id="locn:Geometry&lt;-tern-loc:Point" style="stroke: #A80036; stroke-width: 1.0;"/><polygon fill="none" points="508,107.5943,515,87.5938,522,107.5942,508,107.5943" style="stroke: #A80036; stroke-width: 1.0;"/><!--MD5=[29f7f1c9da998e3e1cb0828a9900b6c8]
reverse link sf:Point to tern-loc:Point--><path codeLine="6" d="M603.288,100.2291 C583.825,115.741 561.562,133.484 544.262,147.2722 " fill="none" id="sf:Point&lt;-tern-loc:Point" style="stroke: #A80036; stroke-width: 1.0;"/><polygon fill="none" points="599.138,94.5858,619.141,87.5938,607.863,105.5336,599.138,94.5858" style="stroke: #A80036; stroke-width: 1.0;"/><text fill="#888888" font-family="sans-serif" font-size="10" lengthAdjust="spacingAndGlyphs" textLength="74" x="189.75" y="217.876">Generated by</text><a href="https://github.com/edmondchuc/ontogram" target="_top" title="https://github.com/edmondchuc/ontogram" xlink:actuate="onRequest" xlink:href="https://github.com/edmondchuc/ontogram" xlink:show="new" xlink:title="https://github.com/edmondchuc/ontogram" xlink:type="simple"><text fill="#0000FF" font-family="sans-serif" font-size="10" lengthAdjust="spacingAndGlyphs" text-decoration="underline" textLength="230" x="266.75" y="217.876">https://github.com/edmondchuc/ontogram</text></a><!--MD5=[1e09e180bb98c56472213e8ee1e69f56]
@startuml
title TERN Location Alignment Ontology
"sf:Polygon" <|- - "tern-loc:Polygon"
"sf:LineString" <|- - "tern-loc:LineString"
"geo:Point" <|- - "tern-loc:Point"
"locn:Geometry" <|- - "tern-loc:Point"
"sf:Point" <|- - "tern-loc:Point"
Class "tern-loc:Polygon" [[https://w3id.org/tern/ontologies/loc/Polygon]] {
}
Class "tern-loc:LineString" [[https://w3id.org/tern/ontologies/loc/LineString]] {
}
Class "tern-loc:Point" [[https://w3id.org/tern/ontologies/loc/Point]] {
}
header
Creator: Edmond Chuc (e.chuc@uq.edu.au) 
endheader
center footer Generated by [[https://github.com/edmondchuc/ontogram https://github.com/edmondchuc/ontogram]]
@enduml

PlantUML version 1.2020.16beta7(Unknown compile time)
(GPL source distribution)
Java Runtime: Java(TM) SE Runtime Environment
JVM: Java HotSpot(TM) 64-Bit Server VM
Default Encoding: UTF-8
Language: en
Country: US
--></g></svg>