<?xml version="1.0" encoding="UTF-8" standalone="no"?><svg xmlns="http://www.w3.org/2000/svg" xmlns:xlink="http://www.w3.org/1999/xlink" contentScriptType="application/ecmascript" contentStyleType="text/css" height="229px" preserveAspectRatio="none" style="width:339px;height:229px;" version="1.1" viewBox="0 0 339 229" width="339px" zoomAndPan="magnify"><defs><filter height="300%" id="f1uk97477dn1oz" width="300%" x="-1" y="-1"><feGaussianBlur result="blurOut" stdDeviation="2.0"/><feColorMatrix in="blurOut" result="blurOut2" type="matrix" values="0 0 0 0 0 0 0 0 0 0 0 0 0 0 0 0 0 0 .4 0"/><feOffset dx="4.0" dy="4.0" in="blurOut2" result="blurOut3"/><feBlend in="SourceGraphic" in2="blurOut3" mode="normal"/></filter></defs><g><text fill="#888888" font-family="sans-serif" font-size="10" lengthAdjust="spacingAndGlyphs" textLength="236" x="91" y="9.2822">Creator: Edmond Chuc (e.chuc@uq.edu.au)</text><text fill="#000000" font-family="sans-serif" font-size="18" lengthAdjust="spacingAndGlyphs" textLength="323" x="2" y="28.3486">TERN Location Alignment Ontology</text><!--MD5=[4b4dc00f06a8a0ae0f42cf5f98def9ae]
class geo:Point--><rect fill="#FEFECE" filter="url(#f1uk97477dn1oz)" height="48" id="geo:Point" style="stroke: #A80036; stroke-width: 1.5;" width="88" x="113.5" y="40.5938"/><ellipse cx="128.5" cy="56.5938" fill="#ADD1B2" rx="11" ry="11" style="stroke: #A80036; stroke-width: 1.0;"/><path d="M130.8438,52.2656 C129.9063,51.8281 129.3125,51.6875 128.4375,51.6875 C125.8125,51.6875 123.8125,53.7656 123.8125,56.4844 L123.8125,57.6094 C123.8125,60.1875 125.9219,62.0781 128.8125,62.0781 C130.0313,62.0781 131.1875,61.7813 131.9375,61.2344 C132.5156,60.8281 132.8438,60.375 132.8438,59.9844 C132.8438,59.5313 132.4531,59.1406 131.9844,59.1406 C131.7656,59.1406 131.5625,59.2188 131.375,59.4063 C130.9219,59.8906 130.9219,59.8906 130.7344,59.9844 C130.3125,60.25 129.625,60.375 128.8594,60.375 C126.8125,60.375 125.5156,59.2813 125.5156,57.5781 L125.5156,56.4844 C125.5156,54.7031 126.7656,53.3906 128.5,53.3906 C129.0781,53.3906 129.6875,53.5469 130.1563,53.7969 C130.6406,54.0781 130.8125,54.2969 130.9063,54.7031 C130.9688,55.1094 131,55.2344 131.1406,55.3594 C131.2813,55.5 131.5156,55.6094 131.7344,55.6094 C132,55.6094 132.2656,55.4688 132.4375,55.25 C132.5469,55.0938 132.5781,54.9063 132.5781,54.4844 L132.5781,53.0625 C132.5781,52.625 132.5625,52.5 132.4688,52.3438 C132.3125,52.0781 132.0313,51.9375 131.7344,51.9375 C131.4375,51.9375 131.2344,52.0313 131.0156,52.3438 L130.8438,52.2656 Z "/><text fill="#000000" font-family="sans-serif" font-size="12" lengthAdjust="spacingAndGlyphs" textLength="56" x="142.5" y="60.748">geo:Point</text><line style="stroke: #A80036; stroke-width: 1.5;" x1="114.5" x2="200.5" y1="72.5938" y2="72.5938"/><line style="stroke: #A80036; stroke-width: 1.5;" x1="114.5" x2="200.5" y1="80.5938" y2="80.5938"/><!--MD5=[b67d05c86b32bf3c0f7bf9b2b1a33612]
class tern-loc:Point--><a href="https://w3id.org/tern/ontologies/loc/Point" target="_top" title="https://w3id.org/tern/ontologies/loc/Point" xlink:actuate="onRequest" xlink:href="https://w3id.org/tern/ontologies/loc/Point" xlink:show="new" xlink:title="https://w3id.org/tern/ontologies/loc/Point" xlink:type="simple"><rect fill="#FEFECE" filter="url(#f1uk97477dn1oz)" height="48" id="tern-loc:Point" style="stroke: #A80036; stroke-width: 1.5;" width="111" x="102" y="148.5938"/><ellipse cx="117" cy="164.5938" fill="#ADD1B2" rx="11" ry="11" style="stroke: #A80036; stroke-width: 1.0;"/><path d="M119.3438,160.2656 C118.4063,159.8281 117.8125,159.6875 116.9375,159.6875 C114.3125,159.6875 112.3125,161.7656 112.3125,164.4844 L112.3125,165.6094 C112.3125,168.1875 114.4219,170.0781 117.3125,170.0781 C118.5313,170.0781 119.6875,169.7813 120.4375,169.2344 C121.0156,168.8281 121.3438,168.375 121.3438,167.9844 C121.3438,167.5313 120.9531,167.1406 120.4844,167.1406 C120.2656,167.1406 120.0625,167.2188 119.875,167.4063 C119.4219,167.8906 119.4219,167.8906 119.2344,167.9844 C118.8125,168.25 118.125,168.375 117.3594,168.375 C115.3125,168.375 114.0156,167.2813 114.0156,165.5781 L114.0156,164.4844 C114.0156,162.7031 115.2656,161.3906 117,161.3906 C117.5781,161.3906 118.1875,161.5469 118.6563,161.7969 C119.1406,162.0781 119.3125,162.2969 119.4063,162.7031 C119.4688,163.1094 119.5,163.2344 119.6406,163.3594 C119.7813,163.5 120.0156,163.6094 120.2344,163.6094 C120.5,163.6094 120.7656,163.4688 120.9375,163.25 C121.0469,163.0938 121.0781,162.9063 121.0781,162.4844 L121.0781,161.0625 C121.0781,160.625 121.0625,160.5 120.9688,160.3438 C120.8125,160.0781 120.5313,159.9375 120.2344,159.9375 C119.9375,159.9375 119.7344,160.0313 119.5156,160.3438 L119.3438,160.2656 Z "/><text fill="#000000" font-family="sans-serif" font-size="12" lengthAdjust="spacingAndGlyphs" textLength="79" x="131" y="168.748">tern-loc:Point</text><line style="stroke: #A80036; stroke-width: 1.5;" x1="103" x2="212" y1="180.5938" y2="180.5938"/><line style="stroke: #A80036; stroke-width: 1.5;" x1="103" x2="212" y1="188.5938" y2="188.5938"/></a><!--MD5=[8c2aa92d6514d17a4ce697438d39211d]
reverse link geo:Point to tern-loc:Point--><path d="M157.5,108.6174 C157.5,122.173 157.5,136.6319 157.5,148.2722 " fill="none" id="geo:Point&lt;-tern-loc:Point" style="stroke: #A80036; stroke-width: 1.0;"/><polygon fill="none" points="150.5001,108.5943,157.5,88.5938,164.5001,108.5942,150.5001,108.5943" style="stroke: #A80036; stroke-width: 1.0;"/><text fill="#888888" font-family="sans-serif" font-size="10" lengthAdjust="spacingAndGlyphs" textLength="74" x="10" y="215.876">Generated by</text><a href="https://github.com/edmondchuc/ontogram" target="_top" title="https://github.com/edmondchuc/ontogram" xlink:actuate="onRequest" xlink:href="https://github.com/edmondchuc/ontogram" xlink:show="new" xlink:title="https://github.com/edmondchuc/ontogram" xlink:type="simple"><text fill="#0000FF" font-family="sans-serif" font-size="10" lengthAdjust="spacingAndGlyphs" text-decoration="underline" textLength="230" x="87" y="215.876">https://github.com/edmondchuc/ontogram</text></a><!--MD5=[503214cfc26b810b99de5a5f1f06b7d1]
@startuml
title TERN Location Alignment Ontology
"geo:Point" <|- - "tern-loc:Point"
Class "tern-loc:Point" [[https://w3id.org/tern/ontologies/loc/Point]] {
}
header
Creator: Edmond Chuc (e.chuc@uq.edu.au) 
endheader
center footer Generated by [[https://github.com/edmondchuc/ontogram https://github.com/edmondchuc/ontogram]]
@enduml

PlantUML version 1.2020.09beta16(Unknown compile time)
(GPL source distribution)
Java Runtime: Java(TM) SE Runtime Environment
JVM: Java HotSpot(TM) 64-Bit Server VM
Java Version: 14.0.1+7
Operating System: Linux
Default Encoding: UTF-8
Language: en
Country: US
--></g></svg>