<?xml version="1.0" encoding="UTF-8" standalone="no"?><svg xmlns="http://www.w3.org/2000/svg" xmlns:xlink="http://www.w3.org/1999/xlink" contentScriptType="application/ecmascript" contentStyleType="text/css" height="229px" preserveAspectRatio="none" style="width:391px;height:229px;" version="1.1" viewBox="0 0 391 229" width="391px" zoomAndPan="magnify"><defs><filter height="300%" id="f1076824alcip6" width="300%" x="-1" y="-1"><feGaussianBlur result="blurOut" stdDeviation="2.0"/><feColorMatrix in="blurOut" result="blurOut2" type="matrix" values="0 0 0 0 0 0 0 0 0 0 0 0 0 0 0 0 0 0 .4 0"/><feOffset dx="4.0" dy="4.0" in="blurOut2" result="blurOut3"/><feBlend in="SourceGraphic" in2="blurOut3" mode="normal"/></filter></defs><g><text fill="#888888" font-family="sans-serif" font-size="10" lengthAdjust="spacingAndGlyphs" textLength="236" x="143" y="9.2822">Creator: Edmond Chuc (e.chuc@uq.edu.au)</text><text fill="#000000" font-family="sans-serif" font-size="18" lengthAdjust="spacingAndGlyphs" textLength="323" x="28" y="28.3486">TERN Location Alignment Ontology</text><!--MD5=[cd48ee8575308cff07b85b42a6074af1]
class locn:Geometry--><rect fill="#FEFECE" filter="url(#f1076824alcip6)" height="48" id="locn:Geometry" style="stroke: #A80036; stroke-width: 1.5;" width="121" x="6" y="40.5938"/><ellipse cx="21" cy="56.5938" fill="#ADD1B2" rx="11" ry="11" style="stroke: #A80036; stroke-width: 1.0;"/><path d="M23.3438,52.2656 C22.4063,51.8281 21.8125,51.6875 20.9375,51.6875 C18.3125,51.6875 16.3125,53.7656 16.3125,56.4844 L16.3125,57.6094 C16.3125,60.1875 18.4219,62.0781 21.3125,62.0781 C22.5313,62.0781 23.6875,61.7813 24.4375,61.2344 C25.0156,60.8281 25.3438,60.375 25.3438,59.9844 C25.3438,59.5313 24.9531,59.1406 24.4844,59.1406 C24.2656,59.1406 24.0625,59.2188 23.875,59.4063 C23.4219,59.8906 23.4219,59.8906 23.2344,59.9844 C22.8125,60.25 22.125,60.375 21.3594,60.375 C19.3125,60.375 18.0156,59.2813 18.0156,57.5781 L18.0156,56.4844 C18.0156,54.7031 19.2656,53.3906 21,53.3906 C21.5781,53.3906 22.1875,53.5469 22.6563,53.7969 C23.1406,54.0781 23.3125,54.2969 23.4063,54.7031 C23.4688,55.1094 23.5,55.2344 23.6406,55.3594 C23.7813,55.5 24.0156,55.6094 24.2344,55.6094 C24.5,55.6094 24.7656,55.4688 24.9375,55.25 C25.0469,55.0938 25.0781,54.9063 25.0781,54.4844 L25.0781,53.0625 C25.0781,52.625 25.0625,52.5 24.9688,52.3438 C24.8125,52.0781 24.5313,51.9375 24.2344,51.9375 C23.9375,51.9375 23.7344,52.0313 23.5156,52.3438 L23.3438,52.2656 Z "/><text fill="#000000" font-family="sans-serif" font-size="12" lengthAdjust="spacingAndGlyphs" textLength="89" x="35" y="60.748">locn:Geometry</text><line style="stroke: #A80036; stroke-width: 1.5;" x1="7" x2="126" y1="72.5938" y2="72.5938"/><line style="stroke: #A80036; stroke-width: 1.5;" x1="7" x2="126" y1="80.5938" y2="80.5938"/><!--MD5=[b67d05c86b32bf3c0f7bf9b2b1a33612]
class tern-loc:Point--><a href="https://w3id.org/tern/ontologies/loc/Point" target="_top" title="https://w3id.org/tern/ontologies/loc/Point" xlink:actuate="onRequest" xlink:href="https://w3id.org/tern/ontologies/loc/Point" xlink:show="new" xlink:title="https://w3id.org/tern/ontologies/loc/Point" xlink:type="simple"><rect fill="#FEFECE" filter="url(#f1076824alcip6)" height="48" id="tern-loc:Point" style="stroke: #A80036; stroke-width: 1.5;" width="111" x="151" y="148.5938"/><ellipse cx="166" cy="164.5938" fill="#ADD1B2" rx="11" ry="11" style="stroke: #A80036; stroke-width: 1.0;"/><path d="M168.3438,160.2656 C167.4063,159.8281 166.8125,159.6875 165.9375,159.6875 C163.3125,159.6875 161.3125,161.7656 161.3125,164.4844 L161.3125,165.6094 C161.3125,168.1875 163.4219,170.0781 166.3125,170.0781 C167.5313,170.0781 168.6875,169.7813 169.4375,169.2344 C170.0156,168.8281 170.3438,168.375 170.3438,167.9844 C170.3438,167.5313 169.9531,167.1406 169.4844,167.1406 C169.2656,167.1406 169.0625,167.2188 168.875,167.4063 C168.4219,167.8906 168.4219,167.8906 168.2344,167.9844 C167.8125,168.25 167.125,168.375 166.3594,168.375 C164.3125,168.375 163.0156,167.2813 163.0156,165.5781 L163.0156,164.4844 C163.0156,162.7031 164.2656,161.3906 166,161.3906 C166.5781,161.3906 167.1875,161.5469 167.6563,161.7969 C168.1406,162.0781 168.3125,162.2969 168.4063,162.7031 C168.4688,163.1094 168.5,163.2344 168.6406,163.3594 C168.7813,163.5 169.0156,163.6094 169.2344,163.6094 C169.5,163.6094 169.7656,163.4688 169.9375,163.25 C170.0469,163.0938 170.0781,162.9063 170.0781,162.4844 L170.0781,161.0625 C170.0781,160.625 170.0625,160.5 169.9688,160.3438 C169.8125,160.0781 169.5313,159.9375 169.2344,159.9375 C168.9375,159.9375 168.7344,160.0313 168.5156,160.3438 L168.3438,160.2656 Z "/><text fill="#000000" font-family="sans-serif" font-size="12" lengthAdjust="spacingAndGlyphs" textLength="79" x="180" y="168.748">tern-loc:Point</text><line style="stroke: #A80036; stroke-width: 1.5;" x1="152" x2="261" y1="180.5938" y2="180.5938"/><line style="stroke: #A80036; stroke-width: 1.5;" x1="152" x2="261" y1="188.5938" y2="188.5938"/></a><!--MD5=[4b4dc00f06a8a0ae0f42cf5f98def9ae]
class geo:Point--><rect fill="#FEFECE" filter="url(#f1076824alcip6)" height="48" id="geo:Point" style="stroke: #A80036; stroke-width: 1.5;" width="88" x="162.5" y="40.5938"/><ellipse cx="177.5" cy="56.5938" fill="#ADD1B2" rx="11" ry="11" style="stroke: #A80036; stroke-width: 1.0;"/><path d="M179.8438,52.2656 C178.9063,51.8281 178.3125,51.6875 177.4375,51.6875 C174.8125,51.6875 172.8125,53.7656 172.8125,56.4844 L172.8125,57.6094 C172.8125,60.1875 174.9219,62.0781 177.8125,62.0781 C179.0313,62.0781 180.1875,61.7813 180.9375,61.2344 C181.5156,60.8281 181.8438,60.375 181.8438,59.9844 C181.8438,59.5313 181.4531,59.1406 180.9844,59.1406 C180.7656,59.1406 180.5625,59.2188 180.375,59.4063 C179.9219,59.8906 179.9219,59.8906 179.7344,59.9844 C179.3125,60.25 178.625,60.375 177.8594,60.375 C175.8125,60.375 174.5156,59.2813 174.5156,57.5781 L174.5156,56.4844 C174.5156,54.7031 175.7656,53.3906 177.5,53.3906 C178.0781,53.3906 178.6875,53.5469 179.1563,53.7969 C179.6406,54.0781 179.8125,54.2969 179.9063,54.7031 C179.9688,55.1094 180,55.2344 180.1406,55.3594 C180.2813,55.5 180.5156,55.6094 180.7344,55.6094 C181,55.6094 181.2656,55.4688 181.4375,55.25 C181.5469,55.0938 181.5781,54.9063 181.5781,54.4844 L181.5781,53.0625 C181.5781,52.625 181.5625,52.5 181.4688,52.3438 C181.3125,52.0781 181.0313,51.9375 180.7344,51.9375 C180.4375,51.9375 180.2344,52.0313 180.0156,52.3438 L179.8438,52.2656 Z "/><text fill="#000000" font-family="sans-serif" font-size="12" lengthAdjust="spacingAndGlyphs" textLength="56" x="191.5" y="60.748">geo:Point</text><line style="stroke: #A80036; stroke-width: 1.5;" x1="163.5" x2="249.5" y1="72.5938" y2="72.5938"/><line style="stroke: #A80036; stroke-width: 1.5;" x1="163.5" x2="249.5" y1="80.5938" y2="80.5938"/><!--MD5=[06a0b58d9040550ef5280287aedb19f7]
class sf:Point--><rect fill="#FEFECE" filter="url(#f1076824alcip6)" height="48" id="sf:Point" style="stroke: #A80036; stroke-width: 1.5;" width="75" x="286" y="40.5938"/><ellipse cx="301" cy="56.5938" fill="#ADD1B2" rx="11" ry="11" style="stroke: #A80036; stroke-width: 1.0;"/><path d="M303.3438,52.2656 C302.4063,51.8281 301.8125,51.6875 300.9375,51.6875 C298.3125,51.6875 296.3125,53.7656 296.3125,56.4844 L296.3125,57.6094 C296.3125,60.1875 298.4219,62.0781 301.3125,62.0781 C302.5313,62.0781 303.6875,61.7813 304.4375,61.2344 C305.0156,60.8281 305.3438,60.375 305.3438,59.9844 C305.3438,59.5313 304.9531,59.1406 304.4844,59.1406 C304.2656,59.1406 304.0625,59.2188 303.875,59.4063 C303.4219,59.8906 303.4219,59.8906 303.2344,59.9844 C302.8125,60.25 302.125,60.375 301.3594,60.375 C299.3125,60.375 298.0156,59.2813 298.0156,57.5781 L298.0156,56.4844 C298.0156,54.7031 299.2656,53.3906 301,53.3906 C301.5781,53.3906 302.1875,53.5469 302.6563,53.7969 C303.1406,54.0781 303.3125,54.2969 303.4063,54.7031 C303.4688,55.1094 303.5,55.2344 303.6406,55.3594 C303.7813,55.5 304.0156,55.6094 304.2344,55.6094 C304.5,55.6094 304.7656,55.4688 304.9375,55.25 C305.0469,55.0938 305.0781,54.9063 305.0781,54.4844 L305.0781,53.0625 C305.0781,52.625 305.0625,52.5 304.9688,52.3438 C304.8125,52.0781 304.5313,51.9375 304.2344,51.9375 C303.9375,51.9375 303.7344,52.0313 303.5156,52.3438 L303.3438,52.2656 Z "/><text fill="#000000" font-family="sans-serif" font-size="12" lengthAdjust="spacingAndGlyphs" textLength="43" x="315" y="60.748">sf:Point</text><line style="stroke: #A80036; stroke-width: 1.5;" x1="287" x2="360" y1="72.5938" y2="72.5938"/><line style="stroke: #A80036; stroke-width: 1.5;" x1="287" x2="360" y1="80.5938" y2="80.5938"/><!--MD5=[d68c5b1816c22edfe60892291c0b4b30]
reverse link locn:Geometry to tern-loc:Point--><path d="M112.949,100.762 C133.581,116.3839 157.304,134.3454 175.698,148.2722 " fill="none" id="locn:Geometry&lt;-tern-loc:Point" style="stroke: #A80036; stroke-width: 1.0;"/><polygon fill="none" points="108.598,106.2478,96.8779,88.5938,117.049,95.0858,108.598,106.2478" style="stroke: #A80036; stroke-width: 1.0;"/><!--MD5=[8c2aa92d6514d17a4ce697438d39211d]
reverse link geo:Point to tern-loc:Point--><path d="M206.5,108.6174 C206.5,122.173 206.5,136.6319 206.5,148.2722 " fill="none" id="geo:Point&lt;-tern-loc:Point" style="stroke: #A80036; stroke-width: 1.0;"/><polygon fill="none" points="199.5,108.5943,206.5,88.5938,213.5,108.5942,199.5,108.5943" style="stroke: #A80036; stroke-width: 1.0;"/><!--MD5=[29f7f1c9da998e3e1cb0828a9900b6c8]
reverse link sf:Point to tern-loc:Point--><path d="M283.131,102.1671 C266.26,117.4527 247.155,134.7611 232.242,148.2722 " fill="none" id="sf:Point&lt;-tern-loc:Point" style="stroke: #A80036; stroke-width: 1.0;"/><polygon fill="none" points="278.591,96.8349,298.113,88.5938,287.991,107.2101,278.591,96.8349" style="stroke: #A80036; stroke-width: 1.0;"/><text fill="#888888" font-family="sans-serif" font-size="10" lengthAdjust="spacingAndGlyphs" textLength="74" x="36" y="215.876">Generated by</text><a href="https://github.com/edmondchuc/ontogram" target="_top" title="https://github.com/edmondchuc/ontogram" xlink:actuate="onRequest" xlink:href="https://github.com/edmondchuc/ontogram" xlink:show="new" xlink:title="https://github.com/edmondchuc/ontogram" xlink:type="simple"><text fill="#0000FF" font-family="sans-serif" font-size="10" lengthAdjust="spacingAndGlyphs" text-decoration="underline" textLength="230" x="113" y="215.876">https://github.com/edmondchuc/ontogram</text></a><!--MD5=[f26db6a19ea81c9a95c2bdbe6f84cb75]
@startuml
title TERN Location Alignment Ontology
"locn:Geometry" <|- - "tern-loc:Point"
"geo:Point" <|- - "tern-loc:Point"
"sf:Point" <|- - "tern-loc:Point"
Class "tern-loc:Point" [[https://w3id.org/tern/ontologies/loc/Point]] {
}
header
Creator: Edmond Chuc (e.chuc@uq.edu.au) 
endheader
center footer Generated by [[https://github.com/edmondchuc/ontogram https://github.com/edmondchuc/ontogram]]
@enduml

PlantUML version 1.2020.09beta16(Unknown compile time)
(GPL source distribution)
Java Runtime: Java(TM) SE Runtime Environment
JVM: Java HotSpot(TM) 64-Bit Server VM
Java Version: 14.0.1+7
Operating System: Linux
Default Encoding: UTF-8
Language: en
Country: US
--></g></svg>