<?xml version="1.0" encoding="UTF-8" standalone="no"?><svg xmlns="http://www.w3.org/2000/svg" xmlns:xlink="http://www.w3.org/1999/xlink" contentScriptType="application/ecmascript" contentStyleType="text/css" height="229px" preserveAspectRatio="none" style="width:339px;height:229px;" version="1.1" viewBox="0 0 339 229" width="339px" zoomAndPan="magnify"><defs><filter height="300%" id="f71bv640qsmsr" width="300%" x="-1" y="-1"><feGaussianBlur result="blurOut" stdDeviation="2.0"/><feColorMatrix in="blurOut" result="blurOut2" type="matrix" values="0 0 0 0 0 0 0 0 0 0 0 0 0 0 0 0 0 0 .4 0"/><feOffset dx="4.0" dy="4.0" in="blurOut2" result="blurOut3"/><feBlend in="SourceGraphic" in2="blurOut3" mode="normal"/></filter></defs><g><text fill="#888888" font-family="sans-serif" font-size="10" lengthAdjust="spacingAndGlyphs" textLength="236" x="91" y="9.2822">Creator: Edmond Chuc (e.chuc@uq.edu.au)</text><text fill="#000000" font-family="sans-serif" font-size="18" lengthAdjust="spacingAndGlyphs" textLength="323" x="2" y="28.3486">TERN Location Alignment Ontology</text><!--MD5=[06a0b58d9040550ef5280287aedb19f7]
class sf:Point--><rect fill="#FEFECE" filter="url(#f71bv640qsmsr)" height="48" id="sf:Point" style="stroke: #A80036; stroke-width: 1.5;" width="75" x="58" y="40.5938"/><ellipse cx="73" cy="56.5938" fill="#ADD1B2" rx="11" ry="11" style="stroke: #A80036; stroke-width: 1.0;"/><path d="M75.3438,52.2656 C74.4063,51.8281 73.8125,51.6875 72.9375,51.6875 C70.3125,51.6875 68.3125,53.7656 68.3125,56.4844 L68.3125,57.6094 C68.3125,60.1875 70.4219,62.0781 73.3125,62.0781 C74.5313,62.0781 75.6875,61.7813 76.4375,61.2344 C77.0156,60.8281 77.3438,60.375 77.3438,59.9844 C77.3438,59.5313 76.9531,59.1406 76.4844,59.1406 C76.2656,59.1406 76.0625,59.2188 75.875,59.4063 C75.4219,59.8906 75.4219,59.8906 75.2344,59.9844 C74.8125,60.25 74.125,60.375 73.3594,60.375 C71.3125,60.375 70.0156,59.2813 70.0156,57.5781 L70.0156,56.4844 C70.0156,54.7031 71.2656,53.3906 73,53.3906 C73.5781,53.3906 74.1875,53.5469 74.6563,53.7969 C75.1406,54.0781 75.3125,54.2969 75.4063,54.7031 C75.4688,55.1094 75.5,55.2344 75.6406,55.3594 C75.7813,55.5 76.0156,55.6094 76.2344,55.6094 C76.5,55.6094 76.7656,55.4688 76.9375,55.25 C77.0469,55.0938 77.0781,54.9063 77.0781,54.4844 L77.0781,53.0625 C77.0781,52.625 77.0625,52.5 76.9688,52.3438 C76.8125,52.0781 76.5313,51.9375 76.2344,51.9375 C75.9375,51.9375 75.7344,52.0313 75.5156,52.3438 L75.3438,52.2656 Z "/><text fill="#000000" font-family="sans-serif" font-size="12" lengthAdjust="spacingAndGlyphs" textLength="43" x="87" y="60.748">sf:Point</text><line style="stroke: #A80036; stroke-width: 1.5;" x1="59" x2="132" y1="72.5938" y2="72.5938"/><line style="stroke: #A80036; stroke-width: 1.5;" x1="59" x2="132" y1="80.5938" y2="80.5938"/><!--MD5=[b67d05c86b32bf3c0f7bf9b2b1a33612]
class tern-loc:Point--><a href="https://w3id.org/tern/ontologies/loc/Point" target="_top" title="https://w3id.org/tern/ontologies/loc/Point" xlink:actuate="onRequest" xlink:href="https://w3id.org/tern/ontologies/loc/Point" xlink:show="new" xlink:title="https://w3id.org/tern/ontologies/loc/Point" xlink:type="simple"><rect fill="#FEFECE" filter="url(#f71bv640qsmsr)" height="48" id="tern-loc:Point" style="stroke: #A80036; stroke-width: 1.5;" width="111" x="98" y="148.5938"/><ellipse cx="113" cy="164.5938" fill="#ADD1B2" rx="11" ry="11" style="stroke: #A80036; stroke-width: 1.0;"/><path d="M115.3438,160.2656 C114.4063,159.8281 113.8125,159.6875 112.9375,159.6875 C110.3125,159.6875 108.3125,161.7656 108.3125,164.4844 L108.3125,165.6094 C108.3125,168.1875 110.4219,170.0781 113.3125,170.0781 C114.5313,170.0781 115.6875,169.7813 116.4375,169.2344 C117.0156,168.8281 117.3438,168.375 117.3438,167.9844 C117.3438,167.5313 116.9531,167.1406 116.4844,167.1406 C116.2656,167.1406 116.0625,167.2188 115.875,167.4063 C115.4219,167.8906 115.4219,167.8906 115.2344,167.9844 C114.8125,168.25 114.125,168.375 113.3594,168.375 C111.3125,168.375 110.0156,167.2813 110.0156,165.5781 L110.0156,164.4844 C110.0156,162.7031 111.2656,161.3906 113,161.3906 C113.5781,161.3906 114.1875,161.5469 114.6563,161.7969 C115.1406,162.0781 115.3125,162.2969 115.4063,162.7031 C115.4688,163.1094 115.5,163.2344 115.6406,163.3594 C115.7813,163.5 116.0156,163.6094 116.2344,163.6094 C116.5,163.6094 116.7656,163.4688 116.9375,163.25 C117.0469,163.0938 117.0781,162.9063 117.0781,162.4844 L117.0781,161.0625 C117.0781,160.625 117.0625,160.5 116.9688,160.3438 C116.8125,160.0781 116.5313,159.9375 116.2344,159.9375 C115.9375,159.9375 115.7344,160.0313 115.5156,160.3438 L115.3438,160.2656 Z "/><text fill="#000000" font-family="sans-serif" font-size="12" lengthAdjust="spacingAndGlyphs" textLength="79" x="127" y="168.748">tern-loc:Point</text><line style="stroke: #A80036; stroke-width: 1.5;" x1="99" x2="208" y1="180.5938" y2="180.5938"/><line style="stroke: #A80036; stroke-width: 1.5;" x1="99" x2="208" y1="188.5938" y2="188.5938"/></a><!--MD5=[4b4dc00f06a8a0ae0f42cf5f98def9ae]
class geo:Point--><rect fill="#FEFECE" filter="url(#f71bv640qsmsr)" height="48" id="geo:Point" style="stroke: #A80036; stroke-width: 1.5;" width="88" x="168.5" y="40.5938"/><ellipse cx="183.5" cy="56.5938" fill="#ADD1B2" rx="11" ry="11" style="stroke: #A80036; stroke-width: 1.0;"/><path d="M185.8438,52.2656 C184.9063,51.8281 184.3125,51.6875 183.4375,51.6875 C180.8125,51.6875 178.8125,53.7656 178.8125,56.4844 L178.8125,57.6094 C178.8125,60.1875 180.9219,62.0781 183.8125,62.0781 C185.0313,62.0781 186.1875,61.7813 186.9375,61.2344 C187.5156,60.8281 187.8438,60.375 187.8438,59.9844 C187.8438,59.5313 187.4531,59.1406 186.9844,59.1406 C186.7656,59.1406 186.5625,59.2188 186.375,59.4063 C185.9219,59.8906 185.9219,59.8906 185.7344,59.9844 C185.3125,60.25 184.625,60.375 183.8594,60.375 C181.8125,60.375 180.5156,59.2813 180.5156,57.5781 L180.5156,56.4844 C180.5156,54.7031 181.7656,53.3906 183.5,53.3906 C184.0781,53.3906 184.6875,53.5469 185.1563,53.7969 C185.6406,54.0781 185.8125,54.2969 185.9063,54.7031 C185.9688,55.1094 186,55.2344 186.1406,55.3594 C186.2813,55.5 186.5156,55.6094 186.7344,55.6094 C187,55.6094 187.2656,55.4688 187.4375,55.25 C187.5469,55.0938 187.5781,54.9063 187.5781,54.4844 L187.5781,53.0625 C187.5781,52.625 187.5625,52.5 187.4688,52.3438 C187.3125,52.0781 187.0313,51.9375 186.7344,51.9375 C186.4375,51.9375 186.2344,52.0313 186.0156,52.3438 L185.8438,52.2656 Z "/><text fill="#000000" font-family="sans-serif" font-size="12" lengthAdjust="spacingAndGlyphs" textLength="56" x="197.5" y="60.748">geo:Point</text><line style="stroke: #A80036; stroke-width: 1.5;" x1="169.5" x2="255.5" y1="72.5938" y2="72.5938"/><line style="stroke: #A80036; stroke-width: 1.5;" x1="169.5" x2="255.5" y1="80.5938" y2="80.5938"/><!--MD5=[29f7f1c9da998e3e1cb0828a9900b6c8]
reverse link sf:Point to tern-loc:Point--><path d="M117.7224,106.2071 C125.5111,120.4417 133.9908,135.939 140.7391,148.2722 " fill="none" id="sf:Point&lt;-tern-loc:Point" style="stroke: #A80036; stroke-width: 1.0;"/><polygon fill="none" points="111.5446,109.4996,108.0851,88.5938,123.8263,102.7794,111.5446,109.4996" style="stroke: #A80036; stroke-width: 1.0;"/><!--MD5=[8c2aa92d6514d17a4ce697438d39211d]
reverse link geo:Point to tern-loc:Point--><path d="M189.894,106.2071 C181.971,120.4417 173.346,135.939 166.481,148.2722 " fill="none" id="geo:Point&lt;-tern-loc:Point" style="stroke: #A80036; stroke-width: 1.0;"/><polygon fill="none" points="183.855,102.6652,199.698,88.5938,196.087,109.474,183.855,102.6652" style="stroke: #A80036; stroke-width: 1.0;"/><text fill="#888888" font-family="sans-serif" font-size="10" lengthAdjust="spacingAndGlyphs" textLength="74" x="10" y="215.876">Generated by</text><a href="https://github.com/edmondchuc/ontogram" target="_top" title="https://github.com/edmondchuc/ontogram" xlink:actuate="onRequest" xlink:href="https://github.com/edmondchuc/ontogram" xlink:show="new" xlink:title="https://github.com/edmondchuc/ontogram" xlink:type="simple"><text fill="#0000FF" font-family="sans-serif" font-size="10" lengthAdjust="spacingAndGlyphs" text-decoration="underline" textLength="230" x="87" y="215.876">https://github.com/edmondchuc/ontogram</text></a><!--MD5=[7781e07518b7d2a01f8ef84e1927da7e]
@startuml
title TERN Location Alignment Ontology
"sf:Point" <|- - "tern-loc:Point"
"geo:Point" <|- - "tern-loc:Point"
Class "tern-loc:Point" [[https://w3id.org/tern/ontologies/loc/Point]] {
}
header
Creator: Edmond Chuc (e.chuc@uq.edu.au) 
endheader
center footer Generated by [[https://github.com/edmondchuc/ontogram https://github.com/edmondchuc/ontogram]]
@enduml

PlantUML version 1.2020.09beta16(Unknown compile time)
(GPL source distribution)
Java Runtime: Java(TM) SE Runtime Environment
JVM: Java HotSpot(TM) 64-Bit Server VM
Java Version: 14.0.1+7
Operating System: Linux
Default Encoding: UTF-8
Language: en
Country: US
--></g></svg>