<?xml version="1.0" encoding="UTF-8" standalone="no"?><svg xmlns="http://www.w3.org/2000/svg" xmlns:xlink="http://www.w3.org/1999/xlink" contentScriptType="application/ecmascript" contentStyleType="text/css" height="226px" preserveAspectRatio="none" style="width:1202px;height:226px;" version="1.1" viewBox="0 0 1202 226" width="1202px" zoomAndPan="magnify"><defs><filter height="300%" id="fuvrxezcjof7a" width="300%" x="-1" y="-1"><feGaussianBlur result="blurOut" stdDeviation="2.0"/><feColorMatrix in="blurOut" result="blurOut2" type="matrix" values="0 0 0 0 0 0 0 0 0 0 0 0 0 0 0 0 0 0 .4 0"/><feOffset dx="4.0" dy="4.0" in="blurOut2" result="blurOut3"/><feBlend in="SourceGraphic" in2="blurOut3" mode="normal"/></filter></defs><g><text fill="#888888" font-family="sans-serif" font-size="10" lengthAdjust="spacingAndGlyphs" textLength="236" x="953.5" y="9.2822">Creator: Edmond Chuc (e.chuc@uq.edu.au)</text><text fill="#000000" font-family="sans-serif" font-size="18" lengthAdjust="spacingAndGlyphs" textLength="323" x="433.25" y="28.3486">TERN Location Alignment Ontology</text><!--MD5=[4b0e6ae39ede3f8987ca028c00a13af1]
class geosparql:Feature--><rect fill="#FEFECE" filter="url(#fuvrxezcjof7a)" height="48" id="geosparql:Feature" style="stroke: #A80036; stroke-width: 1.5;" width="144" x="7" y="39.5938"/><ellipse cx="22" cy="55.5938" fill="#ADD1B2" rx="11" ry="11" style="stroke: #A80036; stroke-width: 1.0;"/><path d="M24.3438,51.2656 C23.4063,50.8281 22.8125,50.6875 21.9375,50.6875 C19.3125,50.6875 17.3125,52.7656 17.3125,55.4844 L17.3125,56.6094 C17.3125,59.1875 19.4219,61.0781 22.3125,61.0781 C23.5313,61.0781 24.6875,60.7813 25.4375,60.2344 C26.0156,59.8281 26.3438,59.375 26.3438,58.9844 C26.3438,58.5313 25.9531,58.1406 25.4844,58.1406 C25.2656,58.1406 25.0625,58.2188 24.875,58.4063 C24.4219,58.8906 24.4219,58.8906 24.2344,58.9844 C23.8125,59.25 23.125,59.375 22.3594,59.375 C20.3125,59.375 19.0156,58.2813 19.0156,56.5781 L19.0156,55.4844 C19.0156,53.7031 20.2656,52.3906 22,52.3906 C22.5781,52.3906 23.1875,52.5469 23.6563,52.7969 C24.1406,53.0781 24.3125,53.2969 24.4063,53.7031 C24.4688,54.1094 24.5,54.2344 24.6406,54.3594 C24.7813,54.5 25.0156,54.6094 25.2344,54.6094 C25.5,54.6094 25.7656,54.4688 25.9375,54.25 C26.0469,54.0938 26.0781,53.9063 26.0781,53.4844 L26.0781,52.0625 C26.0781,51.625 26.0625,51.5 25.9688,51.3438 C25.8125,51.0781 25.5313,50.9375 25.2344,50.9375 C24.9375,50.9375 24.7344,51.0313 24.5156,51.3438 L24.3438,51.2656 Z " fill="#000000"/><text fill="#000000" font-family="sans-serif" font-size="12" lengthAdjust="spacingAndGlyphs" textLength="112" x="36" y="59.748">geosparql:Feature</text><line style="stroke: #A80036; stroke-width: 1.5;" x1="8" x2="150" y1="71.5938" y2="71.5938"/><line style="stroke: #A80036; stroke-width: 1.5;" x1="8" x2="150" y1="79.5938" y2="79.5938"/><!--MD5=[7ecc5781a96ada1a225cc3afb1eb8f46]
class tern-loc:Location--><a href="https://w3id.org/tern/ontologies/loc/Location" target="_top" title="https://w3id.org/tern/ontologies/loc/Location" xlink:actuate="onRequest" xlink:href="https://w3id.org/tern/ontologies/loc/Location" xlink:show="new" xlink:title="https://w3id.org/tern/ontologies/loc/Location" xlink:type="simple"><rect codeLine="9" fill="#FEFECE" filter="url(#fuvrxezcjof7a)" height="48" id="tern-loc:Location" style="stroke: #A80036; stroke-width: 1.5;" width="133" x="76.5" y="147.5938"/><ellipse cx="91.5" cy="163.5938" fill="#ADD1B2" rx="11" ry="11" style="stroke: #A80036; stroke-width: 1.0;"/><path d="M93.8438,159.2656 C92.9063,158.8281 92.3125,158.6875 91.4375,158.6875 C88.8125,158.6875 86.8125,160.7656 86.8125,163.4844 L86.8125,164.6094 C86.8125,167.1875 88.9219,169.0781 91.8125,169.0781 C93.0313,169.0781 94.1875,168.7813 94.9375,168.2344 C95.5156,167.8281 95.8438,167.375 95.8438,166.9844 C95.8438,166.5313 95.4531,166.1406 94.9844,166.1406 C94.7656,166.1406 94.5625,166.2188 94.375,166.4063 C93.9219,166.8906 93.9219,166.8906 93.7344,166.9844 C93.3125,167.25 92.625,167.375 91.8594,167.375 C89.8125,167.375 88.5156,166.2813 88.5156,164.5781 L88.5156,163.4844 C88.5156,161.7031 89.7656,160.3906 91.5,160.3906 C92.0781,160.3906 92.6875,160.5469 93.1563,160.7969 C93.6406,161.0781 93.8125,161.2969 93.9063,161.7031 C93.9688,162.1094 94,162.2344 94.1406,162.3594 C94.2813,162.5 94.5156,162.6094 94.7344,162.6094 C95,162.6094 95.2656,162.4688 95.4375,162.25 C95.5469,162.0938 95.5781,161.9063 95.5781,161.4844 L95.5781,160.0625 C95.5781,159.625 95.5625,159.5 95.4688,159.3438 C95.3125,159.0781 95.0313,158.9375 94.7344,158.9375 C94.4375,158.9375 94.2344,159.0313 94.0156,159.3438 L93.8438,159.2656 Z " fill="#000000"/><text fill="#000000" font-family="sans-serif" font-size="12" lengthAdjust="spacingAndGlyphs" textLength="101" x="105.5" y="167.748">tern-loc:Location</text><line style="stroke: #A80036; stroke-width: 1.5;" x1="77.5" x2="208.5" y1="179.5938" y2="179.5938"/><line style="stroke: #A80036; stroke-width: 1.5;" x1="77.5" x2="208.5" y1="187.5938" y2="187.5938"/></a><!--MD5=[9655ad61792b4ed0d4f91a9adcbf26fa]
class dct:Location--><rect fill="#FEFECE" filter="url(#fuvrxezcjof7a)" height="48" id="dct:Location" style="stroke: #A80036; stroke-width: 1.5;" width="105" x="186.5" y="39.5938"/><ellipse cx="201.5" cy="55.5938" fill="#ADD1B2" rx="11" ry="11" style="stroke: #A80036; stroke-width: 1.0;"/><path d="M203.8438,51.2656 C202.9063,50.8281 202.3125,50.6875 201.4375,50.6875 C198.8125,50.6875 196.8125,52.7656 196.8125,55.4844 L196.8125,56.6094 C196.8125,59.1875 198.9219,61.0781 201.8125,61.0781 C203.0313,61.0781 204.1875,60.7813 204.9375,60.2344 C205.5156,59.8281 205.8438,59.375 205.8438,58.9844 C205.8438,58.5313 205.4531,58.1406 204.9844,58.1406 C204.7656,58.1406 204.5625,58.2188 204.375,58.4063 C203.9219,58.8906 203.9219,58.8906 203.7344,58.9844 C203.3125,59.25 202.625,59.375 201.8594,59.375 C199.8125,59.375 198.5156,58.2813 198.5156,56.5781 L198.5156,55.4844 C198.5156,53.7031 199.7656,52.3906 201.5,52.3906 C202.0781,52.3906 202.6875,52.5469 203.1563,52.7969 C203.6406,53.0781 203.8125,53.2969 203.9063,53.7031 C203.9688,54.1094 204,54.2344 204.1406,54.3594 C204.2813,54.5 204.5156,54.6094 204.7344,54.6094 C205,54.6094 205.2656,54.4688 205.4375,54.25 C205.5469,54.0938 205.5781,53.9063 205.5781,53.4844 L205.5781,52.0625 C205.5781,51.625 205.5625,51.5 205.4688,51.3438 C205.3125,51.0781 205.0313,50.9375 204.7344,50.9375 C204.4375,50.9375 204.2344,51.0313 204.0156,51.3438 L203.8438,51.2656 Z " fill="#000000"/><text fill="#000000" font-family="sans-serif" font-size="12" lengthAdjust="spacingAndGlyphs" textLength="73" x="215.5" y="59.748">dct:Location</text><line style="stroke: #A80036; stroke-width: 1.5;" x1="187.5" x2="290.5" y1="71.5938" y2="71.5938"/><line style="stroke: #A80036; stroke-width: 1.5;" x1="187.5" x2="290.5" y1="79.5938" y2="79.5938"/><!--MD5=[f6be3c52ce9b6300cb295795c7aca351]
class sf:LineString--><rect fill="#FEFECE" filter="url(#fuvrxezcjof7a)" height="48" id="sf:LineString" style="stroke: #A80036; stroke-width: 1.5;" width="106" x="327" y="39.5938"/><ellipse cx="342" cy="55.5938" fill="#ADD1B2" rx="11" ry="11" style="stroke: #A80036; stroke-width: 1.0;"/><path d="M344.3438,51.2656 C343.4063,50.8281 342.8125,50.6875 341.9375,50.6875 C339.3125,50.6875 337.3125,52.7656 337.3125,55.4844 L337.3125,56.6094 C337.3125,59.1875 339.4219,61.0781 342.3125,61.0781 C343.5313,61.0781 344.6875,60.7813 345.4375,60.2344 C346.0156,59.8281 346.3438,59.375 346.3438,58.9844 C346.3438,58.5313 345.9531,58.1406 345.4844,58.1406 C345.2656,58.1406 345.0625,58.2188 344.875,58.4063 C344.4219,58.8906 344.4219,58.8906 344.2344,58.9844 C343.8125,59.25 343.125,59.375 342.3594,59.375 C340.3125,59.375 339.0156,58.2813 339.0156,56.5781 L339.0156,55.4844 C339.0156,53.7031 340.2656,52.3906 342,52.3906 C342.5781,52.3906 343.1875,52.5469 343.6563,52.7969 C344.1406,53.0781 344.3125,53.2969 344.4063,53.7031 C344.4688,54.1094 344.5,54.2344 344.6406,54.3594 C344.7813,54.5 345.0156,54.6094 345.2344,54.6094 C345.5,54.6094 345.7656,54.4688 345.9375,54.25 C346.0469,54.0938 346.0781,53.9063 346.0781,53.4844 L346.0781,52.0625 C346.0781,51.625 346.0625,51.5 345.9688,51.3438 C345.8125,51.0781 345.5313,50.9375 345.2344,50.9375 C344.9375,50.9375 344.7344,51.0313 344.5156,51.3438 L344.3438,51.2656 Z " fill="#000000"/><text fill="#000000" font-family="sans-serif" font-size="12" lengthAdjust="spacingAndGlyphs" textLength="74" x="356" y="59.748">sf:LineString</text><line style="stroke: #A80036; stroke-width: 1.5;" x1="328" x2="432" y1="71.5938" y2="71.5938"/><line style="stroke: #A80036; stroke-width: 1.5;" x1="328" x2="432" y1="79.5938" y2="79.5938"/><!--MD5=[8769ba710cd4c62aec428e033c91e43d]
class tern-loc:LineString--><a href="https://w3id.org/tern/ontologies/loc/LineString" target="_top" title="https://w3id.org/tern/ontologies/loc/LineString" xlink:actuate="onRequest" xlink:href="https://w3id.org/tern/ontologies/loc/LineString" xlink:show="new" xlink:title="https://w3id.org/tern/ontologies/loc/LineString" xlink:type="simple"><rect codeLine="11" fill="#FEFECE" filter="url(#fuvrxezcjof7a)" height="48" id="tern-loc:LineString" style="stroke: #A80036; stroke-width: 1.5;" width="142" x="309" y="147.5938"/><ellipse cx="324" cy="163.5938" fill="#ADD1B2" rx="11" ry="11" style="stroke: #A80036; stroke-width: 1.0;"/><path d="M326.3438,159.2656 C325.4063,158.8281 324.8125,158.6875 323.9375,158.6875 C321.3125,158.6875 319.3125,160.7656 319.3125,163.4844 L319.3125,164.6094 C319.3125,167.1875 321.4219,169.0781 324.3125,169.0781 C325.5313,169.0781 326.6875,168.7813 327.4375,168.2344 C328.0156,167.8281 328.3438,167.375 328.3438,166.9844 C328.3438,166.5313 327.9531,166.1406 327.4844,166.1406 C327.2656,166.1406 327.0625,166.2188 326.875,166.4063 C326.4219,166.8906 326.4219,166.8906 326.2344,166.9844 C325.8125,167.25 325.125,167.375 324.3594,167.375 C322.3125,167.375 321.0156,166.2813 321.0156,164.5781 L321.0156,163.4844 C321.0156,161.7031 322.2656,160.3906 324,160.3906 C324.5781,160.3906 325.1875,160.5469 325.6563,160.7969 C326.1406,161.0781 326.3125,161.2969 326.4063,161.7031 C326.4688,162.1094 326.5,162.2344 326.6406,162.3594 C326.7813,162.5 327.0156,162.6094 327.2344,162.6094 C327.5,162.6094 327.7656,162.4688 327.9375,162.25 C328.0469,162.0938 328.0781,161.9063 328.0781,161.4844 L328.0781,160.0625 C328.0781,159.625 328.0625,159.5 327.9688,159.3438 C327.8125,159.0781 327.5313,158.9375 327.2344,158.9375 C326.9375,158.9375 326.7344,159.0313 326.5156,159.3438 L326.3438,159.2656 Z " fill="#000000"/><text fill="#000000" font-family="sans-serif" font-size="12" lengthAdjust="spacingAndGlyphs" textLength="110" x="338" y="167.748">tern-loc:LineString</text><line style="stroke: #A80036; stroke-width: 1.5;" x1="310" x2="450" y1="179.5938" y2="179.5938"/><line style="stroke: #A80036; stroke-width: 1.5;" x1="310" x2="450" y1="187.5938" y2="187.5938"/></a><!--MD5=[681450c180318ac92d4d4448ad41864e]
class sf:Polygon--><rect fill="#FEFECE" filter="url(#fuvrxezcjof7a)" height="48" id="sf:Polygon" style="stroke: #A80036; stroke-width: 1.5;" width="94" x="504" y="39.5938"/><ellipse cx="519" cy="55.5938" fill="#ADD1B2" rx="11" ry="11" style="stroke: #A80036; stroke-width: 1.0;"/><path d="M521.3438,51.2656 C520.4063,50.8281 519.8125,50.6875 518.9375,50.6875 C516.3125,50.6875 514.3125,52.7656 514.3125,55.4844 L514.3125,56.6094 C514.3125,59.1875 516.4219,61.0781 519.3125,61.0781 C520.5313,61.0781 521.6875,60.7813 522.4375,60.2344 C523.0156,59.8281 523.3438,59.375 523.3438,58.9844 C523.3438,58.5313 522.9531,58.1406 522.4844,58.1406 C522.2656,58.1406 522.0625,58.2188 521.875,58.4063 C521.4219,58.8906 521.4219,58.8906 521.2344,58.9844 C520.8125,59.25 520.125,59.375 519.3594,59.375 C517.3125,59.375 516.0156,58.2813 516.0156,56.5781 L516.0156,55.4844 C516.0156,53.7031 517.2656,52.3906 519,52.3906 C519.5781,52.3906 520.1875,52.5469 520.6563,52.7969 C521.1406,53.0781 521.3125,53.2969 521.4063,53.7031 C521.4688,54.1094 521.5,54.2344 521.6406,54.3594 C521.7813,54.5 522.0156,54.6094 522.2344,54.6094 C522.5,54.6094 522.7656,54.4688 522.9375,54.25 C523.0469,54.0938 523.0781,53.9063 523.0781,53.4844 L523.0781,52.0625 C523.0781,51.625 523.0625,51.5 522.9688,51.3438 C522.8125,51.0781 522.5313,50.9375 522.2344,50.9375 C521.9375,50.9375 521.7344,51.0313 521.5156,51.3438 L521.3438,51.2656 Z " fill="#000000"/><text fill="#000000" font-family="sans-serif" font-size="12" lengthAdjust="spacingAndGlyphs" textLength="62" x="533" y="59.748">sf:Polygon</text><line style="stroke: #A80036; stroke-width: 1.5;" x1="505" x2="597" y1="71.5938" y2="71.5938"/><line style="stroke: #A80036; stroke-width: 1.5;" x1="505" x2="597" y1="79.5938" y2="79.5938"/><!--MD5=[0169b4c160c1d1627128d322d53ed76e]
class tern-loc:Polygon--><a href="https://w3id.org/tern/ontologies/loc/Polygon" target="_top" title="https://w3id.org/tern/ontologies/loc/Polygon" xlink:actuate="onRequest" xlink:href="https://w3id.org/tern/ontologies/loc/Polygon" xlink:show="new" xlink:title="https://w3id.org/tern/ontologies/loc/Polygon" xlink:type="simple"><rect codeLine="13" fill="#FEFECE" filter="url(#fuvrxezcjof7a)" height="48" id="tern-loc:Polygon" style="stroke: #A80036; stroke-width: 1.5;" width="130" x="486" y="147.5938"/><ellipse cx="501" cy="163.5938" fill="#ADD1B2" rx="11" ry="11" style="stroke: #A80036; stroke-width: 1.0;"/><path d="M503.3438,159.2656 C502.4063,158.8281 501.8125,158.6875 500.9375,158.6875 C498.3125,158.6875 496.3125,160.7656 496.3125,163.4844 L496.3125,164.6094 C496.3125,167.1875 498.4219,169.0781 501.3125,169.0781 C502.5313,169.0781 503.6875,168.7813 504.4375,168.2344 C505.0156,167.8281 505.3438,167.375 505.3438,166.9844 C505.3438,166.5313 504.9531,166.1406 504.4844,166.1406 C504.2656,166.1406 504.0625,166.2188 503.875,166.4063 C503.4219,166.8906 503.4219,166.8906 503.2344,166.9844 C502.8125,167.25 502.125,167.375 501.3594,167.375 C499.3125,167.375 498.0156,166.2813 498.0156,164.5781 L498.0156,163.4844 C498.0156,161.7031 499.2656,160.3906 501,160.3906 C501.5781,160.3906 502.1875,160.5469 502.6563,160.7969 C503.1406,161.0781 503.3125,161.2969 503.4063,161.7031 C503.4688,162.1094 503.5,162.2344 503.6406,162.3594 C503.7813,162.5 504.0156,162.6094 504.2344,162.6094 C504.5,162.6094 504.7656,162.4688 504.9375,162.25 C505.0469,162.0938 505.0781,161.9063 505.0781,161.4844 L505.0781,160.0625 C505.0781,159.625 505.0625,159.5 504.9688,159.3438 C504.8125,159.0781 504.5313,158.9375 504.2344,158.9375 C503.9375,158.9375 503.7344,159.0313 503.5156,159.3438 L503.3438,159.2656 Z " fill="#000000"/><text fill="#000000" font-family="sans-serif" font-size="12" lengthAdjust="spacingAndGlyphs" textLength="98" x="515" y="167.748">tern-loc:Polygon</text><line style="stroke: #A80036; stroke-width: 1.5;" x1="487" x2="615" y1="179.5938" y2="179.5938"/><line style="stroke: #A80036; stroke-width: 1.5;" x1="487" x2="615" y1="187.5938" y2="187.5938"/></a><!--MD5=[cd48ee8575308cff07b85b42a6074af1]
class locn:Geometry--><rect fill="#FEFECE" filter="url(#fuvrxezcjof7a)" height="48" id="locn:Geometry" style="stroke: #A80036; stroke-width: 1.5;" width="121" x="633.5" y="39.5938"/><ellipse cx="648.5" cy="55.5938" fill="#ADD1B2" rx="11" ry="11" style="stroke: #A80036; stroke-width: 1.0;"/><path d="M650.8438,51.2656 C649.9063,50.8281 649.3125,50.6875 648.4375,50.6875 C645.8125,50.6875 643.8125,52.7656 643.8125,55.4844 L643.8125,56.6094 C643.8125,59.1875 645.9219,61.0781 648.8125,61.0781 C650.0313,61.0781 651.1875,60.7813 651.9375,60.2344 C652.5156,59.8281 652.8438,59.375 652.8438,58.9844 C652.8438,58.5313 652.4531,58.1406 651.9844,58.1406 C651.7656,58.1406 651.5625,58.2188 651.375,58.4063 C650.9219,58.8906 650.9219,58.8906 650.7344,58.9844 C650.3125,59.25 649.625,59.375 648.8594,59.375 C646.8125,59.375 645.5156,58.2813 645.5156,56.5781 L645.5156,55.4844 C645.5156,53.7031 646.7656,52.3906 648.5,52.3906 C649.0781,52.3906 649.6875,52.5469 650.1563,52.7969 C650.6406,53.0781 650.8125,53.2969 650.9063,53.7031 C650.9688,54.1094 651,54.2344 651.1406,54.3594 C651.2813,54.5 651.5156,54.6094 651.7344,54.6094 C652,54.6094 652.2656,54.4688 652.4375,54.25 C652.5469,54.0938 652.5781,53.9063 652.5781,53.4844 L652.5781,52.0625 C652.5781,51.625 652.5625,51.5 652.4688,51.3438 C652.3125,51.0781 652.0313,50.9375 651.7344,50.9375 C651.4375,50.9375 651.2344,51.0313 651.0156,51.3438 L650.8438,51.2656 Z " fill="#000000"/><text fill="#000000" font-family="sans-serif" font-size="12" lengthAdjust="spacingAndGlyphs" textLength="89" x="662.5" y="59.748">locn:Geometry</text><line style="stroke: #A80036; stroke-width: 1.5;" x1="634.5" x2="753.5" y1="71.5938" y2="71.5938"/><line style="stroke: #A80036; stroke-width: 1.5;" x1="634.5" x2="753.5" y1="79.5938" y2="79.5938"/><!--MD5=[b67d05c86b32bf3c0f7bf9b2b1a33612]
class tern-loc:Point--><a href="https://w3id.org/tern/ontologies/loc/Point" target="_top" title="https://w3id.org/tern/ontologies/loc/Point" xlink:actuate="onRequest" xlink:href="https://w3id.org/tern/ontologies/loc/Point" xlink:show="new" xlink:title="https://w3id.org/tern/ontologies/loc/Point" xlink:type="simple"><rect codeLine="15" fill="#FEFECE" filter="url(#fuvrxezcjof7a)" height="48" id="tern-loc:Point" style="stroke: #A80036; stroke-width: 1.5;" width="111" x="778.5" y="147.5938"/><ellipse cx="793.5" cy="163.5938" fill="#ADD1B2" rx="11" ry="11" style="stroke: #A80036; stroke-width: 1.0;"/><path d="M795.8438,159.2656 C794.9063,158.8281 794.3125,158.6875 793.4375,158.6875 C790.8125,158.6875 788.8125,160.7656 788.8125,163.4844 L788.8125,164.6094 C788.8125,167.1875 790.9219,169.0781 793.8125,169.0781 C795.0313,169.0781 796.1875,168.7813 796.9375,168.2344 C797.5156,167.8281 797.8438,167.375 797.8438,166.9844 C797.8438,166.5313 797.4531,166.1406 796.9844,166.1406 C796.7656,166.1406 796.5625,166.2188 796.375,166.4063 C795.9219,166.8906 795.9219,166.8906 795.7344,166.9844 C795.3125,167.25 794.625,167.375 793.8594,167.375 C791.8125,167.375 790.5156,166.2813 790.5156,164.5781 L790.5156,163.4844 C790.5156,161.7031 791.7656,160.3906 793.5,160.3906 C794.0781,160.3906 794.6875,160.5469 795.1563,160.7969 C795.6406,161.0781 795.8125,161.2969 795.9063,161.7031 C795.9688,162.1094 796,162.2344 796.1406,162.3594 C796.2813,162.5 796.5156,162.6094 796.7344,162.6094 C797,162.6094 797.2656,162.4688 797.4375,162.25 C797.5469,162.0938 797.5781,161.9063 797.5781,161.4844 L797.5781,160.0625 C797.5781,159.625 797.5625,159.5 797.4688,159.3438 C797.3125,159.0781 797.0313,158.9375 796.7344,158.9375 C796.4375,158.9375 796.2344,159.0313 796.0156,159.3438 L795.8438,159.2656 Z " fill="#000000"/><text fill="#000000" font-family="sans-serif" font-size="12" lengthAdjust="spacingAndGlyphs" textLength="79" x="807.5" y="167.748">tern-loc:Point</text><line style="stroke: #A80036; stroke-width: 1.5;" x1="779.5" x2="888.5" y1="179.5938" y2="179.5938"/><line style="stroke: #A80036; stroke-width: 1.5;" x1="779.5" x2="888.5" y1="187.5938" y2="187.5938"/></a><!--MD5=[4b4dc00f06a8a0ae0f42cf5f98def9ae]
class geo:Point--><rect fill="#FEFECE" filter="url(#fuvrxezcjof7a)" height="48" id="geo:Point" style="stroke: #A80036; stroke-width: 1.5;" width="88" x="790" y="39.5938"/><ellipse cx="805" cy="55.5938" fill="#ADD1B2" rx="11" ry="11" style="stroke: #A80036; stroke-width: 1.0;"/><path d="M807.3438,51.2656 C806.4063,50.8281 805.8125,50.6875 804.9375,50.6875 C802.3125,50.6875 800.3125,52.7656 800.3125,55.4844 L800.3125,56.6094 C800.3125,59.1875 802.4219,61.0781 805.3125,61.0781 C806.5313,61.0781 807.6875,60.7813 808.4375,60.2344 C809.0156,59.8281 809.3438,59.375 809.3438,58.9844 C809.3438,58.5313 808.9531,58.1406 808.4844,58.1406 C808.2656,58.1406 808.0625,58.2188 807.875,58.4063 C807.4219,58.8906 807.4219,58.8906 807.2344,58.9844 C806.8125,59.25 806.125,59.375 805.3594,59.375 C803.3125,59.375 802.0156,58.2813 802.0156,56.5781 L802.0156,55.4844 C802.0156,53.7031 803.2656,52.3906 805,52.3906 C805.5781,52.3906 806.1875,52.5469 806.6563,52.7969 C807.1406,53.0781 807.3125,53.2969 807.4063,53.7031 C807.4688,54.1094 807.5,54.2344 807.6406,54.3594 C807.7813,54.5 808.0156,54.6094 808.2344,54.6094 C808.5,54.6094 808.7656,54.4688 808.9375,54.25 C809.0469,54.0938 809.0781,53.9063 809.0781,53.4844 L809.0781,52.0625 C809.0781,51.625 809.0625,51.5 808.9688,51.3438 C808.8125,51.0781 808.5313,50.9375 808.2344,50.9375 C807.9375,50.9375 807.7344,51.0313 807.5156,51.3438 L807.3438,51.2656 Z " fill="#000000"/><text fill="#000000" font-family="sans-serif" font-size="12" lengthAdjust="spacingAndGlyphs" textLength="56" x="819" y="59.748">geo:Point</text><line style="stroke: #A80036; stroke-width: 1.5;" x1="791" x2="877" y1="71.5938" y2="71.5938"/><line style="stroke: #A80036; stroke-width: 1.5;" x1="791" x2="877" y1="79.5938" y2="79.5938"/><!--MD5=[06a0b58d9040550ef5280287aedb19f7]
class sf:Point--><rect fill="#FEFECE" filter="url(#fuvrxezcjof7a)" height="48" id="sf:Point" style="stroke: #A80036; stroke-width: 1.5;" width="75" x="913.5" y="39.5938"/><ellipse cx="928.5" cy="55.5938" fill="#ADD1B2" rx="11" ry="11" style="stroke: #A80036; stroke-width: 1.0;"/><path d="M930.8438,51.2656 C929.9063,50.8281 929.3125,50.6875 928.4375,50.6875 C925.8125,50.6875 923.8125,52.7656 923.8125,55.4844 L923.8125,56.6094 C923.8125,59.1875 925.9219,61.0781 928.8125,61.0781 C930.0313,61.0781 931.1875,60.7813 931.9375,60.2344 C932.5156,59.8281 932.8438,59.375 932.8438,58.9844 C932.8438,58.5313 932.4531,58.1406 931.9844,58.1406 C931.7656,58.1406 931.5625,58.2188 931.375,58.4063 C930.9219,58.8906 930.9219,58.8906 930.7344,58.9844 C930.3125,59.25 929.625,59.375 928.8594,59.375 C926.8125,59.375 925.5156,58.2813 925.5156,56.5781 L925.5156,55.4844 C925.5156,53.7031 926.7656,52.3906 928.5,52.3906 C929.0781,52.3906 929.6875,52.5469 930.1563,52.7969 C930.6406,53.0781 930.8125,53.2969 930.9063,53.7031 C930.9688,54.1094 931,54.2344 931.1406,54.3594 C931.2813,54.5 931.5156,54.6094 931.7344,54.6094 C932,54.6094 932.2656,54.4688 932.4375,54.25 C932.5469,54.0938 932.5781,53.9063 932.5781,53.4844 L932.5781,52.0625 C932.5781,51.625 932.5625,51.5 932.4688,51.3438 C932.3125,51.0781 932.0313,50.9375 931.7344,50.9375 C931.4375,50.9375 931.2344,51.0313 931.0156,51.3438 L930.8438,51.2656 Z " fill="#000000"/><text fill="#000000" font-family="sans-serif" font-size="12" lengthAdjust="spacingAndGlyphs" textLength="43" x="942.5" y="59.748">sf:Point</text><line style="stroke: #A80036; stroke-width: 1.5;" x1="914.5" x2="987.5" y1="71.5938" y2="71.5938"/><line style="stroke: #A80036; stroke-width: 1.5;" x1="914.5" x2="987.5" y1="79.5938" y2="79.5938"/><!--MD5=[6c4e226e04072aa10c0fcf4d8869e6ac]
class tern-loc:ub1bL103C19--><a href="ub1bL103C19" target="_top" title="ub1bL103C19" xlink:actuate="onRequest" xlink:href="ub1bL103C19" xlink:show="new" xlink:title="ub1bL103C19" xlink:type="simple"><rect codeLine="17" fill="#FEFECE" filter="url(#fuvrxezcjof7a)" height="48" id="tern-loc:ub1bL103C19" style="stroke: #A80036; stroke-width: 1.5;" width="165" x="1023.5" y="39.5938"/><ellipse cx="1038.5" cy="55.5938" fill="#ADD1B2" rx="11" ry="11" style="stroke: #A80036; stroke-width: 1.0;"/><path d="M1040.8438,51.2656 C1039.9063,50.8281 1039.3125,50.6875 1038.4375,50.6875 C1035.8125,50.6875 1033.8125,52.7656 1033.8125,55.4844 L1033.8125,56.6094 C1033.8125,59.1875 1035.9219,61.0781 1038.8125,61.0781 C1040.0313,61.0781 1041.1875,60.7813 1041.9375,60.2344 C1042.5156,59.8281 1042.8438,59.375 1042.8438,58.9844 C1042.8438,58.5313 1042.4531,58.1406 1041.9844,58.1406 C1041.7656,58.1406 1041.5625,58.2188 1041.375,58.4063 C1040.9219,58.8906 1040.9219,58.8906 1040.7344,58.9844 C1040.3125,59.25 1039.625,59.375 1038.8594,59.375 C1036.8125,59.375 1035.5156,58.2813 1035.5156,56.5781 L1035.5156,55.4844 C1035.5156,53.7031 1036.7656,52.3906 1038.5,52.3906 C1039.0781,52.3906 1039.6875,52.5469 1040.1563,52.7969 C1040.6406,53.0781 1040.8125,53.2969 1040.9063,53.7031 C1040.9688,54.1094 1041,54.2344 1041.1406,54.3594 C1041.2813,54.5 1041.5156,54.6094 1041.7344,54.6094 C1042,54.6094 1042.2656,54.4688 1042.4375,54.25 C1042.5469,54.0938 1042.5781,53.9063 1042.5781,53.4844 L1042.5781,52.0625 C1042.5781,51.625 1042.5625,51.5 1042.4688,51.3438 C1042.3125,51.0781 1042.0313,50.9375 1041.7344,50.9375 C1041.4375,50.9375 1041.2344,51.0313 1041.0156,51.3438 L1040.8438,51.2656 Z " fill="#000000"/><text fill="#000000" font-family="sans-serif" font-size="12" lengthAdjust="spacingAndGlyphs" textLength="133" x="1052.5" y="59.748">tern-loc:ub1bL103C19</text><line style="stroke: #A80036; stroke-width: 1.5;" x1="1024.5" x2="1187.5" y1="71.5938" y2="71.5938"/><line style="stroke: #A80036; stroke-width: 1.5;" x1="1024.5" x2="1187.5" y1="79.5938" y2="79.5938"/></a><!--MD5=[da62121c43f2d8e03a68865ec0fa3196]
reverse link geosparql:Feature to tern-loc:Location--><path codeLine="2" d="M103.2319,104.7278 C111.905,119.093 121.389,134.8004 128.919,147.2722 " fill="none" id="geosparql:Feature-backto-tern-loc:Location" style="stroke: #A80036; stroke-width: 1.0;"/><polygon fill="none" points="97.232,108.3336,92.887,87.5938,109.217,101.0974,97.232,108.3336" style="stroke: #A80036; stroke-width: 1.0;"/><!--MD5=[afd1637b322d36e23c8bf8e52a24b922]
reverse link dct:Location to tern-loc:Location--><path codeLine="3" d="M204.379,102.8208 C190.912,117.6904 175.919,134.2461 164.121,147.2722 " fill="none" id="dct:Location-backto-tern-loc:Location" style="stroke: #A80036; stroke-width: 1.0;"/><polygon fill="none" points="199.555,97.7194,218.169,87.5938,209.932,107.1173,199.555,97.7194" style="stroke: #A80036; stroke-width: 1.0;"/><!--MD5=[718676226f92dcfe37e256519b7a4772]
reverse link sf:LineString to tern-loc:LineString--><path codeLine="4" d="M380,107.6174 C380,121.173 380,135.6319 380,147.2722 " fill="none" id="sf:LineString-backto-tern-loc:LineString" style="stroke: #A80036; stroke-width: 1.0;"/><polygon fill="none" points="373,107.5943,380,87.5938,387,107.5942,373,107.5943" style="stroke: #A80036; stroke-width: 1.0;"/><!--MD5=[51a7cfd66038ce77a5a433efcd013f3a]
reverse link sf:Polygon to tern-loc:Polygon--><path codeLine="5" d="M551,107.6174 C551,121.173 551,135.6319 551,147.2722 " fill="none" id="sf:Polygon-backto-tern-loc:Polygon" style="stroke: #A80036; stroke-width: 1.0;"/><polygon fill="none" points="544,107.5943,551,87.5938,558,107.5942,544,107.5943" style="stroke: #A80036; stroke-width: 1.0;"/><!--MD5=[d68c5b1816c22edfe60892291c0b4b30]
reverse link locn:Geometry to tern-loc:Point--><path codeLine="6" d="M740.449,99.762 C761.081,115.3839 784.804,133.3454 803.198,147.2722 " fill="none" id="locn:Geometry-backto-tern-loc:Point" style="stroke: #A80036; stroke-width: 1.0;"/><polygon fill="none" points="736.098,105.2478,724.378,87.5938,744.549,94.0858,736.098,105.2478" style="stroke: #A80036; stroke-width: 1.0;"/><!--MD5=[8c2aa92d6514d17a4ce697438d39211d]
reverse link geo:Point to tern-loc:Point--><path codeLine="7" d="M834,107.6174 C834,121.173 834,135.6319 834,147.2722 " fill="none" id="geo:Point-backto-tern-loc:Point" style="stroke: #A80036; stroke-width: 1.0;"/><polygon fill="none" points="827,107.5943,834,87.5938,841,107.5942,827,107.5943" style="stroke: #A80036; stroke-width: 1.0;"/><!--MD5=[29f7f1c9da998e3e1cb0828a9900b6c8]
reverse link sf:Point to tern-loc:Point--><path codeLine="8" d="M910.631,101.1671 C893.76,116.4527 874.655,133.7611 859.742,147.2722 " fill="none" id="sf:Point-backto-tern-loc:Point" style="stroke: #A80036; stroke-width: 1.0;"/><polygon fill="none" points="906.091,95.8349,925.613,87.5938,915.491,106.2101,906.091,95.8349" style="stroke: #A80036; stroke-width: 1.0;"/><text fill="#888888" font-family="sans-serif" font-size="10" lengthAdjust="spacingAndGlyphs" textLength="74" x="441.25" y="217.876">Generated by</text><a href="https://github.com/edmondchuc/ontogram" target="_top" title="https://github.com/edmondchuc/ontogram" xlink:actuate="onRequest" xlink:href="https://github.com/edmondchuc/ontogram" xlink:show="new" xlink:title="https://github.com/edmondchuc/ontogram" xlink:type="simple"><text fill="#0000FF" font-family="sans-serif" font-size="10" lengthAdjust="spacingAndGlyphs" text-decoration="underline" textLength="230" x="518.25" y="217.876">https://github.com/edmondchuc/ontogram</text></a><!--MD5=[e803ace90e99d4874313aa3495ebf7db]
@startuml
title TERN Location Alignment Ontology
"geosparql:Feature" <|- - "tern-loc:Location"
"dct:Location" <|- - "tern-loc:Location"
"sf:LineString" <|- - "tern-loc:LineString"
"sf:Polygon" <|- - "tern-loc:Polygon"
"locn:Geometry" <|- - "tern-loc:Point"
"geo:Point" <|- - "tern-loc:Point"
"sf:Point" <|- - "tern-loc:Point"
Class "tern-loc:Location" [[https://w3id.org/tern/ontologies/loc/Location]] {
}
Class "tern-loc:LineString" [[https://w3id.org/tern/ontologies/loc/LineString]] {
}
Class "tern-loc:Polygon" [[https://w3id.org/tern/ontologies/loc/Polygon]] {
}
Class "tern-loc:Point" [[https://w3id.org/tern/ontologies/loc/Point]] {
}
Class "tern-loc:ub1bL103C19" [[ub1bL103C19]] {
}
header
Creator: Edmond Chuc (e.chuc@uq.edu.au) 
endheader
center footer Generated by [[https://github.com/edmondchuc/ontogram https://github.com/edmondchuc/ontogram]]
@enduml

PlantUML version 1.2020.20beta8(Unknown compile time)
(GPL source distribution)
Java Runtime: Java(TM) SE Runtime Environment
JVM: Java HotSpot(TM) 64-Bit Server VM
Default Encoding: UTF-8
Language: en
Country: US
--></g></svg>