<?xml version="1.0" encoding="UTF-8" standalone="no"?><svg xmlns="http://www.w3.org/2000/svg" xmlns:xlink="http://www.w3.org/1999/xlink" contentScriptType="application/ecmascript" contentStyleType="text/css" height="229px" preserveAspectRatio="none" style="width:715px;height:229px;" version="1.1" viewBox="0 0 715 229" width="715px" zoomAndPan="magnify"><defs><filter height="300%" id="f13yxjtqs7fge8" width="300%" x="-1" y="-1"><feGaussianBlur result="blurOut" stdDeviation="2.0"/><feColorMatrix in="blurOut" result="blurOut2" type="matrix" values="0 0 0 0 0 0 0 0 0 0 0 0 0 0 0 0 0 0 .4 0"/><feOffset dx="4.0" dy="4.0" in="blurOut2" result="blurOut3"/><feBlend in="SourceGraphic" in2="blurOut3" mode="normal"/></filter></defs><g><text fill="#888888" font-family="sans-serif" font-size="10" lengthAdjust="spacingAndGlyphs" textLength="236" x="467" y="9.2822">Creator: Edmond Chuc (e.chuc@uq.edu.au)</text><text fill="#000000" font-family="sans-serif" font-size="18" lengthAdjust="spacingAndGlyphs" textLength="323" x="190" y="28.3486">TERN Location Alignment Ontology</text><!--MD5=[f6be3c52ce9b6300cb295795c7aca351]
class sf:LineString--><rect fill="#FEFECE" filter="url(#f13yxjtqs7fge8)" height="48" id="sf:LineString" style="stroke: #A80036; stroke-width: 1.5;" width="106" x="24" y="40.5938"/><ellipse cx="39" cy="56.5938" fill="#ADD1B2" rx="11" ry="11" style="stroke: #A80036; stroke-width: 1.0;"/><path d="M41.3438,52.2656 C40.4063,51.8281 39.8125,51.6875 38.9375,51.6875 C36.3125,51.6875 34.3125,53.7656 34.3125,56.4844 L34.3125,57.6094 C34.3125,60.1875 36.4219,62.0781 39.3125,62.0781 C40.5313,62.0781 41.6875,61.7813 42.4375,61.2344 C43.0156,60.8281 43.3438,60.375 43.3438,59.9844 C43.3438,59.5313 42.9531,59.1406 42.4844,59.1406 C42.2656,59.1406 42.0625,59.2188 41.875,59.4063 C41.4219,59.8906 41.4219,59.8906 41.2344,59.9844 C40.8125,60.25 40.125,60.375 39.3594,60.375 C37.3125,60.375 36.0156,59.2813 36.0156,57.5781 L36.0156,56.4844 C36.0156,54.7031 37.2656,53.3906 39,53.3906 C39.5781,53.3906 40.1875,53.5469 40.6563,53.7969 C41.1406,54.0781 41.3125,54.2969 41.4063,54.7031 C41.4688,55.1094 41.5,55.2344 41.6406,55.3594 C41.7813,55.5 42.0156,55.6094 42.2344,55.6094 C42.5,55.6094 42.7656,55.4688 42.9375,55.25 C43.0469,55.0938 43.0781,54.9063 43.0781,54.4844 L43.0781,53.0625 C43.0781,52.625 43.0625,52.5 42.9688,52.3438 C42.8125,52.0781 42.5313,51.9375 42.2344,51.9375 C41.9375,51.9375 41.7344,52.0313 41.5156,52.3438 L41.3438,52.2656 Z "/><text fill="#000000" font-family="sans-serif" font-size="12" lengthAdjust="spacingAndGlyphs" textLength="74" x="53" y="60.748">sf:LineString</text><line style="stroke: #A80036; stroke-width: 1.5;" x1="25" x2="129" y1="72.5938" y2="72.5938"/><line style="stroke: #A80036; stroke-width: 1.5;" x1="25" x2="129" y1="80.5938" y2="80.5938"/><!--MD5=[8769ba710cd4c62aec428e033c91e43d]
class tern-loc:LineString--><a href="https://w3id.org/tern/ontologies/loc/LineString" target="_top" title="https://w3id.org/tern/ontologies/loc/LineString" xlink:actuate="onRequest" xlink:href="https://w3id.org/tern/ontologies/loc/LineString" xlink:show="new" xlink:title="https://w3id.org/tern/ontologies/loc/LineString" xlink:type="simple"><rect fill="#FEFECE" filter="url(#f13yxjtqs7fge8)" height="48" id="tern-loc:LineString" style="stroke: #A80036; stroke-width: 1.5;" width="142" x="6" y="148.5938"/><ellipse cx="21" cy="164.5938" fill="#ADD1B2" rx="11" ry="11" style="stroke: #A80036; stroke-width: 1.0;"/><path d="M23.3438,160.2656 C22.4063,159.8281 21.8125,159.6875 20.9375,159.6875 C18.3125,159.6875 16.3125,161.7656 16.3125,164.4844 L16.3125,165.6094 C16.3125,168.1875 18.4219,170.0781 21.3125,170.0781 C22.5313,170.0781 23.6875,169.7813 24.4375,169.2344 C25.0156,168.8281 25.3438,168.375 25.3438,167.9844 C25.3438,167.5313 24.9531,167.1406 24.4844,167.1406 C24.2656,167.1406 24.0625,167.2188 23.875,167.4063 C23.4219,167.8906 23.4219,167.8906 23.2344,167.9844 C22.8125,168.25 22.125,168.375 21.3594,168.375 C19.3125,168.375 18.0156,167.2813 18.0156,165.5781 L18.0156,164.4844 C18.0156,162.7031 19.2656,161.3906 21,161.3906 C21.5781,161.3906 22.1875,161.5469 22.6563,161.7969 C23.1406,162.0781 23.3125,162.2969 23.4063,162.7031 C23.4688,163.1094 23.5,163.2344 23.6406,163.3594 C23.7813,163.5 24.0156,163.6094 24.2344,163.6094 C24.5,163.6094 24.7656,163.4688 24.9375,163.25 C25.0469,163.0938 25.0781,162.9063 25.0781,162.4844 L25.0781,161.0625 C25.0781,160.625 25.0625,160.5 24.9688,160.3438 C24.8125,160.0781 24.5313,159.9375 24.2344,159.9375 C23.9375,159.9375 23.7344,160.0313 23.5156,160.3438 L23.3438,160.2656 Z "/><text fill="#000000" font-family="sans-serif" font-size="12" lengthAdjust="spacingAndGlyphs" textLength="110" x="35" y="168.748">tern-loc:LineString</text><line style="stroke: #A80036; stroke-width: 1.5;" x1="7" x2="147" y1="180.5938" y2="180.5938"/><line style="stroke: #A80036; stroke-width: 1.5;" x1="7" x2="147" y1="188.5938" y2="188.5938"/></a><!--MD5=[681450c180318ac92d4d4448ad41864e]
class sf:Polygon--><rect fill="#FEFECE" filter="url(#f13yxjtqs7fge8)" height="48" id="sf:Polygon" style="stroke: #A80036; stroke-width: 1.5;" width="94" x="201" y="40.5938"/><ellipse cx="216" cy="56.5938" fill="#ADD1B2" rx="11" ry="11" style="stroke: #A80036; stroke-width: 1.0;"/><path d="M218.3438,52.2656 C217.4063,51.8281 216.8125,51.6875 215.9375,51.6875 C213.3125,51.6875 211.3125,53.7656 211.3125,56.4844 L211.3125,57.6094 C211.3125,60.1875 213.4219,62.0781 216.3125,62.0781 C217.5313,62.0781 218.6875,61.7813 219.4375,61.2344 C220.0156,60.8281 220.3438,60.375 220.3438,59.9844 C220.3438,59.5313 219.9531,59.1406 219.4844,59.1406 C219.2656,59.1406 219.0625,59.2188 218.875,59.4063 C218.4219,59.8906 218.4219,59.8906 218.2344,59.9844 C217.8125,60.25 217.125,60.375 216.3594,60.375 C214.3125,60.375 213.0156,59.2813 213.0156,57.5781 L213.0156,56.4844 C213.0156,54.7031 214.2656,53.3906 216,53.3906 C216.5781,53.3906 217.1875,53.5469 217.6563,53.7969 C218.1406,54.0781 218.3125,54.2969 218.4063,54.7031 C218.4688,55.1094 218.5,55.2344 218.6406,55.3594 C218.7813,55.5 219.0156,55.6094 219.2344,55.6094 C219.5,55.6094 219.7656,55.4688 219.9375,55.25 C220.0469,55.0938 220.0781,54.9063 220.0781,54.4844 L220.0781,53.0625 C220.0781,52.625 220.0625,52.5 219.9688,52.3438 C219.8125,52.0781 219.5313,51.9375 219.2344,51.9375 C218.9375,51.9375 218.7344,52.0313 218.5156,52.3438 L218.3438,52.2656 Z "/><text fill="#000000" font-family="sans-serif" font-size="12" lengthAdjust="spacingAndGlyphs" textLength="62" x="230" y="60.748">sf:Polygon</text><line style="stroke: #A80036; stroke-width: 1.5;" x1="202" x2="294" y1="72.5938" y2="72.5938"/><line style="stroke: #A80036; stroke-width: 1.5;" x1="202" x2="294" y1="80.5938" y2="80.5938"/><!--MD5=[0169b4c160c1d1627128d322d53ed76e]
class tern-loc:Polygon--><a href="https://w3id.org/tern/ontologies/loc/Polygon" target="_top" title="https://w3id.org/tern/ontologies/loc/Polygon" xlink:actuate="onRequest" xlink:href="https://w3id.org/tern/ontologies/loc/Polygon" xlink:show="new" xlink:title="https://w3id.org/tern/ontologies/loc/Polygon" xlink:type="simple"><rect fill="#FEFECE" filter="url(#f13yxjtqs7fge8)" height="48" id="tern-loc:Polygon" style="stroke: #A80036; stroke-width: 1.5;" width="130" x="183" y="148.5938"/><ellipse cx="198" cy="164.5938" fill="#ADD1B2" rx="11" ry="11" style="stroke: #A80036; stroke-width: 1.0;"/><path d="M200.3438,160.2656 C199.4063,159.8281 198.8125,159.6875 197.9375,159.6875 C195.3125,159.6875 193.3125,161.7656 193.3125,164.4844 L193.3125,165.6094 C193.3125,168.1875 195.4219,170.0781 198.3125,170.0781 C199.5313,170.0781 200.6875,169.7813 201.4375,169.2344 C202.0156,168.8281 202.3438,168.375 202.3438,167.9844 C202.3438,167.5313 201.9531,167.1406 201.4844,167.1406 C201.2656,167.1406 201.0625,167.2188 200.875,167.4063 C200.4219,167.8906 200.4219,167.8906 200.2344,167.9844 C199.8125,168.25 199.125,168.375 198.3594,168.375 C196.3125,168.375 195.0156,167.2813 195.0156,165.5781 L195.0156,164.4844 C195.0156,162.7031 196.2656,161.3906 198,161.3906 C198.5781,161.3906 199.1875,161.5469 199.6563,161.7969 C200.1406,162.0781 200.3125,162.2969 200.4063,162.7031 C200.4688,163.1094 200.5,163.2344 200.6406,163.3594 C200.7813,163.5 201.0156,163.6094 201.2344,163.6094 C201.5,163.6094 201.7656,163.4688 201.9375,163.25 C202.0469,163.0938 202.0781,162.9063 202.0781,162.4844 L202.0781,161.0625 C202.0781,160.625 202.0625,160.5 201.9688,160.3438 C201.8125,160.0781 201.5313,159.9375 201.2344,159.9375 C200.9375,159.9375 200.7344,160.0313 200.5156,160.3438 L200.3438,160.2656 Z "/><text fill="#000000" font-family="sans-serif" font-size="12" lengthAdjust="spacingAndGlyphs" textLength="98" x="212" y="168.748">tern-loc:Polygon</text><line style="stroke: #A80036; stroke-width: 1.5;" x1="184" x2="312" y1="180.5938" y2="180.5938"/><line style="stroke: #A80036; stroke-width: 1.5;" x1="184" x2="312" y1="188.5938" y2="188.5938"/></a><!--MD5=[4b4dc00f06a8a0ae0f42cf5f98def9ae]
class geo:Point--><rect fill="#FEFECE" filter="url(#f13yxjtqs7fge8)" height="48" id="geo:Point" style="stroke: #A80036; stroke-width: 1.5;" width="88" x="330" y="40.5938"/><ellipse cx="345" cy="56.5938" fill="#ADD1B2" rx="11" ry="11" style="stroke: #A80036; stroke-width: 1.0;"/><path d="M347.3438,52.2656 C346.4063,51.8281 345.8125,51.6875 344.9375,51.6875 C342.3125,51.6875 340.3125,53.7656 340.3125,56.4844 L340.3125,57.6094 C340.3125,60.1875 342.4219,62.0781 345.3125,62.0781 C346.5313,62.0781 347.6875,61.7813 348.4375,61.2344 C349.0156,60.8281 349.3438,60.375 349.3438,59.9844 C349.3438,59.5313 348.9531,59.1406 348.4844,59.1406 C348.2656,59.1406 348.0625,59.2188 347.875,59.4063 C347.4219,59.8906 347.4219,59.8906 347.2344,59.9844 C346.8125,60.25 346.125,60.375 345.3594,60.375 C343.3125,60.375 342.0156,59.2813 342.0156,57.5781 L342.0156,56.4844 C342.0156,54.7031 343.2656,53.3906 345,53.3906 C345.5781,53.3906 346.1875,53.5469 346.6563,53.7969 C347.1406,54.0781 347.3125,54.2969 347.4063,54.7031 C347.4688,55.1094 347.5,55.2344 347.6406,55.3594 C347.7813,55.5 348.0156,55.6094 348.2344,55.6094 C348.5,55.6094 348.7656,55.4688 348.9375,55.25 C349.0469,55.0938 349.0781,54.9063 349.0781,54.4844 L349.0781,53.0625 C349.0781,52.625 349.0625,52.5 348.9688,52.3438 C348.8125,52.0781 348.5313,51.9375 348.2344,51.9375 C347.9375,51.9375 347.7344,52.0313 347.5156,52.3438 L347.3438,52.2656 Z "/><text fill="#000000" font-family="sans-serif" font-size="12" lengthAdjust="spacingAndGlyphs" textLength="56" x="359" y="60.748">geo:Point</text><line style="stroke: #A80036; stroke-width: 1.5;" x1="331" x2="417" y1="72.5938" y2="72.5938"/><line style="stroke: #A80036; stroke-width: 1.5;" x1="331" x2="417" y1="80.5938" y2="80.5938"/><!--MD5=[b67d05c86b32bf3c0f7bf9b2b1a33612]
class tern-loc:Point--><a href="https://w3id.org/tern/ontologies/loc/Point" target="_top" title="https://w3id.org/tern/ontologies/loc/Point" xlink:actuate="onRequest" xlink:href="https://w3id.org/tern/ontologies/loc/Point" xlink:show="new" xlink:title="https://w3id.org/tern/ontologies/loc/Point" xlink:type="simple"><rect fill="#FEFECE" filter="url(#f13yxjtqs7fge8)" height="48" id="tern-loc:Point" style="stroke: #A80036; stroke-width: 1.5;" width="111" x="458.5" y="148.5938"/><ellipse cx="473.5" cy="164.5938" fill="#ADD1B2" rx="11" ry="11" style="stroke: #A80036; stroke-width: 1.0;"/><path d="M475.8438,160.2656 C474.9063,159.8281 474.3125,159.6875 473.4375,159.6875 C470.8125,159.6875 468.8125,161.7656 468.8125,164.4844 L468.8125,165.6094 C468.8125,168.1875 470.9219,170.0781 473.8125,170.0781 C475.0313,170.0781 476.1875,169.7813 476.9375,169.2344 C477.5156,168.8281 477.8438,168.375 477.8438,167.9844 C477.8438,167.5313 477.4531,167.1406 476.9844,167.1406 C476.7656,167.1406 476.5625,167.2188 476.375,167.4063 C475.9219,167.8906 475.9219,167.8906 475.7344,167.9844 C475.3125,168.25 474.625,168.375 473.8594,168.375 C471.8125,168.375 470.5156,167.2813 470.5156,165.5781 L470.5156,164.4844 C470.5156,162.7031 471.7656,161.3906 473.5,161.3906 C474.0781,161.3906 474.6875,161.5469 475.1563,161.7969 C475.6406,162.0781 475.8125,162.2969 475.9063,162.7031 C475.9688,163.1094 476,163.2344 476.1406,163.3594 C476.2813,163.5 476.5156,163.6094 476.7344,163.6094 C477,163.6094 477.2656,163.4688 477.4375,163.25 C477.5469,163.0938 477.5781,162.9063 477.5781,162.4844 L477.5781,161.0625 C477.5781,160.625 477.5625,160.5 477.4688,160.3438 C477.3125,160.0781 477.0313,159.9375 476.7344,159.9375 C476.4375,159.9375 476.2344,160.0313 476.0156,160.3438 L475.8438,160.2656 Z "/><text fill="#000000" font-family="sans-serif" font-size="12" lengthAdjust="spacingAndGlyphs" textLength="79" x="487.5" y="168.748">tern-loc:Point</text><line style="stroke: #A80036; stroke-width: 1.5;" x1="459.5" x2="568.5" y1="180.5938" y2="180.5938"/><line style="stroke: #A80036; stroke-width: 1.5;" x1="459.5" x2="568.5" y1="188.5938" y2="188.5938"/></a><!--MD5=[cd48ee8575308cff07b85b42a6074af1]
class locn:Geometry--><rect fill="#FEFECE" filter="url(#f13yxjtqs7fge8)" height="48" id="locn:Geometry" style="stroke: #A80036; stroke-width: 1.5;" width="121" x="453.5" y="40.5938"/><ellipse cx="468.5" cy="56.5938" fill="#ADD1B2" rx="11" ry="11" style="stroke: #A80036; stroke-width: 1.0;"/><path d="M470.8438,52.2656 C469.9063,51.8281 469.3125,51.6875 468.4375,51.6875 C465.8125,51.6875 463.8125,53.7656 463.8125,56.4844 L463.8125,57.6094 C463.8125,60.1875 465.9219,62.0781 468.8125,62.0781 C470.0313,62.0781 471.1875,61.7813 471.9375,61.2344 C472.5156,60.8281 472.8438,60.375 472.8438,59.9844 C472.8438,59.5313 472.4531,59.1406 471.9844,59.1406 C471.7656,59.1406 471.5625,59.2188 471.375,59.4063 C470.9219,59.8906 470.9219,59.8906 470.7344,59.9844 C470.3125,60.25 469.625,60.375 468.8594,60.375 C466.8125,60.375 465.5156,59.2813 465.5156,57.5781 L465.5156,56.4844 C465.5156,54.7031 466.7656,53.3906 468.5,53.3906 C469.0781,53.3906 469.6875,53.5469 470.1563,53.7969 C470.6406,54.0781 470.8125,54.2969 470.9063,54.7031 C470.9688,55.1094 471,55.2344 471.1406,55.3594 C471.2813,55.5 471.5156,55.6094 471.7344,55.6094 C472,55.6094 472.2656,55.4688 472.4375,55.25 C472.5469,55.0938 472.5781,54.9063 472.5781,54.4844 L472.5781,53.0625 C472.5781,52.625 472.5625,52.5 472.4688,52.3438 C472.3125,52.0781 472.0313,51.9375 471.7344,51.9375 C471.4375,51.9375 471.2344,52.0313 471.0156,52.3438 L470.8438,52.2656 Z "/><text fill="#000000" font-family="sans-serif" font-size="12" lengthAdjust="spacingAndGlyphs" textLength="89" x="482.5" y="60.748">locn:Geometry</text><line style="stroke: #A80036; stroke-width: 1.5;" x1="454.5" x2="573.5" y1="72.5938" y2="72.5938"/><line style="stroke: #A80036; stroke-width: 1.5;" x1="454.5" x2="573.5" y1="80.5938" y2="80.5938"/><!--MD5=[06a0b58d9040550ef5280287aedb19f7]
class sf:Point--><rect fill="#FEFECE" filter="url(#f13yxjtqs7fge8)" height="48" id="sf:Point" style="stroke: #A80036; stroke-width: 1.5;" width="75" x="609.5" y="40.5938"/><ellipse cx="624.5" cy="56.5938" fill="#ADD1B2" rx="11" ry="11" style="stroke: #A80036; stroke-width: 1.0;"/><path d="M626.8438,52.2656 C625.9063,51.8281 625.3125,51.6875 624.4375,51.6875 C621.8125,51.6875 619.8125,53.7656 619.8125,56.4844 L619.8125,57.6094 C619.8125,60.1875 621.9219,62.0781 624.8125,62.0781 C626.0313,62.0781 627.1875,61.7813 627.9375,61.2344 C628.5156,60.8281 628.8438,60.375 628.8438,59.9844 C628.8438,59.5313 628.4531,59.1406 627.9844,59.1406 C627.7656,59.1406 627.5625,59.2188 627.375,59.4063 C626.9219,59.8906 626.9219,59.8906 626.7344,59.9844 C626.3125,60.25 625.625,60.375 624.8594,60.375 C622.8125,60.375 621.5156,59.2813 621.5156,57.5781 L621.5156,56.4844 C621.5156,54.7031 622.7656,53.3906 624.5,53.3906 C625.0781,53.3906 625.6875,53.5469 626.1563,53.7969 C626.6406,54.0781 626.8125,54.2969 626.9063,54.7031 C626.9688,55.1094 627,55.2344 627.1406,55.3594 C627.2813,55.5 627.5156,55.6094 627.7344,55.6094 C628,55.6094 628.2656,55.4688 628.4375,55.25 C628.5469,55.0938 628.5781,54.9063 628.5781,54.4844 L628.5781,53.0625 C628.5781,52.625 628.5625,52.5 628.4688,52.3438 C628.3125,52.0781 628.0313,51.9375 627.7344,51.9375 C627.4375,51.9375 627.2344,52.0313 627.0156,52.3438 L626.8438,52.2656 Z "/><text fill="#000000" font-family="sans-serif" font-size="12" lengthAdjust="spacingAndGlyphs" textLength="43" x="638.5" y="60.748">sf:Point</text><line style="stroke: #A80036; stroke-width: 1.5;" x1="610.5" x2="683.5" y1="72.5938" y2="72.5938"/><line style="stroke: #A80036; stroke-width: 1.5;" x1="610.5" x2="683.5" y1="80.5938" y2="80.5938"/><!--MD5=[718676226f92dcfe37e256519b7a4772]
reverse link sf:LineString to tern-loc:LineString--><path d="M77,108.6174 C77,122.173 77,136.6319 77,148.2722 " fill="none" id="sf:LineString&lt;-tern-loc:LineString" style="stroke: #A80036; stroke-width: 1.0;"/><polygon fill="none" points="70.0001,108.5943,77,88.5938,84.0001,108.5942,70.0001,108.5943" style="stroke: #A80036; stroke-width: 1.0;"/><!--MD5=[51a7cfd66038ce77a5a433efcd013f3a]
reverse link sf:Polygon to tern-loc:Polygon--><path d="M248,108.6174 C248,122.173 248,136.6319 248,148.2722 " fill="none" id="sf:Polygon&lt;-tern-loc:Polygon" style="stroke: #A80036; stroke-width: 1.0;"/><polygon fill="none" points="241,108.5943,248,88.5938,255,108.5942,241,108.5943" style="stroke: #A80036; stroke-width: 1.0;"/><!--MD5=[8c2aa92d6514d17a4ce697438d39211d]
reverse link geo:Point to tern-loc:Point--><path d="M420.449,100.762 C441.081,116.3839 464.804,134.3454 483.198,148.2722 " fill="none" id="geo:Point&lt;-tern-loc:Point" style="stroke: #A80036; stroke-width: 1.0;"/><polygon fill="none" points="416.098,106.2478,404.378,88.5938,424.549,95.0858,416.098,106.2478" style="stroke: #A80036; stroke-width: 1.0;"/><!--MD5=[d68c5b1816c22edfe60892291c0b4b30]
reverse link locn:Geometry to tern-loc:Point--><path d="M514,108.6174 C514,122.173 514,136.6319 514,148.2722 " fill="none" id="locn:Geometry&lt;-tern-loc:Point" style="stroke: #A80036; stroke-width: 1.0;"/><polygon fill="none" points="507,108.5943,514,88.5938,521,108.5942,507,108.5943" style="stroke: #A80036; stroke-width: 1.0;"/><!--MD5=[29f7f1c9da998e3e1cb0828a9900b6c8]
reverse link sf:Point to tern-loc:Point--><path d="M602.288,101.2291 C582.825,116.741 560.562,134.484 543.262,148.2722 " fill="none" id="sf:Point&lt;-tern-loc:Point" style="stroke: #A80036; stroke-width: 1.0;"/><polygon fill="none" points="598.138,95.5858,618.141,88.5938,606.863,106.5336,598.138,95.5858" style="stroke: #A80036; stroke-width: 1.0;"/><text fill="#888888" font-family="sans-serif" font-size="10" lengthAdjust="spacingAndGlyphs" textLength="74" x="198" y="215.876">Generated by</text><a href="https://github.com/edmondchuc/ontogram" target="_top" title="https://github.com/edmondchuc/ontogram" xlink:actuate="onRequest" xlink:href="https://github.com/edmondchuc/ontogram" xlink:show="new" xlink:title="https://github.com/edmondchuc/ontogram" xlink:type="simple"><text fill="#0000FF" font-family="sans-serif" font-size="10" lengthAdjust="spacingAndGlyphs" text-decoration="underline" textLength="230" x="275" y="215.876">https://github.com/edmondchuc/ontogram</text></a><!--MD5=[e39ad7a99a1e2222f76a762997123837]
@startuml
title TERN Location Alignment Ontology
"sf:LineString" <|- - "tern-loc:LineString"
"sf:Polygon" <|- - "tern-loc:Polygon"
"geo:Point" <|- - "tern-loc:Point"
"locn:Geometry" <|- - "tern-loc:Point"
"sf:Point" <|- - "tern-loc:Point"
Class "tern-loc:LineString" [[https://w3id.org/tern/ontologies/loc/LineString]] {
}
Class "tern-loc:Polygon" [[https://w3id.org/tern/ontologies/loc/Polygon]] {
}
Class "tern-loc:Point" [[https://w3id.org/tern/ontologies/loc/Point]] {
}
header
Creator: Edmond Chuc (e.chuc@uq.edu.au) 
endheader
center footer Generated by [[https://github.com/edmondchuc/ontogram https://github.com/edmondchuc/ontogram]]
@enduml

PlantUML version 1.2020.11(Sat May 30 10:13:43 UTC 2020)
(GPL source distribution)
Java Runtime: Java(TM) SE Runtime Environment
JVM: Java HotSpot(TM) 64-Bit Server VM
Default Encoding: UTF-8
Language: en
Country: US
--></g></svg>