<?xml version="1.0" encoding="UTF-8" standalone="no"?><svg xmlns="http://www.w3.org/2000/svg" xmlns:xlink="http://www.w3.org/1999/xlink" contentScriptType="application/ecmascript" contentStyleType="text/css" height="231px" preserveAspectRatio="none" style="width:705px;height:231px;" version="1.1" viewBox="0 0 705 231" width="705px" zoomAndPan="magnify"><defs><filter height="300%" id="f1jbiljwra2b66" width="300%" x="-1" y="-1"><feGaussianBlur result="blurOut" stdDeviation="2.0"/><feColorMatrix in="blurOut" result="blurOut2" type="matrix" values="0 0 0 0 0 0 0 0 0 0 0 0 0 0 0 0 0 0 .4 0"/><feOffset dx="4.0" dy="4.0" in="blurOut2" result="blurOut3"/><feBlend in="SourceGraphic" in2="blurOut3" mode="normal"/></filter></defs><g><text fill="#888888" font-family="sans-serif" font-size="10" lengthAdjust="spacingAndGlyphs" textLength="236" x="451.5" y="9.2822">Creator: Edmond Chuc (e.chuc@uq.edu.au)</text><text fill="#000000" font-family="sans-serif" font-size="18" lengthAdjust="spacingAndGlyphs" textLength="323" x="182.25" y="28.3486">TERN Location Alignment Ontology</text><!--MD5=[681450c180318ac92d4d4448ad41864e]
class sf:Polygon--><rect fill="#FEFECE" filter="url(#f1jbiljwra2b66)" height="48" id="sf:Polygon" style="stroke: #A80036; stroke-width: 1.5;" width="94" x="25" y="39.5938"/><ellipse cx="40" cy="55.5938" fill="#ADD1B2" rx="11" ry="11" style="stroke: #A80036; stroke-width: 1.0;"/><path d="M42.3438,51.2656 C41.4063,50.8281 40.8125,50.6875 39.9375,50.6875 C37.3125,50.6875 35.3125,52.7656 35.3125,55.4844 L35.3125,56.6094 C35.3125,59.1875 37.4219,61.0781 40.3125,61.0781 C41.5313,61.0781 42.6875,60.7813 43.4375,60.2344 C44.0156,59.8281 44.3438,59.375 44.3438,58.9844 C44.3438,58.5313 43.9531,58.1406 43.4844,58.1406 C43.2656,58.1406 43.0625,58.2188 42.875,58.4063 C42.4219,58.8906 42.4219,58.8906 42.2344,58.9844 C41.8125,59.25 41.125,59.375 40.3594,59.375 C38.3125,59.375 37.0156,58.2813 37.0156,56.5781 L37.0156,55.4844 C37.0156,53.7031 38.2656,52.3906 40,52.3906 C40.5781,52.3906 41.1875,52.5469 41.6563,52.7969 C42.1406,53.0781 42.3125,53.2969 42.4063,53.7031 C42.4688,54.1094 42.5,54.2344 42.6406,54.3594 C42.7813,54.5 43.0156,54.6094 43.2344,54.6094 C43.5,54.6094 43.7656,54.4688 43.9375,54.25 C44.0469,54.0938 44.0781,53.9063 44.0781,53.4844 L44.0781,52.0625 C44.0781,51.625 44.0625,51.5 43.9688,51.3438 C43.8125,51.0781 43.5313,50.9375 43.2344,50.9375 C42.9375,50.9375 42.7344,51.0313 42.5156,51.3438 L42.3438,51.2656 Z "/><text fill="#000000" font-family="sans-serif" font-size="12" lengthAdjust="spacingAndGlyphs" textLength="62" x="54" y="59.748">sf:Polygon</text><line style="stroke: #A80036; stroke-width: 1.5;" x1="26" x2="118" y1="71.5938" y2="71.5938"/><line style="stroke: #A80036; stroke-width: 1.5;" x1="26" x2="118" y1="79.5938" y2="79.5938"/><!--MD5=[0169b4c160c1d1627128d322d53ed76e]
class tern-loc:Polygon--><a href="https://w3id.org/tern/ontologies/loc/Polygon" target="_top" title="https://w3id.org/tern/ontologies/loc/Polygon" xlink:actuate="onRequest" xlink:href="https://w3id.org/tern/ontologies/loc/Polygon" xlink:show="new" xlink:title="https://w3id.org/tern/ontologies/loc/Polygon" xlink:type="simple"><rect codeLine="7" fill="#FEFECE" filter="url(#f1jbiljwra2b66)" height="48" id="tern-loc:Polygon" style="stroke: #A80036; stroke-width: 1.5;" width="130" x="7" y="147.5938"/><ellipse cx="22" cy="163.5938" fill="#ADD1B2" rx="11" ry="11" style="stroke: #A80036; stroke-width: 1.0;"/><path d="M24.3438,159.2656 C23.4063,158.8281 22.8125,158.6875 21.9375,158.6875 C19.3125,158.6875 17.3125,160.7656 17.3125,163.4844 L17.3125,164.6094 C17.3125,167.1875 19.4219,169.0781 22.3125,169.0781 C23.5313,169.0781 24.6875,168.7813 25.4375,168.2344 C26.0156,167.8281 26.3438,167.375 26.3438,166.9844 C26.3438,166.5313 25.9531,166.1406 25.4844,166.1406 C25.2656,166.1406 25.0625,166.2188 24.875,166.4063 C24.4219,166.8906 24.4219,166.8906 24.2344,166.9844 C23.8125,167.25 23.125,167.375 22.3594,167.375 C20.3125,167.375 19.0156,166.2813 19.0156,164.5781 L19.0156,163.4844 C19.0156,161.7031 20.2656,160.3906 22,160.3906 C22.5781,160.3906 23.1875,160.5469 23.6563,160.7969 C24.1406,161.0781 24.3125,161.2969 24.4063,161.7031 C24.4688,162.1094 24.5,162.2344 24.6406,162.3594 C24.7813,162.5 25.0156,162.6094 25.2344,162.6094 C25.5,162.6094 25.7656,162.4688 25.9375,162.25 C26.0469,162.0938 26.0781,161.9063 26.0781,161.4844 L26.0781,160.0625 C26.0781,159.625 26.0625,159.5 25.9688,159.3438 C25.8125,159.0781 25.5313,158.9375 25.2344,158.9375 C24.9375,158.9375 24.7344,159.0313 24.5156,159.3438 L24.3438,159.2656 Z "/><text fill="#000000" font-family="sans-serif" font-size="12" lengthAdjust="spacingAndGlyphs" textLength="98" x="36" y="167.748">tern-loc:Polygon</text><line style="stroke: #A80036; stroke-width: 1.5;" x1="8" x2="136" y1="179.5938" y2="179.5938"/><line style="stroke: #A80036; stroke-width: 1.5;" x1="8" x2="136" y1="187.5938" y2="187.5938"/></a><!--MD5=[f6be3c52ce9b6300cb295795c7aca351]
class sf:LineString--><rect fill="#FEFECE" filter="url(#f1jbiljwra2b66)" height="48" id="sf:LineString" style="stroke: #A80036; stroke-width: 1.5;" width="106" x="190" y="39.5938"/><ellipse cx="205" cy="55.5938" fill="#ADD1B2" rx="11" ry="11" style="stroke: #A80036; stroke-width: 1.0;"/><path d="M207.3438,51.2656 C206.4063,50.8281 205.8125,50.6875 204.9375,50.6875 C202.3125,50.6875 200.3125,52.7656 200.3125,55.4844 L200.3125,56.6094 C200.3125,59.1875 202.4219,61.0781 205.3125,61.0781 C206.5313,61.0781 207.6875,60.7813 208.4375,60.2344 C209.0156,59.8281 209.3438,59.375 209.3438,58.9844 C209.3438,58.5313 208.9531,58.1406 208.4844,58.1406 C208.2656,58.1406 208.0625,58.2188 207.875,58.4063 C207.4219,58.8906 207.4219,58.8906 207.2344,58.9844 C206.8125,59.25 206.125,59.375 205.3594,59.375 C203.3125,59.375 202.0156,58.2813 202.0156,56.5781 L202.0156,55.4844 C202.0156,53.7031 203.2656,52.3906 205,52.3906 C205.5781,52.3906 206.1875,52.5469 206.6563,52.7969 C207.1406,53.0781 207.3125,53.2969 207.4063,53.7031 C207.4688,54.1094 207.5,54.2344 207.6406,54.3594 C207.7813,54.5 208.0156,54.6094 208.2344,54.6094 C208.5,54.6094 208.7656,54.4688 208.9375,54.25 C209.0469,54.0938 209.0781,53.9063 209.0781,53.4844 L209.0781,52.0625 C209.0781,51.625 209.0625,51.5 208.9688,51.3438 C208.8125,51.0781 208.5313,50.9375 208.2344,50.9375 C207.9375,50.9375 207.7344,51.0313 207.5156,51.3438 L207.3438,51.2656 Z "/><text fill="#000000" font-family="sans-serif" font-size="12" lengthAdjust="spacingAndGlyphs" textLength="74" x="219" y="59.748">sf:LineString</text><line style="stroke: #A80036; stroke-width: 1.5;" x1="191" x2="295" y1="71.5938" y2="71.5938"/><line style="stroke: #A80036; stroke-width: 1.5;" x1="191" x2="295" y1="79.5938" y2="79.5938"/><!--MD5=[8769ba710cd4c62aec428e033c91e43d]
class tern-loc:LineString--><a href="https://w3id.org/tern/ontologies/loc/LineString" target="_top" title="https://w3id.org/tern/ontologies/loc/LineString" xlink:actuate="onRequest" xlink:href="https://w3id.org/tern/ontologies/loc/LineString" xlink:show="new" xlink:title="https://w3id.org/tern/ontologies/loc/LineString" xlink:type="simple"><rect codeLine="9" fill="#FEFECE" filter="url(#f1jbiljwra2b66)" height="48" id="tern-loc:LineString" style="stroke: #A80036; stroke-width: 1.5;" width="142" x="172" y="147.5938"/><ellipse cx="187" cy="163.5938" fill="#ADD1B2" rx="11" ry="11" style="stroke: #A80036; stroke-width: 1.0;"/><path d="M189.3438,159.2656 C188.4063,158.8281 187.8125,158.6875 186.9375,158.6875 C184.3125,158.6875 182.3125,160.7656 182.3125,163.4844 L182.3125,164.6094 C182.3125,167.1875 184.4219,169.0781 187.3125,169.0781 C188.5313,169.0781 189.6875,168.7813 190.4375,168.2344 C191.0156,167.8281 191.3438,167.375 191.3438,166.9844 C191.3438,166.5313 190.9531,166.1406 190.4844,166.1406 C190.2656,166.1406 190.0625,166.2188 189.875,166.4063 C189.4219,166.8906 189.4219,166.8906 189.2344,166.9844 C188.8125,167.25 188.125,167.375 187.3594,167.375 C185.3125,167.375 184.0156,166.2813 184.0156,164.5781 L184.0156,163.4844 C184.0156,161.7031 185.2656,160.3906 187,160.3906 C187.5781,160.3906 188.1875,160.5469 188.6563,160.7969 C189.1406,161.0781 189.3125,161.2969 189.4063,161.7031 C189.4688,162.1094 189.5,162.2344 189.6406,162.3594 C189.7813,162.5 190.0156,162.6094 190.2344,162.6094 C190.5,162.6094 190.7656,162.4688 190.9375,162.25 C191.0469,162.0938 191.0781,161.9063 191.0781,161.4844 L191.0781,160.0625 C191.0781,159.625 191.0625,159.5 190.9688,159.3438 C190.8125,159.0781 190.5313,158.9375 190.2344,158.9375 C189.9375,158.9375 189.7344,159.0313 189.5156,159.3438 L189.3438,159.2656 Z "/><text fill="#000000" font-family="sans-serif" font-size="12" lengthAdjust="spacingAndGlyphs" textLength="110" x="201" y="167.748">tern-loc:LineString</text><line style="stroke: #A80036; stroke-width: 1.5;" x1="173" x2="313" y1="179.5938" y2="179.5938"/><line style="stroke: #A80036; stroke-width: 1.5;" x1="173" x2="313" y1="187.5938" y2="187.5938"/></a><!--MD5=[cd48ee8575308cff07b85b42a6074af1]
class locn:Geometry--><rect fill="#FEFECE" filter="url(#f1jbiljwra2b66)" height="48" id="locn:Geometry" style="stroke: #A80036; stroke-width: 1.5;" width="121" x="331.5" y="39.5938"/><ellipse cx="346.5" cy="55.5938" fill="#ADD1B2" rx="11" ry="11" style="stroke: #A80036; stroke-width: 1.0;"/><path d="M348.8438,51.2656 C347.9063,50.8281 347.3125,50.6875 346.4375,50.6875 C343.8125,50.6875 341.8125,52.7656 341.8125,55.4844 L341.8125,56.6094 C341.8125,59.1875 343.9219,61.0781 346.8125,61.0781 C348.0313,61.0781 349.1875,60.7813 349.9375,60.2344 C350.5156,59.8281 350.8438,59.375 350.8438,58.9844 C350.8438,58.5313 350.4531,58.1406 349.9844,58.1406 C349.7656,58.1406 349.5625,58.2188 349.375,58.4063 C348.9219,58.8906 348.9219,58.8906 348.7344,58.9844 C348.3125,59.25 347.625,59.375 346.8594,59.375 C344.8125,59.375 343.5156,58.2813 343.5156,56.5781 L343.5156,55.4844 C343.5156,53.7031 344.7656,52.3906 346.5,52.3906 C347.0781,52.3906 347.6875,52.5469 348.1563,52.7969 C348.6406,53.0781 348.8125,53.2969 348.9063,53.7031 C348.9688,54.1094 349,54.2344 349.1406,54.3594 C349.2813,54.5 349.5156,54.6094 349.7344,54.6094 C350,54.6094 350.2656,54.4688 350.4375,54.25 C350.5469,54.0938 350.5781,53.9063 350.5781,53.4844 L350.5781,52.0625 C350.5781,51.625 350.5625,51.5 350.4688,51.3438 C350.3125,51.0781 350.0313,50.9375 349.7344,50.9375 C349.4375,50.9375 349.2344,51.0313 349.0156,51.3438 L348.8438,51.2656 Z "/><text fill="#000000" font-family="sans-serif" font-size="12" lengthAdjust="spacingAndGlyphs" textLength="89" x="360.5" y="59.748">locn:Geometry</text><line style="stroke: #A80036; stroke-width: 1.5;" x1="332.5" x2="451.5" y1="71.5938" y2="71.5938"/><line style="stroke: #A80036; stroke-width: 1.5;" x1="332.5" x2="451.5" y1="79.5938" y2="79.5938"/><!--MD5=[b67d05c86b32bf3c0f7bf9b2b1a33612]
class tern-loc:Point--><a href="https://w3id.org/tern/ontologies/loc/Point" target="_top" title="https://w3id.org/tern/ontologies/loc/Point" xlink:actuate="onRequest" xlink:href="https://w3id.org/tern/ontologies/loc/Point" xlink:show="new" xlink:title="https://w3id.org/tern/ontologies/loc/Point" xlink:type="simple"><rect codeLine="11" fill="#FEFECE" filter="url(#f1jbiljwra2b66)" height="48" id="tern-loc:Point" style="stroke: #A80036; stroke-width: 1.5;" width="111" x="476.5" y="147.5938"/><ellipse cx="491.5" cy="163.5938" fill="#ADD1B2" rx="11" ry="11" style="stroke: #A80036; stroke-width: 1.0;"/><path d="M493.8438,159.2656 C492.9063,158.8281 492.3125,158.6875 491.4375,158.6875 C488.8125,158.6875 486.8125,160.7656 486.8125,163.4844 L486.8125,164.6094 C486.8125,167.1875 488.9219,169.0781 491.8125,169.0781 C493.0313,169.0781 494.1875,168.7813 494.9375,168.2344 C495.5156,167.8281 495.8438,167.375 495.8438,166.9844 C495.8438,166.5313 495.4531,166.1406 494.9844,166.1406 C494.7656,166.1406 494.5625,166.2188 494.375,166.4063 C493.9219,166.8906 493.9219,166.8906 493.7344,166.9844 C493.3125,167.25 492.625,167.375 491.8594,167.375 C489.8125,167.375 488.5156,166.2813 488.5156,164.5781 L488.5156,163.4844 C488.5156,161.7031 489.7656,160.3906 491.5,160.3906 C492.0781,160.3906 492.6875,160.5469 493.1563,160.7969 C493.6406,161.0781 493.8125,161.2969 493.9063,161.7031 C493.9688,162.1094 494,162.2344 494.1406,162.3594 C494.2813,162.5 494.5156,162.6094 494.7344,162.6094 C495,162.6094 495.2656,162.4688 495.4375,162.25 C495.5469,162.0938 495.5781,161.9063 495.5781,161.4844 L495.5781,160.0625 C495.5781,159.625 495.5625,159.5 495.4688,159.3438 C495.3125,159.0781 495.0313,158.9375 494.7344,158.9375 C494.4375,158.9375 494.2344,159.0313 494.0156,159.3438 L493.8438,159.2656 Z "/><text fill="#000000" font-family="sans-serif" font-size="12" lengthAdjust="spacingAndGlyphs" textLength="79" x="505.5" y="167.748">tern-loc:Point</text><line style="stroke: #A80036; stroke-width: 1.5;" x1="477.5" x2="586.5" y1="179.5938" y2="179.5938"/><line style="stroke: #A80036; stroke-width: 1.5;" x1="477.5" x2="586.5" y1="187.5938" y2="187.5938"/></a><!--MD5=[4b4dc00f06a8a0ae0f42cf5f98def9ae]
class geo:Point--><rect fill="#FEFECE" filter="url(#f1jbiljwra2b66)" height="48" id="geo:Point" style="stroke: #A80036; stroke-width: 1.5;" width="88" x="488" y="39.5938"/><ellipse cx="503" cy="55.5938" fill="#ADD1B2" rx="11" ry="11" style="stroke: #A80036; stroke-width: 1.0;"/><path d="M505.3438,51.2656 C504.4063,50.8281 503.8125,50.6875 502.9375,50.6875 C500.3125,50.6875 498.3125,52.7656 498.3125,55.4844 L498.3125,56.6094 C498.3125,59.1875 500.4219,61.0781 503.3125,61.0781 C504.5313,61.0781 505.6875,60.7813 506.4375,60.2344 C507.0156,59.8281 507.3438,59.375 507.3438,58.9844 C507.3438,58.5313 506.9531,58.1406 506.4844,58.1406 C506.2656,58.1406 506.0625,58.2188 505.875,58.4063 C505.4219,58.8906 505.4219,58.8906 505.2344,58.9844 C504.8125,59.25 504.125,59.375 503.3594,59.375 C501.3125,59.375 500.0156,58.2813 500.0156,56.5781 L500.0156,55.4844 C500.0156,53.7031 501.2656,52.3906 503,52.3906 C503.5781,52.3906 504.1875,52.5469 504.6563,52.7969 C505.1406,53.0781 505.3125,53.2969 505.4063,53.7031 C505.4688,54.1094 505.5,54.2344 505.6406,54.3594 C505.7813,54.5 506.0156,54.6094 506.2344,54.6094 C506.5,54.6094 506.7656,54.4688 506.9375,54.25 C507.0469,54.0938 507.0781,53.9063 507.0781,53.4844 L507.0781,52.0625 C507.0781,51.625 507.0625,51.5 506.9688,51.3438 C506.8125,51.0781 506.5313,50.9375 506.2344,50.9375 C505.9375,50.9375 505.7344,51.0313 505.5156,51.3438 L505.3438,51.2656 Z "/><text fill="#000000" font-family="sans-serif" font-size="12" lengthAdjust="spacingAndGlyphs" textLength="56" x="517" y="59.748">geo:Point</text><line style="stroke: #A80036; stroke-width: 1.5;" x1="489" x2="575" y1="71.5938" y2="71.5938"/><line style="stroke: #A80036; stroke-width: 1.5;" x1="489" x2="575" y1="79.5938" y2="79.5938"/><!--MD5=[06a0b58d9040550ef5280287aedb19f7]
class sf:Point--><rect fill="#FEFECE" filter="url(#f1jbiljwra2b66)" height="48" id="sf:Point" style="stroke: #A80036; stroke-width: 1.5;" width="75" x="611.5" y="39.5938"/><ellipse cx="626.5" cy="55.5938" fill="#ADD1B2" rx="11" ry="11" style="stroke: #A80036; stroke-width: 1.0;"/><path d="M628.8438,51.2656 C627.9063,50.8281 627.3125,50.6875 626.4375,50.6875 C623.8125,50.6875 621.8125,52.7656 621.8125,55.4844 L621.8125,56.6094 C621.8125,59.1875 623.9219,61.0781 626.8125,61.0781 C628.0313,61.0781 629.1875,60.7813 629.9375,60.2344 C630.5156,59.8281 630.8438,59.375 630.8438,58.9844 C630.8438,58.5313 630.4531,58.1406 629.9844,58.1406 C629.7656,58.1406 629.5625,58.2188 629.375,58.4063 C628.9219,58.8906 628.9219,58.8906 628.7344,58.9844 C628.3125,59.25 627.625,59.375 626.8594,59.375 C624.8125,59.375 623.5156,58.2813 623.5156,56.5781 L623.5156,55.4844 C623.5156,53.7031 624.7656,52.3906 626.5,52.3906 C627.0781,52.3906 627.6875,52.5469 628.1563,52.7969 C628.6406,53.0781 628.8125,53.2969 628.9063,53.7031 C628.9688,54.1094 629,54.2344 629.1406,54.3594 C629.2813,54.5 629.5156,54.6094 629.7344,54.6094 C630,54.6094 630.2656,54.4688 630.4375,54.25 C630.5469,54.0938 630.5781,53.9063 630.5781,53.4844 L630.5781,52.0625 C630.5781,51.625 630.5625,51.5 630.4688,51.3438 C630.3125,51.0781 630.0313,50.9375 629.7344,50.9375 C629.4375,50.9375 629.2344,51.0313 629.0156,51.3438 L628.8438,51.2656 Z "/><text fill="#000000" font-family="sans-serif" font-size="12" lengthAdjust="spacingAndGlyphs" textLength="43" x="640.5" y="59.748">sf:Point</text><line style="stroke: #A80036; stroke-width: 1.5;" x1="612.5" x2="685.5" y1="71.5938" y2="71.5938"/><line style="stroke: #A80036; stroke-width: 1.5;" x1="612.5" x2="685.5" y1="79.5938" y2="79.5938"/><!--MD5=[51a7cfd66038ce77a5a433efcd013f3a]
reverse link sf:Polygon to tern-loc:Polygon--><path codeLine="2" d="M72,107.6174 C72,121.173 72,135.6319 72,147.2722 " fill="none" id="sf:Polygon&lt;-tern-loc:Polygon" style="stroke: #A80036; stroke-width: 1.0;"/><polygon fill="none" points="65.0001,107.5943,72,87.5938,79.0001,107.5942,65.0001,107.5943" style="stroke: #A80036; stroke-width: 1.0;"/><!--MD5=[718676226f92dcfe37e256519b7a4772]
reverse link sf:LineString to tern-loc:LineString--><path codeLine="3" d="M243,107.6174 C243,121.173 243,135.6319 243,147.2722 " fill="none" id="sf:LineString&lt;-tern-loc:LineString" style="stroke: #A80036; stroke-width: 1.0;"/><polygon fill="none" points="236,107.5943,243,87.5938,250,107.5942,236,107.5943" style="stroke: #A80036; stroke-width: 1.0;"/><!--MD5=[d68c5b1816c22edfe60892291c0b4b30]
reverse link locn:Geometry to tern-loc:Point--><path codeLine="4" d="M438.449,99.762 C459.081,115.3839 482.804,133.3454 501.198,147.2722 " fill="none" id="locn:Geometry&lt;-tern-loc:Point" style="stroke: #A80036; stroke-width: 1.0;"/><polygon fill="none" points="434.098,105.2478,422.378,87.5938,442.549,94.0858,434.098,105.2478" style="stroke: #A80036; stroke-width: 1.0;"/><!--MD5=[8c2aa92d6514d17a4ce697438d39211d]
reverse link geo:Point to tern-loc:Point--><path codeLine="5" d="M532,107.6174 C532,121.173 532,135.6319 532,147.2722 " fill="none" id="geo:Point&lt;-tern-loc:Point" style="stroke: #A80036; stroke-width: 1.0;"/><polygon fill="none" points="525,107.5943,532,87.5938,539,107.5942,525,107.5943" style="stroke: #A80036; stroke-width: 1.0;"/><!--MD5=[29f7f1c9da998e3e1cb0828a9900b6c8]
reverse link sf:Point to tern-loc:Point--><path codeLine="6" d="M608.631,101.1671 C591.76,116.4527 572.655,133.7611 557.742,147.2722 " fill="none" id="sf:Point&lt;-tern-loc:Point" style="stroke: #A80036; stroke-width: 1.0;"/><polygon fill="none" points="604.091,95.8349,623.613,87.5938,613.491,106.2101,604.091,95.8349" style="stroke: #A80036; stroke-width: 1.0;"/><text fill="#888888" font-family="sans-serif" font-size="10" lengthAdjust="spacingAndGlyphs" textLength="74" x="190.25" y="217.876">Generated by</text><a href="https://github.com/edmondchuc/ontogram" target="_top" title="https://github.com/edmondchuc/ontogram" xlink:actuate="onRequest" xlink:href="https://github.com/edmondchuc/ontogram" xlink:show="new" xlink:title="https://github.com/edmondchuc/ontogram" xlink:type="simple"><text fill="#0000FF" font-family="sans-serif" font-size="10" lengthAdjust="spacingAndGlyphs" text-decoration="underline" textLength="230" x="267.25" y="217.876">https://github.com/edmondchuc/ontogram</text></a><!--MD5=[7757d8f0d4f6ca824b12569446ffdf64]
@startuml
title TERN Location Alignment Ontology
"sf:Polygon" <|- - "tern-loc:Polygon"
"sf:LineString" <|- - "tern-loc:LineString"
"locn:Geometry" <|- - "tern-loc:Point"
"geo:Point" <|- - "tern-loc:Point"
"sf:Point" <|- - "tern-loc:Point"
Class "tern-loc:Polygon" [[https://w3id.org/tern/ontologies/loc/Polygon]] {
}
Class "tern-loc:LineString" [[https://w3id.org/tern/ontologies/loc/LineString]] {
}
Class "tern-loc:Point" [[https://w3id.org/tern/ontologies/loc/Point]] {
}
header
Creator: Edmond Chuc (e.chuc@uq.edu.au) 
endheader
center footer Generated by [[https://github.com/edmondchuc/ontogram https://github.com/edmondchuc/ontogram]]
@enduml

PlantUML version 1.2020.16beta7(Unknown compile time)
(GPL source distribution)
Java Runtime: Java(TM) SE Runtime Environment
JVM: Java HotSpot(TM) 64-Bit Server VM
Default Encoding: UTF-8
Language: en
Country: US
--></g></svg>