<?xml version="1.0" encoding="UTF-8" standalone="no"?><svg xmlns="http://www.w3.org/2000/svg" xmlns:xlink="http://www.w3.org/1999/xlink" contentScriptType="application/ecmascript" contentStyleType="text/css" height="231px" preserveAspectRatio="none" style="width:705px;height:231px;" version="1.1" viewBox="0 0 705 231" width="705px" zoomAndPan="magnify"><defs><filter height="300%" id="fe8tiyszwc0w0" width="300%" x="-1" y="-1"><feGaussianBlur result="blurOut" stdDeviation="2.0"/><feColorMatrix in="blurOut" result="blurOut2" type="matrix" values="0 0 0 0 0 0 0 0 0 0 0 0 0 0 0 0 0 0 .4 0"/><feOffset dx="4.0" dy="4.0" in="blurOut2" result="blurOut3"/><feBlend in="SourceGraphic" in2="blurOut3" mode="normal"/></filter></defs><g><text fill="#888888" font-family="sans-serif" font-size="10" lengthAdjust="spacingAndGlyphs" textLength="236" x="451.5" y="9.2822">Creator: Edmond Chuc (e.chuc@uq.edu.au)</text><text fill="#000000" font-family="sans-serif" font-size="18" lengthAdjust="spacingAndGlyphs" textLength="323" x="182.25" y="28.3486">TERN Location Alignment Ontology</text><!--MD5=[f6be3c52ce9b6300cb295795c7aca351]
class sf:LineString--><rect fill="#FEFECE" filter="url(#fe8tiyszwc0w0)" height="48" id="sf:LineString" style="stroke: #A80036; stroke-width: 1.5;" width="106" x="25" y="39.5938"/><ellipse cx="40" cy="55.5938" fill="#ADD1B2" rx="11" ry="11" style="stroke: #A80036; stroke-width: 1.0;"/><path d="M42.3438,51.2656 C41.4063,50.8281 40.8125,50.6875 39.9375,50.6875 C37.3125,50.6875 35.3125,52.7656 35.3125,55.4844 L35.3125,56.6094 C35.3125,59.1875 37.4219,61.0781 40.3125,61.0781 C41.5313,61.0781 42.6875,60.7813 43.4375,60.2344 C44.0156,59.8281 44.3438,59.375 44.3438,58.9844 C44.3438,58.5313 43.9531,58.1406 43.4844,58.1406 C43.2656,58.1406 43.0625,58.2188 42.875,58.4063 C42.4219,58.8906 42.4219,58.8906 42.2344,58.9844 C41.8125,59.25 41.125,59.375 40.3594,59.375 C38.3125,59.375 37.0156,58.2813 37.0156,56.5781 L37.0156,55.4844 C37.0156,53.7031 38.2656,52.3906 40,52.3906 C40.5781,52.3906 41.1875,52.5469 41.6563,52.7969 C42.1406,53.0781 42.3125,53.2969 42.4063,53.7031 C42.4688,54.1094 42.5,54.2344 42.6406,54.3594 C42.7813,54.5 43.0156,54.6094 43.2344,54.6094 C43.5,54.6094 43.7656,54.4688 43.9375,54.25 C44.0469,54.0938 44.0781,53.9063 44.0781,53.4844 L44.0781,52.0625 C44.0781,51.625 44.0625,51.5 43.9688,51.3438 C43.8125,51.0781 43.5313,50.9375 43.2344,50.9375 C42.9375,50.9375 42.7344,51.0313 42.5156,51.3438 L42.3438,51.2656 Z "/><text fill="#000000" font-family="sans-serif" font-size="12" lengthAdjust="spacingAndGlyphs" textLength="74" x="54" y="59.748">sf:LineString</text><line style="stroke: #A80036; stroke-width: 1.5;" x1="26" x2="130" y1="71.5938" y2="71.5938"/><line style="stroke: #A80036; stroke-width: 1.5;" x1="26" x2="130" y1="79.5938" y2="79.5938"/><!--MD5=[8769ba710cd4c62aec428e033c91e43d]
class tern-loc:LineString--><a href="https://w3id.org/tern/ontologies/loc/LineString" target="_top" title="https://w3id.org/tern/ontologies/loc/LineString" xlink:actuate="onRequest" xlink:href="https://w3id.org/tern/ontologies/loc/LineString" xlink:show="new" xlink:title="https://w3id.org/tern/ontologies/loc/LineString" xlink:type="simple"><rect fill="#FEFECE" filter="url(#fe8tiyszwc0w0)" height="48" id="tern-loc:LineString" style="stroke: #A80036; stroke-width: 1.5;" width="142" x="7" y="147.5938"/><ellipse cx="22" cy="163.5938" fill="#ADD1B2" rx="11" ry="11" style="stroke: #A80036; stroke-width: 1.0;"/><path d="M24.3438,159.2656 C23.4063,158.8281 22.8125,158.6875 21.9375,158.6875 C19.3125,158.6875 17.3125,160.7656 17.3125,163.4844 L17.3125,164.6094 C17.3125,167.1875 19.4219,169.0781 22.3125,169.0781 C23.5313,169.0781 24.6875,168.7813 25.4375,168.2344 C26.0156,167.8281 26.3438,167.375 26.3438,166.9844 C26.3438,166.5313 25.9531,166.1406 25.4844,166.1406 C25.2656,166.1406 25.0625,166.2188 24.875,166.4063 C24.4219,166.8906 24.4219,166.8906 24.2344,166.9844 C23.8125,167.25 23.125,167.375 22.3594,167.375 C20.3125,167.375 19.0156,166.2813 19.0156,164.5781 L19.0156,163.4844 C19.0156,161.7031 20.2656,160.3906 22,160.3906 C22.5781,160.3906 23.1875,160.5469 23.6563,160.7969 C24.1406,161.0781 24.3125,161.2969 24.4063,161.7031 C24.4688,162.1094 24.5,162.2344 24.6406,162.3594 C24.7813,162.5 25.0156,162.6094 25.2344,162.6094 C25.5,162.6094 25.7656,162.4688 25.9375,162.25 C26.0469,162.0938 26.0781,161.9063 26.0781,161.4844 L26.0781,160.0625 C26.0781,159.625 26.0625,159.5 25.9688,159.3438 C25.8125,159.0781 25.5313,158.9375 25.2344,158.9375 C24.9375,158.9375 24.7344,159.0313 24.5156,159.3438 L24.3438,159.2656 Z "/><text fill="#000000" font-family="sans-serif" font-size="12" lengthAdjust="spacingAndGlyphs" textLength="110" x="36" y="167.748">tern-loc:LineString</text><line style="stroke: #A80036; stroke-width: 1.5;" x1="8" x2="148" y1="179.5938" y2="179.5938"/><line style="stroke: #A80036; stroke-width: 1.5;" x1="8" x2="148" y1="187.5938" y2="187.5938"/></a><!--MD5=[681450c180318ac92d4d4448ad41864e]
class sf:Polygon--><rect fill="#FEFECE" filter="url(#fe8tiyszwc0w0)" height="48" id="sf:Polygon" style="stroke: #A80036; stroke-width: 1.5;" width="94" x="202" y="39.5938"/><ellipse cx="217" cy="55.5938" fill="#ADD1B2" rx="11" ry="11" style="stroke: #A80036; stroke-width: 1.0;"/><path d="M219.3438,51.2656 C218.4063,50.8281 217.8125,50.6875 216.9375,50.6875 C214.3125,50.6875 212.3125,52.7656 212.3125,55.4844 L212.3125,56.6094 C212.3125,59.1875 214.4219,61.0781 217.3125,61.0781 C218.5313,61.0781 219.6875,60.7813 220.4375,60.2344 C221.0156,59.8281 221.3438,59.375 221.3438,58.9844 C221.3438,58.5313 220.9531,58.1406 220.4844,58.1406 C220.2656,58.1406 220.0625,58.2188 219.875,58.4063 C219.4219,58.8906 219.4219,58.8906 219.2344,58.9844 C218.8125,59.25 218.125,59.375 217.3594,59.375 C215.3125,59.375 214.0156,58.2813 214.0156,56.5781 L214.0156,55.4844 C214.0156,53.7031 215.2656,52.3906 217,52.3906 C217.5781,52.3906 218.1875,52.5469 218.6563,52.7969 C219.1406,53.0781 219.3125,53.2969 219.4063,53.7031 C219.4688,54.1094 219.5,54.2344 219.6406,54.3594 C219.7813,54.5 220.0156,54.6094 220.2344,54.6094 C220.5,54.6094 220.7656,54.4688 220.9375,54.25 C221.0469,54.0938 221.0781,53.9063 221.0781,53.4844 L221.0781,52.0625 C221.0781,51.625 221.0625,51.5 220.9688,51.3438 C220.8125,51.0781 220.5313,50.9375 220.2344,50.9375 C219.9375,50.9375 219.7344,51.0313 219.5156,51.3438 L219.3438,51.2656 Z "/><text fill="#000000" font-family="sans-serif" font-size="12" lengthAdjust="spacingAndGlyphs" textLength="62" x="231" y="59.748">sf:Polygon</text><line style="stroke: #A80036; stroke-width: 1.5;" x1="203" x2="295" y1="71.5938" y2="71.5938"/><line style="stroke: #A80036; stroke-width: 1.5;" x1="203" x2="295" y1="79.5938" y2="79.5938"/><!--MD5=[0169b4c160c1d1627128d322d53ed76e]
class tern-loc:Polygon--><a href="https://w3id.org/tern/ontologies/loc/Polygon" target="_top" title="https://w3id.org/tern/ontologies/loc/Polygon" xlink:actuate="onRequest" xlink:href="https://w3id.org/tern/ontologies/loc/Polygon" xlink:show="new" xlink:title="https://w3id.org/tern/ontologies/loc/Polygon" xlink:type="simple"><rect fill="#FEFECE" filter="url(#fe8tiyszwc0w0)" height="48" id="tern-loc:Polygon" style="stroke: #A80036; stroke-width: 1.5;" width="130" x="184" y="147.5938"/><ellipse cx="199" cy="163.5938" fill="#ADD1B2" rx="11" ry="11" style="stroke: #A80036; stroke-width: 1.0;"/><path d="M201.3438,159.2656 C200.4063,158.8281 199.8125,158.6875 198.9375,158.6875 C196.3125,158.6875 194.3125,160.7656 194.3125,163.4844 L194.3125,164.6094 C194.3125,167.1875 196.4219,169.0781 199.3125,169.0781 C200.5313,169.0781 201.6875,168.7813 202.4375,168.2344 C203.0156,167.8281 203.3438,167.375 203.3438,166.9844 C203.3438,166.5313 202.9531,166.1406 202.4844,166.1406 C202.2656,166.1406 202.0625,166.2188 201.875,166.4063 C201.4219,166.8906 201.4219,166.8906 201.2344,166.9844 C200.8125,167.25 200.125,167.375 199.3594,167.375 C197.3125,167.375 196.0156,166.2813 196.0156,164.5781 L196.0156,163.4844 C196.0156,161.7031 197.2656,160.3906 199,160.3906 C199.5781,160.3906 200.1875,160.5469 200.6563,160.7969 C201.1406,161.0781 201.3125,161.2969 201.4063,161.7031 C201.4688,162.1094 201.5,162.2344 201.6406,162.3594 C201.7813,162.5 202.0156,162.6094 202.2344,162.6094 C202.5,162.6094 202.7656,162.4688 202.9375,162.25 C203.0469,162.0938 203.0781,161.9063 203.0781,161.4844 L203.0781,160.0625 C203.0781,159.625 203.0625,159.5 202.9688,159.3438 C202.8125,159.0781 202.5313,158.9375 202.2344,158.9375 C201.9375,158.9375 201.7344,159.0313 201.5156,159.3438 L201.3438,159.2656 Z "/><text fill="#000000" font-family="sans-serif" font-size="12" lengthAdjust="spacingAndGlyphs" textLength="98" x="213" y="167.748">tern-loc:Polygon</text><line style="stroke: #A80036; stroke-width: 1.5;" x1="185" x2="313" y1="179.5938" y2="179.5938"/><line style="stroke: #A80036; stroke-width: 1.5;" x1="185" x2="313" y1="187.5938" y2="187.5938"/></a><!--MD5=[06a0b58d9040550ef5280287aedb19f7]
class sf:Point--><rect fill="#FEFECE" filter="url(#fe8tiyszwc0w0)" height="48" id="sf:Point" style="stroke: #A80036; stroke-width: 1.5;" width="75" x="331.5" y="39.5938"/><ellipse cx="346.5" cy="55.5938" fill="#ADD1B2" rx="11" ry="11" style="stroke: #A80036; stroke-width: 1.0;"/><path d="M348.8438,51.2656 C347.9063,50.8281 347.3125,50.6875 346.4375,50.6875 C343.8125,50.6875 341.8125,52.7656 341.8125,55.4844 L341.8125,56.6094 C341.8125,59.1875 343.9219,61.0781 346.8125,61.0781 C348.0313,61.0781 349.1875,60.7813 349.9375,60.2344 C350.5156,59.8281 350.8438,59.375 350.8438,58.9844 C350.8438,58.5313 350.4531,58.1406 349.9844,58.1406 C349.7656,58.1406 349.5625,58.2188 349.375,58.4063 C348.9219,58.8906 348.9219,58.8906 348.7344,58.9844 C348.3125,59.25 347.625,59.375 346.8594,59.375 C344.8125,59.375 343.5156,58.2813 343.5156,56.5781 L343.5156,55.4844 C343.5156,53.7031 344.7656,52.3906 346.5,52.3906 C347.0781,52.3906 347.6875,52.5469 348.1563,52.7969 C348.6406,53.0781 348.8125,53.2969 348.9063,53.7031 C348.9688,54.1094 349,54.2344 349.1406,54.3594 C349.2813,54.5 349.5156,54.6094 349.7344,54.6094 C350,54.6094 350.2656,54.4688 350.4375,54.25 C350.5469,54.0938 350.5781,53.9063 350.5781,53.4844 L350.5781,52.0625 C350.5781,51.625 350.5625,51.5 350.4688,51.3438 C350.3125,51.0781 350.0313,50.9375 349.7344,50.9375 C349.4375,50.9375 349.2344,51.0313 349.0156,51.3438 L348.8438,51.2656 Z "/><text fill="#000000" font-family="sans-serif" font-size="12" lengthAdjust="spacingAndGlyphs" textLength="43" x="360.5" y="59.748">sf:Point</text><line style="stroke: #A80036; stroke-width: 1.5;" x1="332.5" x2="405.5" y1="71.5938" y2="71.5938"/><line style="stroke: #A80036; stroke-width: 1.5;" x1="332.5" x2="405.5" y1="79.5938" y2="79.5938"/><!--MD5=[b67d05c86b32bf3c0f7bf9b2b1a33612]
class tern-loc:Point--><a href="https://w3id.org/tern/ontologies/loc/Point" target="_top" title="https://w3id.org/tern/ontologies/loc/Point" xlink:actuate="onRequest" xlink:href="https://w3id.org/tern/ontologies/loc/Point" xlink:show="new" xlink:title="https://w3id.org/tern/ontologies/loc/Point" xlink:type="simple"><rect fill="#FEFECE" filter="url(#fe8tiyszwc0w0)" height="48" id="tern-loc:Point" style="stroke: #A80036; stroke-width: 1.5;" width="111" x="430.5" y="147.5938"/><ellipse cx="445.5" cy="163.5938" fill="#ADD1B2" rx="11" ry="11" style="stroke: #A80036; stroke-width: 1.0;"/><path d="M447.8438,159.2656 C446.9063,158.8281 446.3125,158.6875 445.4375,158.6875 C442.8125,158.6875 440.8125,160.7656 440.8125,163.4844 L440.8125,164.6094 C440.8125,167.1875 442.9219,169.0781 445.8125,169.0781 C447.0313,169.0781 448.1875,168.7813 448.9375,168.2344 C449.5156,167.8281 449.8438,167.375 449.8438,166.9844 C449.8438,166.5313 449.4531,166.1406 448.9844,166.1406 C448.7656,166.1406 448.5625,166.2188 448.375,166.4063 C447.9219,166.8906 447.9219,166.8906 447.7344,166.9844 C447.3125,167.25 446.625,167.375 445.8594,167.375 C443.8125,167.375 442.5156,166.2813 442.5156,164.5781 L442.5156,163.4844 C442.5156,161.7031 443.7656,160.3906 445.5,160.3906 C446.0781,160.3906 446.6875,160.5469 447.1563,160.7969 C447.6406,161.0781 447.8125,161.2969 447.9063,161.7031 C447.9688,162.1094 448,162.2344 448.1406,162.3594 C448.2813,162.5 448.5156,162.6094 448.7344,162.6094 C449,162.6094 449.2656,162.4688 449.4375,162.25 C449.5469,162.0938 449.5781,161.9063 449.5781,161.4844 L449.5781,160.0625 C449.5781,159.625 449.5625,159.5 449.4688,159.3438 C449.3125,159.0781 449.0313,158.9375 448.7344,158.9375 C448.4375,158.9375 448.2344,159.0313 448.0156,159.3438 L447.8438,159.2656 Z "/><text fill="#000000" font-family="sans-serif" font-size="12" lengthAdjust="spacingAndGlyphs" textLength="79" x="459.5" y="167.748">tern-loc:Point</text><line style="stroke: #A80036; stroke-width: 1.5;" x1="431.5" x2="540.5" y1="179.5938" y2="179.5938"/><line style="stroke: #A80036; stroke-width: 1.5;" x1="431.5" x2="540.5" y1="187.5938" y2="187.5938"/></a><!--MD5=[4b4dc00f06a8a0ae0f42cf5f98def9ae]
class geo:Point--><rect fill="#FEFECE" filter="url(#fe8tiyszwc0w0)" height="48" id="geo:Point" style="stroke: #A80036; stroke-width: 1.5;" width="88" x="442" y="39.5938"/><ellipse cx="457" cy="55.5938" fill="#ADD1B2" rx="11" ry="11" style="stroke: #A80036; stroke-width: 1.0;"/><path d="M459.3438,51.2656 C458.4063,50.8281 457.8125,50.6875 456.9375,50.6875 C454.3125,50.6875 452.3125,52.7656 452.3125,55.4844 L452.3125,56.6094 C452.3125,59.1875 454.4219,61.0781 457.3125,61.0781 C458.5313,61.0781 459.6875,60.7813 460.4375,60.2344 C461.0156,59.8281 461.3438,59.375 461.3438,58.9844 C461.3438,58.5313 460.9531,58.1406 460.4844,58.1406 C460.2656,58.1406 460.0625,58.2188 459.875,58.4063 C459.4219,58.8906 459.4219,58.8906 459.2344,58.9844 C458.8125,59.25 458.125,59.375 457.3594,59.375 C455.3125,59.375 454.0156,58.2813 454.0156,56.5781 L454.0156,55.4844 C454.0156,53.7031 455.2656,52.3906 457,52.3906 C457.5781,52.3906 458.1875,52.5469 458.6563,52.7969 C459.1406,53.0781 459.3125,53.2969 459.4063,53.7031 C459.4688,54.1094 459.5,54.2344 459.6406,54.3594 C459.7813,54.5 460.0156,54.6094 460.2344,54.6094 C460.5,54.6094 460.7656,54.4688 460.9375,54.25 C461.0469,54.0938 461.0781,53.9063 461.0781,53.4844 L461.0781,52.0625 C461.0781,51.625 461.0625,51.5 460.9688,51.3438 C460.8125,51.0781 460.5313,50.9375 460.2344,50.9375 C459.9375,50.9375 459.7344,51.0313 459.5156,51.3438 L459.3438,51.2656 Z "/><text fill="#000000" font-family="sans-serif" font-size="12" lengthAdjust="spacingAndGlyphs" textLength="56" x="471" y="59.748">geo:Point</text><line style="stroke: #A80036; stroke-width: 1.5;" x1="443" x2="529" y1="71.5938" y2="71.5938"/><line style="stroke: #A80036; stroke-width: 1.5;" x1="443" x2="529" y1="79.5938" y2="79.5938"/><!--MD5=[cd48ee8575308cff07b85b42a6074af1]
class locn:Geometry--><rect fill="#FEFECE" filter="url(#fe8tiyszwc0w0)" height="48" id="locn:Geometry" style="stroke: #A80036; stroke-width: 1.5;" width="121" x="565.5" y="39.5938"/><ellipse cx="580.5" cy="55.5938" fill="#ADD1B2" rx="11" ry="11" style="stroke: #A80036; stroke-width: 1.0;"/><path d="M582.8438,51.2656 C581.9063,50.8281 581.3125,50.6875 580.4375,50.6875 C577.8125,50.6875 575.8125,52.7656 575.8125,55.4844 L575.8125,56.6094 C575.8125,59.1875 577.9219,61.0781 580.8125,61.0781 C582.0313,61.0781 583.1875,60.7813 583.9375,60.2344 C584.5156,59.8281 584.8438,59.375 584.8438,58.9844 C584.8438,58.5313 584.4531,58.1406 583.9844,58.1406 C583.7656,58.1406 583.5625,58.2188 583.375,58.4063 C582.9219,58.8906 582.9219,58.8906 582.7344,58.9844 C582.3125,59.25 581.625,59.375 580.8594,59.375 C578.8125,59.375 577.5156,58.2813 577.5156,56.5781 L577.5156,55.4844 C577.5156,53.7031 578.7656,52.3906 580.5,52.3906 C581.0781,52.3906 581.6875,52.5469 582.1563,52.7969 C582.6406,53.0781 582.8125,53.2969 582.9063,53.7031 C582.9688,54.1094 583,54.2344 583.1406,54.3594 C583.2813,54.5 583.5156,54.6094 583.7344,54.6094 C584,54.6094 584.2656,54.4688 584.4375,54.25 C584.5469,54.0938 584.5781,53.9063 584.5781,53.4844 L584.5781,52.0625 C584.5781,51.625 584.5625,51.5 584.4688,51.3438 C584.3125,51.0781 584.0313,50.9375 583.7344,50.9375 C583.4375,50.9375 583.2344,51.0313 583.0156,51.3438 L582.8438,51.2656 Z "/><text fill="#000000" font-family="sans-serif" font-size="12" lengthAdjust="spacingAndGlyphs" textLength="89" x="594.5" y="59.748">locn:Geometry</text><line style="stroke: #A80036; stroke-width: 1.5;" x1="566.5" x2="685.5" y1="71.5938" y2="71.5938"/><line style="stroke: #A80036; stroke-width: 1.5;" x1="566.5" x2="685.5" y1="79.5938" y2="79.5938"/><!--MD5=[718676226f92dcfe37e256519b7a4772]
reverse link sf:LineString to tern-loc:LineString--><path d="M78,107.6174 C78,121.173 78,135.6319 78,147.2722 " fill="none" id="sf:LineString&lt;-tern-loc:LineString" style="stroke: #A80036; stroke-width: 1.0;"/><polygon fill="none" points="71.0001,107.5943,78,87.5938,85.0001,107.5942,71.0001,107.5943" style="stroke: #A80036; stroke-width: 1.0;"/><!--MD5=[51a7cfd66038ce77a5a433efcd013f3a]
reverse link sf:Polygon to tern-loc:Polygon--><path d="M249,107.6174 C249,121.173 249,135.6319 249,147.2722 " fill="none" id="sf:Polygon&lt;-tern-loc:Polygon" style="stroke: #A80036; stroke-width: 1.0;"/><polygon fill="none" points="242,107.5943,249,87.5938,256,107.5942,242,107.5943" style="stroke: #A80036; stroke-width: 1.0;"/><!--MD5=[29f7f1c9da998e3e1cb0828a9900b6c8]
reverse link sf:Point to tern-loc:Point--><path d="M409.369,101.1671 C426.24,116.4527 445.345,133.7611 460.258,147.2722 " fill="none" id="sf:Point&lt;-tern-loc:Point" style="stroke: #A80036; stroke-width: 1.0;"/><polygon fill="none" points="404.509,106.2101,394.387,87.5938,413.909,95.8349,404.509,106.2101" style="stroke: #A80036; stroke-width: 1.0;"/><!--MD5=[8c2aa92d6514d17a4ce697438d39211d]
reverse link geo:Point to tern-loc:Point--><path d="M486,107.6174 C486,121.173 486,135.6319 486,147.2722 " fill="none" id="geo:Point&lt;-tern-loc:Point" style="stroke: #A80036; stroke-width: 1.0;"/><polygon fill="none" points="479,107.5943,486,87.5938,493,107.5942,479,107.5943" style="stroke: #A80036; stroke-width: 1.0;"/><!--MD5=[d68c5b1816c22edfe60892291c0b4b30]
reverse link locn:Geometry to tern-loc:Point--><path d="M579.551,99.762 C558.919,115.3839 535.196,133.3454 516.802,147.2722 " fill="none" id="locn:Geometry&lt;-tern-loc:Point" style="stroke: #A80036; stroke-width: 1.0;"/><polygon fill="none" points="575.451,94.0858,595.622,87.5938,583.902,105.2478,575.451,94.0858" style="stroke: #A80036; stroke-width: 1.0;"/><text fill="#888888" font-family="sans-serif" font-size="10" lengthAdjust="spacingAndGlyphs" textLength="74" x="190.25" y="217.876">Generated by</text><a href="https://github.com/edmondchuc/ontogram" target="_top" title="https://github.com/edmondchuc/ontogram" xlink:actuate="onRequest" xlink:href="https://github.com/edmondchuc/ontogram" xlink:show="new" xlink:title="https://github.com/edmondchuc/ontogram" xlink:type="simple"><text fill="#0000FF" font-family="sans-serif" font-size="10" lengthAdjust="spacingAndGlyphs" text-decoration="underline" textLength="230" x="267.25" y="217.876">https://github.com/edmondchuc/ontogram</text></a><!--MD5=[1f60741ffc11c261f107c4a0f479e2f6]
@startuml
title TERN Location Alignment Ontology
"sf:LineString" <|- - "tern-loc:LineString"
"sf:Polygon" <|- - "tern-loc:Polygon"
"sf:Point" <|- - "tern-loc:Point"
"geo:Point" <|- - "tern-loc:Point"
"locn:Geometry" <|- - "tern-loc:Point"
Class "tern-loc:LineString" [[https://w3id.org/tern/ontologies/loc/LineString]] {
}
Class "tern-loc:Polygon" [[https://w3id.org/tern/ontologies/loc/Polygon]] {
}
Class "tern-loc:Point" [[https://w3id.org/tern/ontologies/loc/Point]] {
}
header
Creator: Edmond Chuc (e.chuc@uq.edu.au) 
endheader
center footer Generated by [[https://github.com/edmondchuc/ontogram https://github.com/edmondchuc/ontogram]]
@enduml

PlantUML version 1.2020.13(Sat Jun 13 12:26:38 UTC 2020)
(GPL source distribution)
Java Runtime: Java(TM) SE Runtime Environment
JVM: Java HotSpot(TM) 64-Bit Server VM
Default Encoding: UTF-8
Language: en
Country: US
--></g></svg>