<?xml version="1.0" encoding="UTF-8" standalone="no"?><svg xmlns="http://www.w3.org/2000/svg" xmlns:xlink="http://www.w3.org/1999/xlink" contentScriptType="application/ecmascript" contentStyleType="text/css" height="231px" preserveAspectRatio="none" style="width:704px;height:231px;" version="1.1" viewBox="0 0 704 231" width="704px" zoomAndPan="magnify"><defs><filter height="300%" id="f1gdhu4wf9fd9q" width="300%" x="-1" y="-1"><feGaussianBlur result="blurOut" stdDeviation="2.0"/><feColorMatrix in="blurOut" result="blurOut2" type="matrix" values="0 0 0 0 0 0 0 0 0 0 0 0 0 0 0 0 0 0 .4 0"/><feOffset dx="4.0" dy="4.0" in="blurOut2" result="blurOut3"/><feBlend in="SourceGraphic" in2="blurOut3" mode="normal"/></filter></defs><g><text fill="#888888" font-family="sans-serif" font-size="10" lengthAdjust="spacingAndGlyphs" textLength="236" x="450.5" y="9.2822">Creator: Edmond Chuc (e.chuc@uq.edu.au)</text><text fill="#000000" font-family="sans-serif" font-size="18" lengthAdjust="spacingAndGlyphs" textLength="323" x="181.75" y="28.3486">TERN Location Alignment Ontology</text><!--MD5=[cd48ee8575308cff07b85b42a6074af1]
class locn:Geometry--><rect fill="#FEFECE" filter="url(#f1gdhu4wf9fd9q)" height="48" id="locn:Geometry" style="stroke: #A80036; stroke-width: 1.5;" width="121" x="7" y="39.5938"/><ellipse cx="22" cy="55.5938" fill="#ADD1B2" rx="11" ry="11" style="stroke: #A80036; stroke-width: 1.0;"/><path d="M24.3438,51.2656 C23.4063,50.8281 22.8125,50.6875 21.9375,50.6875 C19.3125,50.6875 17.3125,52.7656 17.3125,55.4844 L17.3125,56.6094 C17.3125,59.1875 19.4219,61.0781 22.3125,61.0781 C23.5313,61.0781 24.6875,60.7813 25.4375,60.2344 C26.0156,59.8281 26.3438,59.375 26.3438,58.9844 C26.3438,58.5313 25.9531,58.1406 25.4844,58.1406 C25.2656,58.1406 25.0625,58.2188 24.875,58.4063 C24.4219,58.8906 24.4219,58.8906 24.2344,58.9844 C23.8125,59.25 23.125,59.375 22.3594,59.375 C20.3125,59.375 19.0156,58.2813 19.0156,56.5781 L19.0156,55.4844 C19.0156,53.7031 20.2656,52.3906 22,52.3906 C22.5781,52.3906 23.1875,52.5469 23.6563,52.7969 C24.1406,53.0781 24.3125,53.2969 24.4063,53.7031 C24.4688,54.1094 24.5,54.2344 24.6406,54.3594 C24.7813,54.5 25.0156,54.6094 25.2344,54.6094 C25.5,54.6094 25.7656,54.4688 25.9375,54.25 C26.0469,54.0938 26.0781,53.9063 26.0781,53.4844 L26.0781,52.0625 C26.0781,51.625 26.0625,51.5 25.9688,51.3438 C25.8125,51.0781 25.5313,50.9375 25.2344,50.9375 C24.9375,50.9375 24.7344,51.0313 24.5156,51.3438 L24.3438,51.2656 Z "/><text fill="#000000" font-family="sans-serif" font-size="12" lengthAdjust="spacingAndGlyphs" textLength="89" x="36" y="59.748">locn:Geometry</text><line style="stroke: #A80036; stroke-width: 1.5;" x1="8" x2="127" y1="71.5938" y2="71.5938"/><line style="stroke: #A80036; stroke-width: 1.5;" x1="8" x2="127" y1="79.5938" y2="79.5938"/><!--MD5=[b67d05c86b32bf3c0f7bf9b2b1a33612]
class tern-loc:Point--><a href="https://w3id.org/tern/ontologies/loc/Point" target="_top" title="https://w3id.org/tern/ontologies/loc/Point" xlink:actuate="onRequest" xlink:href="https://w3id.org/tern/ontologies/loc/Point" xlink:show="new" xlink:title="https://w3id.org/tern/ontologies/loc/Point" xlink:type="simple"><rect codeLine="7" fill="#FEFECE" filter="url(#f1gdhu4wf9fd9q)" height="48" id="tern-loc:Point" style="stroke: #A80036; stroke-width: 1.5;" width="111" x="145" y="147.5938"/><ellipse cx="160" cy="163.5938" fill="#ADD1B2" rx="11" ry="11" style="stroke: #A80036; stroke-width: 1.0;"/><path d="M162.3438,159.2656 C161.4063,158.8281 160.8125,158.6875 159.9375,158.6875 C157.3125,158.6875 155.3125,160.7656 155.3125,163.4844 L155.3125,164.6094 C155.3125,167.1875 157.4219,169.0781 160.3125,169.0781 C161.5313,169.0781 162.6875,168.7813 163.4375,168.2344 C164.0156,167.8281 164.3438,167.375 164.3438,166.9844 C164.3438,166.5313 163.9531,166.1406 163.4844,166.1406 C163.2656,166.1406 163.0625,166.2188 162.875,166.4063 C162.4219,166.8906 162.4219,166.8906 162.2344,166.9844 C161.8125,167.25 161.125,167.375 160.3594,167.375 C158.3125,167.375 157.0156,166.2813 157.0156,164.5781 L157.0156,163.4844 C157.0156,161.7031 158.2656,160.3906 160,160.3906 C160.5781,160.3906 161.1875,160.5469 161.6563,160.7969 C162.1406,161.0781 162.3125,161.2969 162.4063,161.7031 C162.4688,162.1094 162.5,162.2344 162.6406,162.3594 C162.7813,162.5 163.0156,162.6094 163.2344,162.6094 C163.5,162.6094 163.7656,162.4688 163.9375,162.25 C164.0469,162.0938 164.0781,161.9063 164.0781,161.4844 L164.0781,160.0625 C164.0781,159.625 164.0625,159.5 163.9688,159.3438 C163.8125,159.0781 163.5313,158.9375 163.2344,158.9375 C162.9375,158.9375 162.7344,159.0313 162.5156,159.3438 L162.3438,159.2656 Z "/><text fill="#000000" font-family="sans-serif" font-size="12" lengthAdjust="spacingAndGlyphs" textLength="79" x="174" y="167.748">tern-loc:Point</text><line style="stroke: #A80036; stroke-width: 1.5;" x1="146" x2="255" y1="179.5938" y2="179.5938"/><line style="stroke: #A80036; stroke-width: 1.5;" x1="146" x2="255" y1="187.5938" y2="187.5938"/></a><!--MD5=[06a0b58d9040550ef5280287aedb19f7]
class sf:Point--><rect fill="#FEFECE" filter="url(#f1gdhu4wf9fd9q)" height="48" id="sf:Point" style="stroke: #A80036; stroke-width: 1.5;" width="75" x="163" y="39.5938"/><ellipse cx="178" cy="55.5938" fill="#ADD1B2" rx="11" ry="11" style="stroke: #A80036; stroke-width: 1.0;"/><path d="M180.3438,51.2656 C179.4063,50.8281 178.8125,50.6875 177.9375,50.6875 C175.3125,50.6875 173.3125,52.7656 173.3125,55.4844 L173.3125,56.6094 C173.3125,59.1875 175.4219,61.0781 178.3125,61.0781 C179.5313,61.0781 180.6875,60.7813 181.4375,60.2344 C182.0156,59.8281 182.3438,59.375 182.3438,58.9844 C182.3438,58.5313 181.9531,58.1406 181.4844,58.1406 C181.2656,58.1406 181.0625,58.2188 180.875,58.4063 C180.4219,58.8906 180.4219,58.8906 180.2344,58.9844 C179.8125,59.25 179.125,59.375 178.3594,59.375 C176.3125,59.375 175.0156,58.2813 175.0156,56.5781 L175.0156,55.4844 C175.0156,53.7031 176.2656,52.3906 178,52.3906 C178.5781,52.3906 179.1875,52.5469 179.6563,52.7969 C180.1406,53.0781 180.3125,53.2969 180.4063,53.7031 C180.4688,54.1094 180.5,54.2344 180.6406,54.3594 C180.7813,54.5 181.0156,54.6094 181.2344,54.6094 C181.5,54.6094 181.7656,54.4688 181.9375,54.25 C182.0469,54.0938 182.0781,53.9063 182.0781,53.4844 L182.0781,52.0625 C182.0781,51.625 182.0625,51.5 181.9688,51.3438 C181.8125,51.0781 181.5313,50.9375 181.2344,50.9375 C180.9375,50.9375 180.7344,51.0313 180.5156,51.3438 L180.3438,51.2656 Z "/><text fill="#000000" font-family="sans-serif" font-size="12" lengthAdjust="spacingAndGlyphs" textLength="43" x="192" y="59.748">sf:Point</text><line style="stroke: #A80036; stroke-width: 1.5;" x1="164" x2="237" y1="71.5938" y2="71.5938"/><line style="stroke: #A80036; stroke-width: 1.5;" x1="164" x2="237" y1="79.5938" y2="79.5938"/><!--MD5=[4b4dc00f06a8a0ae0f42cf5f98def9ae]
class geo:Point--><rect fill="#FEFECE" filter="url(#f1gdhu4wf9fd9q)" height="48" id="geo:Point" style="stroke: #A80036; stroke-width: 1.5;" width="88" x="273.5" y="39.5938"/><ellipse cx="288.5" cy="55.5938" fill="#ADD1B2" rx="11" ry="11" style="stroke: #A80036; stroke-width: 1.0;"/><path d="M290.8438,51.2656 C289.9063,50.8281 289.3125,50.6875 288.4375,50.6875 C285.8125,50.6875 283.8125,52.7656 283.8125,55.4844 L283.8125,56.6094 C283.8125,59.1875 285.9219,61.0781 288.8125,61.0781 C290.0313,61.0781 291.1875,60.7813 291.9375,60.2344 C292.5156,59.8281 292.8438,59.375 292.8438,58.9844 C292.8438,58.5313 292.4531,58.1406 291.9844,58.1406 C291.7656,58.1406 291.5625,58.2188 291.375,58.4063 C290.9219,58.8906 290.9219,58.8906 290.7344,58.9844 C290.3125,59.25 289.625,59.375 288.8594,59.375 C286.8125,59.375 285.5156,58.2813 285.5156,56.5781 L285.5156,55.4844 C285.5156,53.7031 286.7656,52.3906 288.5,52.3906 C289.0781,52.3906 289.6875,52.5469 290.1563,52.7969 C290.6406,53.0781 290.8125,53.2969 290.9063,53.7031 C290.9688,54.1094 291,54.2344 291.1406,54.3594 C291.2813,54.5 291.5156,54.6094 291.7344,54.6094 C292,54.6094 292.2656,54.4688 292.4375,54.25 C292.5469,54.0938 292.5781,53.9063 292.5781,53.4844 L292.5781,52.0625 C292.5781,51.625 292.5625,51.5 292.4688,51.3438 C292.3125,51.0781 292.0313,50.9375 291.7344,50.9375 C291.4375,50.9375 291.2344,51.0313 291.0156,51.3438 L290.8438,51.2656 Z "/><text fill="#000000" font-family="sans-serif" font-size="12" lengthAdjust="spacingAndGlyphs" textLength="56" x="302.5" y="59.748">geo:Point</text><line style="stroke: #A80036; stroke-width: 1.5;" x1="274.5" x2="360.5" y1="71.5938" y2="71.5938"/><line style="stroke: #A80036; stroke-width: 1.5;" x1="274.5" x2="360.5" y1="79.5938" y2="79.5938"/><!--MD5=[681450c180318ac92d4d4448ad41864e]
class sf:Polygon--><rect fill="#FEFECE" filter="url(#f1gdhu4wf9fd9q)" height="48" id="sf:Polygon" style="stroke: #A80036; stroke-width: 1.5;" width="94" x="396.5" y="39.5938"/><ellipse cx="411.5" cy="55.5938" fill="#ADD1B2" rx="11" ry="11" style="stroke: #A80036; stroke-width: 1.0;"/><path d="M413.8438,51.2656 C412.9063,50.8281 412.3125,50.6875 411.4375,50.6875 C408.8125,50.6875 406.8125,52.7656 406.8125,55.4844 L406.8125,56.6094 C406.8125,59.1875 408.9219,61.0781 411.8125,61.0781 C413.0313,61.0781 414.1875,60.7813 414.9375,60.2344 C415.5156,59.8281 415.8438,59.375 415.8438,58.9844 C415.8438,58.5313 415.4531,58.1406 414.9844,58.1406 C414.7656,58.1406 414.5625,58.2188 414.375,58.4063 C413.9219,58.8906 413.9219,58.8906 413.7344,58.9844 C413.3125,59.25 412.625,59.375 411.8594,59.375 C409.8125,59.375 408.5156,58.2813 408.5156,56.5781 L408.5156,55.4844 C408.5156,53.7031 409.7656,52.3906 411.5,52.3906 C412.0781,52.3906 412.6875,52.5469 413.1563,52.7969 C413.6406,53.0781 413.8125,53.2969 413.9063,53.7031 C413.9688,54.1094 414,54.2344 414.1406,54.3594 C414.2813,54.5 414.5156,54.6094 414.7344,54.6094 C415,54.6094 415.2656,54.4688 415.4375,54.25 C415.5469,54.0938 415.5781,53.9063 415.5781,53.4844 L415.5781,52.0625 C415.5781,51.625 415.5625,51.5 415.4688,51.3438 C415.3125,51.0781 415.0313,50.9375 414.7344,50.9375 C414.4375,50.9375 414.2344,51.0313 414.0156,51.3438 L413.8438,51.2656 Z "/><text fill="#000000" font-family="sans-serif" font-size="12" lengthAdjust="spacingAndGlyphs" textLength="62" x="425.5" y="59.748">sf:Polygon</text><line style="stroke: #A80036; stroke-width: 1.5;" x1="397.5" x2="489.5" y1="71.5938" y2="71.5938"/><line style="stroke: #A80036; stroke-width: 1.5;" x1="397.5" x2="489.5" y1="79.5938" y2="79.5938"/><!--MD5=[0169b4c160c1d1627128d322d53ed76e]
class tern-loc:Polygon--><a href="https://w3id.org/tern/ontologies/loc/Polygon" target="_top" title="https://w3id.org/tern/ontologies/loc/Polygon" xlink:actuate="onRequest" xlink:href="https://w3id.org/tern/ontologies/loc/Polygon" xlink:show="new" xlink:title="https://w3id.org/tern/ontologies/loc/Polygon" xlink:type="simple"><rect codeLine="9" fill="#FEFECE" filter="url(#f1gdhu4wf9fd9q)" height="48" id="tern-loc:Polygon" style="stroke: #A80036; stroke-width: 1.5;" width="130" x="378.5" y="147.5938"/><ellipse cx="393.5" cy="163.5938" fill="#ADD1B2" rx="11" ry="11" style="stroke: #A80036; stroke-width: 1.0;"/><path d="M395.8438,159.2656 C394.9063,158.8281 394.3125,158.6875 393.4375,158.6875 C390.8125,158.6875 388.8125,160.7656 388.8125,163.4844 L388.8125,164.6094 C388.8125,167.1875 390.9219,169.0781 393.8125,169.0781 C395.0313,169.0781 396.1875,168.7813 396.9375,168.2344 C397.5156,167.8281 397.8438,167.375 397.8438,166.9844 C397.8438,166.5313 397.4531,166.1406 396.9844,166.1406 C396.7656,166.1406 396.5625,166.2188 396.375,166.4063 C395.9219,166.8906 395.9219,166.8906 395.7344,166.9844 C395.3125,167.25 394.625,167.375 393.8594,167.375 C391.8125,167.375 390.5156,166.2813 390.5156,164.5781 L390.5156,163.4844 C390.5156,161.7031 391.7656,160.3906 393.5,160.3906 C394.0781,160.3906 394.6875,160.5469 395.1563,160.7969 C395.6406,161.0781 395.8125,161.2969 395.9063,161.7031 C395.9688,162.1094 396,162.2344 396.1406,162.3594 C396.2813,162.5 396.5156,162.6094 396.7344,162.6094 C397,162.6094 397.2656,162.4688 397.4375,162.25 C397.5469,162.0938 397.5781,161.9063 397.5781,161.4844 L397.5781,160.0625 C397.5781,159.625 397.5625,159.5 397.4688,159.3438 C397.3125,159.0781 397.0313,158.9375 396.7344,158.9375 C396.4375,158.9375 396.2344,159.0313 396.0156,159.3438 L395.8438,159.2656 Z "/><text fill="#000000" font-family="sans-serif" font-size="12" lengthAdjust="spacingAndGlyphs" textLength="98" x="407.5" y="167.748">tern-loc:Polygon</text><line style="stroke: #A80036; stroke-width: 1.5;" x1="379.5" x2="507.5" y1="179.5938" y2="179.5938"/><line style="stroke: #A80036; stroke-width: 1.5;" x1="379.5" x2="507.5" y1="187.5938" y2="187.5938"/></a><!--MD5=[f6be3c52ce9b6300cb295795c7aca351]
class sf:LineString--><rect fill="#FEFECE" filter="url(#f1gdhu4wf9fd9q)" height="48" id="sf:LineString" style="stroke: #A80036; stroke-width: 1.5;" width="106" x="561.5" y="39.5938"/><ellipse cx="576.5" cy="55.5938" fill="#ADD1B2" rx="11" ry="11" style="stroke: #A80036; stroke-width: 1.0;"/><path d="M578.8438,51.2656 C577.9063,50.8281 577.3125,50.6875 576.4375,50.6875 C573.8125,50.6875 571.8125,52.7656 571.8125,55.4844 L571.8125,56.6094 C571.8125,59.1875 573.9219,61.0781 576.8125,61.0781 C578.0313,61.0781 579.1875,60.7813 579.9375,60.2344 C580.5156,59.8281 580.8438,59.375 580.8438,58.9844 C580.8438,58.5313 580.4531,58.1406 579.9844,58.1406 C579.7656,58.1406 579.5625,58.2188 579.375,58.4063 C578.9219,58.8906 578.9219,58.8906 578.7344,58.9844 C578.3125,59.25 577.625,59.375 576.8594,59.375 C574.8125,59.375 573.5156,58.2813 573.5156,56.5781 L573.5156,55.4844 C573.5156,53.7031 574.7656,52.3906 576.5,52.3906 C577.0781,52.3906 577.6875,52.5469 578.1563,52.7969 C578.6406,53.0781 578.8125,53.2969 578.9063,53.7031 C578.9688,54.1094 579,54.2344 579.1406,54.3594 C579.2813,54.5 579.5156,54.6094 579.7344,54.6094 C580,54.6094 580.2656,54.4688 580.4375,54.25 C580.5469,54.0938 580.5781,53.9063 580.5781,53.4844 L580.5781,52.0625 C580.5781,51.625 580.5625,51.5 580.4688,51.3438 C580.3125,51.0781 580.0313,50.9375 579.7344,50.9375 C579.4375,50.9375 579.2344,51.0313 579.0156,51.3438 L578.8438,51.2656 Z "/><text fill="#000000" font-family="sans-serif" font-size="12" lengthAdjust="spacingAndGlyphs" textLength="74" x="590.5" y="59.748">sf:LineString</text><line style="stroke: #A80036; stroke-width: 1.5;" x1="562.5" x2="666.5" y1="71.5938" y2="71.5938"/><line style="stroke: #A80036; stroke-width: 1.5;" x1="562.5" x2="666.5" y1="79.5938" y2="79.5938"/><!--MD5=[8769ba710cd4c62aec428e033c91e43d]
class tern-loc:LineString--><a href="https://w3id.org/tern/ontologies/loc/LineString" target="_top" title="https://w3id.org/tern/ontologies/loc/LineString" xlink:actuate="onRequest" xlink:href="https://w3id.org/tern/ontologies/loc/LineString" xlink:show="new" xlink:title="https://w3id.org/tern/ontologies/loc/LineString" xlink:type="simple"><rect codeLine="11" fill="#FEFECE" filter="url(#f1gdhu4wf9fd9q)" height="48" id="tern-loc:LineString" style="stroke: #A80036; stroke-width: 1.5;" width="142" x="543.5" y="147.5938"/><ellipse cx="558.5" cy="163.5938" fill="#ADD1B2" rx="11" ry="11" style="stroke: #A80036; stroke-width: 1.0;"/><path d="M560.8438,159.2656 C559.9063,158.8281 559.3125,158.6875 558.4375,158.6875 C555.8125,158.6875 553.8125,160.7656 553.8125,163.4844 L553.8125,164.6094 C553.8125,167.1875 555.9219,169.0781 558.8125,169.0781 C560.0313,169.0781 561.1875,168.7813 561.9375,168.2344 C562.5156,167.8281 562.8438,167.375 562.8438,166.9844 C562.8438,166.5313 562.4531,166.1406 561.9844,166.1406 C561.7656,166.1406 561.5625,166.2188 561.375,166.4063 C560.9219,166.8906 560.9219,166.8906 560.7344,166.9844 C560.3125,167.25 559.625,167.375 558.8594,167.375 C556.8125,167.375 555.5156,166.2813 555.5156,164.5781 L555.5156,163.4844 C555.5156,161.7031 556.7656,160.3906 558.5,160.3906 C559.0781,160.3906 559.6875,160.5469 560.1563,160.7969 C560.6406,161.0781 560.8125,161.2969 560.9063,161.7031 C560.9688,162.1094 561,162.2344 561.1406,162.3594 C561.2813,162.5 561.5156,162.6094 561.7344,162.6094 C562,162.6094 562.2656,162.4688 562.4375,162.25 C562.5469,162.0938 562.5781,161.9063 562.5781,161.4844 L562.5781,160.0625 C562.5781,159.625 562.5625,159.5 562.4688,159.3438 C562.3125,159.0781 562.0313,158.9375 561.7344,158.9375 C561.4375,158.9375 561.2344,159.0313 561.0156,159.3438 L560.8438,159.2656 Z "/><text fill="#000000" font-family="sans-serif" font-size="12" lengthAdjust="spacingAndGlyphs" textLength="110" x="572.5" y="167.748">tern-loc:LineString</text><line style="stroke: #A80036; stroke-width: 1.5;" x1="544.5" x2="684.5" y1="179.5938" y2="179.5938"/><line style="stroke: #A80036; stroke-width: 1.5;" x1="544.5" x2="684.5" y1="187.5938" y2="187.5938"/></a><!--MD5=[d68c5b1816c22edfe60892291c0b4b30]
reverse link locn:Geometry to tern-loc:Point--><path codeLine="2" d="M112.212,100.2291 C131.675,115.741 153.938,133.484 171.238,147.2722 " fill="none" id="locn:Geometry&lt;-tern-loc:Point" style="stroke: #A80036; stroke-width: 1.0;"/><polygon fill="none" points="107.637,105.5336,96.359,87.5938,116.362,94.5858,107.637,105.5336" style="stroke: #A80036; stroke-width: 1.0;"/><!--MD5=[29f7f1c9da998e3e1cb0828a9900b6c8]
reverse link sf:Point to tern-loc:Point--><path codeLine="3" d="M200.5,107.6174 C200.5,121.173 200.5,135.6319 200.5,147.2722 " fill="none" id="sf:Point&lt;-tern-loc:Point" style="stroke: #A80036; stroke-width: 1.0;"/><polygon fill="none" points="193.5,107.5943,200.5,87.5938,207.5,107.5942,193.5,107.5943" style="stroke: #A80036; stroke-width: 1.0;"/><!--MD5=[8c2aa92d6514d17a4ce697438d39211d]
reverse link geo:Point to tern-loc:Point--><path codeLine="4" d="M277.131,101.1671 C260.26,116.4527 241.155,133.7611 226.242,147.2722 " fill="none" id="geo:Point&lt;-tern-loc:Point" style="stroke: #A80036; stroke-width: 1.0;"/><polygon fill="none" points="272.591,95.8349,292.113,87.5938,281.991,106.2101,272.591,95.8349" style="stroke: #A80036; stroke-width: 1.0;"/><!--MD5=[51a7cfd66038ce77a5a433efcd013f3a]
reverse link sf:Polygon to tern-loc:Polygon--><path codeLine="5" d="M443.5,107.6174 C443.5,121.173 443.5,135.6319 443.5,147.2722 " fill="none" id="sf:Polygon&lt;-tern-loc:Polygon" style="stroke: #A80036; stroke-width: 1.0;"/><polygon fill="none" points="436.5,107.5943,443.5,87.5938,450.5,107.5942,436.5,107.5943" style="stroke: #A80036; stroke-width: 1.0;"/><!--MD5=[718676226f92dcfe37e256519b7a4772]
reverse link sf:LineString to tern-loc:LineString--><path codeLine="6" d="M614.5,107.6174 C614.5,121.173 614.5,135.6319 614.5,147.2722 " fill="none" id="sf:LineString&lt;-tern-loc:LineString" style="stroke: #A80036; stroke-width: 1.0;"/><polygon fill="none" points="607.5,107.5943,614.5,87.5938,621.5,107.5942,607.5,107.5943" style="stroke: #A80036; stroke-width: 1.0;"/><text fill="#888888" font-family="sans-serif" font-size="10" lengthAdjust="spacingAndGlyphs" textLength="74" x="189.75" y="217.876">Generated by</text><a href="https://github.com/edmondchuc/ontogram" target="_top" title="https://github.com/edmondchuc/ontogram" xlink:actuate="onRequest" xlink:href="https://github.com/edmondchuc/ontogram" xlink:show="new" xlink:title="https://github.com/edmondchuc/ontogram" xlink:type="simple"><text fill="#0000FF" font-family="sans-serif" font-size="10" lengthAdjust="spacingAndGlyphs" text-decoration="underline" textLength="230" x="266.75" y="217.876">https://github.com/edmondchuc/ontogram</text></a><!--MD5=[43c844bd49c886d405a689da9b58a6f5]
@startuml
title TERN Location Alignment Ontology
"locn:Geometry" <|- - "tern-loc:Point"
"sf:Point" <|- - "tern-loc:Point"
"geo:Point" <|- - "tern-loc:Point"
"sf:Polygon" <|- - "tern-loc:Polygon"
"sf:LineString" <|- - "tern-loc:LineString"
Class "tern-loc:Point" [[https://w3id.org/tern/ontologies/loc/Point]] {
}
Class "tern-loc:Polygon" [[https://w3id.org/tern/ontologies/loc/Polygon]] {
}
Class "tern-loc:LineString" [[https://w3id.org/tern/ontologies/loc/LineString]] {
}
header
Creator: Edmond Chuc (e.chuc@uq.edu.au) 
endheader
center footer Generated by [[https://github.com/edmondchuc/ontogram https://github.com/edmondchuc/ontogram]]
@enduml

PlantUML version 1.2020.16beta7(Unknown compile time)
(GPL source distribution)
Java Runtime: Java(TM) SE Runtime Environment
JVM: Java HotSpot(TM) 64-Bit Server VM
Default Encoding: UTF-8
Language: en
Country: US
--></g></svg>