<?xml version="1.0" encoding="UTF-8" standalone="no"?><svg xmlns="http://www.w3.org/2000/svg" xmlns:xlink="http://www.w3.org/1999/xlink" contentScriptType="application/ecmascript" contentStyleType="text/css" height="231px" preserveAspectRatio="none" style="width:1008px;height:231px;" version="1.1" viewBox="0 0 1008 231" width="1008px" zoomAndPan="magnify"><defs><filter height="300%" id="fyg7wn6b2vfaa" width="300%" x="-1" y="-1"><feGaussianBlur result="blurOut" stdDeviation="2.0"/><feColorMatrix in="blurOut" result="blurOut2" type="matrix" values="0 0 0 0 0 0 0 0 0 0 0 0 0 0 0 0 0 0 .4 0"/><feOffset dx="4.0" dy="4.0" in="blurOut2" result="blurOut3"/><feBlend in="SourceGraphic" in2="blurOut3" mode="normal"/></filter></defs><g><text fill="#888888" font-family="sans-serif" font-size="10" lengthAdjust="spacingAndGlyphs" textLength="236" x="754" y="9.2822">Creator: Edmond Chuc (e.chuc@uq.edu.au)</text><text fill="#000000" font-family="sans-serif" font-size="18" lengthAdjust="spacingAndGlyphs" textLength="323" x="333.5" y="28.3486">TERN Location Alignment Ontology</text><!--MD5=[f6be3c52ce9b6300cb295795c7aca351]
class sf:LineString--><rect fill="#FEFECE" filter="url(#fyg7wn6b2vfaa)" height="48" id="sf:LineString" style="stroke: #A80036; stroke-width: 1.5;" width="106" x="25" y="39.5938"/><ellipse cx="40" cy="55.5938" fill="#ADD1B2" rx="11" ry="11" style="stroke: #A80036; stroke-width: 1.0;"/><path d="M42.3438,51.2656 C41.4063,50.8281 40.8125,50.6875 39.9375,50.6875 C37.3125,50.6875 35.3125,52.7656 35.3125,55.4844 L35.3125,56.6094 C35.3125,59.1875 37.4219,61.0781 40.3125,61.0781 C41.5313,61.0781 42.6875,60.7813 43.4375,60.2344 C44.0156,59.8281 44.3438,59.375 44.3438,58.9844 C44.3438,58.5313 43.9531,58.1406 43.4844,58.1406 C43.2656,58.1406 43.0625,58.2188 42.875,58.4063 C42.4219,58.8906 42.4219,58.8906 42.2344,58.9844 C41.8125,59.25 41.125,59.375 40.3594,59.375 C38.3125,59.375 37.0156,58.2813 37.0156,56.5781 L37.0156,55.4844 C37.0156,53.7031 38.2656,52.3906 40,52.3906 C40.5781,52.3906 41.1875,52.5469 41.6563,52.7969 C42.1406,53.0781 42.3125,53.2969 42.4063,53.7031 C42.4688,54.1094 42.5,54.2344 42.6406,54.3594 C42.7813,54.5 43.0156,54.6094 43.2344,54.6094 C43.5,54.6094 43.7656,54.4688 43.9375,54.25 C44.0469,54.0938 44.0781,53.9063 44.0781,53.4844 L44.0781,52.0625 C44.0781,51.625 44.0625,51.5 43.9688,51.3438 C43.8125,51.0781 43.5313,50.9375 43.2344,50.9375 C42.9375,50.9375 42.7344,51.0313 42.5156,51.3438 L42.3438,51.2656 Z "/><text fill="#000000" font-family="sans-serif" font-size="12" lengthAdjust="spacingAndGlyphs" textLength="74" x="54" y="59.748">sf:LineString</text><line style="stroke: #A80036; stroke-width: 1.5;" x1="26" x2="130" y1="71.5938" y2="71.5938"/><line style="stroke: #A80036; stroke-width: 1.5;" x1="26" x2="130" y1="79.5938" y2="79.5938"/><!--MD5=[8769ba710cd4c62aec428e033c91e43d]
class tern-loc:LineString--><a href="https://w3id.org/tern/ontologies/loc/LineString" target="_top" title="https://w3id.org/tern/ontologies/loc/LineString" xlink:actuate="onRequest" xlink:href="https://w3id.org/tern/ontologies/loc/LineString" xlink:show="new" xlink:title="https://w3id.org/tern/ontologies/loc/LineString" xlink:type="simple"><rect codeLine="9" fill="#FEFECE" filter="url(#fyg7wn6b2vfaa)" height="48" id="tern-loc:LineString" style="stroke: #A80036; stroke-width: 1.5;" width="142" x="7" y="147.5938"/><ellipse cx="22" cy="163.5938" fill="#ADD1B2" rx="11" ry="11" style="stroke: #A80036; stroke-width: 1.0;"/><path d="M24.3438,159.2656 C23.4063,158.8281 22.8125,158.6875 21.9375,158.6875 C19.3125,158.6875 17.3125,160.7656 17.3125,163.4844 L17.3125,164.6094 C17.3125,167.1875 19.4219,169.0781 22.3125,169.0781 C23.5313,169.0781 24.6875,168.7813 25.4375,168.2344 C26.0156,167.8281 26.3438,167.375 26.3438,166.9844 C26.3438,166.5313 25.9531,166.1406 25.4844,166.1406 C25.2656,166.1406 25.0625,166.2188 24.875,166.4063 C24.4219,166.8906 24.4219,166.8906 24.2344,166.9844 C23.8125,167.25 23.125,167.375 22.3594,167.375 C20.3125,167.375 19.0156,166.2813 19.0156,164.5781 L19.0156,163.4844 C19.0156,161.7031 20.2656,160.3906 22,160.3906 C22.5781,160.3906 23.1875,160.5469 23.6563,160.7969 C24.1406,161.0781 24.3125,161.2969 24.4063,161.7031 C24.4688,162.1094 24.5,162.2344 24.6406,162.3594 C24.7813,162.5 25.0156,162.6094 25.2344,162.6094 C25.5,162.6094 25.7656,162.4688 25.9375,162.25 C26.0469,162.0938 26.0781,161.9063 26.0781,161.4844 L26.0781,160.0625 C26.0781,159.625 26.0625,159.5 25.9688,159.3438 C25.8125,159.0781 25.5313,158.9375 25.2344,158.9375 C24.9375,158.9375 24.7344,159.0313 24.5156,159.3438 L24.3438,159.2656 Z "/><text fill="#000000" font-family="sans-serif" font-size="12" lengthAdjust="spacingAndGlyphs" textLength="110" x="36" y="167.748">tern-loc:LineString</text><line style="stroke: #A80036; stroke-width: 1.5;" x1="8" x2="148" y1="179.5938" y2="179.5938"/><line style="stroke: #A80036; stroke-width: 1.5;" x1="8" x2="148" y1="187.5938" y2="187.5938"/></a><!--MD5=[06a0b58d9040550ef5280287aedb19f7]
class sf:Point--><rect fill="#FEFECE" filter="url(#fyg7wn6b2vfaa)" height="48" id="sf:Point" style="stroke: #A80036; stroke-width: 1.5;" width="75" x="166.5" y="39.5938"/><ellipse cx="181.5" cy="55.5938" fill="#ADD1B2" rx="11" ry="11" style="stroke: #A80036; stroke-width: 1.0;"/><path d="M183.8438,51.2656 C182.9063,50.8281 182.3125,50.6875 181.4375,50.6875 C178.8125,50.6875 176.8125,52.7656 176.8125,55.4844 L176.8125,56.6094 C176.8125,59.1875 178.9219,61.0781 181.8125,61.0781 C183.0313,61.0781 184.1875,60.7813 184.9375,60.2344 C185.5156,59.8281 185.8438,59.375 185.8438,58.9844 C185.8438,58.5313 185.4531,58.1406 184.9844,58.1406 C184.7656,58.1406 184.5625,58.2188 184.375,58.4063 C183.9219,58.8906 183.9219,58.8906 183.7344,58.9844 C183.3125,59.25 182.625,59.375 181.8594,59.375 C179.8125,59.375 178.5156,58.2813 178.5156,56.5781 L178.5156,55.4844 C178.5156,53.7031 179.7656,52.3906 181.5,52.3906 C182.0781,52.3906 182.6875,52.5469 183.1563,52.7969 C183.6406,53.0781 183.8125,53.2969 183.9063,53.7031 C183.9688,54.1094 184,54.2344 184.1406,54.3594 C184.2813,54.5 184.5156,54.6094 184.7344,54.6094 C185,54.6094 185.2656,54.4688 185.4375,54.25 C185.5469,54.0938 185.5781,53.9063 185.5781,53.4844 L185.5781,52.0625 C185.5781,51.625 185.5625,51.5 185.4688,51.3438 C185.3125,51.0781 185.0313,50.9375 184.7344,50.9375 C184.4375,50.9375 184.2344,51.0313 184.0156,51.3438 L183.8438,51.2656 Z "/><text fill="#000000" font-family="sans-serif" font-size="12" lengthAdjust="spacingAndGlyphs" textLength="43" x="195.5" y="59.748">sf:Point</text><line style="stroke: #A80036; stroke-width: 1.5;" x1="167.5" x2="240.5" y1="71.5938" y2="71.5938"/><line style="stroke: #A80036; stroke-width: 1.5;" x1="167.5" x2="240.5" y1="79.5938" y2="79.5938"/><!--MD5=[b67d05c86b32bf3c0f7bf9b2b1a33612]
class tern-loc:Point--><a href="https://w3id.org/tern/ontologies/loc/Point" target="_top" title="https://w3id.org/tern/ontologies/loc/Point" xlink:actuate="onRequest" xlink:href="https://w3id.org/tern/ontologies/loc/Point" xlink:show="new" xlink:title="https://w3id.org/tern/ontologies/loc/Point" xlink:type="simple"><rect codeLine="11" fill="#FEFECE" filter="url(#fyg7wn6b2vfaa)" height="48" id="tern-loc:Point" style="stroke: #A80036; stroke-width: 1.5;" width="111" x="265.5" y="147.5938"/><ellipse cx="280.5" cy="163.5938" fill="#ADD1B2" rx="11" ry="11" style="stroke: #A80036; stroke-width: 1.0;"/><path d="M282.8438,159.2656 C281.9063,158.8281 281.3125,158.6875 280.4375,158.6875 C277.8125,158.6875 275.8125,160.7656 275.8125,163.4844 L275.8125,164.6094 C275.8125,167.1875 277.9219,169.0781 280.8125,169.0781 C282.0313,169.0781 283.1875,168.7813 283.9375,168.2344 C284.5156,167.8281 284.8438,167.375 284.8438,166.9844 C284.8438,166.5313 284.4531,166.1406 283.9844,166.1406 C283.7656,166.1406 283.5625,166.2188 283.375,166.4063 C282.9219,166.8906 282.9219,166.8906 282.7344,166.9844 C282.3125,167.25 281.625,167.375 280.8594,167.375 C278.8125,167.375 277.5156,166.2813 277.5156,164.5781 L277.5156,163.4844 C277.5156,161.7031 278.7656,160.3906 280.5,160.3906 C281.0781,160.3906 281.6875,160.5469 282.1563,160.7969 C282.6406,161.0781 282.8125,161.2969 282.9063,161.7031 C282.9688,162.1094 283,162.2344 283.1406,162.3594 C283.2813,162.5 283.5156,162.6094 283.7344,162.6094 C284,162.6094 284.2656,162.4688 284.4375,162.25 C284.5469,162.0938 284.5781,161.9063 284.5781,161.4844 L284.5781,160.0625 C284.5781,159.625 284.5625,159.5 284.4688,159.3438 C284.3125,159.0781 284.0313,158.9375 283.7344,158.9375 C283.4375,158.9375 283.2344,159.0313 283.0156,159.3438 L282.8438,159.2656 Z "/><text fill="#000000" font-family="sans-serif" font-size="12" lengthAdjust="spacingAndGlyphs" textLength="79" x="294.5" y="167.748">tern-loc:Point</text><line style="stroke: #A80036; stroke-width: 1.5;" x1="266.5" x2="375.5" y1="179.5938" y2="179.5938"/><line style="stroke: #A80036; stroke-width: 1.5;" x1="266.5" x2="375.5" y1="187.5938" y2="187.5938"/></a><!--MD5=[4b4dc00f06a8a0ae0f42cf5f98def9ae]
class geo:Point--><rect fill="#FEFECE" filter="url(#fyg7wn6b2vfaa)" height="48" id="geo:Point" style="stroke: #A80036; stroke-width: 1.5;" width="88" x="277" y="39.5938"/><ellipse cx="292" cy="55.5938" fill="#ADD1B2" rx="11" ry="11" style="stroke: #A80036; stroke-width: 1.0;"/><path d="M294.3438,51.2656 C293.4063,50.8281 292.8125,50.6875 291.9375,50.6875 C289.3125,50.6875 287.3125,52.7656 287.3125,55.4844 L287.3125,56.6094 C287.3125,59.1875 289.4219,61.0781 292.3125,61.0781 C293.5313,61.0781 294.6875,60.7813 295.4375,60.2344 C296.0156,59.8281 296.3438,59.375 296.3438,58.9844 C296.3438,58.5313 295.9531,58.1406 295.4844,58.1406 C295.2656,58.1406 295.0625,58.2188 294.875,58.4063 C294.4219,58.8906 294.4219,58.8906 294.2344,58.9844 C293.8125,59.25 293.125,59.375 292.3594,59.375 C290.3125,59.375 289.0156,58.2813 289.0156,56.5781 L289.0156,55.4844 C289.0156,53.7031 290.2656,52.3906 292,52.3906 C292.5781,52.3906 293.1875,52.5469 293.6563,52.7969 C294.1406,53.0781 294.3125,53.2969 294.4063,53.7031 C294.4688,54.1094 294.5,54.2344 294.6406,54.3594 C294.7813,54.5 295.0156,54.6094 295.2344,54.6094 C295.5,54.6094 295.7656,54.4688 295.9375,54.25 C296.0469,54.0938 296.0781,53.9063 296.0781,53.4844 L296.0781,52.0625 C296.0781,51.625 296.0625,51.5 295.9688,51.3438 C295.8125,51.0781 295.5313,50.9375 295.2344,50.9375 C294.9375,50.9375 294.7344,51.0313 294.5156,51.3438 L294.3438,51.2656 Z "/><text fill="#000000" font-family="sans-serif" font-size="12" lengthAdjust="spacingAndGlyphs" textLength="56" x="306" y="59.748">geo:Point</text><line style="stroke: #A80036; stroke-width: 1.5;" x1="278" x2="364" y1="71.5938" y2="71.5938"/><line style="stroke: #A80036; stroke-width: 1.5;" x1="278" x2="364" y1="79.5938" y2="79.5938"/><!--MD5=[cd48ee8575308cff07b85b42a6074af1]
class locn:Geometry--><rect fill="#FEFECE" filter="url(#fyg7wn6b2vfaa)" height="48" id="locn:Geometry" style="stroke: #A80036; stroke-width: 1.5;" width="121" x="400.5" y="39.5938"/><ellipse cx="415.5" cy="55.5938" fill="#ADD1B2" rx="11" ry="11" style="stroke: #A80036; stroke-width: 1.0;"/><path d="M417.8438,51.2656 C416.9063,50.8281 416.3125,50.6875 415.4375,50.6875 C412.8125,50.6875 410.8125,52.7656 410.8125,55.4844 L410.8125,56.6094 C410.8125,59.1875 412.9219,61.0781 415.8125,61.0781 C417.0313,61.0781 418.1875,60.7813 418.9375,60.2344 C419.5156,59.8281 419.8438,59.375 419.8438,58.9844 C419.8438,58.5313 419.4531,58.1406 418.9844,58.1406 C418.7656,58.1406 418.5625,58.2188 418.375,58.4063 C417.9219,58.8906 417.9219,58.8906 417.7344,58.9844 C417.3125,59.25 416.625,59.375 415.8594,59.375 C413.8125,59.375 412.5156,58.2813 412.5156,56.5781 L412.5156,55.4844 C412.5156,53.7031 413.7656,52.3906 415.5,52.3906 C416.0781,52.3906 416.6875,52.5469 417.1563,52.7969 C417.6406,53.0781 417.8125,53.2969 417.9063,53.7031 C417.9688,54.1094 418,54.2344 418.1406,54.3594 C418.2813,54.5 418.5156,54.6094 418.7344,54.6094 C419,54.6094 419.2656,54.4688 419.4375,54.25 C419.5469,54.0938 419.5781,53.9063 419.5781,53.4844 L419.5781,52.0625 C419.5781,51.625 419.5625,51.5 419.4688,51.3438 C419.3125,51.0781 419.0313,50.9375 418.7344,50.9375 C418.4375,50.9375 418.2344,51.0313 418.0156,51.3438 L417.8438,51.2656 Z "/><text fill="#000000" font-family="sans-serif" font-size="12" lengthAdjust="spacingAndGlyphs" textLength="89" x="429.5" y="59.748">locn:Geometry</text><line style="stroke: #A80036; stroke-width: 1.5;" x1="401.5" x2="520.5" y1="71.5938" y2="71.5938"/><line style="stroke: #A80036; stroke-width: 1.5;" x1="401.5" x2="520.5" y1="79.5938" y2="79.5938"/><!--MD5=[4b0e6ae39ede3f8987ca028c00a13af1]
class geosparql:Feature--><rect fill="#FEFECE" filter="url(#fyg7wn6b2vfaa)" height="48" id="geosparql:Feature" style="stroke: #A80036; stroke-width: 1.5;" width="144" x="557" y="39.5938"/><ellipse cx="572" cy="55.5938" fill="#ADD1B2" rx="11" ry="11" style="stroke: #A80036; stroke-width: 1.0;"/><path d="M574.3438,51.2656 C573.4063,50.8281 572.8125,50.6875 571.9375,50.6875 C569.3125,50.6875 567.3125,52.7656 567.3125,55.4844 L567.3125,56.6094 C567.3125,59.1875 569.4219,61.0781 572.3125,61.0781 C573.5313,61.0781 574.6875,60.7813 575.4375,60.2344 C576.0156,59.8281 576.3438,59.375 576.3438,58.9844 C576.3438,58.5313 575.9531,58.1406 575.4844,58.1406 C575.2656,58.1406 575.0625,58.2188 574.875,58.4063 C574.4219,58.8906 574.4219,58.8906 574.2344,58.9844 C573.8125,59.25 573.125,59.375 572.3594,59.375 C570.3125,59.375 569.0156,58.2813 569.0156,56.5781 L569.0156,55.4844 C569.0156,53.7031 570.2656,52.3906 572,52.3906 C572.5781,52.3906 573.1875,52.5469 573.6563,52.7969 C574.1406,53.0781 574.3125,53.2969 574.4063,53.7031 C574.4688,54.1094 574.5,54.2344 574.6406,54.3594 C574.7813,54.5 575.0156,54.6094 575.2344,54.6094 C575.5,54.6094 575.7656,54.4688 575.9375,54.25 C576.0469,54.0938 576.0781,53.9063 576.0781,53.4844 L576.0781,52.0625 C576.0781,51.625 576.0625,51.5 575.9688,51.3438 C575.8125,51.0781 575.5313,50.9375 575.2344,50.9375 C574.9375,50.9375 574.7344,51.0313 574.5156,51.3438 L574.3438,51.2656 Z "/><text fill="#000000" font-family="sans-serif" font-size="12" lengthAdjust="spacingAndGlyphs" textLength="112" x="586" y="59.748">geosparql:Feature</text><line style="stroke: #A80036; stroke-width: 1.5;" x1="558" x2="700" y1="71.5938" y2="71.5938"/><line style="stroke: #A80036; stroke-width: 1.5;" x1="558" x2="700" y1="79.5938" y2="79.5938"/><!--MD5=[7ecc5781a96ada1a225cc3afb1eb8f46]
class tern-loc:Location--><a href="https://w3id.org/tern/ontologies/loc/Location" target="_top" title="https://w3id.org/tern/ontologies/loc/Location" xlink:actuate="onRequest" xlink:href="https://w3id.org/tern/ontologies/loc/Location" xlink:show="new" xlink:title="https://w3id.org/tern/ontologies/loc/Location" xlink:type="simple"><rect codeLine="13" fill="#FEFECE" filter="url(#fyg7wn6b2vfaa)" height="48" id="tern-loc:Location" style="stroke: #A80036; stroke-width: 1.5;" width="133" x="626.5" y="147.5938"/><ellipse cx="641.5" cy="163.5938" fill="#ADD1B2" rx="11" ry="11" style="stroke: #A80036; stroke-width: 1.0;"/><path d="M643.8438,159.2656 C642.9063,158.8281 642.3125,158.6875 641.4375,158.6875 C638.8125,158.6875 636.8125,160.7656 636.8125,163.4844 L636.8125,164.6094 C636.8125,167.1875 638.9219,169.0781 641.8125,169.0781 C643.0313,169.0781 644.1875,168.7813 644.9375,168.2344 C645.5156,167.8281 645.8438,167.375 645.8438,166.9844 C645.8438,166.5313 645.4531,166.1406 644.9844,166.1406 C644.7656,166.1406 644.5625,166.2188 644.375,166.4063 C643.9219,166.8906 643.9219,166.8906 643.7344,166.9844 C643.3125,167.25 642.625,167.375 641.8594,167.375 C639.8125,167.375 638.5156,166.2813 638.5156,164.5781 L638.5156,163.4844 C638.5156,161.7031 639.7656,160.3906 641.5,160.3906 C642.0781,160.3906 642.6875,160.5469 643.1563,160.7969 C643.6406,161.0781 643.8125,161.2969 643.9063,161.7031 C643.9688,162.1094 644,162.2344 644.1406,162.3594 C644.2813,162.5 644.5156,162.6094 644.7344,162.6094 C645,162.6094 645.2656,162.4688 645.4375,162.25 C645.5469,162.0938 645.5781,161.9063 645.5781,161.4844 L645.5781,160.0625 C645.5781,159.625 645.5625,159.5 645.4688,159.3438 C645.3125,159.0781 645.0313,158.9375 644.7344,158.9375 C644.4375,158.9375 644.2344,159.0313 644.0156,159.3438 L643.8438,159.2656 Z "/><text fill="#000000" font-family="sans-serif" font-size="12" lengthAdjust="spacingAndGlyphs" textLength="101" x="655.5" y="167.748">tern-loc:Location</text><line style="stroke: #A80036; stroke-width: 1.5;" x1="627.5" x2="758.5" y1="179.5938" y2="179.5938"/><line style="stroke: #A80036; stroke-width: 1.5;" x1="627.5" x2="758.5" y1="187.5938" y2="187.5938"/></a><!--MD5=[9655ad61792b4ed0d4f91a9adcbf26fa]
class dct:Location--><rect fill="#FEFECE" filter="url(#fyg7wn6b2vfaa)" height="48" id="dct:Location" style="stroke: #A80036; stroke-width: 1.5;" width="105" x="736.5" y="39.5938"/><ellipse cx="751.5" cy="55.5938" fill="#ADD1B2" rx="11" ry="11" style="stroke: #A80036; stroke-width: 1.0;"/><path d="M753.8438,51.2656 C752.9063,50.8281 752.3125,50.6875 751.4375,50.6875 C748.8125,50.6875 746.8125,52.7656 746.8125,55.4844 L746.8125,56.6094 C746.8125,59.1875 748.9219,61.0781 751.8125,61.0781 C753.0313,61.0781 754.1875,60.7813 754.9375,60.2344 C755.5156,59.8281 755.8438,59.375 755.8438,58.9844 C755.8438,58.5313 755.4531,58.1406 754.9844,58.1406 C754.7656,58.1406 754.5625,58.2188 754.375,58.4063 C753.9219,58.8906 753.9219,58.8906 753.7344,58.9844 C753.3125,59.25 752.625,59.375 751.8594,59.375 C749.8125,59.375 748.5156,58.2813 748.5156,56.5781 L748.5156,55.4844 C748.5156,53.7031 749.7656,52.3906 751.5,52.3906 C752.0781,52.3906 752.6875,52.5469 753.1563,52.7969 C753.6406,53.0781 753.8125,53.2969 753.9063,53.7031 C753.9688,54.1094 754,54.2344 754.1406,54.3594 C754.2813,54.5 754.5156,54.6094 754.7344,54.6094 C755,54.6094 755.2656,54.4688 755.4375,54.25 C755.5469,54.0938 755.5781,53.9063 755.5781,53.4844 L755.5781,52.0625 C755.5781,51.625 755.5625,51.5 755.4688,51.3438 C755.3125,51.0781 755.0313,50.9375 754.7344,50.9375 C754.4375,50.9375 754.2344,51.0313 754.0156,51.3438 L753.8438,51.2656 Z "/><text fill="#000000" font-family="sans-serif" font-size="12" lengthAdjust="spacingAndGlyphs" textLength="73" x="765.5" y="59.748">dct:Location</text><line style="stroke: #A80036; stroke-width: 1.5;" x1="737.5" x2="840.5" y1="71.5938" y2="71.5938"/><line style="stroke: #A80036; stroke-width: 1.5;" x1="737.5" x2="840.5" y1="79.5938" y2="79.5938"/><!--MD5=[681450c180318ac92d4d4448ad41864e]
class sf:Polygon--><rect fill="#FEFECE" filter="url(#fyg7wn6b2vfaa)" height="48" id="sf:Polygon" style="stroke: #A80036; stroke-width: 1.5;" width="94" x="877" y="39.5938"/><ellipse cx="892" cy="55.5938" fill="#ADD1B2" rx="11" ry="11" style="stroke: #A80036; stroke-width: 1.0;"/><path d="M894.3438,51.2656 C893.4063,50.8281 892.8125,50.6875 891.9375,50.6875 C889.3125,50.6875 887.3125,52.7656 887.3125,55.4844 L887.3125,56.6094 C887.3125,59.1875 889.4219,61.0781 892.3125,61.0781 C893.5313,61.0781 894.6875,60.7813 895.4375,60.2344 C896.0156,59.8281 896.3438,59.375 896.3438,58.9844 C896.3438,58.5313 895.9531,58.1406 895.4844,58.1406 C895.2656,58.1406 895.0625,58.2188 894.875,58.4063 C894.4219,58.8906 894.4219,58.8906 894.2344,58.9844 C893.8125,59.25 893.125,59.375 892.3594,59.375 C890.3125,59.375 889.0156,58.2813 889.0156,56.5781 L889.0156,55.4844 C889.0156,53.7031 890.2656,52.3906 892,52.3906 C892.5781,52.3906 893.1875,52.5469 893.6563,52.7969 C894.1406,53.0781 894.3125,53.2969 894.4063,53.7031 C894.4688,54.1094 894.5,54.2344 894.6406,54.3594 C894.7813,54.5 895.0156,54.6094 895.2344,54.6094 C895.5,54.6094 895.7656,54.4688 895.9375,54.25 C896.0469,54.0938 896.0781,53.9063 896.0781,53.4844 L896.0781,52.0625 C896.0781,51.625 896.0625,51.5 895.9688,51.3438 C895.8125,51.0781 895.5313,50.9375 895.2344,50.9375 C894.9375,50.9375 894.7344,51.0313 894.5156,51.3438 L894.3438,51.2656 Z "/><text fill="#000000" font-family="sans-serif" font-size="12" lengthAdjust="spacingAndGlyphs" textLength="62" x="906" y="59.748">sf:Polygon</text><line style="stroke: #A80036; stroke-width: 1.5;" x1="878" x2="970" y1="71.5938" y2="71.5938"/><line style="stroke: #A80036; stroke-width: 1.5;" x1="878" x2="970" y1="79.5938" y2="79.5938"/><!--MD5=[0169b4c160c1d1627128d322d53ed76e]
class tern-loc:Polygon--><a href="https://w3id.org/tern/ontologies/loc/Polygon" target="_top" title="https://w3id.org/tern/ontologies/loc/Polygon" xlink:actuate="onRequest" xlink:href="https://w3id.org/tern/ontologies/loc/Polygon" xlink:show="new" xlink:title="https://w3id.org/tern/ontologies/loc/Polygon" xlink:type="simple"><rect codeLine="15" fill="#FEFECE" filter="url(#fyg7wn6b2vfaa)" height="48" id="tern-loc:Polygon" style="stroke: #A80036; stroke-width: 1.5;" width="130" x="859" y="147.5938"/><ellipse cx="874" cy="163.5938" fill="#ADD1B2" rx="11" ry="11" style="stroke: #A80036; stroke-width: 1.0;"/><path d="M876.3438,159.2656 C875.4063,158.8281 874.8125,158.6875 873.9375,158.6875 C871.3125,158.6875 869.3125,160.7656 869.3125,163.4844 L869.3125,164.6094 C869.3125,167.1875 871.4219,169.0781 874.3125,169.0781 C875.5313,169.0781 876.6875,168.7813 877.4375,168.2344 C878.0156,167.8281 878.3438,167.375 878.3438,166.9844 C878.3438,166.5313 877.9531,166.1406 877.4844,166.1406 C877.2656,166.1406 877.0625,166.2188 876.875,166.4063 C876.4219,166.8906 876.4219,166.8906 876.2344,166.9844 C875.8125,167.25 875.125,167.375 874.3594,167.375 C872.3125,167.375 871.0156,166.2813 871.0156,164.5781 L871.0156,163.4844 C871.0156,161.7031 872.2656,160.3906 874,160.3906 C874.5781,160.3906 875.1875,160.5469 875.6563,160.7969 C876.1406,161.0781 876.3125,161.2969 876.4063,161.7031 C876.4688,162.1094 876.5,162.2344 876.6406,162.3594 C876.7813,162.5 877.0156,162.6094 877.2344,162.6094 C877.5,162.6094 877.7656,162.4688 877.9375,162.25 C878.0469,162.0938 878.0781,161.9063 878.0781,161.4844 L878.0781,160.0625 C878.0781,159.625 878.0625,159.5 877.9688,159.3438 C877.8125,159.0781 877.5313,158.9375 877.2344,158.9375 C876.9375,158.9375 876.7344,159.0313 876.5156,159.3438 L876.3438,159.2656 Z "/><text fill="#000000" font-family="sans-serif" font-size="12" lengthAdjust="spacingAndGlyphs" textLength="98" x="888" y="167.748">tern-loc:Polygon</text><line style="stroke: #A80036; stroke-width: 1.5;" x1="860" x2="988" y1="179.5938" y2="179.5938"/><line style="stroke: #A80036; stroke-width: 1.5;" x1="860" x2="988" y1="187.5938" y2="187.5938"/></a><!--MD5=[718676226f92dcfe37e256519b7a4772]
reverse link sf:LineString to tern-loc:LineString--><path codeLine="2" d="M78,107.6174 C78,121.173 78,135.6319 78,147.2722 " fill="none" id="sf:LineString-backto-tern-loc:LineString" style="stroke: #A80036; stroke-width: 1.0;"/><polygon fill="none" points="71.0001,107.5943,78,87.5938,85.0001,107.5942,71.0001,107.5943" style="stroke: #A80036; stroke-width: 1.0;"/><!--MD5=[29f7f1c9da998e3e1cb0828a9900b6c8]
reverse link sf:Point to tern-loc:Point--><path codeLine="3" d="M244.369,101.1671 C261.24,116.4527 280.345,133.7611 295.258,147.2722 " fill="none" id="sf:Point-backto-tern-loc:Point" style="stroke: #A80036; stroke-width: 1.0;"/><polygon fill="none" points="239.509,106.2101,229.387,87.5938,248.909,95.8349,239.509,106.2101" style="stroke: #A80036; stroke-width: 1.0;"/><!--MD5=[8c2aa92d6514d17a4ce697438d39211d]
reverse link geo:Point to tern-loc:Point--><path codeLine="4" d="M321,107.6174 C321,121.173 321,135.6319 321,147.2722 " fill="none" id="geo:Point-backto-tern-loc:Point" style="stroke: #A80036; stroke-width: 1.0;"/><polygon fill="none" points="314,107.5943,321,87.5938,328,107.5942,314,107.5943" style="stroke: #A80036; stroke-width: 1.0;"/><!--MD5=[d68c5b1816c22edfe60892291c0b4b30]
reverse link locn:Geometry to tern-loc:Point--><path codeLine="5" d="M414.551,99.762 C393.919,115.3839 370.196,133.3454 351.802,147.2722 " fill="none" id="locn:Geometry-backto-tern-loc:Point" style="stroke: #A80036; stroke-width: 1.0;"/><polygon fill="none" points="410.451,94.0858,430.622,87.5938,418.902,105.2478,410.451,94.0858" style="stroke: #A80036; stroke-width: 1.0;"/><!--MD5=[da62121c43f2d8e03a68865ec0fa3196]
reverse link geosparql:Feature to tern-loc:Location--><path codeLine="6" d="M653.232,104.7278 C661.905,119.093 671.389,134.8004 678.919,147.2722 " fill="none" id="geosparql:Feature-backto-tern-loc:Location" style="stroke: #A80036; stroke-width: 1.0;"/><polygon fill="none" points="647.232,108.3336,642.887,87.5938,659.217,101.0974,647.232,108.3336" style="stroke: #A80036; stroke-width: 1.0;"/><!--MD5=[afd1637b322d36e23c8bf8e52a24b922]
reverse link dct:Location to tern-loc:Location--><path codeLine="7" d="M754.379,102.8208 C740.912,117.6904 725.919,134.2461 714.121,147.2722 " fill="none" id="dct:Location-backto-tern-loc:Location" style="stroke: #A80036; stroke-width: 1.0;"/><polygon fill="none" points="749.555,97.7194,768.169,87.5938,759.932,107.1173,749.555,97.7194" style="stroke: #A80036; stroke-width: 1.0;"/><!--MD5=[51a7cfd66038ce77a5a433efcd013f3a]
reverse link sf:Polygon to tern-loc:Polygon--><path codeLine="8" d="M924,107.6174 C924,121.173 924,135.6319 924,147.2722 " fill="none" id="sf:Polygon-backto-tern-loc:Polygon" style="stroke: #A80036; stroke-width: 1.0;"/><polygon fill="none" points="917,107.5943,924,87.5938,931,107.5942,917,107.5943" style="stroke: #A80036; stroke-width: 1.0;"/><text fill="#888888" font-family="sans-serif" font-size="10" lengthAdjust="spacingAndGlyphs" textLength="74" x="341.5" y="217.876">Generated by</text><a href="https://github.com/edmondchuc/ontogram" target="_top" title="https://github.com/edmondchuc/ontogram" xlink:actuate="onRequest" xlink:href="https://github.com/edmondchuc/ontogram" xlink:show="new" xlink:title="https://github.com/edmondchuc/ontogram" xlink:type="simple"><text fill="#0000FF" font-family="sans-serif" font-size="10" lengthAdjust="spacingAndGlyphs" text-decoration="underline" textLength="230" x="418.5" y="217.876">https://github.com/edmondchuc/ontogram</text></a><!--MD5=[926200a6b0244eeb3de40240d59196fc]
@startuml
title TERN Location Alignment Ontology
"sf:LineString" <|- - "tern-loc:LineString"
"sf:Point" <|- - "tern-loc:Point"
"geo:Point" <|- - "tern-loc:Point"
"locn:Geometry" <|- - "tern-loc:Point"
"geosparql:Feature" <|- - "tern-loc:Location"
"dct:Location" <|- - "tern-loc:Location"
"sf:Polygon" <|- - "tern-loc:Polygon"
Class "tern-loc:LineString" [[https://w3id.org/tern/ontologies/loc/LineString]] {
}
Class "tern-loc:Point" [[https://w3id.org/tern/ontologies/loc/Point]] {
}
Class "tern-loc:Location" [[https://w3id.org/tern/ontologies/loc/Location]] {
}
Class "tern-loc:Polygon" [[https://w3id.org/tern/ontologies/loc/Polygon]] {
}
header
Creator: Edmond Chuc (e.chuc@uq.edu.au) 
endheader
center footer Generated by [[https://github.com/edmondchuc/ontogram https://github.com/edmondchuc/ontogram]]
@enduml

PlantUML version 1.2020.17beta5(Unknown compile time)
(GPL source distribution)
Java Runtime: Java(TM) SE Runtime Environment
JVM: Java HotSpot(TM) 64-Bit Server VM
Default Encoding: UTF-8
Language: en
Country: US
--></g></svg>